G04 EAGLE Gerber RS-274X export*
G75*
%MOMM*%
%FSLAX34Y34*%
%LPD*%
%INSoldermask Bottom*%
%IPPOS*%
%AMOC8*
5,1,8,0,0,1.08239X$1,22.5*%
G01*
%ADD10R,1.377000X0.402000*%
%ADD11R,3.127000X2.127000*%
%ADD12R,2.027000X1.527000*%
%ADD13R,1.527000X1.927000*%
%ADD14R,1.627000X0.827000*%
%ADD15R,1.367000X1.627000*%
%ADD16R,4.727000X1.127000*%
%ADD17R,3.527000X1.827000*%
%ADD18R,1.627000X1.367000*%
%ADD19R,3.527000X1.727000*%
%ADD20R,1.427000X1.327000*%
%ADD21R,1.527000X1.527000*%
%ADD22R,1.327000X1.627000*%
%ADD23R,1.027000X0.927000*%
%ADD24C,1.777000*%
%ADD25C,1.477000*%
%ADD26R,1.905000X1.027000*%
%ADD27R,0.927000X1.577000*%
%ADD28R,1.627000X1.327000*%
%ADD29C,1.651000*%
%ADD30C,3.643000*%
%ADD31C,1.127000*%
%ADD32C,0.500000*%
%ADD33C,2.127000*%
%ADD34R,0.887000X2.727000*%
%ADD35R,1.327000X0.427000*%
%ADD36R,0.427000X1.327000*%
%ADD37R,0.527000X1.477000*%
%ADD38R,1.727000X1.527000*%
%ADD39R,2.027000X2.027000*%
%ADD40C,1.927000*%
%ADD41R,1.327000X0.677000*%
%ADD42R,0.762000X1.143000*%
%ADD43R,0.727000X2.327000*%
%ADD44R,1.627000X1.427000*%
%ADD45R,2.827000X1.727000*%
%ADD46R,0.787400X2.159000*%
%ADD47R,2.927000X2.127000*%
%ADD48R,2.727000X2.927000*%
%ADD49R,2.927000X2.327000*%
%ADD50C,1.827000*%
%ADD51R,1.427000X1.627000*%
%ADD52R,1.327000X1.327000*%
%ADD53R,2.667000X1.651000*%
%ADD54R,3.175000X1.651000*%
%ADD55R,0.965200X0.584200*%
%ADD56C,0.364200*%
%ADD57R,1.727200X1.295400*%
%ADD58R,0.330200X0.762000*%
%ADD59C,2.667000*%
%ADD60R,1.827000X3.827000*%
%ADD61R,0.627000X1.377000*%
%ADD62R,3.827000X2.127000*%

G36*
X637658Y11446D02*
X637658Y11446D01*
X637777Y11453D01*
X637815Y11466D01*
X637856Y11471D01*
X637966Y11514D01*
X638079Y11551D01*
X638114Y11573D01*
X638151Y11588D01*
X638247Y11658D01*
X638348Y11721D01*
X638376Y11751D01*
X638409Y11774D01*
X638485Y11866D01*
X638566Y11953D01*
X638586Y11988D01*
X638611Y12019D01*
X638662Y12127D01*
X638720Y12231D01*
X638730Y12271D01*
X638747Y12307D01*
X638769Y12424D01*
X638799Y12539D01*
X638803Y12600D01*
X638807Y12620D01*
X638805Y12640D01*
X638809Y12700D01*
X638809Y38100D01*
X638794Y38218D01*
X638787Y38337D01*
X638774Y38375D01*
X638769Y38416D01*
X638726Y38526D01*
X638689Y38639D01*
X638667Y38674D01*
X638652Y38711D01*
X638583Y38807D01*
X638519Y38908D01*
X638489Y38936D01*
X638466Y38969D01*
X638374Y39045D01*
X638287Y39126D01*
X638252Y39146D01*
X638221Y39171D01*
X638113Y39222D01*
X638009Y39280D01*
X637969Y39290D01*
X637933Y39307D01*
X637816Y39329D01*
X637701Y39359D01*
X637641Y39363D01*
X637621Y39367D01*
X637600Y39365D01*
X637540Y39369D01*
X622300Y39369D01*
X622182Y39354D01*
X622063Y39347D01*
X622025Y39334D01*
X621984Y39329D01*
X621874Y39286D01*
X621761Y39249D01*
X621726Y39227D01*
X621689Y39212D01*
X621593Y39143D01*
X621492Y39079D01*
X621464Y39049D01*
X621431Y39026D01*
X621356Y38934D01*
X621274Y38847D01*
X621254Y38812D01*
X621229Y38781D01*
X621178Y38673D01*
X621120Y38569D01*
X621110Y38529D01*
X621093Y38493D01*
X621071Y38376D01*
X621041Y38261D01*
X621037Y38201D01*
X621033Y38181D01*
X621034Y38169D01*
X621033Y38166D01*
X621034Y38153D01*
X621031Y38100D01*
X621031Y12700D01*
X621046Y12582D01*
X621053Y12463D01*
X621066Y12425D01*
X621071Y12384D01*
X621114Y12274D01*
X621151Y12161D01*
X621173Y12126D01*
X621188Y12089D01*
X621258Y11993D01*
X621321Y11892D01*
X621351Y11864D01*
X621374Y11831D01*
X621466Y11756D01*
X621553Y11674D01*
X621588Y11654D01*
X621619Y11629D01*
X621727Y11578D01*
X621831Y11520D01*
X621871Y11510D01*
X621907Y11493D01*
X622024Y11471D01*
X622139Y11441D01*
X622200Y11437D01*
X622220Y11433D01*
X622240Y11435D01*
X622300Y11431D01*
X637540Y11431D01*
X637658Y11446D01*
G37*
D10*
X176532Y899634D03*
X176532Y894634D03*
X176532Y889634D03*
X176532Y884634D03*
X176532Y879634D03*
X176532Y874634D03*
X176532Y869634D03*
X176532Y864634D03*
X176532Y859634D03*
X176532Y854634D03*
X176532Y849634D03*
X176532Y844634D03*
X176532Y839634D03*
X176532Y834634D03*
X176532Y829634D03*
X176532Y824634D03*
X176532Y819634D03*
X176532Y814634D03*
X176532Y809634D03*
X176532Y804634D03*
X176532Y799634D03*
X176532Y794634D03*
X176532Y789634D03*
X176532Y784634D03*
D11*
X151932Y918134D03*
X151932Y767034D03*
D12*
X751350Y808800D03*
X760350Y676800D03*
D13*
X620350Y792800D03*
X620350Y732800D03*
D14*
X722350Y799800D03*
X722350Y788800D03*
X726350Y777800D03*
X722350Y766800D03*
X726350Y755800D03*
X722350Y744800D03*
X718350Y733800D03*
X722350Y722800D03*
D15*
X222860Y789940D03*
X203860Y789940D03*
X222860Y815340D03*
X203860Y815340D03*
X222860Y764540D03*
X203860Y764540D03*
X222860Y840740D03*
X203860Y840740D03*
X222860Y866140D03*
X203860Y866140D03*
X222860Y891540D03*
X203860Y891540D03*
X222860Y916940D03*
X203860Y916940D03*
D16*
X70020Y601500D03*
X70020Y581500D03*
D17*
X18020Y628500D03*
X18020Y514500D03*
D16*
X70020Y561500D03*
X70020Y541500D03*
D18*
X127000Y562000D03*
X127000Y581000D03*
D16*
X70180Y461960D03*
X70180Y441960D03*
D19*
X18180Y485960D03*
X18180Y397960D03*
D16*
X70180Y421960D03*
D20*
X124460Y482600D03*
X124460Y462280D03*
D21*
X124460Y438870D03*
X124460Y401870D03*
D15*
X142900Y944880D03*
X161900Y944880D03*
X142900Y972820D03*
X161900Y972820D03*
D21*
X134620Y1044660D03*
X134620Y1007660D03*
X101600Y1044660D03*
X101600Y1007660D03*
D18*
X68580Y1016660D03*
X68580Y1035660D03*
D21*
X35560Y1044660D03*
X35560Y1007660D03*
D22*
X74000Y991870D03*
X53000Y991870D03*
D23*
X101760Y950620D03*
X101760Y969620D03*
X122760Y960120D03*
D24*
X132710Y38100D03*
X52710Y38100D03*
D25*
X112710Y38100D03*
X92710Y38100D03*
X72710Y38100D03*
D26*
X22956Y933400D03*
X22956Y973400D03*
D27*
X5416Y921900D03*
X5416Y984900D03*
D16*
X70180Y721040D03*
X70180Y701040D03*
D19*
X18180Y745040D03*
X18180Y657040D03*
D16*
X70180Y681040D03*
D20*
X121920Y739140D03*
X121920Y718820D03*
D21*
X121920Y695410D03*
X121920Y658410D03*
D28*
X599694Y752770D03*
X599694Y773770D03*
D22*
X233340Y134620D03*
X254340Y134620D03*
D15*
X252120Y252222D03*
X271120Y252222D03*
D26*
X746664Y889558D03*
X746664Y849558D03*
D27*
X764204Y901058D03*
X764204Y838058D03*
D29*
X111760Y1088390D03*
X86360Y1088390D03*
X60960Y1088390D03*
D30*
X20320Y22860D03*
X749300Y22860D03*
D31*
X756920Y121920D03*
D32*
X764420Y121920D02*
X764418Y122101D01*
X764411Y122282D01*
X764400Y122463D01*
X764385Y122644D01*
X764365Y122824D01*
X764341Y123004D01*
X764313Y123183D01*
X764280Y123361D01*
X764243Y123538D01*
X764202Y123715D01*
X764157Y123890D01*
X764107Y124065D01*
X764053Y124238D01*
X763995Y124409D01*
X763933Y124580D01*
X763866Y124748D01*
X763796Y124915D01*
X763722Y125081D01*
X763643Y125244D01*
X763561Y125405D01*
X763475Y125565D01*
X763385Y125722D01*
X763291Y125877D01*
X763194Y126030D01*
X763092Y126180D01*
X762988Y126328D01*
X762879Y126474D01*
X762768Y126616D01*
X762652Y126756D01*
X762534Y126893D01*
X762412Y127028D01*
X762287Y127159D01*
X762159Y127287D01*
X762028Y127412D01*
X761893Y127534D01*
X761756Y127652D01*
X761616Y127768D01*
X761474Y127879D01*
X761328Y127988D01*
X761180Y128092D01*
X761030Y128194D01*
X760877Y128291D01*
X760722Y128385D01*
X760565Y128475D01*
X760405Y128561D01*
X760244Y128643D01*
X760081Y128722D01*
X759915Y128796D01*
X759748Y128866D01*
X759580Y128933D01*
X759409Y128995D01*
X759238Y129053D01*
X759065Y129107D01*
X758890Y129157D01*
X758715Y129202D01*
X758538Y129243D01*
X758361Y129280D01*
X758183Y129313D01*
X758004Y129341D01*
X757824Y129365D01*
X757644Y129385D01*
X757463Y129400D01*
X757282Y129411D01*
X757101Y129418D01*
X756920Y129420D01*
X756739Y129418D01*
X756558Y129411D01*
X756377Y129400D01*
X756196Y129385D01*
X756016Y129365D01*
X755836Y129341D01*
X755657Y129313D01*
X755479Y129280D01*
X755302Y129243D01*
X755125Y129202D01*
X754950Y129157D01*
X754775Y129107D01*
X754602Y129053D01*
X754431Y128995D01*
X754260Y128933D01*
X754092Y128866D01*
X753925Y128796D01*
X753759Y128722D01*
X753596Y128643D01*
X753435Y128561D01*
X753275Y128475D01*
X753118Y128385D01*
X752963Y128291D01*
X752810Y128194D01*
X752660Y128092D01*
X752512Y127988D01*
X752366Y127879D01*
X752224Y127768D01*
X752084Y127652D01*
X751947Y127534D01*
X751812Y127412D01*
X751681Y127287D01*
X751553Y127159D01*
X751428Y127028D01*
X751306Y126893D01*
X751188Y126756D01*
X751072Y126616D01*
X750961Y126474D01*
X750852Y126328D01*
X750748Y126180D01*
X750646Y126030D01*
X750549Y125877D01*
X750455Y125722D01*
X750365Y125565D01*
X750279Y125405D01*
X750197Y125244D01*
X750118Y125081D01*
X750044Y124915D01*
X749974Y124748D01*
X749907Y124580D01*
X749845Y124409D01*
X749787Y124238D01*
X749733Y124065D01*
X749683Y123890D01*
X749638Y123715D01*
X749597Y123538D01*
X749560Y123361D01*
X749527Y123183D01*
X749499Y123004D01*
X749475Y122824D01*
X749455Y122644D01*
X749440Y122463D01*
X749429Y122282D01*
X749422Y122101D01*
X749420Y121920D01*
X749422Y121739D01*
X749429Y121558D01*
X749440Y121377D01*
X749455Y121196D01*
X749475Y121016D01*
X749499Y120836D01*
X749527Y120657D01*
X749560Y120479D01*
X749597Y120302D01*
X749638Y120125D01*
X749683Y119950D01*
X749733Y119775D01*
X749787Y119602D01*
X749845Y119431D01*
X749907Y119260D01*
X749974Y119092D01*
X750044Y118925D01*
X750118Y118759D01*
X750197Y118596D01*
X750279Y118435D01*
X750365Y118275D01*
X750455Y118118D01*
X750549Y117963D01*
X750646Y117810D01*
X750748Y117660D01*
X750852Y117512D01*
X750961Y117366D01*
X751072Y117224D01*
X751188Y117084D01*
X751306Y116947D01*
X751428Y116812D01*
X751553Y116681D01*
X751681Y116553D01*
X751812Y116428D01*
X751947Y116306D01*
X752084Y116188D01*
X752224Y116072D01*
X752366Y115961D01*
X752512Y115852D01*
X752660Y115748D01*
X752810Y115646D01*
X752963Y115549D01*
X753118Y115455D01*
X753275Y115365D01*
X753435Y115279D01*
X753596Y115197D01*
X753759Y115118D01*
X753925Y115044D01*
X754092Y114974D01*
X754260Y114907D01*
X754431Y114845D01*
X754602Y114787D01*
X754775Y114733D01*
X754950Y114683D01*
X755125Y114638D01*
X755302Y114597D01*
X755479Y114560D01*
X755657Y114527D01*
X755836Y114499D01*
X756016Y114475D01*
X756196Y114455D01*
X756377Y114440D01*
X756558Y114429D01*
X756739Y114422D01*
X756920Y114420D01*
X757101Y114422D01*
X757282Y114429D01*
X757463Y114440D01*
X757644Y114455D01*
X757824Y114475D01*
X758004Y114499D01*
X758183Y114527D01*
X758361Y114560D01*
X758538Y114597D01*
X758715Y114638D01*
X758890Y114683D01*
X759065Y114733D01*
X759238Y114787D01*
X759409Y114845D01*
X759580Y114907D01*
X759748Y114974D01*
X759915Y115044D01*
X760081Y115118D01*
X760244Y115197D01*
X760405Y115279D01*
X760565Y115365D01*
X760722Y115455D01*
X760877Y115549D01*
X761030Y115646D01*
X761180Y115748D01*
X761328Y115852D01*
X761474Y115961D01*
X761616Y116072D01*
X761756Y116188D01*
X761893Y116306D01*
X762028Y116428D01*
X762159Y116553D01*
X762287Y116681D01*
X762412Y116812D01*
X762534Y116947D01*
X762652Y117084D01*
X762768Y117224D01*
X762879Y117366D01*
X762988Y117512D01*
X763092Y117660D01*
X763194Y117810D01*
X763291Y117963D01*
X763385Y118118D01*
X763475Y118275D01*
X763561Y118435D01*
X763643Y118596D01*
X763722Y118759D01*
X763796Y118925D01*
X763866Y119092D01*
X763933Y119260D01*
X763995Y119431D01*
X764053Y119602D01*
X764107Y119775D01*
X764157Y119950D01*
X764202Y120125D01*
X764243Y120302D01*
X764280Y120479D01*
X764313Y120657D01*
X764341Y120836D01*
X764365Y121016D01*
X764385Y121196D01*
X764400Y121377D01*
X764411Y121558D01*
X764418Y121739D01*
X764420Y121920D01*
D31*
X15240Y1023620D03*
D32*
X22740Y1023620D02*
X22738Y1023801D01*
X22731Y1023982D01*
X22720Y1024163D01*
X22705Y1024344D01*
X22685Y1024524D01*
X22661Y1024704D01*
X22633Y1024883D01*
X22600Y1025061D01*
X22563Y1025238D01*
X22522Y1025415D01*
X22477Y1025590D01*
X22427Y1025765D01*
X22373Y1025938D01*
X22315Y1026109D01*
X22253Y1026280D01*
X22186Y1026448D01*
X22116Y1026615D01*
X22042Y1026781D01*
X21963Y1026944D01*
X21881Y1027105D01*
X21795Y1027265D01*
X21705Y1027422D01*
X21611Y1027577D01*
X21514Y1027730D01*
X21412Y1027880D01*
X21308Y1028028D01*
X21199Y1028174D01*
X21088Y1028316D01*
X20972Y1028456D01*
X20854Y1028593D01*
X20732Y1028728D01*
X20607Y1028859D01*
X20479Y1028987D01*
X20348Y1029112D01*
X20213Y1029234D01*
X20076Y1029352D01*
X19936Y1029468D01*
X19794Y1029579D01*
X19648Y1029688D01*
X19500Y1029792D01*
X19350Y1029894D01*
X19197Y1029991D01*
X19042Y1030085D01*
X18885Y1030175D01*
X18725Y1030261D01*
X18564Y1030343D01*
X18401Y1030422D01*
X18235Y1030496D01*
X18068Y1030566D01*
X17900Y1030633D01*
X17729Y1030695D01*
X17558Y1030753D01*
X17385Y1030807D01*
X17210Y1030857D01*
X17035Y1030902D01*
X16858Y1030943D01*
X16681Y1030980D01*
X16503Y1031013D01*
X16324Y1031041D01*
X16144Y1031065D01*
X15964Y1031085D01*
X15783Y1031100D01*
X15602Y1031111D01*
X15421Y1031118D01*
X15240Y1031120D01*
X15059Y1031118D01*
X14878Y1031111D01*
X14697Y1031100D01*
X14516Y1031085D01*
X14336Y1031065D01*
X14156Y1031041D01*
X13977Y1031013D01*
X13799Y1030980D01*
X13622Y1030943D01*
X13445Y1030902D01*
X13270Y1030857D01*
X13095Y1030807D01*
X12922Y1030753D01*
X12751Y1030695D01*
X12580Y1030633D01*
X12412Y1030566D01*
X12245Y1030496D01*
X12079Y1030422D01*
X11916Y1030343D01*
X11755Y1030261D01*
X11595Y1030175D01*
X11438Y1030085D01*
X11283Y1029991D01*
X11130Y1029894D01*
X10980Y1029792D01*
X10832Y1029688D01*
X10686Y1029579D01*
X10544Y1029468D01*
X10404Y1029352D01*
X10267Y1029234D01*
X10132Y1029112D01*
X10001Y1028987D01*
X9873Y1028859D01*
X9748Y1028728D01*
X9626Y1028593D01*
X9508Y1028456D01*
X9392Y1028316D01*
X9281Y1028174D01*
X9172Y1028028D01*
X9068Y1027880D01*
X8966Y1027730D01*
X8869Y1027577D01*
X8775Y1027422D01*
X8685Y1027265D01*
X8599Y1027105D01*
X8517Y1026944D01*
X8438Y1026781D01*
X8364Y1026615D01*
X8294Y1026448D01*
X8227Y1026280D01*
X8165Y1026109D01*
X8107Y1025938D01*
X8053Y1025765D01*
X8003Y1025590D01*
X7958Y1025415D01*
X7917Y1025238D01*
X7880Y1025061D01*
X7847Y1024883D01*
X7819Y1024704D01*
X7795Y1024524D01*
X7775Y1024344D01*
X7760Y1024163D01*
X7749Y1023982D01*
X7742Y1023801D01*
X7740Y1023620D01*
X7742Y1023439D01*
X7749Y1023258D01*
X7760Y1023077D01*
X7775Y1022896D01*
X7795Y1022716D01*
X7819Y1022536D01*
X7847Y1022357D01*
X7880Y1022179D01*
X7917Y1022002D01*
X7958Y1021825D01*
X8003Y1021650D01*
X8053Y1021475D01*
X8107Y1021302D01*
X8165Y1021131D01*
X8227Y1020960D01*
X8294Y1020792D01*
X8364Y1020625D01*
X8438Y1020459D01*
X8517Y1020296D01*
X8599Y1020135D01*
X8685Y1019975D01*
X8775Y1019818D01*
X8869Y1019663D01*
X8966Y1019510D01*
X9068Y1019360D01*
X9172Y1019212D01*
X9281Y1019066D01*
X9392Y1018924D01*
X9508Y1018784D01*
X9626Y1018647D01*
X9748Y1018512D01*
X9873Y1018381D01*
X10001Y1018253D01*
X10132Y1018128D01*
X10267Y1018006D01*
X10404Y1017888D01*
X10544Y1017772D01*
X10686Y1017661D01*
X10832Y1017552D01*
X10980Y1017448D01*
X11130Y1017346D01*
X11283Y1017249D01*
X11438Y1017155D01*
X11595Y1017065D01*
X11755Y1016979D01*
X11916Y1016897D01*
X12079Y1016818D01*
X12245Y1016744D01*
X12412Y1016674D01*
X12580Y1016607D01*
X12751Y1016545D01*
X12922Y1016487D01*
X13095Y1016433D01*
X13270Y1016383D01*
X13445Y1016338D01*
X13622Y1016297D01*
X13799Y1016260D01*
X13977Y1016227D01*
X14156Y1016199D01*
X14336Y1016175D01*
X14516Y1016155D01*
X14697Y1016140D01*
X14878Y1016129D01*
X15059Y1016122D01*
X15240Y1016120D01*
X15421Y1016122D01*
X15602Y1016129D01*
X15783Y1016140D01*
X15964Y1016155D01*
X16144Y1016175D01*
X16324Y1016199D01*
X16503Y1016227D01*
X16681Y1016260D01*
X16858Y1016297D01*
X17035Y1016338D01*
X17210Y1016383D01*
X17385Y1016433D01*
X17558Y1016487D01*
X17729Y1016545D01*
X17900Y1016607D01*
X18068Y1016674D01*
X18235Y1016744D01*
X18401Y1016818D01*
X18564Y1016897D01*
X18725Y1016979D01*
X18885Y1017065D01*
X19042Y1017155D01*
X19197Y1017249D01*
X19350Y1017346D01*
X19500Y1017448D01*
X19648Y1017552D01*
X19794Y1017661D01*
X19936Y1017772D01*
X20076Y1017888D01*
X20213Y1018006D01*
X20348Y1018128D01*
X20479Y1018253D01*
X20607Y1018381D01*
X20732Y1018512D01*
X20854Y1018647D01*
X20972Y1018784D01*
X21088Y1018924D01*
X21199Y1019066D01*
X21308Y1019212D01*
X21412Y1019360D01*
X21514Y1019510D01*
X21611Y1019663D01*
X21705Y1019818D01*
X21795Y1019975D01*
X21881Y1020135D01*
X21963Y1020296D01*
X22042Y1020459D01*
X22116Y1020625D01*
X22186Y1020792D01*
X22253Y1020960D01*
X22315Y1021131D01*
X22373Y1021302D01*
X22427Y1021475D01*
X22477Y1021650D01*
X22522Y1021825D01*
X22563Y1022002D01*
X22600Y1022179D01*
X22633Y1022357D01*
X22661Y1022536D01*
X22685Y1022716D01*
X22705Y1022896D01*
X22720Y1023077D01*
X22731Y1023258D01*
X22738Y1023439D01*
X22740Y1023620D01*
D30*
X20320Y1099820D03*
X749300Y1099820D03*
D29*
X162560Y1088390D03*
D33*
X93980Y281940D03*
X17780Y281940D03*
X119380Y281940D03*
D34*
X40640Y316320D03*
X53340Y316320D03*
X66040Y316320D03*
X78740Y316320D03*
X91440Y316320D03*
X40640Y359320D03*
X53340Y359320D03*
X66040Y359320D03*
X78740Y359320D03*
X91440Y359320D03*
D31*
X46990Y337820D03*
X85090Y337820D03*
D22*
X291760Y398780D03*
X312760Y398780D03*
X371180Y624840D03*
X350180Y624840D03*
X371180Y601980D03*
X350180Y601980D03*
D35*
X445620Y537880D03*
X445620Y532880D03*
X445620Y527880D03*
X445620Y522880D03*
X445620Y517880D03*
X445620Y512880D03*
X445620Y507880D03*
X445620Y502880D03*
X445620Y497880D03*
X445620Y492880D03*
X445620Y487880D03*
X445620Y482880D03*
X445620Y477880D03*
X445620Y472880D03*
X445620Y467880D03*
X445620Y462880D03*
D36*
X426120Y443380D03*
X421120Y443380D03*
X416120Y443380D03*
X411120Y443380D03*
X406120Y443380D03*
X401120Y443380D03*
X396120Y443380D03*
X391120Y443380D03*
X386120Y443380D03*
X381120Y443380D03*
X376120Y443380D03*
X371120Y443380D03*
X366120Y443380D03*
X361120Y443380D03*
X356120Y443380D03*
X351120Y443380D03*
D35*
X331620Y462880D03*
X331620Y467880D03*
X331620Y472880D03*
X331620Y477880D03*
X331620Y482880D03*
X331620Y487880D03*
X331620Y492880D03*
X331620Y497880D03*
X331620Y502880D03*
X331620Y507880D03*
X331620Y512880D03*
X331620Y517880D03*
X331620Y522880D03*
X331620Y527880D03*
X331620Y532880D03*
X331620Y537880D03*
D36*
X351120Y557380D03*
X356120Y557380D03*
X361120Y557380D03*
X366120Y557380D03*
X371120Y557380D03*
X376120Y557380D03*
X381120Y557380D03*
X386120Y557380D03*
X391120Y557380D03*
X396120Y557380D03*
X401120Y557380D03*
X406120Y557380D03*
X411120Y557380D03*
X416120Y557380D03*
X421120Y557380D03*
X426120Y557380D03*
D37*
X375620Y1081325D03*
X382120Y1081325D03*
X388620Y1081325D03*
X395120Y1081325D03*
X401620Y1081325D03*
D38*
X356620Y1083575D03*
X420620Y1083575D03*
D39*
X400620Y1108075D03*
X376620Y1108075D03*
D40*
X421640Y1108075D03*
X355600Y1108075D03*
D18*
X581660Y1087780D03*
X581660Y1106780D03*
D15*
X575920Y1056640D03*
X556920Y1056640D03*
X595020Y1056640D03*
X614020Y1056640D03*
D41*
X601679Y1085240D03*
X601679Y1094740D03*
X601679Y1104240D03*
X627681Y1104240D03*
X627681Y1085240D03*
D16*
X301160Y1026000D03*
X301160Y1006000D03*
D19*
X249160Y1050000D03*
X249160Y982000D03*
D22*
X403520Y624840D03*
X424520Y624840D03*
X403520Y601980D03*
X424520Y601980D03*
D18*
X292100Y473100D03*
X292100Y492100D03*
D21*
X559520Y1084580D03*
X522520Y1084580D03*
D42*
X495300Y1089820D03*
X504800Y1109820D03*
X485800Y1109820D03*
D15*
X550520Y1107440D03*
X531520Y1107440D03*
D41*
X187659Y1087780D03*
X187659Y1097280D03*
X187659Y1106780D03*
X213661Y1106780D03*
X213661Y1087780D03*
D15*
X258420Y1069594D03*
X239420Y1069594D03*
D18*
X289560Y1087780D03*
X289560Y1106780D03*
X238760Y1087780D03*
X238760Y1106780D03*
X264160Y1087780D03*
X264160Y1106780D03*
D43*
X255270Y333340D03*
X255270Y281340D03*
X242570Y333340D03*
X267970Y333340D03*
X280670Y333340D03*
X242570Y281340D03*
X267970Y281340D03*
X280670Y281340D03*
D15*
X271120Y365760D03*
X252120Y365760D03*
X445160Y1087882D03*
X464160Y1087882D03*
D44*
X523240Y81940D03*
X523240Y100940D03*
D45*
X596900Y252760D03*
X596900Y224760D03*
X518160Y252760D03*
X518160Y224760D03*
D18*
X546100Y234340D03*
X546100Y253340D03*
D15*
X532740Y274320D03*
X513740Y274320D03*
X582320Y274320D03*
X601320Y274320D03*
D18*
X568960Y234340D03*
X568960Y253340D03*
D46*
X232410Y223774D03*
X232410Y162306D03*
X245110Y223774D03*
X257810Y223774D03*
X245110Y162306D03*
X257810Y162306D03*
X270510Y223774D03*
X270510Y162306D03*
X283210Y223774D03*
X283210Y162306D03*
X295910Y223774D03*
X308610Y223774D03*
X295910Y162306D03*
X308610Y162306D03*
X321310Y223774D03*
X321310Y162306D03*
D47*
X531960Y19940D03*
D48*
X532960Y141940D03*
D49*
X605960Y66940D03*
X531960Y47940D03*
D50*
X568960Y58940D03*
X568960Y128940D03*
D31*
X15240Y121920D03*
D32*
X22740Y121920D02*
X22738Y122101D01*
X22731Y122282D01*
X22720Y122463D01*
X22705Y122644D01*
X22685Y122824D01*
X22661Y123004D01*
X22633Y123183D01*
X22600Y123361D01*
X22563Y123538D01*
X22522Y123715D01*
X22477Y123890D01*
X22427Y124065D01*
X22373Y124238D01*
X22315Y124409D01*
X22253Y124580D01*
X22186Y124748D01*
X22116Y124915D01*
X22042Y125081D01*
X21963Y125244D01*
X21881Y125405D01*
X21795Y125565D01*
X21705Y125722D01*
X21611Y125877D01*
X21514Y126030D01*
X21412Y126180D01*
X21308Y126328D01*
X21199Y126474D01*
X21088Y126616D01*
X20972Y126756D01*
X20854Y126893D01*
X20732Y127028D01*
X20607Y127159D01*
X20479Y127287D01*
X20348Y127412D01*
X20213Y127534D01*
X20076Y127652D01*
X19936Y127768D01*
X19794Y127879D01*
X19648Y127988D01*
X19500Y128092D01*
X19350Y128194D01*
X19197Y128291D01*
X19042Y128385D01*
X18885Y128475D01*
X18725Y128561D01*
X18564Y128643D01*
X18401Y128722D01*
X18235Y128796D01*
X18068Y128866D01*
X17900Y128933D01*
X17729Y128995D01*
X17558Y129053D01*
X17385Y129107D01*
X17210Y129157D01*
X17035Y129202D01*
X16858Y129243D01*
X16681Y129280D01*
X16503Y129313D01*
X16324Y129341D01*
X16144Y129365D01*
X15964Y129385D01*
X15783Y129400D01*
X15602Y129411D01*
X15421Y129418D01*
X15240Y129420D01*
X15059Y129418D01*
X14878Y129411D01*
X14697Y129400D01*
X14516Y129385D01*
X14336Y129365D01*
X14156Y129341D01*
X13977Y129313D01*
X13799Y129280D01*
X13622Y129243D01*
X13445Y129202D01*
X13270Y129157D01*
X13095Y129107D01*
X12922Y129053D01*
X12751Y128995D01*
X12580Y128933D01*
X12412Y128866D01*
X12245Y128796D01*
X12079Y128722D01*
X11916Y128643D01*
X11755Y128561D01*
X11595Y128475D01*
X11438Y128385D01*
X11283Y128291D01*
X11130Y128194D01*
X10980Y128092D01*
X10832Y127988D01*
X10686Y127879D01*
X10544Y127768D01*
X10404Y127652D01*
X10267Y127534D01*
X10132Y127412D01*
X10001Y127287D01*
X9873Y127159D01*
X9748Y127028D01*
X9626Y126893D01*
X9508Y126756D01*
X9392Y126616D01*
X9281Y126474D01*
X9172Y126328D01*
X9068Y126180D01*
X8966Y126030D01*
X8869Y125877D01*
X8775Y125722D01*
X8685Y125565D01*
X8599Y125405D01*
X8517Y125244D01*
X8438Y125081D01*
X8364Y124915D01*
X8294Y124748D01*
X8227Y124580D01*
X8165Y124409D01*
X8107Y124238D01*
X8053Y124065D01*
X8003Y123890D01*
X7958Y123715D01*
X7917Y123538D01*
X7880Y123361D01*
X7847Y123183D01*
X7819Y123004D01*
X7795Y122824D01*
X7775Y122644D01*
X7760Y122463D01*
X7749Y122282D01*
X7742Y122101D01*
X7740Y121920D01*
X7742Y121739D01*
X7749Y121558D01*
X7760Y121377D01*
X7775Y121196D01*
X7795Y121016D01*
X7819Y120836D01*
X7847Y120657D01*
X7880Y120479D01*
X7917Y120302D01*
X7958Y120125D01*
X8003Y119950D01*
X8053Y119775D01*
X8107Y119602D01*
X8165Y119431D01*
X8227Y119260D01*
X8294Y119092D01*
X8364Y118925D01*
X8438Y118759D01*
X8517Y118596D01*
X8599Y118435D01*
X8685Y118275D01*
X8775Y118118D01*
X8869Y117963D01*
X8966Y117810D01*
X9068Y117660D01*
X9172Y117512D01*
X9281Y117366D01*
X9392Y117224D01*
X9508Y117084D01*
X9626Y116947D01*
X9748Y116812D01*
X9873Y116681D01*
X10001Y116553D01*
X10132Y116428D01*
X10267Y116306D01*
X10404Y116188D01*
X10544Y116072D01*
X10686Y115961D01*
X10832Y115852D01*
X10980Y115748D01*
X11130Y115646D01*
X11283Y115549D01*
X11438Y115455D01*
X11595Y115365D01*
X11755Y115279D01*
X11916Y115197D01*
X12079Y115118D01*
X12245Y115044D01*
X12412Y114974D01*
X12580Y114907D01*
X12751Y114845D01*
X12922Y114787D01*
X13095Y114733D01*
X13270Y114683D01*
X13445Y114638D01*
X13622Y114597D01*
X13799Y114560D01*
X13977Y114527D01*
X14156Y114499D01*
X14336Y114475D01*
X14516Y114455D01*
X14697Y114440D01*
X14878Y114429D01*
X15059Y114422D01*
X15240Y114420D01*
X15421Y114422D01*
X15602Y114429D01*
X15783Y114440D01*
X15964Y114455D01*
X16144Y114475D01*
X16324Y114499D01*
X16503Y114527D01*
X16681Y114560D01*
X16858Y114597D01*
X17035Y114638D01*
X17210Y114683D01*
X17385Y114733D01*
X17558Y114787D01*
X17729Y114845D01*
X17900Y114907D01*
X18068Y114974D01*
X18235Y115044D01*
X18401Y115118D01*
X18564Y115197D01*
X18725Y115279D01*
X18885Y115365D01*
X19042Y115455D01*
X19197Y115549D01*
X19350Y115646D01*
X19500Y115748D01*
X19648Y115852D01*
X19794Y115961D01*
X19936Y116072D01*
X20076Y116188D01*
X20213Y116306D01*
X20348Y116428D01*
X20479Y116553D01*
X20607Y116681D01*
X20732Y116812D01*
X20854Y116947D01*
X20972Y117084D01*
X21088Y117224D01*
X21199Y117366D01*
X21308Y117512D01*
X21412Y117660D01*
X21514Y117810D01*
X21611Y117963D01*
X21705Y118118D01*
X21795Y118275D01*
X21881Y118435D01*
X21963Y118596D01*
X22042Y118759D01*
X22116Y118925D01*
X22186Y119092D01*
X22253Y119260D01*
X22315Y119431D01*
X22373Y119602D01*
X22427Y119775D01*
X22477Y119950D01*
X22522Y120125D01*
X22563Y120302D01*
X22600Y120479D01*
X22633Y120657D01*
X22661Y120836D01*
X22685Y121016D01*
X22705Y121196D01*
X22720Y121377D01*
X22731Y121558D01*
X22738Y121739D01*
X22740Y121920D01*
D51*
X512420Y500380D03*
X493420Y500380D03*
D18*
X490220Y523900D03*
X490220Y542900D03*
X515620Y523900D03*
X515620Y542900D03*
D43*
X483870Y424780D03*
X496570Y424780D03*
X509270Y424780D03*
X521970Y424780D03*
X521970Y372780D03*
X509270Y372780D03*
X496570Y372780D03*
X483870Y372780D03*
D28*
X464820Y385740D03*
X464820Y406740D03*
D33*
X43180Y281940D03*
X68580Y281940D03*
D22*
X399120Y398780D03*
X378120Y398780D03*
D52*
X444160Y1112520D03*
X465160Y1112520D03*
X312420Y1112860D03*
X312420Y1091860D03*
D53*
X478790Y1059180D03*
X527050Y1059180D03*
X478790Y1033780D03*
X527050Y1033780D03*
D54*
X481330Y1008380D03*
X524510Y1008380D03*
X481330Y982980D03*
X524510Y982980D03*
X481330Y957580D03*
X524510Y957580D03*
X481330Y932180D03*
X524510Y932180D03*
X481330Y906780D03*
X524510Y906780D03*
X481330Y881380D03*
X524510Y881380D03*
X481330Y855980D03*
X524510Y855980D03*
X481330Y830580D03*
X524510Y830580D03*
X481330Y805180D03*
X524510Y805180D03*
X481330Y779780D03*
X524510Y779780D03*
X481330Y754380D03*
X524510Y754380D03*
X481330Y728980D03*
X524510Y728980D03*
D53*
X478790Y703580D03*
X527050Y703580D03*
X478790Y678180D03*
X527050Y678180D03*
X298450Y678180D03*
X250190Y678180D03*
X298450Y703580D03*
X250190Y703580D03*
D54*
X295910Y728980D03*
X252730Y728980D03*
X295910Y754380D03*
X252730Y754380D03*
X295910Y779780D03*
X252730Y779780D03*
X295910Y805180D03*
X252730Y805180D03*
X295910Y830580D03*
X252730Y830580D03*
X295910Y855980D03*
X252730Y855980D03*
X295910Y881380D03*
X252730Y881380D03*
X295910Y906780D03*
X252730Y906780D03*
D53*
X298450Y932180D03*
X250190Y932180D03*
X298450Y957580D03*
X250190Y957580D03*
D40*
X274320Y944880D03*
X274320Y690880D03*
X502920Y1046480D03*
X502920Y690880D03*
D18*
X703580Y201320D03*
X703580Y220320D03*
X627380Y220320D03*
X627380Y201320D03*
X678180Y220320D03*
X678180Y201320D03*
X652780Y220320D03*
X652780Y201320D03*
X703580Y153060D03*
X703580Y172060D03*
X678180Y172060D03*
X678180Y153060D03*
X627380Y153060D03*
X627380Y172060D03*
X754380Y220320D03*
X754380Y201320D03*
X728980Y220320D03*
X728980Y201320D03*
X652780Y172060D03*
X652780Y153060D03*
D55*
X214122Y235712D03*
X214122Y227584D03*
X214122Y219456D03*
X214122Y211328D03*
X197358Y211328D03*
X197358Y219456D03*
X197358Y227584D03*
X197358Y235712D03*
X214122Y187452D03*
X214122Y179324D03*
X214122Y171196D03*
X214122Y163068D03*
X197358Y163068D03*
X197358Y171196D03*
X197358Y179324D03*
X197358Y187452D03*
D28*
X210820Y84160D03*
X210820Y63160D03*
X154940Y84160D03*
X154940Y63160D03*
X182880Y63160D03*
X182880Y84160D03*
D55*
X215392Y974852D03*
X215392Y966724D03*
X215392Y958596D03*
X215392Y950468D03*
X198628Y950468D03*
X198628Y958596D03*
X198628Y966724D03*
X198628Y974852D03*
D56*
X730716Y179974D02*
X730716Y170246D01*
X730716Y179974D02*
X733144Y179974D01*
X733144Y170246D01*
X730716Y170246D01*
X730716Y173706D02*
X733144Y173706D01*
X733144Y177166D02*
X730716Y177166D01*
X737216Y179974D02*
X737216Y170246D01*
X737216Y179974D02*
X739644Y179974D01*
X739644Y170246D01*
X737216Y170246D01*
X737216Y173706D02*
X739644Y173706D01*
X739644Y177166D02*
X737216Y177166D01*
X743716Y179974D02*
X743716Y170246D01*
X743716Y179974D02*
X746144Y179974D01*
X746144Y170246D01*
X743716Y170246D01*
X743716Y173706D02*
X746144Y173706D01*
X746144Y177166D02*
X743716Y177166D01*
X750216Y179974D02*
X750216Y170246D01*
X750216Y179974D02*
X752644Y179974D01*
X752644Y170246D01*
X750216Y170246D01*
X750216Y173706D02*
X752644Y173706D01*
X752644Y177166D02*
X750216Y177166D01*
X752644Y154874D02*
X752644Y145146D01*
X750216Y145146D01*
X750216Y154874D01*
X752644Y154874D01*
X752644Y148606D02*
X750216Y148606D01*
X750216Y152066D02*
X752644Y152066D01*
X746144Y154874D02*
X746144Y145146D01*
X743716Y145146D01*
X743716Y154874D01*
X746144Y154874D01*
X746144Y148606D02*
X743716Y148606D01*
X743716Y152066D02*
X746144Y152066D01*
X739644Y154874D02*
X739644Y145146D01*
X737216Y145146D01*
X737216Y154874D01*
X739644Y154874D01*
X739644Y148606D02*
X737216Y148606D01*
X737216Y152066D02*
X739644Y152066D01*
X733144Y154874D02*
X733144Y145146D01*
X730716Y145146D01*
X730716Y154874D01*
X733144Y154874D01*
X733144Y148606D02*
X730716Y148606D01*
X730716Y152066D02*
X733144Y152066D01*
D57*
X629920Y33020D03*
X629920Y17780D03*
D58*
X629920Y25400D03*
D57*
X648970Y17780D03*
X610870Y17780D03*
X629920Y48260D03*
D52*
X332740Y1112860D03*
X332740Y1091860D03*
D15*
X198780Y1069340D03*
X217780Y1069340D03*
D59*
X325120Y46240D03*
X325120Y111240D03*
X421120Y25400D03*
X356120Y25400D03*
X421120Y132080D03*
X356120Y132080D03*
X452120Y111240D03*
X452120Y46240D03*
X421120Y78740D03*
X356120Y78740D03*
X58940Y78740D03*
X123940Y78740D03*
X710680Y78740D03*
X645680Y78740D03*
D60*
X212380Y26924D03*
X153380Y26924D03*
X649442Y1100582D03*
X708442Y1100582D03*
D18*
X424180Y1063600D03*
X424180Y1044600D03*
X444500Y1063600D03*
X444500Y1044600D03*
D61*
X270210Y18676D03*
X278710Y18676D03*
X287710Y18676D03*
X296210Y18676D03*
D15*
X252070Y16510D03*
X233070Y16510D03*
D62*
X63500Y931452D03*
X63500Y967452D03*
M02*
