G04 EAGLE Gerber X2 export*
%TF.Part,Single*%
%TF.FileFunction,Copper,L1,Top,Mixed*%
%TF.FilePolarity,Positive*%
%TF.GenerationSoftware,Autodesk,EAGLE,9.1.0*%
%TF.CreationDate,2019-10-14T18:10:00Z*%
G75*
%MOMM*%
%FSLAX34Y34*%
%LPD*%
%AMOC8*
5,1,8,0,0,1.08239X$1,22.5*%
G01*
%ADD10C,1.930400*%
%ADD11C,1.650000*%
%ADD12C,1.350000*%
%ADD13C,1.524000*%
%ADD14C,1.800000*%
%ADD15C,3.516000*%
%ADD16C,1.000000*%
%ADD17P,2.089446X8X202.500000*%
%ADD18C,0.508000*%
%ADD19C,0.152400*%
%ADD20C,0.304800*%
%ADD21C,0.609600*%
%ADD22C,0.254000*%

G36*
X739129Y3813D02*
X739129Y3813D01*
X739148Y3811D01*
X739269Y3833D01*
X739391Y3851D01*
X739409Y3859D01*
X739428Y3862D01*
X739538Y3917D01*
X739650Y3967D01*
X739665Y3979D01*
X739683Y3988D01*
X739774Y4071D01*
X739867Y4150D01*
X739878Y4167D01*
X739893Y4180D01*
X739957Y4285D01*
X740025Y4387D01*
X740031Y4406D01*
X740041Y4422D01*
X740074Y4541D01*
X740111Y4658D01*
X740111Y4678D01*
X740116Y4697D01*
X740115Y4819D01*
X740118Y4942D01*
X740113Y4961D01*
X740113Y4981D01*
X740077Y5099D01*
X740046Y5217D01*
X740036Y5234D01*
X740030Y5253D01*
X739964Y5356D01*
X739901Y5462D01*
X739887Y5475D01*
X739876Y5492D01*
X739819Y5538D01*
X739694Y5656D01*
X739648Y5680D01*
X739617Y5705D01*
X735825Y7895D01*
X730903Y14669D01*
X729162Y22860D01*
X730903Y31051D01*
X735825Y37826D01*
X743077Y42012D01*
X751405Y42888D01*
X759369Y40300D01*
X765592Y34697D01*
X766407Y32867D01*
X766445Y32806D01*
X766475Y32739D01*
X766520Y32686D01*
X766557Y32626D01*
X766612Y32578D01*
X766659Y32522D01*
X766717Y32484D01*
X766769Y32437D01*
X766835Y32405D01*
X766895Y32365D01*
X766962Y32344D01*
X767025Y32313D01*
X767097Y32301D01*
X767166Y32279D01*
X767236Y32277D01*
X767305Y32265D01*
X767378Y32274D01*
X767450Y32272D01*
X767518Y32289D01*
X767588Y32297D01*
X767655Y32325D01*
X767725Y32344D01*
X767786Y32379D01*
X767851Y32406D01*
X767907Y32452D01*
X767970Y32489D01*
X768018Y32540D01*
X768073Y32584D01*
X768115Y32643D01*
X768164Y32696D01*
X768196Y32759D01*
X768237Y32816D01*
X768261Y32884D01*
X768294Y32949D01*
X768304Y33008D01*
X768330Y33084D01*
X768337Y33205D01*
X768349Y33280D01*
X768349Y1079240D01*
X768339Y1079312D01*
X768339Y1079384D01*
X768319Y1079452D01*
X768309Y1079521D01*
X768280Y1079587D01*
X768259Y1079657D01*
X768222Y1079717D01*
X768193Y1079781D01*
X768146Y1079836D01*
X768107Y1079898D01*
X768055Y1079944D01*
X768010Y1079998D01*
X767949Y1080038D01*
X767895Y1080086D01*
X767831Y1080116D01*
X767773Y1080155D01*
X767703Y1080177D01*
X767638Y1080208D01*
X767569Y1080220D01*
X767502Y1080241D01*
X767429Y1080243D01*
X767357Y1080255D01*
X767288Y1080246D01*
X767218Y1080248D01*
X767147Y1080230D01*
X767075Y1080221D01*
X767010Y1080194D01*
X766943Y1080176D01*
X766880Y1080139D01*
X766813Y1080111D01*
X766758Y1080067D01*
X766698Y1080031D01*
X766648Y1079978D01*
X766592Y1079932D01*
X766559Y1079883D01*
X766504Y1079824D01*
X766449Y1079716D01*
X766407Y1079653D01*
X765592Y1077823D01*
X759369Y1072220D01*
X751405Y1069632D01*
X743077Y1070508D01*
X735825Y1074694D01*
X730903Y1081469D01*
X729162Y1089660D01*
X730903Y1097851D01*
X735825Y1104625D01*
X739617Y1106815D01*
X739633Y1106827D01*
X739650Y1106835D01*
X739744Y1106914D01*
X739841Y1106990D01*
X739852Y1107006D01*
X739867Y1107019D01*
X739935Y1107121D01*
X740007Y1107220D01*
X740014Y1107239D01*
X740025Y1107255D01*
X740062Y1107372D01*
X740104Y1107488D01*
X740105Y1107508D01*
X740111Y1107526D01*
X740114Y1107649D01*
X740122Y1107772D01*
X740117Y1107791D01*
X740118Y1107810D01*
X740087Y1107929D01*
X740060Y1108049D01*
X740051Y1108067D01*
X740046Y1108085D01*
X739984Y1108191D01*
X739925Y1108299D01*
X739911Y1108313D01*
X739901Y1108330D01*
X739811Y1108414D01*
X739725Y1108501D01*
X739708Y1108511D01*
X739694Y1108524D01*
X739584Y1108580D01*
X739477Y1108640D01*
X739458Y1108645D01*
X739440Y1108654D01*
X739368Y1108666D01*
X739200Y1108705D01*
X739149Y1108703D01*
X739109Y1108709D01*
X31247Y1108709D01*
X31191Y1108701D01*
X31135Y1108703D01*
X31051Y1108682D01*
X30965Y1108669D01*
X30914Y1108647D01*
X30860Y1108633D01*
X30785Y1108589D01*
X30706Y1108553D01*
X30663Y1108517D01*
X30615Y1108489D01*
X30555Y1108426D01*
X30489Y1108370D01*
X30458Y1108323D01*
X30419Y1108282D01*
X30379Y1108205D01*
X30331Y1108133D01*
X30314Y1108080D01*
X30289Y1108030D01*
X30272Y1107945D01*
X30245Y1107862D01*
X30244Y1107806D01*
X30233Y1107751D01*
X30240Y1107664D01*
X30238Y1107578D01*
X30252Y1107524D01*
X30257Y1107468D01*
X30288Y1107387D01*
X30310Y1107303D01*
X30338Y1107255D01*
X30358Y1107202D01*
X30402Y1107147D01*
X30455Y1107058D01*
X30525Y1106992D01*
X30567Y1106940D01*
X36612Y1101497D01*
X40018Y1093847D01*
X40018Y1085473D01*
X36612Y1077823D01*
X30389Y1072220D01*
X22425Y1069632D01*
X14097Y1070508D01*
X6845Y1074694D01*
X3107Y1079839D01*
X3032Y1079917D01*
X2961Y1080000D01*
X2933Y1080019D01*
X2910Y1080043D01*
X2815Y1080098D01*
X2725Y1080158D01*
X2693Y1080168D01*
X2663Y1080185D01*
X2558Y1080211D01*
X2454Y1080244D01*
X2420Y1080244D01*
X2387Y1080252D01*
X2278Y1080248D01*
X2170Y1080251D01*
X2137Y1080242D01*
X2103Y1080241D01*
X2000Y1080206D01*
X1895Y1080179D01*
X1866Y1080162D01*
X1833Y1080151D01*
X1743Y1080089D01*
X1650Y1080034D01*
X1627Y1080009D01*
X1599Y1079990D01*
X1530Y1079906D01*
X1456Y1079826D01*
X1440Y1079796D01*
X1419Y1079770D01*
X1376Y1079670D01*
X1326Y1079573D01*
X1321Y1079543D01*
X1306Y1079509D01*
X1279Y1079292D01*
X1271Y1079242D01*
X1271Y899160D01*
X1279Y899102D01*
X1277Y899044D01*
X1299Y898962D01*
X1311Y898878D01*
X1334Y898825D01*
X1349Y898769D01*
X1392Y898696D01*
X1427Y898619D01*
X1465Y898574D01*
X1494Y898524D01*
X1556Y898466D01*
X1610Y898402D01*
X1659Y898370D01*
X1702Y898330D01*
X1777Y898291D01*
X1847Y898244D01*
X1903Y898227D01*
X1955Y898200D01*
X2023Y898189D01*
X2118Y898159D01*
X2218Y898156D01*
X2286Y898145D01*
X5494Y898145D01*
X7875Y895764D01*
X7875Y892396D01*
X6394Y890916D01*
X6342Y890846D01*
X6282Y890782D01*
X6256Y890733D01*
X6223Y890688D01*
X6192Y890607D01*
X6152Y890529D01*
X6144Y890481D01*
X6122Y890423D01*
X6111Y890293D01*
X6111Y890292D01*
X6111Y890285D01*
X6110Y890275D01*
X6097Y890198D01*
X6097Y129638D01*
X6104Y129590D01*
X6103Y129585D01*
X6105Y129579D01*
X6109Y129551D01*
X6112Y129464D01*
X6129Y129411D01*
X6137Y129356D01*
X6172Y129276D01*
X6199Y129193D01*
X6227Y129154D01*
X6253Y129097D01*
X6349Y128984D01*
X6394Y128920D01*
X46593Y88721D01*
X46594Y88720D01*
X46595Y88719D01*
X46711Y88632D01*
X46820Y88550D01*
X46821Y88550D01*
X46823Y88549D01*
X46955Y88499D01*
X47086Y88449D01*
X47087Y88449D01*
X47089Y88448D01*
X47233Y88437D01*
X47369Y88425D01*
X47370Y88426D01*
X47372Y88426D01*
X47388Y88429D01*
X47648Y88481D01*
X47675Y88495D01*
X47699Y88501D01*
X51117Y89917D01*
X55563Y89917D01*
X59671Y88215D01*
X62815Y85071D01*
X64517Y80963D01*
X64517Y76517D01*
X62815Y72409D01*
X59671Y69265D01*
X55563Y67563D01*
X51117Y67563D01*
X47009Y69265D01*
X43865Y72409D01*
X42163Y76517D01*
X42163Y80963D01*
X43579Y84381D01*
X43579Y84382D01*
X43580Y84384D01*
X43613Y84512D01*
X43650Y84656D01*
X43650Y84658D01*
X43650Y84659D01*
X43646Y84800D01*
X43642Y84940D01*
X43641Y84942D01*
X43641Y84943D01*
X43598Y85076D01*
X43555Y85211D01*
X43554Y85212D01*
X43554Y85214D01*
X43545Y85226D01*
X43397Y85447D01*
X43373Y85467D01*
X43359Y85487D01*
X3004Y125842D01*
X2980Y125860D01*
X2961Y125882D01*
X2867Y125945D01*
X2777Y126013D01*
X2749Y126024D01*
X2725Y126040D01*
X2617Y126074D01*
X2511Y126114D01*
X2482Y126117D01*
X2454Y126126D01*
X2340Y126129D01*
X2228Y126138D01*
X2199Y126132D01*
X2170Y126133D01*
X2060Y126104D01*
X1949Y126082D01*
X1923Y126068D01*
X1895Y126061D01*
X1797Y126003D01*
X1697Y125951D01*
X1675Y125931D01*
X1650Y125916D01*
X1573Y125833D01*
X1491Y125755D01*
X1476Y125730D01*
X1456Y125709D01*
X1404Y125608D01*
X1347Y125510D01*
X1340Y125482D01*
X1326Y125455D01*
X1313Y125378D01*
X1277Y125234D01*
X1279Y125172D01*
X1271Y125124D01*
X1271Y33278D01*
X1286Y33170D01*
X1294Y33062D01*
X1306Y33030D01*
X1311Y32996D01*
X1355Y32897D01*
X1393Y32795D01*
X1413Y32768D01*
X1427Y32737D01*
X1497Y32654D01*
X1562Y32566D01*
X1589Y32546D01*
X1610Y32520D01*
X1701Y32460D01*
X1787Y32393D01*
X1819Y32381D01*
X1847Y32362D01*
X1951Y32329D01*
X2052Y32290D01*
X2086Y32287D01*
X2118Y32276D01*
X2227Y32274D01*
X2335Y32264D01*
X2368Y32270D01*
X2402Y32269D01*
X2507Y32297D01*
X2614Y32317D01*
X2645Y32332D01*
X2677Y32341D01*
X2771Y32396D01*
X2868Y32446D01*
X2889Y32467D01*
X2922Y32486D01*
X3072Y32646D01*
X3107Y32681D01*
X6845Y37826D01*
X14097Y42012D01*
X22425Y42888D01*
X30389Y40300D01*
X36612Y34697D01*
X40018Y27047D01*
X40018Y18673D01*
X36612Y11023D01*
X30567Y5580D01*
X30531Y5538D01*
X30489Y5501D01*
X30441Y5429D01*
X30385Y5363D01*
X30362Y5311D01*
X30331Y5265D01*
X30305Y5182D01*
X30270Y5103D01*
X30262Y5047D01*
X30245Y4994D01*
X30243Y4907D01*
X30231Y4821D01*
X30240Y4765D01*
X30238Y4710D01*
X30260Y4626D01*
X30273Y4540D01*
X30296Y4489D01*
X30310Y4435D01*
X30354Y4360D01*
X30390Y4281D01*
X30427Y4238D01*
X30455Y4190D01*
X30519Y4131D01*
X30575Y4065D01*
X30622Y4034D01*
X30662Y3996D01*
X30740Y3956D01*
X30812Y3908D01*
X30866Y3892D01*
X30916Y3866D01*
X30985Y3855D01*
X31084Y3824D01*
X31180Y3822D01*
X31247Y3811D01*
X739109Y3811D01*
X739129Y3813D01*
G37*
%LPC*%
G36*
X193686Y191007D02*
X193686Y191007D01*
X191007Y193686D01*
X191007Y378685D01*
X190995Y378772D01*
X190992Y378859D01*
X190975Y378912D01*
X190967Y378967D01*
X190932Y379047D01*
X190905Y379130D01*
X190877Y379169D01*
X190851Y379226D01*
X190755Y379340D01*
X190710Y379403D01*
X178692Y391421D01*
X178688Y391424D01*
X177091Y393022D01*
X175716Y394397D01*
X175717Y396264D01*
X175716Y396264D01*
X175717Y396265D01*
X175717Y398601D01*
X175717Y398606D01*
X175752Y515849D01*
X175751Y515861D01*
X175753Y518159D01*
X175753Y518160D01*
X175754Y520467D01*
X175755Y520477D01*
X175767Y532110D01*
X175767Y532115D01*
X175767Y532119D01*
X175593Y553742D01*
X175580Y553825D01*
X175578Y553909D01*
X175574Y553919D01*
X175574Y556046D01*
X175574Y556050D01*
X175574Y556054D01*
X175559Y557946D01*
X176899Y559286D01*
X176902Y559289D01*
X176905Y559291D01*
X178422Y560834D01*
X178468Y560873D01*
X178532Y560918D01*
X185347Y567734D01*
X185365Y567758D01*
X185387Y567777D01*
X185450Y567871D01*
X185518Y567961D01*
X185529Y567989D01*
X185545Y568013D01*
X185579Y568121D01*
X185619Y568227D01*
X185622Y568256D01*
X185631Y568284D01*
X185634Y568398D01*
X185643Y568510D01*
X185637Y568539D01*
X185638Y568568D01*
X185609Y568678D01*
X185587Y568789D01*
X185574Y568815D01*
X185566Y568843D01*
X185508Y568941D01*
X185456Y569041D01*
X185436Y569063D01*
X185421Y569088D01*
X185338Y569165D01*
X185260Y569247D01*
X185235Y569262D01*
X185214Y569282D01*
X185113Y569334D01*
X185015Y569391D01*
X184987Y569398D01*
X184960Y569412D01*
X184883Y569425D01*
X184740Y569461D01*
X184677Y569459D01*
X184629Y569467D01*
X183990Y569467D01*
X181609Y571848D01*
X181609Y575216D01*
X183090Y576696D01*
X183142Y576766D01*
X183202Y576830D01*
X183228Y576879D01*
X183261Y576924D01*
X183283Y576981D01*
X183288Y576988D01*
X183295Y577010D01*
X183332Y577083D01*
X183340Y577131D01*
X183362Y577189D01*
X183366Y577236D01*
X183373Y577259D01*
X183375Y577344D01*
X183387Y577414D01*
X183387Y613058D01*
X183375Y613145D01*
X183372Y613232D01*
X183355Y613285D01*
X183347Y613340D01*
X183312Y613420D01*
X183285Y613503D01*
X183257Y613542D01*
X183231Y613599D01*
X183135Y613712D01*
X183090Y613776D01*
X127705Y669161D01*
X127658Y669196D01*
X127618Y669239D01*
X127545Y669281D01*
X127478Y669332D01*
X127423Y669353D01*
X127373Y669382D01*
X127291Y669403D01*
X127212Y669433D01*
X127154Y669438D01*
X127097Y669452D01*
X127013Y669450D01*
X126929Y669457D01*
X126872Y669445D01*
X126813Y669443D01*
X126733Y669417D01*
X126650Y669401D01*
X126598Y669374D01*
X126543Y669356D01*
X126486Y669316D01*
X126398Y669270D01*
X126326Y669201D01*
X126269Y669161D01*
X123604Y666495D01*
X120236Y666495D01*
X118756Y667976D01*
X118686Y668028D01*
X118622Y668088D01*
X118573Y668114D01*
X118528Y668147D01*
X118447Y668178D01*
X118369Y668218D01*
X118321Y668226D01*
X118263Y668248D01*
X118115Y668260D01*
X118038Y668273D01*
X107768Y668273D01*
X107682Y668261D01*
X107594Y668258D01*
X107542Y668241D01*
X107487Y668233D01*
X107407Y668198D01*
X107324Y668171D01*
X107284Y668143D01*
X107227Y668117D01*
X107114Y668021D01*
X107050Y667976D01*
X105570Y666495D01*
X102202Y666495D01*
X99821Y668876D01*
X99821Y672244D01*
X102202Y674625D01*
X105570Y674625D01*
X107050Y673144D01*
X107120Y673092D01*
X107184Y673032D01*
X107233Y673006D01*
X107278Y672973D01*
X107359Y672942D01*
X107437Y672902D01*
X107485Y672894D01*
X107543Y672872D01*
X107691Y672860D01*
X107768Y672847D01*
X118038Y672847D01*
X118124Y672859D01*
X118212Y672862D01*
X118264Y672879D01*
X118319Y672887D01*
X118399Y672922D01*
X118482Y672949D01*
X118522Y672977D01*
X118579Y673003D01*
X118692Y673099D01*
X118756Y673144D01*
X120521Y674909D01*
X120556Y674956D01*
X120599Y674996D01*
X120641Y675069D01*
X120692Y675137D01*
X120713Y675191D01*
X120742Y675242D01*
X120763Y675323D01*
X120793Y675402D01*
X120798Y675461D01*
X120812Y675517D01*
X120810Y675601D01*
X120817Y675685D01*
X120805Y675743D01*
X120803Y675801D01*
X120777Y675882D01*
X120761Y675964D01*
X120734Y676016D01*
X120716Y676072D01*
X120676Y676128D01*
X120630Y676217D01*
X120561Y676289D01*
X120521Y676345D01*
X112920Y683946D01*
X112920Y761339D01*
X112912Y761397D01*
X112914Y761455D01*
X112892Y761537D01*
X112880Y761621D01*
X112857Y761674D01*
X112842Y761730D01*
X112799Y761803D01*
X112764Y761880D01*
X112726Y761925D01*
X112697Y761975D01*
X112635Y762033D01*
X112581Y762097D01*
X112532Y762129D01*
X112489Y762169D01*
X112414Y762208D01*
X112344Y762255D01*
X112288Y762272D01*
X112236Y762299D01*
X112168Y762310D01*
X112073Y762340D01*
X111973Y762343D01*
X111905Y762354D01*
X38158Y762354D01*
X35554Y764958D01*
X35554Y918642D01*
X38158Y921246D01*
X107233Y921246D01*
X107262Y921250D01*
X107291Y921247D01*
X107402Y921270D01*
X107515Y921286D01*
X107541Y921298D01*
X107570Y921303D01*
X107671Y921355D01*
X107774Y921402D01*
X107796Y921421D01*
X107822Y921434D01*
X107905Y921512D01*
X107991Y921585D01*
X108007Y921610D01*
X108029Y921630D01*
X108086Y921728D01*
X108149Y921822D01*
X108158Y921850D01*
X108172Y921875D01*
X108200Y921985D01*
X108234Y922093D01*
X108235Y922123D01*
X108242Y922151D01*
X108239Y922264D01*
X108242Y922377D01*
X108234Y922406D01*
X108233Y922435D01*
X108198Y922543D01*
X108170Y922652D01*
X108155Y922678D01*
X108146Y922706D01*
X108100Y922769D01*
X108025Y922897D01*
X107979Y922940D01*
X107951Y922979D01*
X58673Y972257D01*
X58673Y1080031D01*
X58673Y1080032D01*
X58673Y1080034D01*
X58666Y1080082D01*
X58667Y1080092D01*
X58663Y1080107D01*
X58653Y1080174D01*
X58633Y1080312D01*
X58633Y1080314D01*
X58633Y1080315D01*
X58577Y1080438D01*
X58517Y1080572D01*
X58516Y1080573D01*
X58515Y1080574D01*
X58424Y1080681D01*
X58334Y1080789D01*
X58332Y1080789D01*
X58331Y1080791D01*
X58318Y1080799D01*
X58097Y1080946D01*
X58068Y1080955D01*
X58047Y1080969D01*
X55780Y1081907D01*
X53207Y1084480D01*
X51815Y1087841D01*
X51815Y1091479D01*
X53207Y1094840D01*
X55780Y1097413D01*
X59141Y1098805D01*
X62779Y1098805D01*
X66140Y1097413D01*
X68713Y1094840D01*
X70105Y1091479D01*
X70105Y1087841D01*
X68713Y1084480D01*
X66140Y1081907D01*
X63873Y1080969D01*
X63872Y1080968D01*
X63871Y1080967D01*
X63750Y1080896D01*
X63629Y1080824D01*
X63628Y1080823D01*
X63626Y1080822D01*
X63529Y1080718D01*
X63433Y1080617D01*
X63433Y1080616D01*
X63432Y1080615D01*
X63367Y1080489D01*
X63303Y1080365D01*
X63303Y1080363D01*
X63302Y1080362D01*
X63300Y1080347D01*
X63248Y1080086D01*
X63251Y1080055D01*
X63247Y1080031D01*
X63247Y974572D01*
X63259Y974485D01*
X63262Y974398D01*
X63279Y974345D01*
X63287Y974290D01*
X63322Y974210D01*
X63349Y974127D01*
X63377Y974088D01*
X63403Y974031D01*
X63499Y973917D01*
X63544Y973854D01*
X114235Y923163D01*
X114259Y923145D01*
X114278Y923123D01*
X114372Y923060D01*
X114462Y922992D01*
X114490Y922981D01*
X114514Y922965D01*
X114622Y922931D01*
X114728Y922890D01*
X114757Y922888D01*
X114785Y922879D01*
X114899Y922876D01*
X115011Y922867D01*
X115040Y922873D01*
X115069Y922872D01*
X115179Y922901D01*
X115290Y922923D01*
X115316Y922936D01*
X115344Y922944D01*
X115442Y923002D01*
X115542Y923054D01*
X115564Y923074D01*
X115589Y923089D01*
X115666Y923172D01*
X115748Y923250D01*
X115763Y923275D01*
X115783Y923296D01*
X115835Y923397D01*
X115892Y923495D01*
X115899Y923523D01*
X115913Y923549D01*
X115926Y923627D01*
X115962Y923770D01*
X115960Y923833D01*
X115968Y923880D01*
X115968Y1079986D01*
X115960Y1080042D01*
X115962Y1080092D01*
X115948Y1080142D01*
X115942Y1080214D01*
X115932Y1080240D01*
X115928Y1080267D01*
X115898Y1080334D01*
X115890Y1080367D01*
X115871Y1080398D01*
X115840Y1080479D01*
X115824Y1080501D01*
X115812Y1080526D01*
X115755Y1080594D01*
X115745Y1080612D01*
X115729Y1080626D01*
X115669Y1080706D01*
X115646Y1080722D01*
X115629Y1080743D01*
X115544Y1080800D01*
X115537Y1080806D01*
X115528Y1080811D01*
X115441Y1080876D01*
X115415Y1080886D01*
X115392Y1080901D01*
X115286Y1080935D01*
X115284Y1080935D01*
X115282Y1080936D01*
X115175Y1080976D01*
X115147Y1080978D01*
X115121Y1080987D01*
X115006Y1080990D01*
X114892Y1080999D01*
X114867Y1080993D01*
X114837Y1080994D01*
X114701Y1080959D01*
X114648Y1080951D01*
X114614Y1080936D01*
X114580Y1080927D01*
X114564Y1080923D01*
X113579Y1080515D01*
X109941Y1080515D01*
X106580Y1081907D01*
X104007Y1084480D01*
X102615Y1087841D01*
X102615Y1091479D01*
X104007Y1094840D01*
X106580Y1097413D01*
X109941Y1098805D01*
X113579Y1098805D01*
X116940Y1097413D01*
X119513Y1094840D01*
X120905Y1091479D01*
X120905Y1087841D01*
X119966Y1085574D01*
X119965Y1085573D01*
X119965Y1085571D01*
X119929Y1085431D01*
X119895Y1085299D01*
X119895Y1085297D01*
X119895Y1085296D01*
X119899Y1085155D01*
X119903Y1085015D01*
X119904Y1085013D01*
X119904Y1085012D01*
X119947Y1084876D01*
X119990Y1084744D01*
X119991Y1084743D01*
X119991Y1084741D01*
X120000Y1084729D01*
X120148Y1084508D01*
X120171Y1084488D01*
X120186Y1084468D01*
X120542Y1084112D01*
X120542Y688293D01*
X120554Y688206D01*
X120557Y688119D01*
X120574Y688066D01*
X120582Y688011D01*
X120617Y687931D01*
X120644Y687848D01*
X120672Y687809D01*
X120698Y687752D01*
X120794Y687639D01*
X120839Y687575D01*
X191314Y617100D01*
X191314Y584200D01*
X191322Y584142D01*
X191320Y584084D01*
X191342Y584002D01*
X191354Y583918D01*
X191378Y583865D01*
X191392Y583809D01*
X191435Y583736D01*
X191470Y583659D01*
X191508Y583614D01*
X191538Y583564D01*
X191599Y583506D01*
X191654Y583442D01*
X191702Y583410D01*
X191745Y583370D01*
X191820Y583331D01*
X191890Y583284D01*
X191946Y583267D01*
X191998Y583240D01*
X192066Y583229D01*
X192161Y583199D01*
X192170Y583198D01*
X194565Y580804D01*
X194565Y579403D01*
X194569Y579373D01*
X194566Y579344D01*
X194589Y579233D01*
X194605Y579121D01*
X194617Y579094D01*
X194622Y579066D01*
X194674Y578965D01*
X194721Y578862D01*
X194740Y578839D01*
X194753Y578813D01*
X194831Y578731D01*
X194904Y578645D01*
X194929Y578628D01*
X194949Y578607D01*
X195047Y578550D01*
X195141Y578487D01*
X195169Y578478D01*
X195194Y578463D01*
X195304Y578436D01*
X195412Y578401D01*
X195442Y578401D01*
X195470Y578393D01*
X195583Y578397D01*
X195696Y578394D01*
X195725Y578401D01*
X195754Y578402D01*
X195862Y578437D01*
X195971Y578466D01*
X195997Y578481D01*
X196025Y578490D01*
X196088Y578535D01*
X196216Y578611D01*
X196259Y578657D01*
X196298Y578685D01*
X214873Y597260D01*
X214908Y597306D01*
X214950Y597347D01*
X214993Y597420D01*
X215044Y597487D01*
X215065Y597542D01*
X215094Y597592D01*
X215115Y597674D01*
X215145Y597753D01*
X215150Y597811D01*
X215164Y597868D01*
X215162Y597952D01*
X215169Y598036D01*
X215157Y598093D01*
X215155Y598152D01*
X215129Y598232D01*
X215113Y598315D01*
X215086Y598367D01*
X215068Y598422D01*
X215028Y598478D01*
X214982Y598567D01*
X214913Y598639D01*
X214873Y598696D01*
X143815Y669754D01*
X143814Y669754D01*
X141731Y671837D01*
X141731Y808475D01*
X143814Y810558D01*
X143815Y810558D01*
X159563Y826306D01*
X159598Y826353D01*
X159640Y826393D01*
X159683Y826466D01*
X159733Y826533D01*
X159754Y826588D01*
X159784Y826638D01*
X159805Y826720D01*
X159835Y826799D01*
X159840Y826857D01*
X159854Y826914D01*
X159851Y826998D01*
X159858Y827082D01*
X159847Y827140D01*
X159845Y827198D01*
X159819Y827278D01*
X159802Y827361D01*
X159775Y827413D01*
X159757Y827469D01*
X159717Y827525D01*
X159671Y827613D01*
X159603Y827686D01*
X159563Y827742D01*
X159003Y828301D01*
X159003Y1077468D01*
X158995Y1077526D01*
X158997Y1077584D01*
X158975Y1077666D01*
X158963Y1077750D01*
X158940Y1077803D01*
X158925Y1077859D01*
X158882Y1077932D01*
X158847Y1078009D01*
X158809Y1078054D01*
X158780Y1078104D01*
X158718Y1078162D01*
X158664Y1078226D01*
X158615Y1078258D01*
X158572Y1078298D01*
X158497Y1078337D01*
X158427Y1078384D01*
X158371Y1078401D01*
X158319Y1078428D01*
X158251Y1078439D01*
X158156Y1078469D01*
X158056Y1078472D01*
X157988Y1078483D01*
X157930Y1078483D01*
X151383Y1085030D01*
X151383Y1094290D01*
X157930Y1100837D01*
X167190Y1100837D01*
X173737Y1094290D01*
X173737Y1085030D01*
X167190Y1078483D01*
X166116Y1078483D01*
X166058Y1078475D01*
X166000Y1078477D01*
X165918Y1078455D01*
X165834Y1078443D01*
X165781Y1078420D01*
X165725Y1078405D01*
X165652Y1078362D01*
X165575Y1078327D01*
X165530Y1078289D01*
X165480Y1078260D01*
X165422Y1078198D01*
X165358Y1078144D01*
X165326Y1078095D01*
X165286Y1078052D01*
X165247Y1077977D01*
X165200Y1077907D01*
X165183Y1077851D01*
X165156Y1077799D01*
X165145Y1077731D01*
X165115Y1077636D01*
X165112Y1077536D01*
X165101Y1077468D01*
X165101Y832104D01*
X165109Y832046D01*
X165107Y831988D01*
X165129Y831906D01*
X165141Y831822D01*
X165164Y831769D01*
X165179Y831713D01*
X165222Y831640D01*
X165257Y831563D01*
X165295Y831518D01*
X165324Y831468D01*
X165386Y831410D01*
X165440Y831346D01*
X165489Y831314D01*
X165532Y831274D01*
X165607Y831235D01*
X165677Y831188D01*
X165733Y831171D01*
X165785Y831144D01*
X165853Y831133D01*
X165948Y831103D01*
X166048Y831100D01*
X166116Y831089D01*
X166276Y831089D01*
X168657Y828708D01*
X168657Y825340D01*
X166276Y822959D01*
X165259Y822959D01*
X165173Y822947D01*
X165085Y822944D01*
X165033Y822927D01*
X164978Y822919D01*
X164898Y822884D01*
X164815Y822857D01*
X164776Y822829D01*
X164718Y822803D01*
X164605Y822707D01*
X164541Y822662D01*
X157937Y816058D01*
X157920Y816034D01*
X157897Y816015D01*
X157835Y815921D01*
X157767Y815831D01*
X157756Y815803D01*
X157740Y815779D01*
X157706Y815671D01*
X157665Y815565D01*
X157663Y815536D01*
X157654Y815508D01*
X157651Y815394D01*
X157642Y815282D01*
X157647Y815253D01*
X157647Y815224D01*
X157675Y815114D01*
X157698Y815003D01*
X157711Y814977D01*
X157719Y814949D01*
X157776Y814851D01*
X157829Y814751D01*
X157849Y814729D01*
X157864Y814704D01*
X157946Y814627D01*
X158024Y814545D01*
X158050Y814530D01*
X158071Y814510D01*
X158172Y814458D01*
X158270Y814401D01*
X158298Y814394D01*
X158324Y814380D01*
X158402Y814367D01*
X158545Y814331D01*
X158608Y814333D01*
X158655Y814325D01*
X159164Y814325D01*
X160644Y812844D01*
X160714Y812792D01*
X160778Y812732D01*
X160787Y812727D01*
X239379Y734135D01*
X239379Y625310D01*
X239391Y625223D01*
X239394Y625136D01*
X239411Y625083D01*
X239419Y625028D01*
X239455Y624948D01*
X239482Y624865D01*
X239510Y624826D01*
X239535Y624769D01*
X239631Y624656D01*
X239677Y624592D01*
X240257Y624012D01*
X240327Y623959D01*
X240391Y623899D01*
X240440Y623874D01*
X240484Y623841D01*
X240566Y623810D01*
X240644Y623770D01*
X240691Y623762D01*
X240750Y623739D01*
X240897Y623727D01*
X240975Y623714D01*
X479090Y623714D01*
X479176Y623726D01*
X479264Y623729D01*
X479316Y623746D01*
X479371Y623754D01*
X479451Y623790D01*
X479534Y623817D01*
X479574Y623845D01*
X479631Y623870D01*
X479744Y623966D01*
X479808Y624012D01*
X484588Y628792D01*
X484640Y628862D01*
X484700Y628926D01*
X484726Y628975D01*
X484759Y629019D01*
X484790Y629101D01*
X484830Y629179D01*
X484838Y629226D01*
X484860Y629285D01*
X484872Y629432D01*
X484885Y629510D01*
X484885Y631604D01*
X487266Y633985D01*
X490634Y633985D01*
X493015Y631604D01*
X493015Y628236D01*
X490634Y625855D01*
X488540Y625855D01*
X488453Y625843D01*
X488366Y625840D01*
X488313Y625823D01*
X488258Y625815D01*
X488178Y625780D01*
X488095Y625753D01*
X488056Y625725D01*
X487999Y625699D01*
X487886Y625603D01*
X487822Y625558D01*
X481405Y619141D01*
X240975Y619141D01*
X240888Y619129D01*
X240801Y619126D01*
X240748Y619109D01*
X240693Y619101D01*
X240613Y619065D01*
X240530Y619038D01*
X240491Y619010D01*
X240434Y618985D01*
X240321Y618889D01*
X240257Y618843D01*
X238776Y617363D01*
X235409Y617363D01*
X233028Y619744D01*
X233028Y623111D01*
X234508Y624592D01*
X234561Y624662D01*
X234621Y624726D01*
X234646Y624775D01*
X234679Y624819D01*
X234710Y624901D01*
X234750Y624979D01*
X234758Y625026D01*
X234781Y625085D01*
X234793Y625232D01*
X234806Y625310D01*
X234806Y731820D01*
X234794Y731906D01*
X234791Y731994D01*
X234774Y732046D01*
X234766Y732101D01*
X234730Y732181D01*
X234703Y732264D01*
X234675Y732304D01*
X234650Y732361D01*
X234554Y732474D01*
X234508Y732538D01*
X160725Y806321D01*
X160679Y806356D01*
X160638Y806399D01*
X160565Y806441D01*
X160498Y806492D01*
X160443Y806513D01*
X160393Y806542D01*
X160311Y806563D01*
X160232Y806593D01*
X160174Y806598D01*
X160117Y806612D01*
X160033Y806610D01*
X159949Y806617D01*
X159892Y806605D01*
X159833Y806603D01*
X159753Y806577D01*
X159670Y806561D01*
X159618Y806534D01*
X159563Y806516D01*
X159506Y806476D01*
X159418Y806430D01*
X159346Y806361D01*
X159289Y806321D01*
X159164Y806195D01*
X157480Y806195D01*
X157422Y806187D01*
X157364Y806189D01*
X157282Y806167D01*
X157198Y806155D01*
X157145Y806132D01*
X157089Y806117D01*
X157016Y806074D01*
X156939Y806039D01*
X156894Y806001D01*
X156844Y805972D01*
X156786Y805910D01*
X156722Y805856D01*
X156690Y805807D01*
X156650Y805764D01*
X156611Y805689D01*
X156564Y805619D01*
X156547Y805563D01*
X156520Y805511D01*
X156509Y805443D01*
X156479Y805348D01*
X156476Y805248D01*
X156465Y805180D01*
X156465Y804770D01*
X156477Y804683D01*
X156480Y804596D01*
X156497Y804543D01*
X156505Y804488D01*
X156540Y804408D01*
X156567Y804325D01*
X156595Y804286D01*
X156621Y804229D01*
X156717Y804116D01*
X156762Y804052D01*
X227077Y733737D01*
X227077Y619832D01*
X227089Y619746D01*
X227092Y619658D01*
X227109Y619606D01*
X227117Y619551D01*
X227152Y619471D01*
X227179Y619388D01*
X227207Y619348D01*
X227233Y619291D01*
X227329Y619178D01*
X227374Y619114D01*
X228855Y617634D01*
X228855Y614266D01*
X226474Y611885D01*
X223106Y611885D01*
X220725Y614266D01*
X220725Y617634D01*
X222206Y619114D01*
X222258Y619184D01*
X222318Y619248D01*
X222344Y619297D01*
X222377Y619342D01*
X222408Y619423D01*
X222448Y619501D01*
X222456Y619549D01*
X222478Y619607D01*
X222490Y619755D01*
X222503Y619832D01*
X222503Y731422D01*
X222491Y731509D01*
X222488Y731596D01*
X222471Y731649D01*
X222463Y731704D01*
X222428Y731784D01*
X222401Y731867D01*
X222373Y731906D01*
X222347Y731963D01*
X222251Y732076D01*
X222206Y732140D01*
X153528Y800818D01*
X153458Y800870D01*
X153394Y800930D01*
X153345Y800956D01*
X153301Y800989D01*
X153219Y801020D01*
X153141Y801060D01*
X153094Y801068D01*
X153035Y801090D01*
X152888Y801102D01*
X152810Y801115D01*
X150716Y801115D01*
X149562Y802270D01*
X149538Y802287D01*
X149519Y802310D01*
X149425Y802373D01*
X149335Y802441D01*
X149307Y802451D01*
X149283Y802467D01*
X149175Y802502D01*
X149069Y802542D01*
X149040Y802544D01*
X149012Y802553D01*
X148898Y802556D01*
X148786Y802565D01*
X148757Y802560D01*
X148728Y802560D01*
X148618Y802532D01*
X148507Y802510D01*
X148481Y802496D01*
X148453Y802489D01*
X148355Y802431D01*
X148255Y802379D01*
X148233Y802358D01*
X148208Y802343D01*
X148131Y802261D01*
X148049Y802183D01*
X148034Y802157D01*
X148014Y802136D01*
X147962Y802035D01*
X147905Y801937D01*
X147898Y801909D01*
X147884Y801883D01*
X147871Y801806D01*
X147835Y801662D01*
X147837Y801599D01*
X147829Y801552D01*
X147829Y674783D01*
X147841Y674697D01*
X147844Y674609D01*
X147861Y674557D01*
X147869Y674502D01*
X147904Y674422D01*
X147931Y674339D01*
X147959Y674300D01*
X147985Y674242D01*
X148081Y674129D01*
X148126Y674065D01*
X220421Y601770D01*
X220491Y601718D01*
X220555Y601658D01*
X220605Y601632D01*
X220649Y601599D01*
X220730Y601568D01*
X220808Y601528D01*
X220856Y601520D01*
X220914Y601498D01*
X221062Y601486D01*
X221139Y601473D01*
X518385Y601473D01*
X518472Y601485D01*
X518559Y601488D01*
X518612Y601505D01*
X518667Y601513D01*
X518747Y601548D01*
X518830Y601575D01*
X518869Y601603D01*
X518926Y601629D01*
X519040Y601725D01*
X519103Y601770D01*
X685326Y767993D01*
X703696Y767993D01*
X706375Y765314D01*
X706375Y761526D01*
X703696Y758847D01*
X689535Y758847D01*
X689448Y758835D01*
X689361Y758832D01*
X689308Y758815D01*
X689253Y758807D01*
X689173Y758772D01*
X689090Y758745D01*
X689051Y758717D01*
X688994Y758691D01*
X688880Y758595D01*
X688817Y758550D01*
X522594Y592327D01*
X388718Y592327D01*
X388689Y592323D01*
X388659Y592326D01*
X388548Y592303D01*
X388436Y592287D01*
X388409Y592275D01*
X388381Y592270D01*
X388280Y592218D01*
X388177Y592171D01*
X388154Y592152D01*
X388128Y592139D01*
X388046Y592061D01*
X387960Y591988D01*
X387943Y591963D01*
X387922Y591943D01*
X387865Y591845D01*
X387802Y591751D01*
X387793Y591723D01*
X387779Y591698D01*
X387751Y591588D01*
X387716Y591480D01*
X387716Y591450D01*
X387708Y591422D01*
X387712Y591309D01*
X387709Y591196D01*
X387717Y591167D01*
X387717Y591138D01*
X387752Y591030D01*
X387781Y590921D01*
X387796Y590895D01*
X387805Y590867D01*
X387850Y590804D01*
X387926Y590676D01*
X387972Y590633D01*
X388000Y590594D01*
X413767Y564827D01*
X413767Y359482D01*
X413779Y359396D01*
X413782Y359308D01*
X413799Y359256D01*
X413807Y359201D01*
X413842Y359121D01*
X413869Y359038D01*
X413897Y358998D01*
X413923Y358941D01*
X414019Y358828D01*
X414064Y358764D01*
X415545Y357284D01*
X415545Y353916D01*
X413164Y351535D01*
X409796Y351535D01*
X407415Y353916D01*
X407415Y357284D01*
X408896Y358764D01*
X408948Y358834D01*
X409008Y358898D01*
X409034Y358947D01*
X409067Y358992D01*
X409098Y359073D01*
X409138Y359151D01*
X409146Y359199D01*
X409168Y359257D01*
X409180Y359405D01*
X409193Y359482D01*
X409193Y562512D01*
X409181Y562599D01*
X409178Y562686D01*
X409161Y562739D01*
X409153Y562794D01*
X409118Y562874D01*
X409091Y562957D01*
X409063Y562996D01*
X409037Y563053D01*
X408941Y563166D01*
X408896Y563230D01*
X387560Y584566D01*
X387536Y584584D01*
X387517Y584606D01*
X387423Y584669D01*
X387333Y584737D01*
X387305Y584748D01*
X387281Y584764D01*
X387173Y584798D01*
X387067Y584838D01*
X387038Y584841D01*
X387010Y584850D01*
X386896Y584853D01*
X386784Y584862D01*
X386755Y584856D01*
X386726Y584857D01*
X386616Y584828D01*
X386505Y584806D01*
X386479Y584792D01*
X386451Y584785D01*
X386353Y584727D01*
X386253Y584675D01*
X386231Y584655D01*
X386206Y584640D01*
X386129Y584557D01*
X386047Y584479D01*
X386032Y584454D01*
X386012Y584433D01*
X385960Y584332D01*
X385903Y584234D01*
X385896Y584206D01*
X385882Y584179D01*
X385869Y584102D01*
X385833Y583958D01*
X385835Y583896D01*
X385827Y583848D01*
X385827Y583637D01*
X385808Y583588D01*
X385778Y583538D01*
X385758Y583456D01*
X385728Y583377D01*
X385723Y583319D01*
X385708Y583262D01*
X385711Y583178D01*
X385704Y583094D01*
X385715Y583037D01*
X385717Y582978D01*
X385743Y582898D01*
X385760Y582815D01*
X385787Y582763D01*
X385805Y582708D01*
X385845Y582651D01*
X385891Y582563D01*
X385960Y582490D01*
X386000Y582434D01*
X401970Y566464D01*
X403607Y564827D01*
X403607Y324303D01*
X403619Y324217D01*
X403622Y324129D01*
X403639Y324077D01*
X403647Y324022D01*
X403682Y323942D01*
X403709Y323859D01*
X403737Y323819D01*
X403763Y323762D01*
X403859Y323649D01*
X403904Y323585D01*
X405385Y322105D01*
X405385Y318737D01*
X403004Y316356D01*
X399636Y316356D01*
X397255Y318737D01*
X397255Y322105D01*
X398736Y323585D01*
X398788Y323655D01*
X398848Y323719D01*
X398874Y323768D01*
X398907Y323813D01*
X398938Y323894D01*
X398978Y323972D01*
X398986Y324020D01*
X399008Y324078D01*
X399020Y324226D01*
X399033Y324303D01*
X399033Y562512D01*
X399021Y562599D01*
X399018Y562686D01*
X399001Y562739D01*
X398993Y562794D01*
X398958Y562874D01*
X398931Y562957D01*
X398903Y562996D01*
X398877Y563053D01*
X398781Y563166D01*
X398736Y563230D01*
X380947Y581019D01*
X380878Y581071D01*
X380814Y581131D01*
X380764Y581156D01*
X380720Y581190D01*
X380639Y581221D01*
X380561Y581261D01*
X380513Y581268D01*
X380455Y581291D01*
X380307Y581303D01*
X380230Y581316D01*
X380078Y581316D01*
X379178Y582216D01*
X379154Y582234D01*
X379135Y582256D01*
X379084Y582290D01*
X379055Y582318D01*
X379016Y582338D01*
X378951Y582387D01*
X378923Y582398D01*
X378899Y582414D01*
X378816Y582440D01*
X378802Y582448D01*
X378785Y582451D01*
X378685Y582489D01*
X378656Y582491D01*
X378628Y582500D01*
X378514Y582503D01*
X378402Y582512D01*
X378373Y582506D01*
X378344Y582507D01*
X378234Y582479D01*
X378123Y582456D01*
X378097Y582443D01*
X378069Y582435D01*
X377971Y582377D01*
X377871Y582325D01*
X377849Y582305D01*
X377824Y582290D01*
X377747Y582207D01*
X377665Y582129D01*
X377650Y582104D01*
X377630Y582083D01*
X377578Y581982D01*
X377555Y581943D01*
X377544Y581927D01*
X377543Y581922D01*
X377521Y581884D01*
X377514Y581856D01*
X377500Y581830D01*
X377487Y581752D01*
X377479Y581721D01*
X377459Y581656D01*
X377458Y581638D01*
X377451Y581609D01*
X377453Y581546D01*
X377445Y581499D01*
X377445Y581250D01*
X377457Y581163D01*
X377460Y581076D01*
X377477Y581023D01*
X377485Y580968D01*
X377520Y580888D01*
X377547Y580805D01*
X377575Y580766D01*
X377601Y580709D01*
X377697Y580596D01*
X377742Y580532D01*
X393447Y564827D01*
X393447Y265753D01*
X370122Y242428D01*
X370070Y242358D01*
X370010Y242294D01*
X369984Y242245D01*
X369951Y242201D01*
X369920Y242119D01*
X369880Y242041D01*
X369872Y241994D01*
X369850Y241935D01*
X369838Y241788D01*
X369825Y241710D01*
X369825Y239616D01*
X367444Y237235D01*
X364076Y237235D01*
X361695Y239616D01*
X361695Y242984D01*
X364076Y245365D01*
X366170Y245365D01*
X366257Y245377D01*
X366344Y245380D01*
X366397Y245397D01*
X366452Y245405D01*
X366532Y245440D01*
X366615Y245467D01*
X366654Y245495D01*
X366711Y245521D01*
X366824Y245617D01*
X366888Y245662D01*
X388576Y267350D01*
X388628Y267420D01*
X388688Y267484D01*
X388714Y267533D01*
X388747Y267577D01*
X388778Y267659D01*
X388818Y267737D01*
X388826Y267784D01*
X388848Y267843D01*
X388860Y267990D01*
X388873Y268068D01*
X388873Y562512D01*
X388861Y562599D01*
X388858Y562686D01*
X388841Y562739D01*
X388833Y562794D01*
X388798Y562874D01*
X388771Y562957D01*
X388743Y562996D01*
X388717Y563053D01*
X388621Y563166D01*
X388576Y563230D01*
X372871Y578935D01*
X372871Y581245D01*
X372864Y581294D01*
X372866Y581344D01*
X372844Y581434D01*
X372831Y581526D01*
X372811Y581572D01*
X372799Y581620D01*
X372753Y581701D01*
X372715Y581786D01*
X372683Y581824D01*
X372658Y581867D01*
X372591Y581932D01*
X372532Y582003D01*
X372490Y582030D01*
X372454Y582065D01*
X372372Y582109D01*
X372295Y582160D01*
X372247Y582175D01*
X372203Y582199D01*
X372112Y582218D01*
X372024Y582246D01*
X371974Y582247D01*
X371925Y582258D01*
X371832Y582251D01*
X371740Y582253D01*
X371691Y582241D01*
X371641Y582237D01*
X371554Y582205D01*
X371465Y582181D01*
X371422Y582156D01*
X371375Y582138D01*
X371300Y582083D01*
X371220Y582036D01*
X371186Y582000D01*
X371146Y581970D01*
X371102Y581910D01*
X371026Y581829D01*
X370985Y581750D01*
X370948Y581699D01*
X370927Y581635D01*
X370896Y581576D01*
X370886Y581513D01*
X370858Y581429D01*
X370853Y581317D01*
X370841Y581245D01*
X370841Y268547D01*
X370122Y267828D01*
X370070Y267758D01*
X370010Y267694D01*
X369984Y267645D01*
X369951Y267601D01*
X369920Y267519D01*
X369880Y267441D01*
X369872Y267394D01*
X369850Y267335D01*
X369838Y267188D01*
X369825Y267110D01*
X369825Y265016D01*
X367444Y262635D01*
X364076Y262635D01*
X361695Y265016D01*
X361695Y268384D01*
X364076Y270765D01*
X365252Y270765D01*
X365310Y270773D01*
X365368Y270771D01*
X365450Y270793D01*
X365534Y270805D01*
X365587Y270828D01*
X365643Y270843D01*
X365716Y270886D01*
X365793Y270921D01*
X365838Y270959D01*
X365888Y270988D01*
X365946Y271050D01*
X366010Y271104D01*
X366042Y271153D01*
X366082Y271196D01*
X366121Y271271D01*
X366168Y271341D01*
X366185Y271397D01*
X366212Y271449D01*
X366223Y271517D01*
X366253Y271612D01*
X366256Y271712D01*
X366267Y271780D01*
X366267Y581245D01*
X366255Y581331D01*
X366252Y581419D01*
X366235Y581471D01*
X366227Y581526D01*
X366192Y581606D01*
X366165Y581689D01*
X366137Y581728D01*
X366111Y581785D01*
X366015Y581899D01*
X365970Y581962D01*
X364489Y583443D01*
X364489Y586994D01*
X364481Y587052D01*
X364483Y587110D01*
X364461Y587192D01*
X364449Y587276D01*
X364426Y587329D01*
X364411Y587385D01*
X364368Y587458D01*
X364333Y587535D01*
X364295Y587580D01*
X364266Y587630D01*
X364204Y587688D01*
X364150Y587752D01*
X364101Y587784D01*
X364058Y587824D01*
X363983Y587863D01*
X363913Y587910D01*
X363857Y587927D01*
X363805Y587954D01*
X363737Y587965D01*
X363642Y587995D01*
X363542Y587998D01*
X363474Y588009D01*
X355418Y588009D01*
X355332Y587997D01*
X355244Y587994D01*
X355192Y587977D01*
X355137Y587969D01*
X355057Y587934D01*
X354974Y587907D01*
X354934Y587879D01*
X354877Y587853D01*
X354764Y587757D01*
X354700Y587712D01*
X352204Y585215D01*
X348836Y585215D01*
X346455Y587596D01*
X346455Y591312D01*
X346447Y591370D01*
X346449Y591428D01*
X346427Y591510D01*
X346415Y591594D01*
X346392Y591647D01*
X346377Y591703D01*
X346334Y591776D01*
X346299Y591853D01*
X346261Y591898D01*
X346232Y591948D01*
X346170Y592006D01*
X346116Y592070D01*
X346067Y592102D01*
X346024Y592142D01*
X345949Y592181D01*
X345879Y592228D01*
X345823Y592245D01*
X345771Y592272D01*
X345703Y592283D01*
X345608Y592313D01*
X345508Y592316D01*
X345440Y592327D01*
X223295Y592327D01*
X223208Y592315D01*
X223121Y592312D01*
X223068Y592295D01*
X223013Y592287D01*
X222933Y592252D01*
X222850Y592225D01*
X222811Y592197D01*
X222754Y592171D01*
X222640Y592075D01*
X222577Y592030D01*
X187685Y557138D01*
X187667Y557114D01*
X187645Y557095D01*
X187582Y557001D01*
X187514Y556911D01*
X187503Y556883D01*
X187487Y556859D01*
X187453Y556751D01*
X187413Y556645D01*
X187410Y556616D01*
X187401Y556588D01*
X187398Y556474D01*
X187389Y556362D01*
X187395Y556333D01*
X187394Y556304D01*
X187423Y556194D01*
X187445Y556083D01*
X187458Y556057D01*
X187466Y556029D01*
X187524Y555931D01*
X187576Y555831D01*
X187596Y555809D01*
X187611Y555784D01*
X187694Y555707D01*
X187772Y555625D01*
X187797Y555610D01*
X187818Y555590D01*
X187919Y555538D01*
X188017Y555481D01*
X188045Y555474D01*
X188072Y555460D01*
X188149Y555447D01*
X188292Y555411D01*
X188355Y555413D01*
X188403Y555405D01*
X191361Y555405D01*
X192764Y554002D01*
X192834Y553949D01*
X192898Y553889D01*
X192947Y553864D01*
X192991Y553831D01*
X193073Y553800D01*
X193151Y553760D01*
X193198Y553752D01*
X193257Y553729D01*
X193404Y553717D01*
X193482Y553704D01*
X201370Y553704D01*
X307990Y447084D01*
X308060Y447032D01*
X308124Y446972D01*
X308173Y446946D01*
X308217Y446913D01*
X308299Y446882D01*
X308377Y446842D01*
X308424Y446834D01*
X308483Y446812D01*
X308630Y446800D01*
X308708Y446787D01*
X351718Y446787D01*
X351804Y446799D01*
X351892Y446802D01*
X351944Y446819D01*
X351999Y446827D01*
X352079Y446862D01*
X352162Y446889D01*
X352202Y446917D01*
X352259Y446943D01*
X352372Y447039D01*
X352436Y447084D01*
X353916Y448565D01*
X357284Y448565D01*
X359665Y446184D01*
X359665Y442816D01*
X357284Y440435D01*
X353916Y440435D01*
X352436Y441916D01*
X352366Y441968D01*
X352302Y442028D01*
X352253Y442054D01*
X352208Y442087D01*
X352127Y442118D01*
X352049Y442158D01*
X352001Y442166D01*
X351943Y442188D01*
X351795Y442200D01*
X351718Y442213D01*
X306393Y442213D01*
X199773Y548833D01*
X199703Y548886D01*
X199639Y548946D01*
X199590Y548971D01*
X199545Y549004D01*
X199464Y549035D01*
X199386Y549075D01*
X199338Y549083D01*
X199280Y549106D01*
X199132Y549118D01*
X199055Y549131D01*
X193637Y549131D01*
X193550Y549119D01*
X193463Y549116D01*
X193410Y549099D01*
X193355Y549091D01*
X193275Y549055D01*
X193192Y549028D01*
X193153Y549000D01*
X193096Y548975D01*
X192983Y548879D01*
X192919Y548833D01*
X191383Y547298D01*
X191366Y547274D01*
X191343Y547255D01*
X191280Y547161D01*
X191212Y547071D01*
X191202Y547043D01*
X191186Y547019D01*
X191151Y546911D01*
X191111Y546805D01*
X191109Y546776D01*
X191100Y546748D01*
X191097Y546634D01*
X191088Y546522D01*
X191093Y546493D01*
X191093Y546464D01*
X191121Y546354D01*
X191143Y546243D01*
X191157Y546217D01*
X191164Y546189D01*
X191222Y546091D01*
X191274Y545991D01*
X191295Y545969D01*
X191310Y545944D01*
X191392Y545867D01*
X191470Y545785D01*
X191496Y545770D01*
X191517Y545750D01*
X191618Y545698D01*
X191716Y545641D01*
X191744Y545634D01*
X191770Y545620D01*
X191847Y545607D01*
X191991Y545571D01*
X192054Y545573D01*
X192101Y545565D01*
X192184Y545565D01*
X193734Y544014D01*
X193804Y543962D01*
X193868Y543902D01*
X193917Y543877D01*
X193961Y543843D01*
X194043Y543812D01*
X194121Y543772D01*
X194168Y543765D01*
X194227Y543742D01*
X194375Y543730D01*
X194452Y543717D01*
X199731Y543717D01*
X201368Y542080D01*
X321764Y421684D01*
X321834Y421632D01*
X321898Y421572D01*
X321947Y421546D01*
X321992Y421513D01*
X322073Y421482D01*
X322151Y421442D01*
X322199Y421434D01*
X322257Y421412D01*
X322405Y421400D01*
X322482Y421387D01*
X351718Y421387D01*
X351804Y421399D01*
X351892Y421402D01*
X351944Y421419D01*
X351999Y421427D01*
X352079Y421462D01*
X352162Y421489D01*
X352202Y421517D01*
X352259Y421543D01*
X352372Y421639D01*
X352436Y421684D01*
X353916Y423165D01*
X357284Y423165D01*
X359665Y420784D01*
X359665Y417416D01*
X357284Y415035D01*
X353916Y415035D01*
X352436Y416516D01*
X352366Y416568D01*
X352302Y416628D01*
X352253Y416654D01*
X352208Y416687D01*
X352127Y416718D01*
X352049Y416758D01*
X352001Y416766D01*
X351943Y416788D01*
X351795Y416800D01*
X351718Y416813D01*
X320167Y416813D01*
X318530Y418450D01*
X198134Y538846D01*
X198065Y538899D01*
X198001Y538959D01*
X197951Y538984D01*
X197907Y539017D01*
X197826Y539048D01*
X197748Y539088D01*
X197700Y539096D01*
X197642Y539118D01*
X197494Y539131D01*
X197417Y539144D01*
X194312Y539144D01*
X194226Y539131D01*
X194138Y539128D01*
X194086Y539111D01*
X194031Y539104D01*
X193951Y539068D01*
X193868Y539041D01*
X193829Y539013D01*
X193772Y538987D01*
X193658Y538892D01*
X193595Y538846D01*
X192184Y537435D01*
X188816Y537435D01*
X186591Y539661D01*
X186564Y539681D01*
X186543Y539706D01*
X186451Y539766D01*
X186364Y539831D01*
X186333Y539843D01*
X186305Y539862D01*
X186200Y539894D01*
X186098Y539933D01*
X186065Y539935D01*
X186033Y539945D01*
X185924Y539947D01*
X185815Y539956D01*
X185782Y539950D01*
X185749Y539950D01*
X185643Y539922D01*
X185536Y539900D01*
X185506Y539885D01*
X185474Y539876D01*
X185381Y539820D01*
X185284Y539769D01*
X185260Y539746D01*
X185231Y539729D01*
X185157Y539649D01*
X185078Y539574D01*
X185061Y539545D01*
X185038Y539520D01*
X184989Y539423D01*
X184934Y539328D01*
X184926Y539296D01*
X184911Y539266D01*
X184898Y539188D01*
X184864Y539053D01*
X184866Y538985D01*
X184858Y538934D01*
X184894Y534452D01*
X184906Y534370D01*
X184909Y534287D01*
X184915Y534268D01*
X184913Y532149D01*
X184913Y532144D01*
X184913Y532140D01*
X184930Y530005D01*
X184923Y529918D01*
X184910Y529840D01*
X184898Y518147D01*
X184863Y398605D01*
X184875Y398518D01*
X184878Y398431D01*
X184895Y398378D01*
X184902Y398324D01*
X184938Y398244D01*
X184965Y398160D01*
X184993Y398121D01*
X185019Y398064D01*
X185115Y397950D01*
X185160Y397887D01*
X200153Y382894D01*
X200153Y193686D01*
X197474Y191007D01*
X193686Y191007D01*
G37*
%LPD*%
%LPC*%
G36*
X706976Y234695D02*
X706976Y234695D01*
X704595Y237076D01*
X704595Y240444D01*
X706976Y242825D01*
X709070Y242825D01*
X709157Y242837D01*
X709244Y242840D01*
X709297Y242857D01*
X709352Y242865D01*
X709432Y242900D01*
X709515Y242927D01*
X709554Y242955D01*
X709611Y242981D01*
X709724Y243077D01*
X709788Y243122D01*
X731476Y264810D01*
X731528Y264880D01*
X731588Y264944D01*
X731614Y264993D01*
X731647Y265037D01*
X731678Y265119D01*
X731718Y265197D01*
X731726Y265244D01*
X731748Y265303D01*
X731760Y265450D01*
X731773Y265528D01*
X731773Y1001932D01*
X731761Y1002019D01*
X731758Y1002106D01*
X731741Y1002159D01*
X731733Y1002214D01*
X731698Y1002294D01*
X731671Y1002377D01*
X731643Y1002416D01*
X731617Y1002473D01*
X731521Y1002586D01*
X731476Y1002650D01*
X683118Y1051008D01*
X683048Y1051060D01*
X682984Y1051120D01*
X682935Y1051146D01*
X682891Y1051179D01*
X682809Y1051210D01*
X682731Y1051250D01*
X682684Y1051258D01*
X682625Y1051280D01*
X682478Y1051292D01*
X682400Y1051305D01*
X680306Y1051305D01*
X677925Y1053686D01*
X677925Y1057054D01*
X680306Y1059435D01*
X683674Y1059435D01*
X686055Y1057054D01*
X686055Y1054960D01*
X686067Y1054873D01*
X686070Y1054786D01*
X686087Y1054733D01*
X686095Y1054678D01*
X686130Y1054598D01*
X686157Y1054515D01*
X686185Y1054476D01*
X686211Y1054419D01*
X686307Y1054306D01*
X686352Y1054242D01*
X736347Y1004247D01*
X736347Y263213D01*
X713022Y239888D01*
X712970Y239818D01*
X712910Y239754D01*
X712884Y239705D01*
X712851Y239661D01*
X712820Y239579D01*
X712780Y239501D01*
X712772Y239454D01*
X712750Y239395D01*
X712738Y239248D01*
X712725Y239170D01*
X712725Y237076D01*
X710344Y234695D01*
X706976Y234695D01*
G37*
%LPD*%
%LPC*%
G36*
X386936Y628395D02*
X386936Y628395D01*
X384555Y630776D01*
X384555Y634144D01*
X386036Y635624D01*
X386044Y635635D01*
X386045Y635636D01*
X386049Y635642D01*
X386088Y635694D01*
X386148Y635758D01*
X386174Y635807D01*
X386207Y635852D01*
X386238Y635933D01*
X386278Y636011D01*
X386286Y636059D01*
X386308Y636117D01*
X386320Y636265D01*
X386333Y636342D01*
X386333Y644112D01*
X386321Y644199D01*
X386318Y644286D01*
X386301Y644339D01*
X386293Y644394D01*
X386258Y644474D01*
X386231Y644557D01*
X386203Y644596D01*
X386177Y644653D01*
X386081Y644766D01*
X386036Y644830D01*
X198773Y832093D01*
X198773Y835000D01*
X198761Y835087D01*
X198758Y835174D01*
X198741Y835227D01*
X198733Y835282D01*
X198697Y835361D01*
X198670Y835445D01*
X198642Y835484D01*
X198617Y835541D01*
X198521Y835654D01*
X198476Y835718D01*
X196995Y837199D01*
X196995Y840566D01*
X198006Y841577D01*
X198041Y841624D01*
X198083Y841664D01*
X198126Y841737D01*
X198177Y841804D01*
X198198Y841859D01*
X198227Y841909D01*
X198248Y841991D01*
X198278Y842070D01*
X198283Y842128D01*
X198297Y842185D01*
X198295Y842269D01*
X198302Y842353D01*
X198290Y842410D01*
X198288Y842469D01*
X198262Y842549D01*
X198246Y842632D01*
X198219Y842684D01*
X198201Y842739D01*
X198161Y842796D01*
X198115Y842884D01*
X198046Y842957D01*
X198006Y843013D01*
X196739Y844280D01*
X196739Y847647D01*
X199120Y850028D01*
X202523Y850028D01*
X202531Y850024D01*
X202599Y849973D01*
X202653Y849952D01*
X202704Y849923D01*
X202786Y849902D01*
X202864Y849872D01*
X202923Y849867D01*
X202979Y849852D01*
X203064Y849855D01*
X203148Y849848D01*
X203205Y849860D01*
X203264Y849861D01*
X203344Y849887D01*
X203426Y849904D01*
X203478Y849931D01*
X203534Y849949D01*
X203590Y849989D01*
X203679Y850035D01*
X203751Y850104D01*
X203807Y850144D01*
X206088Y852425D01*
X209456Y852425D01*
X210936Y850944D01*
X211006Y850892D01*
X211070Y850832D01*
X211119Y850806D01*
X211164Y850773D01*
X211245Y850742D01*
X211323Y850702D01*
X211371Y850694D01*
X211429Y850672D01*
X211577Y850660D01*
X211654Y850647D01*
X211767Y850647D01*
X374792Y687622D01*
X374862Y687570D01*
X374926Y687510D01*
X374975Y687484D01*
X375019Y687451D01*
X375101Y687420D01*
X375179Y687380D01*
X375226Y687372D01*
X375285Y687350D01*
X375432Y687338D01*
X375510Y687325D01*
X377604Y687325D01*
X379985Y684944D01*
X379985Y681576D01*
X377604Y679195D01*
X374236Y679195D01*
X371855Y681576D01*
X371855Y683670D01*
X371843Y683757D01*
X371840Y683844D01*
X371823Y683897D01*
X371815Y683952D01*
X371780Y684032D01*
X371753Y684115D01*
X371725Y684154D01*
X371699Y684211D01*
X371603Y684324D01*
X371558Y684388D01*
X211271Y844675D01*
X211224Y844710D01*
X211184Y844753D01*
X211111Y844795D01*
X211044Y844846D01*
X210989Y844867D01*
X210939Y844896D01*
X210857Y844917D01*
X210778Y844947D01*
X210720Y844952D01*
X210663Y844966D01*
X210579Y844964D01*
X210495Y844971D01*
X210438Y844959D01*
X210379Y844957D01*
X210299Y844931D01*
X210216Y844915D01*
X210164Y844888D01*
X210109Y844870D01*
X210052Y844830D01*
X209964Y844784D01*
X209892Y844715D01*
X209835Y844675D01*
X209456Y844295D01*
X208157Y844295D01*
X208128Y844291D01*
X208098Y844294D01*
X207987Y844271D01*
X207875Y844255D01*
X207848Y844243D01*
X207820Y844238D01*
X207719Y844186D01*
X207616Y844139D01*
X207593Y844120D01*
X207567Y844107D01*
X207485Y844029D01*
X207399Y843956D01*
X207383Y843931D01*
X207361Y843911D01*
X207304Y843813D01*
X207241Y843719D01*
X207232Y843691D01*
X207218Y843666D01*
X207190Y843556D01*
X207155Y843448D01*
X207155Y843418D01*
X207147Y843390D01*
X207151Y843277D01*
X207148Y843164D01*
X207156Y843135D01*
X207156Y843106D01*
X207191Y842998D01*
X207220Y842889D01*
X207235Y842863D01*
X207244Y842835D01*
X207289Y842772D01*
X207365Y842644D01*
X207411Y842601D01*
X207439Y842562D01*
X362379Y687622D01*
X362449Y687570D01*
X362513Y687510D01*
X362562Y687484D01*
X362606Y687451D01*
X362688Y687420D01*
X362766Y687380D01*
X362813Y687372D01*
X362872Y687350D01*
X363019Y687338D01*
X363097Y687325D01*
X364904Y687325D01*
X367285Y684944D01*
X367285Y681576D01*
X364904Y679195D01*
X361536Y679195D01*
X359155Y681576D01*
X359155Y683957D01*
X359143Y684044D01*
X359140Y684131D01*
X359123Y684184D01*
X359115Y684239D01*
X359080Y684319D01*
X359053Y684402D01*
X359025Y684441D01*
X358999Y684498D01*
X358903Y684611D01*
X358858Y684675D01*
X206447Y837086D01*
X206401Y837121D01*
X206360Y837163D01*
X206287Y837206D01*
X206220Y837257D01*
X206165Y837278D01*
X206115Y837307D01*
X206033Y837328D01*
X205954Y837358D01*
X205896Y837363D01*
X205839Y837377D01*
X205755Y837374D01*
X205671Y837381D01*
X205614Y837370D01*
X205555Y837368D01*
X205475Y837342D01*
X205392Y837326D01*
X205341Y837299D01*
X205285Y837281D01*
X205229Y837241D01*
X205140Y837195D01*
X205068Y837126D01*
X205011Y837086D01*
X203644Y835718D01*
X203591Y835648D01*
X203531Y835584D01*
X203506Y835535D01*
X203473Y835491D01*
X203442Y835409D01*
X203402Y835331D01*
X203394Y835284D01*
X203372Y835225D01*
X203359Y835077D01*
X203346Y835000D01*
X203346Y834408D01*
X203359Y834321D01*
X203361Y834234D01*
X203378Y834181D01*
X203386Y834127D01*
X203422Y834047D01*
X203449Y833964D01*
X203477Y833924D01*
X203502Y833867D01*
X203598Y833754D01*
X203644Y833690D01*
X390907Y646427D01*
X390907Y636342D01*
X390919Y636256D01*
X390922Y636168D01*
X390939Y636116D01*
X390947Y636061D01*
X390982Y635981D01*
X391009Y635898D01*
X391037Y635858D01*
X391063Y635801D01*
X391143Y635707D01*
X391161Y635676D01*
X391180Y635658D01*
X391204Y635624D01*
X392685Y634144D01*
X392685Y630776D01*
X390304Y628395D01*
X386936Y628395D01*
G37*
%LPD*%
%LPC*%
G36*
X424497Y14223D02*
X424497Y14223D01*
X420389Y15925D01*
X417245Y19069D01*
X415543Y23177D01*
X415543Y27623D01*
X417245Y31731D01*
X420389Y34875D01*
X421659Y35401D01*
X421758Y35460D01*
X421860Y35513D01*
X421880Y35532D01*
X421904Y35546D01*
X421983Y35629D01*
X422066Y35708D01*
X422080Y35732D01*
X422099Y35753D01*
X422152Y35855D01*
X422210Y35954D01*
X422217Y35981D01*
X422230Y36005D01*
X422252Y36118D01*
X422280Y36229D01*
X422279Y36257D01*
X422285Y36284D01*
X422275Y36399D01*
X422271Y36513D01*
X422263Y36540D01*
X422260Y36567D01*
X422219Y36675D01*
X422184Y36784D01*
X422169Y36804D01*
X422158Y36833D01*
X421997Y37046D01*
X421989Y37057D01*
X421987Y37059D01*
X421986Y37060D01*
X406653Y52393D01*
X406653Y84767D01*
X408290Y86404D01*
X420834Y98948D01*
X422471Y100585D01*
X485550Y100585D01*
X485637Y100597D01*
X485724Y100600D01*
X485777Y100617D01*
X485832Y100625D01*
X485912Y100660D01*
X485995Y100687D01*
X486034Y100715D01*
X486091Y100741D01*
X486204Y100837D01*
X486268Y100882D01*
X694138Y308752D01*
X694190Y308822D01*
X694250Y308886D01*
X694276Y308935D01*
X694309Y308979D01*
X694340Y309061D01*
X694380Y309139D01*
X694388Y309186D01*
X694410Y309245D01*
X694422Y309392D01*
X694435Y309470D01*
X694435Y311564D01*
X696816Y313945D01*
X700184Y313945D01*
X702565Y311564D01*
X702565Y308196D01*
X700184Y305815D01*
X698090Y305815D01*
X698003Y305803D01*
X697916Y305800D01*
X697863Y305783D01*
X697808Y305775D01*
X697728Y305740D01*
X697645Y305713D01*
X697606Y305685D01*
X697549Y305659D01*
X697436Y305563D01*
X697372Y305518D01*
X487865Y96011D01*
X424786Y96011D01*
X424699Y95999D01*
X424612Y95996D01*
X424559Y95979D01*
X424504Y95971D01*
X424424Y95936D01*
X424341Y95909D01*
X424302Y95881D01*
X424245Y95855D01*
X424132Y95759D01*
X424068Y95714D01*
X411524Y83170D01*
X411472Y83100D01*
X411412Y83036D01*
X411386Y82987D01*
X411353Y82943D01*
X411322Y82861D01*
X411282Y82783D01*
X411274Y82736D01*
X411252Y82677D01*
X411240Y82530D01*
X411227Y82452D01*
X411227Y54708D01*
X411239Y54621D01*
X411242Y54534D01*
X411259Y54481D01*
X411267Y54426D01*
X411302Y54346D01*
X411329Y54263D01*
X411357Y54224D01*
X411383Y54167D01*
X411479Y54054D01*
X411524Y53990D01*
X428790Y36724D01*
X428815Y36705D01*
X428835Y36682D01*
X428902Y36640D01*
X429017Y36553D01*
X429078Y36530D01*
X429120Y36504D01*
X433051Y34875D01*
X436195Y31731D01*
X437897Y27623D01*
X437897Y23177D01*
X436195Y19069D01*
X433051Y15925D01*
X428943Y14223D01*
X424497Y14223D01*
G37*
%LPD*%
%LPC*%
G36*
X325976Y757935D02*
X325976Y757935D01*
X323581Y760331D01*
X323580Y760342D01*
X323563Y760395D01*
X323555Y760449D01*
X323524Y760519D01*
X323513Y760563D01*
X323504Y760578D01*
X323493Y760612D01*
X323465Y760652D01*
X323439Y760709D01*
X323396Y760760D01*
X323367Y760808D01*
X323325Y760847D01*
X323298Y760886D01*
X196133Y888050D01*
X196063Y888103D01*
X196000Y888163D01*
X195950Y888188D01*
X195906Y888221D01*
X195824Y888252D01*
X195746Y888292D01*
X195699Y888300D01*
X195640Y888323D01*
X195493Y888335D01*
X195415Y888348D01*
X194040Y888348D01*
X191659Y890729D01*
X191659Y894096D01*
X192067Y894504D01*
X192077Y894518D01*
X192085Y894525D01*
X192090Y894532D01*
X192107Y894547D01*
X192170Y894641D01*
X192238Y894731D01*
X192248Y894759D01*
X192264Y894783D01*
X192299Y894891D01*
X192339Y894997D01*
X192341Y895026D01*
X192350Y895054D01*
X192353Y895168D01*
X192362Y895280D01*
X192357Y895309D01*
X192357Y895338D01*
X192329Y895448D01*
X192307Y895559D01*
X192293Y895585D01*
X192286Y895613D01*
X192228Y895711D01*
X192176Y895811D01*
X192155Y895833D01*
X192140Y895858D01*
X192058Y895935D01*
X191980Y896017D01*
X191954Y896032D01*
X191933Y896052D01*
X191832Y896104D01*
X191734Y896161D01*
X191706Y896168D01*
X191680Y896182D01*
X191603Y896195D01*
X191459Y896231D01*
X191396Y896229D01*
X191349Y896237D01*
X188816Y896237D01*
X186435Y898618D01*
X186435Y901986D01*
X188816Y904367D01*
X192184Y904367D01*
X192918Y903633D01*
X192988Y903580D01*
X193052Y903520D01*
X193101Y903495D01*
X193145Y903462D01*
X193227Y903431D01*
X193305Y903391D01*
X193352Y903383D01*
X193411Y903360D01*
X193558Y903348D01*
X193636Y903335D01*
X210597Y903335D01*
X212532Y901401D01*
X327250Y786682D01*
X327320Y786630D01*
X327384Y786570D01*
X327433Y786544D01*
X327477Y786511D01*
X327559Y786480D01*
X327637Y786440D01*
X327685Y786432D01*
X327743Y786410D01*
X327891Y786398D01*
X327968Y786385D01*
X329344Y786385D01*
X331725Y784004D01*
X331725Y780636D01*
X329344Y778255D01*
X325976Y778255D01*
X323595Y780636D01*
X323595Y782012D01*
X323583Y782098D01*
X323580Y782186D01*
X323563Y782239D01*
X323555Y782293D01*
X323520Y782373D01*
X323493Y782456D01*
X323465Y782496D01*
X323439Y782553D01*
X323343Y782666D01*
X323298Y782730D01*
X208579Y897448D01*
X208509Y897501D01*
X208446Y897561D01*
X208396Y897586D01*
X208352Y897619D01*
X208270Y897650D01*
X208192Y897690D01*
X208145Y897698D01*
X208086Y897721D01*
X207939Y897733D01*
X207861Y897746D01*
X198590Y897746D01*
X198561Y897742D01*
X198531Y897744D01*
X198420Y897722D01*
X198308Y897706D01*
X198281Y897694D01*
X198253Y897688D01*
X198152Y897636D01*
X198049Y897590D01*
X198026Y897571D01*
X198000Y897557D01*
X197918Y897479D01*
X197832Y897406D01*
X197815Y897382D01*
X197794Y897361D01*
X197737Y897264D01*
X197674Y897169D01*
X197665Y897141D01*
X197650Y897116D01*
X197623Y897007D01*
X197588Y896898D01*
X197588Y896869D01*
X197580Y896841D01*
X197584Y896728D01*
X197581Y896614D01*
X197588Y896586D01*
X197589Y896556D01*
X197624Y896449D01*
X197653Y896339D01*
X197668Y896314D01*
X197677Y896286D01*
X197722Y896222D01*
X197798Y896095D01*
X197844Y896052D01*
X197872Y896013D01*
X199788Y894096D01*
X199788Y892721D01*
X199800Y892634D01*
X199803Y892547D01*
X199820Y892494D01*
X199828Y892439D01*
X199864Y892359D01*
X199891Y892276D01*
X199919Y892237D01*
X199944Y892180D01*
X200040Y892066D01*
X200086Y892003D01*
X325726Y766362D01*
X325796Y766310D01*
X325860Y766250D01*
X325909Y766224D01*
X325953Y766191D01*
X326035Y766160D01*
X326113Y766120D01*
X326161Y766112D01*
X326219Y766090D01*
X326367Y766078D01*
X326444Y766065D01*
X329344Y766065D01*
X331725Y763684D01*
X331725Y760316D01*
X329344Y757935D01*
X325976Y757935D01*
G37*
%LPD*%
%LPC*%
G36*
X350519Y25399D02*
X350519Y25399D01*
X350519Y26416D01*
X350511Y26474D01*
X350512Y26532D01*
X350491Y26614D01*
X350479Y26697D01*
X350455Y26751D01*
X350441Y26807D01*
X350398Y26880D01*
X350363Y26957D01*
X350325Y27002D01*
X350295Y27052D01*
X350234Y27110D01*
X350179Y27174D01*
X350131Y27206D01*
X350088Y27246D01*
X350013Y27285D01*
X349943Y27331D01*
X349887Y27349D01*
X349835Y27376D01*
X349767Y27387D01*
X349672Y27417D01*
X349572Y27420D01*
X349504Y27431D01*
X338497Y27431D01*
X338627Y28255D01*
X339221Y30080D01*
X340092Y31790D01*
X341220Y33343D01*
X342577Y34700D01*
X344130Y35828D01*
X345318Y36433D01*
X345344Y36452D01*
X345350Y36455D01*
X345358Y36461D01*
X345398Y36479D01*
X345471Y36541D01*
X345550Y36597D01*
X345579Y36633D01*
X345615Y36663D01*
X345668Y36743D01*
X345729Y36818D01*
X345746Y36861D01*
X345772Y36899D01*
X345801Y36991D01*
X345839Y37080D01*
X345844Y37126D01*
X345858Y37170D01*
X345860Y37267D01*
X345872Y37363D01*
X345864Y37408D01*
X345865Y37454D01*
X345841Y37548D01*
X345825Y37643D01*
X345805Y37685D01*
X345793Y37729D01*
X345744Y37812D01*
X345702Y37900D01*
X345672Y37934D01*
X345648Y37974D01*
X345578Y38040D01*
X345514Y38112D01*
X345475Y38137D01*
X345441Y38168D01*
X345355Y38212D01*
X345273Y38264D01*
X345229Y38277D01*
X345188Y38298D01*
X345113Y38310D01*
X345000Y38343D01*
X344917Y38343D01*
X344857Y38353D01*
X336949Y38353D01*
X336947Y38353D01*
X336946Y38353D01*
X336806Y38333D01*
X336667Y38313D01*
X336666Y38313D01*
X336664Y38313D01*
X336538Y38256D01*
X336408Y38197D01*
X336407Y38196D01*
X336405Y38195D01*
X336297Y38103D01*
X336191Y38014D01*
X336190Y38012D01*
X336189Y38011D01*
X336181Y37998D01*
X336033Y37777D01*
X336028Y37760D01*
X336023Y37753D01*
X336019Y37740D01*
X336011Y37727D01*
X334595Y34309D01*
X331451Y31165D01*
X327343Y29463D01*
X322897Y29463D01*
X318789Y31165D01*
X315645Y34309D01*
X313943Y38417D01*
X313943Y42863D01*
X315645Y46971D01*
X318789Y50115D01*
X322897Y51817D01*
X327343Y51817D01*
X331451Y50115D01*
X334595Y46971D01*
X336011Y43553D01*
X336012Y43552D01*
X336012Y43551D01*
X336082Y43432D01*
X336155Y43309D01*
X336156Y43308D01*
X336157Y43306D01*
X336259Y43211D01*
X336362Y43113D01*
X336363Y43113D01*
X336365Y43112D01*
X336486Y43049D01*
X336615Y42983D01*
X336616Y42983D01*
X336618Y42982D01*
X336633Y42980D01*
X336894Y42928D01*
X336924Y42931D01*
X336949Y42927D01*
X351692Y42927D01*
X351779Y42939D01*
X351866Y42942D01*
X351919Y42959D01*
X351974Y42967D01*
X352054Y43002D01*
X352137Y43029D01*
X352176Y43057D01*
X352233Y43083D01*
X352346Y43179D01*
X352410Y43224D01*
X428356Y119170D01*
X428374Y119194D01*
X428396Y119213D01*
X428459Y119307D01*
X428527Y119397D01*
X428538Y119425D01*
X428554Y119449D01*
X428588Y119557D01*
X428628Y119663D01*
X428631Y119692D01*
X428640Y119720D01*
X428643Y119834D01*
X428652Y119946D01*
X428646Y119975D01*
X428647Y120004D01*
X428618Y120114D01*
X428596Y120225D01*
X428582Y120251D01*
X428575Y120279D01*
X428517Y120377D01*
X428465Y120477D01*
X428445Y120499D01*
X428430Y120524D01*
X428347Y120601D01*
X428269Y120683D01*
X428244Y120698D01*
X428223Y120718D01*
X428122Y120770D01*
X428024Y120827D01*
X427996Y120834D01*
X427969Y120848D01*
X427892Y120861D01*
X427748Y120897D01*
X427686Y120895D01*
X427638Y120903D01*
X424497Y120903D01*
X420389Y122605D01*
X417245Y125749D01*
X415543Y129857D01*
X415543Y134303D01*
X417245Y138411D01*
X420389Y141555D01*
X424497Y143257D01*
X428943Y143257D01*
X433051Y141555D01*
X436195Y138411D01*
X437897Y134303D01*
X437897Y131162D01*
X437901Y131133D01*
X437898Y131103D01*
X437921Y130992D01*
X437937Y130880D01*
X437949Y130853D01*
X437954Y130825D01*
X438006Y130724D01*
X438053Y130621D01*
X438072Y130598D01*
X438085Y130572D01*
X438163Y130490D01*
X438236Y130404D01*
X438261Y130387D01*
X438281Y130366D01*
X438379Y130309D01*
X438473Y130246D01*
X438501Y130237D01*
X438526Y130223D01*
X438636Y130195D01*
X438744Y130160D01*
X438774Y130160D01*
X438802Y130152D01*
X438915Y130156D01*
X439028Y130153D01*
X439057Y130161D01*
X439086Y130161D01*
X439194Y130196D01*
X439303Y130225D01*
X439329Y130240D01*
X439357Y130249D01*
X439420Y130294D01*
X439548Y130370D01*
X439591Y130416D01*
X439630Y130444D01*
X446213Y137027D01*
X506658Y137027D01*
X506744Y137039D01*
X506832Y137042D01*
X506884Y137059D01*
X506939Y137067D01*
X507019Y137102D01*
X507102Y137129D01*
X507142Y137157D01*
X507199Y137183D01*
X507312Y137279D01*
X507376Y137324D01*
X508856Y138805D01*
X512224Y138805D01*
X514605Y136424D01*
X514605Y133056D01*
X512224Y130675D01*
X508856Y130675D01*
X507376Y132156D01*
X507306Y132208D01*
X507242Y132268D01*
X507193Y132294D01*
X507148Y132327D01*
X507067Y132358D01*
X506989Y132398D01*
X506941Y132406D01*
X506883Y132428D01*
X506735Y132440D01*
X506658Y132453D01*
X448528Y132453D01*
X448441Y132441D01*
X448354Y132438D01*
X448301Y132421D01*
X448246Y132413D01*
X448166Y132378D01*
X448083Y132351D01*
X448044Y132323D01*
X447987Y132297D01*
X447874Y132201D01*
X447810Y132156D01*
X354223Y38569D01*
X354216Y38559D01*
X354206Y38552D01*
X354130Y38445D01*
X354052Y38342D01*
X354048Y38330D01*
X354040Y38320D01*
X353997Y38197D01*
X353951Y38076D01*
X353950Y38064D01*
X353946Y38052D01*
X353938Y37922D01*
X353927Y37793D01*
X353930Y37781D01*
X353929Y37768D01*
X353958Y37642D01*
X353983Y37514D01*
X353989Y37503D01*
X353992Y37491D01*
X354054Y37377D01*
X354114Y37262D01*
X354123Y37253D01*
X354129Y37242D01*
X354220Y37150D01*
X354310Y37056D01*
X354321Y37049D01*
X354330Y37041D01*
X354385Y37012D01*
X354555Y36912D01*
X354597Y36902D01*
X354627Y36886D01*
X355200Y36699D01*
X356910Y35828D01*
X358463Y34700D01*
X359820Y33343D01*
X360948Y31790D01*
X361819Y30080D01*
X362413Y28255D01*
X362543Y27431D01*
X351536Y27431D01*
X351478Y27423D01*
X351420Y27425D01*
X351338Y27403D01*
X351255Y27391D01*
X351201Y27367D01*
X351145Y27353D01*
X351072Y27310D01*
X350995Y27275D01*
X350951Y27237D01*
X350900Y27207D01*
X350843Y27146D01*
X350778Y27091D01*
X350746Y27043D01*
X350706Y27000D01*
X350667Y26925D01*
X350621Y26855D01*
X350603Y26799D01*
X350576Y26747D01*
X350565Y26679D01*
X350535Y26584D01*
X350532Y26484D01*
X350521Y26416D01*
X350521Y25399D01*
X350519Y25399D01*
G37*
%LPD*%
%LPC*%
G36*
X567276Y277875D02*
X567276Y277875D01*
X564895Y280256D01*
X564895Y282350D01*
X564883Y282437D01*
X564880Y282524D01*
X564863Y282577D01*
X564855Y282632D01*
X564820Y282712D01*
X564793Y282795D01*
X564765Y282834D01*
X564739Y282891D01*
X564643Y283004D01*
X564598Y283068D01*
X556513Y291153D01*
X556513Y304800D01*
X556505Y304858D01*
X556507Y304916D01*
X556485Y304998D01*
X556473Y305082D01*
X556450Y305135D01*
X556435Y305191D01*
X556392Y305264D01*
X556357Y305341D01*
X556319Y305386D01*
X556290Y305436D01*
X556228Y305494D01*
X556174Y305558D01*
X556125Y305590D01*
X556082Y305630D01*
X556007Y305669D01*
X555937Y305716D01*
X555881Y305733D01*
X555829Y305760D01*
X555761Y305771D01*
X555666Y305801D01*
X555566Y305804D01*
X555498Y305815D01*
X552036Y305815D01*
X549655Y308196D01*
X549655Y311564D01*
X551136Y313044D01*
X551188Y313114D01*
X551248Y313178D01*
X551274Y313227D01*
X551307Y313272D01*
X551338Y313353D01*
X551378Y313431D01*
X551386Y313479D01*
X551408Y313537D01*
X551420Y313685D01*
X551433Y313762D01*
X551433Y440618D01*
X551421Y440704D01*
X551418Y440792D01*
X551401Y440844D01*
X551393Y440899D01*
X551358Y440979D01*
X551331Y441062D01*
X551303Y441102D01*
X551277Y441159D01*
X551181Y441272D01*
X551136Y441336D01*
X549655Y442816D01*
X549655Y446184D01*
X552036Y448565D01*
X555404Y448565D01*
X557785Y446184D01*
X557785Y442816D01*
X556304Y441336D01*
X556252Y441266D01*
X556192Y441202D01*
X556166Y441153D01*
X556133Y441108D01*
X556102Y441027D01*
X556062Y440949D01*
X556054Y440901D01*
X556032Y440843D01*
X556020Y440695D01*
X556007Y440618D01*
X556007Y424180D01*
X556015Y424122D01*
X556013Y424064D01*
X556035Y423982D01*
X556047Y423898D01*
X556070Y423845D01*
X556085Y423789D01*
X556128Y423716D01*
X556163Y423639D01*
X556201Y423594D01*
X556230Y423544D01*
X556292Y423486D01*
X556346Y423422D01*
X556395Y423390D01*
X556438Y423350D01*
X556513Y423311D01*
X556583Y423264D01*
X556639Y423247D01*
X556691Y423220D01*
X556759Y423209D01*
X556854Y423179D01*
X556954Y423176D01*
X557022Y423165D01*
X560484Y423165D01*
X562865Y420784D01*
X562865Y417416D01*
X561384Y415936D01*
X561332Y415866D01*
X561272Y415802D01*
X561246Y415753D01*
X561213Y415708D01*
X561182Y415627D01*
X561142Y415549D01*
X561134Y415501D01*
X561112Y415443D01*
X561100Y415295D01*
X561087Y415218D01*
X561087Y293468D01*
X561099Y293381D01*
X561102Y293294D01*
X561119Y293241D01*
X561127Y293186D01*
X561162Y293106D01*
X561189Y293023D01*
X561217Y292984D01*
X561243Y292927D01*
X561339Y292814D01*
X561384Y292750D01*
X567832Y286302D01*
X567902Y286250D01*
X567966Y286190D01*
X568015Y286164D01*
X568059Y286131D01*
X568141Y286100D01*
X568219Y286060D01*
X568266Y286052D01*
X568325Y286030D01*
X568472Y286018D01*
X568550Y286005D01*
X570644Y286005D01*
X573025Y283624D01*
X573025Y280256D01*
X570644Y277875D01*
X567276Y277875D01*
G37*
%LPD*%
%LPC*%
G36*
X104786Y437387D02*
X104786Y437387D01*
X102107Y440066D01*
X102107Y443854D01*
X114510Y456257D01*
X114562Y456327D01*
X114622Y456390D01*
X114648Y456440D01*
X114681Y456484D01*
X114712Y456566D01*
X114752Y456644D01*
X114760Y456691D01*
X114782Y456750D01*
X114794Y456897D01*
X114807Y456975D01*
X114807Y583554D01*
X117486Y586233D01*
X121274Y586233D01*
X123953Y583554D01*
X123953Y452766D01*
X108574Y437387D01*
X104786Y437387D01*
G37*
%LPD*%
%LPC*%
G36*
X270096Y161035D02*
X270096Y161035D01*
X267715Y163416D01*
X267715Y163576D01*
X267707Y163634D01*
X267709Y163692D01*
X267687Y163774D01*
X267675Y163858D01*
X267652Y163911D01*
X267637Y163967D01*
X267594Y164040D01*
X267559Y164117D01*
X267521Y164162D01*
X267492Y164212D01*
X267430Y164270D01*
X267376Y164334D01*
X267327Y164366D01*
X267284Y164406D01*
X267209Y164445D01*
X267139Y164492D01*
X267083Y164509D01*
X267031Y164536D01*
X266963Y164547D01*
X266868Y164577D01*
X266768Y164580D01*
X266700Y164591D01*
X104720Y164591D01*
X104634Y164579D01*
X104546Y164576D01*
X104494Y164559D01*
X104439Y164551D01*
X104359Y164516D01*
X104276Y164489D01*
X104236Y164461D01*
X104179Y164435D01*
X104066Y164339D01*
X104002Y164294D01*
X103284Y163575D01*
X99916Y163575D01*
X97535Y165956D01*
X97535Y169324D01*
X99916Y171705D01*
X103284Y171705D01*
X104002Y170986D01*
X104072Y170934D01*
X104136Y170874D01*
X104185Y170848D01*
X104230Y170815D01*
X104311Y170784D01*
X104389Y170744D01*
X104437Y170736D01*
X104495Y170714D01*
X104643Y170702D01*
X104720Y170689D01*
X270503Y170689D01*
X271729Y169462D01*
X271799Y169410D01*
X271863Y169350D01*
X271913Y169324D01*
X271957Y169291D01*
X272038Y169260D01*
X272116Y169220D01*
X272164Y169212D01*
X272222Y169190D01*
X272370Y169178D01*
X272447Y169165D01*
X273464Y169165D01*
X275845Y166784D01*
X275845Y163416D01*
X273464Y161035D01*
X270096Y161035D01*
G37*
%LPD*%
%LPC*%
G36*
X270096Y412385D02*
X270096Y412385D01*
X268616Y413866D01*
X268546Y413918D01*
X268482Y413978D01*
X268433Y414004D01*
X268389Y414037D01*
X268307Y414068D01*
X268229Y414108D01*
X268181Y414116D01*
X268123Y414138D01*
X267975Y414150D01*
X267898Y414163D01*
X265863Y414163D01*
X264226Y415800D01*
X202550Y477476D01*
X200913Y479113D01*
X200913Y491418D01*
X200901Y491504D01*
X200898Y491592D01*
X200881Y491644D01*
X200873Y491699D01*
X200838Y491779D01*
X200811Y491862D01*
X200783Y491902D01*
X200757Y491959D01*
X200661Y492072D01*
X200616Y492136D01*
X199135Y493616D01*
X199135Y496984D01*
X201516Y499365D01*
X204884Y499365D01*
X207265Y496984D01*
X207265Y493616D01*
X205784Y492136D01*
X205732Y492066D01*
X205672Y492002D01*
X205646Y491953D01*
X205613Y491908D01*
X205582Y491827D01*
X205542Y491749D01*
X205534Y491701D01*
X205512Y491643D01*
X205500Y491495D01*
X205487Y491418D01*
X205487Y481428D01*
X205499Y481341D01*
X205502Y481254D01*
X205519Y481201D01*
X205527Y481146D01*
X205562Y481066D01*
X205589Y480983D01*
X205617Y480944D01*
X205643Y480887D01*
X205739Y480774D01*
X205784Y480710D01*
X257236Y429258D01*
X257260Y429240D01*
X257279Y429218D01*
X257373Y429155D01*
X257463Y429087D01*
X257491Y429076D01*
X257515Y429060D01*
X257623Y429026D01*
X257729Y428986D01*
X257758Y428983D01*
X257786Y428974D01*
X257900Y428971D01*
X258012Y428962D01*
X258041Y428968D01*
X258070Y428967D01*
X258180Y428996D01*
X258291Y429018D01*
X258317Y429032D01*
X258345Y429039D01*
X258443Y429097D01*
X258543Y429149D01*
X258565Y429169D01*
X258590Y429184D01*
X258667Y429267D01*
X258749Y429345D01*
X258764Y429370D01*
X258784Y429391D01*
X258836Y429492D01*
X258893Y429590D01*
X258900Y429618D01*
X258914Y429645D01*
X258927Y429722D01*
X258963Y429866D01*
X258961Y429928D01*
X258969Y429976D01*
X258969Y434348D01*
X260920Y439057D01*
X264523Y442660D01*
X269232Y444611D01*
X274328Y444611D01*
X279037Y442660D01*
X282640Y439057D01*
X284591Y434348D01*
X284591Y429252D01*
X282640Y424543D01*
X279037Y420940D01*
X276199Y419764D01*
X276100Y419706D01*
X275998Y419653D01*
X275978Y419634D01*
X275954Y419620D01*
X275876Y419536D01*
X275792Y419457D01*
X275778Y419433D01*
X275759Y419413D01*
X275707Y419311D01*
X275649Y419212D01*
X275642Y419185D01*
X275629Y419160D01*
X275607Y419048D01*
X275579Y418936D01*
X275579Y418909D01*
X275574Y418881D01*
X275584Y418767D01*
X275588Y418652D01*
X275596Y418626D01*
X275599Y418598D01*
X275640Y418491D01*
X275675Y418382D01*
X275690Y418361D01*
X275701Y418333D01*
X275845Y418142D01*
X275845Y414766D01*
X273464Y412385D01*
X270096Y412385D01*
G37*
%LPD*%
%LPC*%
G36*
X424497Y67563D02*
X424497Y67563D01*
X420389Y69265D01*
X417245Y72409D01*
X415543Y76517D01*
X415543Y80963D01*
X417245Y85071D01*
X420389Y88215D01*
X424497Y89917D01*
X428943Y89917D01*
X433051Y88215D01*
X436195Y85071D01*
X437611Y81653D01*
X437612Y81652D01*
X437612Y81651D01*
X437682Y81532D01*
X437755Y81409D01*
X437756Y81408D01*
X437757Y81406D01*
X437860Y81309D01*
X437962Y81213D01*
X437963Y81213D01*
X437965Y81212D01*
X438086Y81149D01*
X438215Y81083D01*
X438216Y81083D01*
X438218Y81082D01*
X438233Y81080D01*
X438494Y81028D01*
X438524Y81031D01*
X438549Y81027D01*
X514252Y81027D01*
X514339Y81039D01*
X514426Y81042D01*
X514479Y81059D01*
X514534Y81067D01*
X514614Y81102D01*
X514697Y81129D01*
X514736Y81157D01*
X514793Y81183D01*
X514906Y81279D01*
X514970Y81324D01*
X536658Y103012D01*
X536710Y103082D01*
X536770Y103146D01*
X536796Y103195D01*
X536829Y103239D01*
X536860Y103321D01*
X536900Y103399D01*
X536908Y103446D01*
X536930Y103505D01*
X536942Y103652D01*
X536955Y103730D01*
X536955Y105824D01*
X539336Y108205D01*
X542704Y108205D01*
X545085Y105824D01*
X545085Y102456D01*
X542704Y100075D01*
X540610Y100075D01*
X540523Y100063D01*
X540436Y100060D01*
X540383Y100043D01*
X540328Y100035D01*
X540248Y100000D01*
X540165Y99973D01*
X540126Y99945D01*
X540069Y99919D01*
X539956Y99823D01*
X539892Y99778D01*
X516567Y76453D01*
X438549Y76453D01*
X438547Y76453D01*
X438546Y76453D01*
X438406Y76433D01*
X438267Y76413D01*
X438266Y76413D01*
X438264Y76413D01*
X438138Y76356D01*
X438008Y76297D01*
X438007Y76296D01*
X438005Y76295D01*
X437898Y76204D01*
X437791Y76114D01*
X437790Y76112D01*
X437789Y76111D01*
X437781Y76098D01*
X437633Y75877D01*
X437624Y75848D01*
X437611Y75827D01*
X436195Y72409D01*
X433051Y69265D01*
X428943Y67563D01*
X424497Y67563D01*
G37*
%LPD*%
%LPC*%
G36*
X148176Y59435D02*
X148176Y59435D01*
X145795Y61816D01*
X145795Y65184D01*
X148176Y67565D01*
X151544Y67565D01*
X152262Y66846D01*
X152332Y66794D01*
X152396Y66734D01*
X152445Y66708D01*
X152490Y66675D01*
X152571Y66644D01*
X152649Y66604D01*
X152697Y66596D01*
X152755Y66574D01*
X152903Y66562D01*
X152980Y66549D01*
X161107Y66549D01*
X161193Y66561D01*
X161281Y66564D01*
X161333Y66581D01*
X161388Y66589D01*
X161468Y66624D01*
X161551Y66651D01*
X161590Y66679D01*
X161648Y66705D01*
X161761Y66801D01*
X161825Y66846D01*
X170606Y75627D01*
X170657Y75696D01*
X170679Y75716D01*
X170694Y75742D01*
X170750Y75809D01*
X170761Y75833D01*
X170776Y75854D01*
X170808Y75937D01*
X170822Y75961D01*
X170829Y75989D01*
X170865Y76069D01*
X170868Y76095D01*
X170878Y76120D01*
X170885Y76208D01*
X170892Y76237D01*
X170891Y76266D01*
X170903Y76351D01*
X170899Y76377D01*
X170901Y76403D01*
X170884Y76487D01*
X170883Y76521D01*
X170873Y76552D01*
X170861Y76632D01*
X170851Y76656D01*
X170845Y76682D01*
X170808Y76754D01*
X170796Y76791D01*
X170777Y76818D01*
X170744Y76891D01*
X170726Y76911D01*
X170714Y76934D01*
X170634Y77019D01*
X170632Y77022D01*
X170601Y77065D01*
X167498Y80168D01*
X165895Y84037D01*
X165895Y88223D01*
X167498Y92092D01*
X170458Y95052D01*
X174327Y96655D01*
X196513Y96655D01*
X200382Y95052D01*
X203342Y92092D01*
X204945Y88223D01*
X204945Y84037D01*
X203342Y80168D01*
X200382Y77208D01*
X196513Y75605D01*
X179627Y75605D01*
X179541Y75593D01*
X179453Y75590D01*
X179401Y75573D01*
X179346Y75565D01*
X179266Y75530D01*
X179183Y75503D01*
X179144Y75475D01*
X179086Y75449D01*
X178973Y75353D01*
X178909Y75308D01*
X166136Y62535D01*
X166136Y62534D01*
X164053Y60451D01*
X152980Y60451D01*
X152894Y60439D01*
X152806Y60436D01*
X152754Y60419D01*
X152699Y60411D01*
X152619Y60376D01*
X152536Y60349D01*
X152496Y60321D01*
X152439Y60295D01*
X152326Y60199D01*
X152262Y60154D01*
X151544Y59435D01*
X148176Y59435D01*
G37*
%LPD*%
%LPC*%
G36*
X585094Y39985D02*
X585094Y39985D01*
X582053Y41245D01*
X579725Y43573D01*
X578465Y46614D01*
X578465Y49906D01*
X579725Y52947D01*
X582053Y55275D01*
X583827Y56010D01*
X583828Y56011D01*
X583829Y56011D01*
X583950Y56082D01*
X584071Y56154D01*
X584072Y56155D01*
X584074Y56156D01*
X584171Y56260D01*
X584267Y56361D01*
X584267Y56362D01*
X584268Y56363D01*
X584333Y56489D01*
X584397Y56614D01*
X584397Y56615D01*
X584398Y56617D01*
X584400Y56631D01*
X584452Y56893D01*
X584449Y56923D01*
X584453Y56948D01*
X584453Y131474D01*
X584441Y131561D01*
X584438Y131648D01*
X584421Y131701D01*
X584413Y131756D01*
X584378Y131836D01*
X584351Y131919D01*
X584323Y131958D01*
X584297Y132015D01*
X584201Y132128D01*
X584156Y132192D01*
X565008Y151340D01*
X564938Y151392D01*
X564874Y151452D01*
X564825Y151478D01*
X564781Y151511D01*
X564699Y151542D01*
X564621Y151582D01*
X564574Y151590D01*
X564515Y151612D01*
X564368Y151624D01*
X564290Y151637D01*
X562196Y151637D01*
X559815Y154018D01*
X559815Y157386D01*
X562196Y159767D01*
X565564Y159767D01*
X567945Y157386D01*
X567945Y155292D01*
X567957Y155205D01*
X567960Y155118D01*
X567977Y155065D01*
X567985Y155010D01*
X568020Y154930D01*
X568047Y154847D01*
X568075Y154808D01*
X568101Y154751D01*
X568197Y154638D01*
X568242Y154574D01*
X589027Y133789D01*
X589027Y56948D01*
X589027Y56946D01*
X589027Y56945D01*
X589047Y56805D01*
X589067Y56666D01*
X589067Y56665D01*
X589067Y56663D01*
X589124Y56537D01*
X589183Y56407D01*
X589184Y56406D01*
X589185Y56404D01*
X589276Y56297D01*
X589366Y56190D01*
X589368Y56189D01*
X589369Y56188D01*
X589382Y56180D01*
X589603Y56032D01*
X589632Y56023D01*
X589653Y56010D01*
X591427Y55275D01*
X593755Y52947D01*
X595015Y49906D01*
X595015Y46614D01*
X593755Y43573D01*
X591427Y41245D01*
X588386Y39985D01*
X585094Y39985D01*
G37*
%LPD*%
%LPC*%
G36*
X174327Y132605D02*
X174327Y132605D01*
X170458Y134208D01*
X167498Y137168D01*
X165895Y141037D01*
X165895Y145223D01*
X167498Y149092D01*
X170458Y152052D01*
X174327Y153655D01*
X196513Y153655D01*
X200382Y152052D01*
X203342Y149092D01*
X204945Y145223D01*
X204945Y141037D01*
X203342Y137168D01*
X200382Y134208D01*
X196513Y132605D01*
X174327Y132605D01*
G37*
%LPD*%
%LPC*%
G36*
X174327Y21605D02*
X174327Y21605D01*
X170458Y23208D01*
X167498Y26168D01*
X165895Y30037D01*
X165895Y34223D01*
X167498Y38092D01*
X170458Y41052D01*
X174327Y42655D01*
X196513Y42655D01*
X200382Y41052D01*
X203342Y38092D01*
X204945Y34223D01*
X204945Y30037D01*
X203342Y26168D01*
X200382Y23208D01*
X196513Y21605D01*
X174327Y21605D01*
G37*
%LPD*%
%LPC*%
G36*
X336136Y747775D02*
X336136Y747775D01*
X333755Y750156D01*
X333755Y753524D01*
X336136Y755905D01*
X337512Y755905D01*
X337598Y755917D01*
X337686Y755920D01*
X337739Y755937D01*
X337793Y755945D01*
X337873Y755980D01*
X337956Y756007D01*
X337996Y756035D01*
X338053Y756061D01*
X338166Y756157D01*
X338230Y756202D01*
X411838Y829810D01*
X411890Y829880D01*
X411950Y829944D01*
X411976Y829993D01*
X412009Y830037D01*
X412040Y830119D01*
X412080Y830197D01*
X412088Y830245D01*
X412110Y830303D01*
X412122Y830451D01*
X412135Y830528D01*
X412135Y831904D01*
X414516Y834285D01*
X417884Y834285D01*
X420265Y831904D01*
X420265Y828536D01*
X417884Y826155D01*
X416508Y826155D01*
X416422Y826143D01*
X416334Y826140D01*
X416281Y826123D01*
X416227Y826115D01*
X416147Y826080D01*
X416064Y826053D01*
X416024Y826025D01*
X415967Y825999D01*
X415854Y825903D01*
X415790Y825858D01*
X342182Y752250D01*
X342130Y752180D01*
X342070Y752116D01*
X342044Y752067D01*
X342011Y752023D01*
X341980Y751941D01*
X341940Y751863D01*
X341932Y751815D01*
X341910Y751757D01*
X341898Y751609D01*
X341885Y751532D01*
X341885Y750156D01*
X339504Y747775D01*
X336136Y747775D01*
G37*
%LPD*%
%LPC*%
G36*
X270096Y389635D02*
X270096Y389635D01*
X268616Y391116D01*
X268546Y391168D01*
X268482Y391228D01*
X268433Y391254D01*
X268388Y391287D01*
X268307Y391318D01*
X268229Y391358D01*
X268181Y391366D01*
X268123Y391388D01*
X267975Y391400D01*
X267898Y391413D01*
X265499Y391413D01*
X263862Y393050D01*
X198110Y458803D01*
X198040Y458855D01*
X197976Y458915D01*
X197926Y458940D01*
X197882Y458973D01*
X197801Y459005D01*
X197723Y459044D01*
X197675Y459052D01*
X197617Y459075D01*
X197469Y459087D01*
X197392Y459100D01*
X195298Y459100D01*
X192917Y461481D01*
X192917Y464848D01*
X195298Y467229D01*
X198665Y467229D01*
X201046Y464848D01*
X201046Y462754D01*
X201058Y462668D01*
X201061Y462580D01*
X201078Y462528D01*
X201086Y462473D01*
X201122Y462393D01*
X201149Y462310D01*
X201177Y462271D01*
X201202Y462213D01*
X201298Y462100D01*
X201318Y462073D01*
X201320Y462068D01*
X201322Y462066D01*
X201343Y462036D01*
X267096Y396284D01*
X267166Y396232D01*
X267230Y396172D01*
X267279Y396146D01*
X267323Y396113D01*
X267405Y396082D01*
X267483Y396042D01*
X267530Y396034D01*
X267589Y396012D01*
X267736Y396000D01*
X267814Y395987D01*
X267898Y395987D01*
X267984Y395999D01*
X268072Y396002D01*
X268124Y396019D01*
X268179Y396027D01*
X268259Y396062D01*
X268342Y396089D01*
X268382Y396117D01*
X268439Y396143D01*
X268552Y396239D01*
X268616Y396284D01*
X270096Y397765D01*
X273464Y397765D01*
X275845Y395384D01*
X275845Y392016D01*
X273464Y389635D01*
X270096Y389635D01*
G37*
%LPD*%
%LPC*%
G36*
X624796Y38485D02*
X624796Y38485D01*
X621203Y39973D01*
X618453Y42723D01*
X616952Y46348D01*
X616951Y46390D01*
X616933Y46444D01*
X616925Y46501D01*
X616890Y46579D01*
X616864Y46661D01*
X616832Y46708D01*
X616809Y46760D01*
X616754Y46826D01*
X616706Y46897D01*
X616662Y46934D01*
X616626Y46977D01*
X616554Y47025D01*
X616488Y47080D01*
X616436Y47103D01*
X616389Y47135D01*
X616307Y47161D01*
X616228Y47195D01*
X616172Y47203D01*
X616118Y47220D01*
X616032Y47223D01*
X615947Y47234D01*
X615891Y47226D01*
X615834Y47228D01*
X615751Y47206D01*
X615666Y47194D01*
X615614Y47170D01*
X615559Y47156D01*
X615485Y47112D01*
X615406Y47077D01*
X615363Y47040D01*
X615314Y47011D01*
X615255Y46948D01*
X615190Y46892D01*
X615164Y46850D01*
X615120Y46803D01*
X615054Y46674D01*
X615012Y46608D01*
X613755Y43573D01*
X611427Y41245D01*
X608386Y39985D01*
X605094Y39985D01*
X602053Y41245D01*
X599725Y43573D01*
X598465Y46614D01*
X598465Y49906D01*
X599725Y52947D01*
X602053Y55275D01*
X605094Y56535D01*
X608386Y56535D01*
X611427Y55275D01*
X613755Y52947D01*
X615012Y49912D01*
X615056Y49838D01*
X615091Y49760D01*
X615128Y49717D01*
X615157Y49668D01*
X615219Y49609D01*
X615275Y49543D01*
X615322Y49511D01*
X615363Y49472D01*
X615440Y49433D01*
X615511Y49385D01*
X615565Y49368D01*
X615616Y49342D01*
X615700Y49326D01*
X615782Y49300D01*
X615839Y49298D01*
X615895Y49287D01*
X615980Y49295D01*
X616066Y49292D01*
X616121Y49307D01*
X616178Y49312D01*
X616258Y49342D01*
X616341Y49364D01*
X616390Y49393D01*
X616443Y49414D01*
X616512Y49466D01*
X616586Y49509D01*
X616625Y49551D01*
X616670Y49585D01*
X616722Y49654D01*
X616780Y49717D01*
X616806Y49767D01*
X616840Y49813D01*
X616871Y49893D01*
X616910Y49970D01*
X616918Y50019D01*
X616941Y50079D01*
X616947Y50161D01*
X618453Y53797D01*
X621203Y56547D01*
X624796Y58035D01*
X628684Y58035D01*
X632277Y56547D01*
X635027Y53797D01*
X636515Y50204D01*
X636515Y46316D01*
X635027Y42723D01*
X632277Y39973D01*
X628684Y38485D01*
X624796Y38485D01*
G37*
%LPD*%
%LPC*%
G36*
X269232Y63389D02*
X269232Y63389D01*
X264523Y65340D01*
X260920Y68943D01*
X258969Y73652D01*
X258969Y78748D01*
X260920Y83457D01*
X264523Y87060D01*
X269232Y89011D01*
X274328Y89011D01*
X279037Y87060D01*
X282640Y83457D01*
X284591Y78748D01*
X284591Y73652D01*
X282640Y68943D01*
X279037Y65340D01*
X274328Y63389D01*
X269232Y63389D01*
G37*
%LPD*%
%LPC*%
G36*
X497832Y418989D02*
X497832Y418989D01*
X493123Y420940D01*
X489520Y424543D01*
X487569Y429252D01*
X487569Y434348D01*
X489520Y439057D01*
X493123Y442660D01*
X497832Y444611D01*
X502928Y444611D01*
X507637Y442660D01*
X511240Y439057D01*
X513191Y434348D01*
X513191Y429252D01*
X511240Y424543D01*
X507637Y420940D01*
X502928Y418989D01*
X497832Y418989D01*
G37*
%LPD*%
%LPC*%
G36*
X497832Y164989D02*
X497832Y164989D01*
X493123Y166940D01*
X489520Y170543D01*
X487569Y175252D01*
X487569Y180348D01*
X489520Y185057D01*
X493123Y188660D01*
X497832Y190611D01*
X502928Y190611D01*
X507637Y188660D01*
X511240Y185057D01*
X513191Y180348D01*
X513191Y175252D01*
X511240Y170543D01*
X507637Y166940D01*
X502928Y164989D01*
X497832Y164989D01*
G37*
%LPD*%
%LPC*%
G36*
X544796Y38485D02*
X544796Y38485D01*
X541203Y39973D01*
X538453Y42723D01*
X536965Y46316D01*
X536965Y50204D01*
X538453Y53797D01*
X541203Y56547D01*
X544796Y58035D01*
X548684Y58035D01*
X552277Y56547D01*
X555027Y53797D01*
X556064Y51292D01*
X556079Y51267D01*
X556088Y51239D01*
X556151Y51145D01*
X556208Y51048D01*
X556230Y51028D01*
X556246Y51003D01*
X556333Y50930D01*
X556415Y50852D01*
X556441Y50839D01*
X556464Y50820D01*
X556567Y50774D01*
X556668Y50722D01*
X556697Y50717D01*
X556724Y50705D01*
X556836Y50689D01*
X556947Y50667D01*
X556976Y50670D01*
X557005Y50666D01*
X557117Y50682D01*
X557230Y50692D01*
X557257Y50702D01*
X557286Y50706D01*
X557390Y50753D01*
X557495Y50794D01*
X557519Y50811D01*
X557546Y50824D01*
X557632Y50897D01*
X557722Y50965D01*
X557740Y50989D01*
X557762Y51008D01*
X557803Y51074D01*
X557892Y51193D01*
X557914Y51252D01*
X557940Y51293D01*
X558507Y52661D01*
X559523Y54183D01*
X560817Y55477D01*
X562339Y56493D01*
X564030Y57194D01*
X564709Y57329D01*
X564709Y49276D01*
X564717Y49218D01*
X564715Y49160D01*
X564737Y49078D01*
X564749Y48995D01*
X564773Y48941D01*
X564787Y48885D01*
X564830Y48812D01*
X564865Y48735D01*
X564903Y48691D01*
X564933Y48640D01*
X564994Y48583D01*
X565049Y48518D01*
X565097Y48486D01*
X565140Y48446D01*
X565215Y48407D01*
X565285Y48361D01*
X565341Y48343D01*
X565393Y48316D01*
X565461Y48305D01*
X565556Y48275D01*
X565656Y48272D01*
X565724Y48261D01*
X566741Y48261D01*
X566741Y48259D01*
X565724Y48259D01*
X565666Y48251D01*
X565608Y48252D01*
X565526Y48231D01*
X565443Y48219D01*
X565389Y48195D01*
X565333Y48181D01*
X565260Y48138D01*
X565183Y48103D01*
X565138Y48065D01*
X565088Y48035D01*
X565030Y47974D01*
X564966Y47919D01*
X564934Y47871D01*
X564894Y47828D01*
X564855Y47753D01*
X564809Y47683D01*
X564791Y47627D01*
X564764Y47575D01*
X564753Y47507D01*
X564723Y47412D01*
X564720Y47312D01*
X564709Y47244D01*
X564709Y39191D01*
X564030Y39326D01*
X562339Y40027D01*
X560817Y41043D01*
X559523Y42337D01*
X558507Y43859D01*
X557940Y45227D01*
X557925Y45253D01*
X557916Y45281D01*
X557853Y45375D01*
X557795Y45472D01*
X557774Y45492D01*
X557758Y45517D01*
X557671Y45590D01*
X557589Y45667D01*
X557563Y45681D01*
X557540Y45700D01*
X557437Y45746D01*
X557336Y45798D01*
X557307Y45803D01*
X557280Y45815D01*
X557168Y45831D01*
X557057Y45853D01*
X557028Y45850D01*
X556999Y45854D01*
X556887Y45838D01*
X556774Y45828D01*
X556746Y45818D01*
X556717Y45814D01*
X556615Y45767D01*
X556509Y45726D01*
X556485Y45708D01*
X556458Y45696D01*
X556372Y45623D01*
X556282Y45555D01*
X556264Y45531D01*
X556242Y45512D01*
X556200Y45446D01*
X556112Y45327D01*
X556090Y45268D01*
X556064Y45227D01*
X555027Y42723D01*
X552277Y39973D01*
X548684Y38485D01*
X544796Y38485D01*
G37*
%LPD*%
%LPC*%
G36*
X449897Y105663D02*
X449897Y105663D01*
X445789Y107365D01*
X442645Y110509D01*
X440943Y114617D01*
X440943Y119063D01*
X442645Y123171D01*
X445789Y126315D01*
X449897Y128017D01*
X454343Y128017D01*
X458451Y126315D01*
X461595Y123171D01*
X463297Y119063D01*
X463297Y114617D01*
X461595Y110509D01*
X458451Y107365D01*
X454343Y105663D01*
X449897Y105663D01*
G37*
%LPD*%
%LPC*%
G36*
X714057Y67563D02*
X714057Y67563D01*
X709949Y69265D01*
X706805Y72409D01*
X705103Y76517D01*
X705103Y80963D01*
X706805Y85071D01*
X709949Y88215D01*
X714057Y89917D01*
X718503Y89917D01*
X722611Y88215D01*
X725755Y85071D01*
X727457Y80963D01*
X727457Y76517D01*
X725755Y72409D01*
X722611Y69265D01*
X718503Y67563D01*
X714057Y67563D01*
G37*
%LPD*%
%LPC*%
G36*
X374236Y801115D02*
X374236Y801115D01*
X373010Y802342D01*
X372940Y802394D01*
X372876Y802454D01*
X372827Y802480D01*
X372782Y802513D01*
X372701Y802544D01*
X372623Y802584D01*
X372575Y802592D01*
X372517Y802614D01*
X372369Y802626D01*
X372292Y802639D01*
X320874Y802639D01*
X320788Y802627D01*
X320700Y802624D01*
X320648Y802607D01*
X320593Y802599D01*
X320513Y802564D01*
X320430Y802537D01*
X320390Y802509D01*
X320333Y802483D01*
X320220Y802387D01*
X320156Y802342D01*
X319184Y801369D01*
X315816Y801369D01*
X313435Y803750D01*
X313435Y807118D01*
X315816Y809499D01*
X319184Y809499D01*
X320156Y808526D01*
X320226Y808474D01*
X320290Y808414D01*
X320339Y808388D01*
X320384Y808355D01*
X320465Y808324D01*
X320543Y808284D01*
X320591Y808276D01*
X320649Y808254D01*
X320797Y808242D01*
X320874Y808229D01*
X372800Y808229D01*
X372886Y808241D01*
X372974Y808244D01*
X373026Y808261D01*
X373081Y808269D01*
X373161Y808304D01*
X373244Y808331D01*
X373284Y808359D01*
X373341Y808385D01*
X373454Y808481D01*
X373518Y808526D01*
X374236Y809245D01*
X377604Y809245D01*
X379985Y806864D01*
X379985Y803496D01*
X377604Y801115D01*
X374236Y801115D01*
G37*
%LPD*%
%LPC*%
G36*
X751700Y172879D02*
X751700Y172879D01*
X747059Y175559D01*
X744379Y180200D01*
X744379Y185560D01*
X747059Y190201D01*
X751700Y192881D01*
X757060Y192881D01*
X761701Y190201D01*
X764381Y185560D01*
X764381Y180200D01*
X761701Y175559D01*
X757060Y172879D01*
X751700Y172879D01*
G37*
%LPD*%
%LPC*%
G36*
X27800Y1016159D02*
X27800Y1016159D01*
X23159Y1018839D01*
X20479Y1023480D01*
X20479Y1028840D01*
X23159Y1033481D01*
X27800Y1036161D01*
X33160Y1036161D01*
X37801Y1033481D01*
X40481Y1028840D01*
X40481Y1023480D01*
X37801Y1018839D01*
X33160Y1016159D01*
X27800Y1016159D01*
G37*
%LPD*%
%LPC*%
G36*
X677766Y225805D02*
X677766Y225805D01*
X675385Y228186D01*
X675385Y231554D01*
X676866Y233034D01*
X676918Y233104D01*
X676978Y233168D01*
X677004Y233217D01*
X677037Y233262D01*
X677068Y233343D01*
X677108Y233421D01*
X677116Y233469D01*
X677138Y233527D01*
X677150Y233675D01*
X677163Y233752D01*
X677163Y264062D01*
X677151Y264149D01*
X677148Y264236D01*
X677131Y264289D01*
X677123Y264344D01*
X677088Y264424D01*
X677061Y264507D01*
X677033Y264546D01*
X677007Y264603D01*
X676911Y264716D01*
X676866Y264780D01*
X674228Y267418D01*
X674158Y267470D01*
X674094Y267530D01*
X674045Y267556D01*
X674001Y267589D01*
X673919Y267620D01*
X673841Y267660D01*
X673794Y267668D01*
X673735Y267690D01*
X673588Y267702D01*
X673510Y267715D01*
X671416Y267715D01*
X669035Y270096D01*
X669035Y273464D01*
X671416Y275845D01*
X674784Y275845D01*
X677165Y273464D01*
X677165Y271370D01*
X677177Y271283D01*
X677180Y271196D01*
X677197Y271143D01*
X677205Y271088D01*
X677240Y271008D01*
X677267Y270925D01*
X677295Y270886D01*
X677321Y270829D01*
X677417Y270716D01*
X677462Y270652D01*
X681737Y266377D01*
X681737Y233752D01*
X681749Y233666D01*
X681752Y233578D01*
X681769Y233526D01*
X681777Y233471D01*
X681812Y233391D01*
X681839Y233308D01*
X681867Y233268D01*
X681893Y233211D01*
X681989Y233098D01*
X682034Y233034D01*
X683515Y231554D01*
X683515Y228186D01*
X681134Y225805D01*
X677766Y225805D01*
G37*
%LPD*%
%LPC*%
G36*
X275053Y570229D02*
X275053Y570229D01*
X272672Y572610D01*
X272672Y575978D01*
X275053Y578359D01*
X277147Y578359D01*
X277234Y578371D01*
X277321Y578374D01*
X277374Y578391D01*
X277429Y578399D01*
X277509Y578434D01*
X277592Y578461D01*
X277631Y578489D01*
X277688Y578515D01*
X277802Y578611D01*
X277865Y578656D01*
X283575Y584365D01*
X288218Y584365D01*
X288304Y584378D01*
X288392Y584381D01*
X288444Y584398D01*
X288499Y584405D01*
X288579Y584441D01*
X288662Y584468D01*
X288702Y584496D01*
X288759Y584522D01*
X288872Y584617D01*
X288936Y584663D01*
X290416Y586143D01*
X293784Y586143D01*
X296165Y583762D01*
X296165Y580395D01*
X293784Y578014D01*
X290416Y578014D01*
X288936Y579495D01*
X288866Y579547D01*
X288802Y579607D01*
X288753Y579632D01*
X288708Y579666D01*
X288627Y579697D01*
X288549Y579737D01*
X288501Y579744D01*
X288443Y579767D01*
X288295Y579779D01*
X288218Y579792D01*
X285890Y579792D01*
X285803Y579780D01*
X285716Y579777D01*
X285663Y579760D01*
X285608Y579752D01*
X285528Y579716D01*
X285445Y579690D01*
X285406Y579662D01*
X285349Y579636D01*
X285235Y579540D01*
X285172Y579495D01*
X281099Y575422D01*
X281047Y575352D01*
X280987Y575288D01*
X280962Y575239D01*
X280928Y575195D01*
X280897Y575113D01*
X280857Y575035D01*
X280849Y574988D01*
X280827Y574929D01*
X280815Y574782D01*
X280802Y574704D01*
X280802Y572610D01*
X278421Y570229D01*
X275053Y570229D01*
G37*
%LPD*%
%LPC*%
G36*
X327151Y118871D02*
X327151Y118871D01*
X327151Y128863D01*
X327975Y128733D01*
X329800Y128139D01*
X331510Y127268D01*
X333063Y126140D01*
X334420Y124783D01*
X335548Y123230D01*
X336419Y121520D01*
X337013Y119695D01*
X337143Y118871D01*
X327151Y118871D01*
G37*
%LPD*%
%LPC*%
G36*
X352551Y80771D02*
X352551Y80771D01*
X352551Y90763D01*
X353375Y90633D01*
X355200Y90039D01*
X356910Y89168D01*
X358463Y88040D01*
X359820Y86683D01*
X360948Y85130D01*
X361819Y83420D01*
X362413Y81595D01*
X362543Y80771D01*
X352551Y80771D01*
G37*
%LPD*%
%LPC*%
G36*
X642111Y80771D02*
X642111Y80771D01*
X642111Y90763D01*
X642935Y90633D01*
X644760Y90039D01*
X646470Y89168D01*
X648023Y88040D01*
X649380Y86683D01*
X650508Y85130D01*
X651379Y83420D01*
X651973Y81595D01*
X652103Y80771D01*
X642111Y80771D01*
G37*
%LPD*%
%LPC*%
G36*
X131571Y80771D02*
X131571Y80771D01*
X131571Y90763D01*
X132395Y90633D01*
X134220Y90039D01*
X135930Y89168D01*
X137483Y88040D01*
X138840Y86683D01*
X139968Y85130D01*
X140839Y83420D01*
X141433Y81595D01*
X141563Y80771D01*
X131571Y80771D01*
G37*
%LPD*%
%LPC*%
G36*
X454151Y42671D02*
X454151Y42671D01*
X454151Y52663D01*
X454975Y52533D01*
X456800Y51939D01*
X458510Y51068D01*
X460063Y49940D01*
X461420Y48583D01*
X462548Y47030D01*
X463419Y45320D01*
X464013Y43495D01*
X464143Y42671D01*
X454151Y42671D01*
G37*
%LPD*%
%LPC*%
G36*
X352551Y134111D02*
X352551Y134111D01*
X352551Y144103D01*
X353375Y143973D01*
X355200Y143379D01*
X356910Y142508D01*
X358463Y141380D01*
X359820Y140023D01*
X360948Y138470D01*
X361819Y136760D01*
X362413Y134935D01*
X362543Y134111D01*
X352551Y134111D01*
G37*
%LPD*%
%LPC*%
G36*
X352551Y76709D02*
X352551Y76709D01*
X362543Y76709D01*
X362413Y75885D01*
X361819Y74060D01*
X360948Y72350D01*
X359820Y70797D01*
X358463Y69440D01*
X356910Y68312D01*
X355200Y67441D01*
X353375Y66847D01*
X352551Y66717D01*
X352551Y76709D01*
G37*
%LPD*%
%LPC*%
G36*
X117517Y80771D02*
X117517Y80771D01*
X117647Y81595D01*
X118241Y83420D01*
X119112Y85130D01*
X120240Y86683D01*
X121597Y88040D01*
X123150Y89168D01*
X124860Y90039D01*
X126685Y90633D01*
X127509Y90763D01*
X127509Y80771D01*
X117517Y80771D01*
G37*
%LPD*%
%LPC*%
G36*
X338497Y80771D02*
X338497Y80771D01*
X338627Y81595D01*
X339221Y83420D01*
X340092Y85130D01*
X341220Y86683D01*
X342577Y88040D01*
X344130Y89168D01*
X345840Y90039D01*
X347665Y90633D01*
X348489Y90763D01*
X348489Y80771D01*
X338497Y80771D01*
G37*
%LPD*%
%LPC*%
G36*
X440097Y42671D02*
X440097Y42671D01*
X440227Y43495D01*
X440821Y45320D01*
X441692Y47030D01*
X442820Y48583D01*
X444177Y49940D01*
X445730Y51068D01*
X447440Y51939D01*
X449265Y52533D01*
X450089Y52663D01*
X450089Y42671D01*
X440097Y42671D01*
G37*
%LPD*%
%LPC*%
G36*
X131571Y76709D02*
X131571Y76709D01*
X141563Y76709D01*
X141433Y75885D01*
X140839Y74060D01*
X139968Y72350D01*
X138840Y70797D01*
X137483Y69440D01*
X135930Y68312D01*
X134220Y67441D01*
X132395Y66847D01*
X131571Y66717D01*
X131571Y76709D01*
G37*
%LPD*%
%LPC*%
G36*
X642111Y76709D02*
X642111Y76709D01*
X652103Y76709D01*
X651973Y75885D01*
X651379Y74060D01*
X650508Y72350D01*
X649380Y70797D01*
X648023Y69440D01*
X646470Y68312D01*
X644760Y67441D01*
X642935Y66847D01*
X642111Y66717D01*
X642111Y76709D01*
G37*
%LPD*%
%LPC*%
G36*
X628057Y80771D02*
X628057Y80771D01*
X628187Y81595D01*
X628781Y83420D01*
X629652Y85130D01*
X630780Y86683D01*
X632137Y88040D01*
X633690Y89168D01*
X635400Y90039D01*
X637225Y90633D01*
X638049Y90763D01*
X638049Y80771D01*
X628057Y80771D01*
G37*
%LPD*%
%LPC*%
G36*
X454151Y38609D02*
X454151Y38609D01*
X464143Y38609D01*
X464013Y37785D01*
X463419Y35960D01*
X462548Y34250D01*
X461420Y32697D01*
X460063Y31340D01*
X458510Y30212D01*
X456800Y29341D01*
X454975Y28747D01*
X454151Y28617D01*
X454151Y38609D01*
G37*
%LPD*%
%LPC*%
G36*
X327151Y114809D02*
X327151Y114809D01*
X337143Y114809D01*
X337013Y113985D01*
X336419Y112160D01*
X335548Y110450D01*
X334420Y108897D01*
X333063Y107540D01*
X331510Y106412D01*
X329800Y105541D01*
X327975Y104947D01*
X327151Y104817D01*
X327151Y114809D01*
G37*
%LPD*%
%LPC*%
G36*
X313097Y118871D02*
X313097Y118871D01*
X313227Y119695D01*
X313821Y121520D01*
X314692Y123230D01*
X315820Y124783D01*
X317177Y126140D01*
X318730Y127268D01*
X320440Y128139D01*
X322265Y128733D01*
X323089Y128863D01*
X323089Y118871D01*
X313097Y118871D01*
G37*
%LPD*%
%LPC*%
G36*
X352551Y23369D02*
X352551Y23369D01*
X362543Y23369D01*
X362413Y22545D01*
X361819Y20720D01*
X360948Y19010D01*
X359820Y17457D01*
X358463Y16100D01*
X356910Y14972D01*
X355200Y14101D01*
X353375Y13507D01*
X352551Y13377D01*
X352551Y23369D01*
G37*
%LPD*%
%LPC*%
G36*
X352551Y130049D02*
X352551Y130049D01*
X362543Y130049D01*
X362413Y129225D01*
X361819Y127400D01*
X360948Y125690D01*
X359820Y124137D01*
X358463Y122780D01*
X356910Y121652D01*
X355200Y120781D01*
X353375Y120187D01*
X352551Y120057D01*
X352551Y130049D01*
G37*
%LPD*%
%LPC*%
G36*
X338497Y134111D02*
X338497Y134111D01*
X338627Y134935D01*
X339221Y136760D01*
X340092Y138470D01*
X341220Y140023D01*
X342577Y141380D01*
X344130Y142508D01*
X345840Y143379D01*
X347665Y143973D01*
X348489Y144103D01*
X348489Y134111D01*
X338497Y134111D01*
G37*
%LPD*%
%LPC*%
G36*
X449265Y28747D02*
X449265Y28747D01*
X447440Y29341D01*
X445730Y30212D01*
X444177Y31340D01*
X442820Y32697D01*
X441692Y34250D01*
X440821Y35960D01*
X440227Y37785D01*
X440097Y38609D01*
X450089Y38609D01*
X450089Y28617D01*
X449265Y28747D01*
G37*
%LPD*%
%LPC*%
G36*
X126685Y66847D02*
X126685Y66847D01*
X124860Y67441D01*
X123150Y68312D01*
X121597Y69440D01*
X120240Y70797D01*
X119112Y72350D01*
X118241Y74060D01*
X117647Y75885D01*
X117517Y76709D01*
X127509Y76709D01*
X127509Y66717D01*
X126685Y66847D01*
G37*
%LPD*%
%LPC*%
G36*
X347665Y66847D02*
X347665Y66847D01*
X345840Y67441D01*
X344130Y68312D01*
X342577Y69440D01*
X341220Y70797D01*
X340092Y72350D01*
X339221Y74060D01*
X338627Y75885D01*
X338497Y76709D01*
X348489Y76709D01*
X348489Y66717D01*
X347665Y66847D01*
G37*
%LPD*%
%LPC*%
G36*
X347665Y13507D02*
X347665Y13507D01*
X345840Y14101D01*
X344130Y14972D01*
X342577Y16100D01*
X341220Y17457D01*
X340092Y19010D01*
X339221Y20720D01*
X338627Y22545D01*
X338497Y23369D01*
X348489Y23369D01*
X348489Y13377D01*
X347665Y13507D01*
G37*
%LPD*%
%LPC*%
G36*
X637225Y66847D02*
X637225Y66847D01*
X635400Y67441D01*
X633690Y68312D01*
X632137Y69440D01*
X630780Y70797D01*
X629652Y72350D01*
X628781Y74060D01*
X628187Y75885D01*
X628057Y76709D01*
X638049Y76709D01*
X638049Y66717D01*
X637225Y66847D01*
G37*
%LPD*%
%LPC*%
G36*
X322265Y104947D02*
X322265Y104947D01*
X320440Y105541D01*
X318730Y106412D01*
X317177Y107540D01*
X315820Y108897D01*
X314692Y110450D01*
X313821Y112160D01*
X313227Y113985D01*
X313097Y114809D01*
X323089Y114809D01*
X323089Y104817D01*
X322265Y104947D01*
G37*
%LPD*%
%LPC*%
G36*
X347665Y120187D02*
X347665Y120187D01*
X345840Y120781D01*
X344130Y121652D01*
X342577Y122780D01*
X341220Y124137D01*
X340092Y125690D01*
X339221Y127400D01*
X338627Y129225D01*
X338497Y130049D01*
X348489Y130049D01*
X348489Y120057D01*
X347665Y120187D01*
G37*
%LPD*%
%LPC*%
G36*
X88391Y1091691D02*
X88391Y1091691D01*
X88391Y1099626D01*
X88739Y1099571D01*
X90260Y1099076D01*
X91685Y1098350D01*
X92979Y1097410D01*
X94110Y1096279D01*
X95050Y1094985D01*
X95776Y1093560D01*
X96271Y1092039D01*
X96326Y1091691D01*
X88391Y1091691D01*
G37*
%LPD*%
%LPC*%
G36*
X76394Y1091691D02*
X76394Y1091691D01*
X76449Y1092039D01*
X76944Y1093560D01*
X77670Y1094985D01*
X78610Y1096279D01*
X79741Y1097410D01*
X81035Y1098350D01*
X82460Y1099076D01*
X83981Y1099571D01*
X84329Y1099626D01*
X84329Y1091691D01*
X76394Y1091691D01*
G37*
%LPD*%
%LPC*%
G36*
X88391Y1087629D02*
X88391Y1087629D01*
X96326Y1087629D01*
X96271Y1087281D01*
X95776Y1085760D01*
X95050Y1084335D01*
X94110Y1083041D01*
X92979Y1081910D01*
X91685Y1080970D01*
X90260Y1080244D01*
X88739Y1079749D01*
X88391Y1079694D01*
X88391Y1087629D01*
G37*
%LPD*%
%LPC*%
G36*
X83981Y1079749D02*
X83981Y1079749D01*
X82460Y1080244D01*
X81035Y1080970D01*
X79741Y1081910D01*
X78610Y1083041D01*
X77670Y1084335D01*
X76944Y1085760D01*
X76449Y1087281D01*
X76394Y1087629D01*
X84329Y1087629D01*
X84329Y1079694D01*
X83981Y1079749D01*
G37*
%LPD*%
%LPC*%
G36*
X568771Y50291D02*
X568771Y50291D01*
X568771Y57329D01*
X569450Y57194D01*
X571141Y56493D01*
X572663Y55477D01*
X573957Y54183D01*
X574973Y52661D01*
X575674Y50970D01*
X575809Y50291D01*
X568771Y50291D01*
G37*
%LPD*%
%LPC*%
G36*
X568771Y46229D02*
X568771Y46229D01*
X575809Y46229D01*
X575674Y45550D01*
X574973Y43859D01*
X573957Y42337D01*
X572663Y41043D01*
X571141Y40027D01*
X569450Y39326D01*
X568771Y39191D01*
X568771Y46229D01*
G37*
%LPD*%
%LPC*%
G36*
X129539Y78739D02*
X129539Y78739D01*
X129539Y78741D01*
X129541Y78741D01*
X129541Y78739D01*
X129539Y78739D01*
G37*
%LPD*%
%LPC*%
G36*
X350519Y78739D02*
X350519Y78739D01*
X350519Y78741D01*
X350521Y78741D01*
X350521Y78739D01*
X350519Y78739D01*
G37*
%LPD*%
%LPC*%
G36*
X640079Y78739D02*
X640079Y78739D01*
X640079Y78741D01*
X640081Y78741D01*
X640081Y78739D01*
X640079Y78739D01*
G37*
%LPD*%
%LPC*%
G36*
X86359Y1089659D02*
X86359Y1089659D01*
X86359Y1089661D01*
X86361Y1089661D01*
X86361Y1089659D01*
X86359Y1089659D01*
G37*
%LPD*%
%LPC*%
G36*
X452119Y40639D02*
X452119Y40639D01*
X452119Y40641D01*
X452121Y40641D01*
X452121Y40639D01*
X452119Y40639D01*
G37*
%LPD*%
%LPC*%
G36*
X325119Y116839D02*
X325119Y116839D01*
X325119Y116841D01*
X325121Y116841D01*
X325121Y116839D01*
X325119Y116839D01*
G37*
%LPD*%
%LPC*%
G36*
X350519Y132079D02*
X350519Y132079D01*
X350519Y132081D01*
X350521Y132081D01*
X350521Y132079D01*
X350519Y132079D01*
G37*
%LPD*%
D10*
X426720Y132080D03*
X350520Y132080D03*
X716280Y78740D03*
X640080Y78740D03*
X426720Y25400D03*
X350520Y25400D03*
X426720Y78740D03*
X350520Y78740D03*
D11*
X626740Y48260D03*
X546740Y48260D03*
D12*
X606740Y48260D03*
X586740Y48260D03*
X566740Y48260D03*
D10*
X53340Y78740D03*
X129540Y78740D03*
X452120Y116840D03*
X452120Y40640D03*
X325120Y40640D03*
X325120Y116840D03*
D13*
X111760Y1089660D03*
X86360Y1089660D03*
X60960Y1089660D03*
D14*
X176420Y32130D02*
X194420Y32130D01*
X194420Y86130D02*
X176420Y86130D01*
X176420Y143130D02*
X194420Y143130D01*
D15*
X20320Y22860D03*
X749300Y22860D03*
D16*
X754380Y182880D03*
X30480Y1026160D03*
D15*
X20320Y1089660D03*
X749300Y1089660D03*
D17*
X162560Y1089660D03*
D18*
X137160Y701040D03*
X652780Y784860D03*
X165100Y815340D03*
X680720Y40132D03*
X457200Y431800D03*
X45720Y174752D03*
X185420Y114300D03*
X617220Y1066800D03*
X411480Y355600D03*
D19*
X411480Y563880D01*
X385064Y590296D02*
X351536Y590296D01*
X350520Y589280D01*
D18*
X350520Y589280D03*
D19*
X385064Y590296D02*
X411480Y563880D01*
D18*
X201060Y838882D03*
D19*
X201060Y833040D01*
X388620Y645480D01*
X388620Y632460D01*
D18*
X388620Y632460D03*
X381762Y585381D03*
D19*
X381762Y583438D01*
X401320Y563880D01*
X401320Y320421D01*
D18*
X401320Y320421D03*
X207772Y848360D03*
D19*
X210820Y848360D01*
X375920Y683260D01*
D18*
X375920Y683260D03*
X375158Y585381D03*
D19*
X375158Y579882D01*
X391160Y563880D01*
X391160Y266700D01*
X365760Y241300D01*
D18*
X365760Y241300D03*
X271780Y165100D03*
D20*
X269240Y167640D01*
X101600Y167640D01*
D18*
X101600Y167640D03*
X152400Y805180D03*
D19*
X224790Y732790D01*
X224790Y615950D01*
D18*
X224790Y615950D03*
X157480Y810260D03*
D19*
X160020Y810260D02*
X237093Y733188D01*
X160020Y810260D02*
X157480Y810260D01*
X237093Y733188D02*
X237093Y621428D01*
D18*
X237093Y621428D03*
D19*
X480458Y621428D01*
X488950Y629920D01*
D18*
X488950Y629920D03*
X292100Y582079D03*
D19*
X284522Y582079D01*
X276737Y574294D01*
D18*
X276737Y574294D03*
X271780Y393700D03*
D19*
X60960Y973204D02*
X60960Y1089660D01*
X60960Y973204D02*
X115207Y918957D01*
D18*
X185674Y573532D03*
D19*
X115207Y684893D02*
X115207Y918957D01*
X115207Y684893D02*
X185674Y614426D01*
X266446Y393700D02*
X271780Y393700D01*
X266446Y393700D02*
X196981Y463165D01*
D18*
X196981Y463165D03*
D19*
X185674Y573532D02*
X185674Y614426D01*
D18*
X271780Y416450D03*
X190500Y579120D03*
X203200Y495300D03*
D19*
X203200Y480060D02*
X266810Y416450D01*
X203200Y480060D02*
X203200Y495300D01*
X118255Y1083165D02*
X111760Y1089660D01*
X118255Y1083165D02*
X118255Y686925D01*
X189027Y616153D01*
X266810Y416450D02*
X271780Y416450D01*
X190500Y579120D02*
X189027Y580593D01*
X189027Y616153D01*
X198784Y541430D02*
X321115Y419100D01*
X355600Y419100D01*
D18*
X355600Y419100D03*
X568960Y281940D03*
D19*
X558800Y292100D02*
X558800Y419100D01*
X558800Y292100D02*
X568960Y281940D01*
D18*
X558800Y419100D03*
X190500Y541500D03*
D19*
X190570Y541430D01*
X198784Y541430D01*
D18*
X355600Y444500D03*
D19*
X307340Y444500D02*
X200423Y551418D01*
X307340Y444500D02*
X355600Y444500D01*
D18*
X553720Y309880D03*
D19*
X553720Y444500D01*
D18*
X553720Y444500D03*
X189677Y551340D03*
D19*
X189755Y551418D01*
X200423Y551418D01*
D18*
X563880Y155702D03*
D19*
X586740Y132842D01*
X586740Y48260D01*
D21*
X180147Y556067D02*
X220980Y596900D01*
X284480Y596900D01*
D18*
X284480Y596900D03*
X520700Y596900D03*
D21*
X284480Y596900D01*
D18*
X701802Y763420D03*
D20*
X220980Y596900D02*
X144780Y673100D01*
X144780Y807212D02*
X164592Y827024D01*
D18*
X164592Y827024D03*
D20*
X144780Y807212D02*
X144780Y673100D01*
D21*
X180147Y556067D02*
X180340Y532130D01*
X180326Y518160D01*
X180289Y396291D01*
D18*
X679450Y229870D03*
D19*
X679450Y265430D01*
X673100Y271780D01*
D18*
X673100Y271780D03*
X195580Y195580D03*
X119380Y581660D03*
D21*
X119380Y518160D01*
X119380Y454660D01*
X106680Y441960D01*
D18*
X106680Y441960D03*
X119380Y518160D03*
X180326Y518160D03*
D21*
X195580Y381000D02*
X195580Y195580D01*
X195580Y381000D02*
X180289Y396291D01*
D20*
X164592Y827024D02*
X162052Y829564D01*
X162052Y1087628D01*
X162560Y1088136D01*
X162560Y1089660D01*
D21*
X687220Y763420D02*
X701802Y763420D01*
X687220Y763420D02*
X520700Y596900D01*
D18*
X327660Y782320D03*
X190500Y900302D03*
D22*
X190739Y900541D02*
X209440Y900541D01*
X190739Y900541D02*
X190500Y900302D01*
X209440Y900541D02*
X327660Y782320D01*
D18*
X195724Y892413D03*
X327660Y762000D03*
D22*
X326136Y762000D01*
X195724Y892413D01*
D18*
X337820Y751840D03*
X416200Y830220D03*
D22*
X337820Y751840D01*
D18*
X317500Y805434D03*
D20*
X375666Y805434D02*
X375920Y805180D01*
D22*
X375666Y805434D02*
X317500Y805434D01*
D18*
X375920Y805180D03*
X149860Y63500D03*
D20*
X162790Y63500D02*
X185420Y86130D01*
X162790Y63500D02*
X149860Y63500D01*
D18*
X200804Y845964D03*
D19*
X363220Y683260D02*
X363364Y683404D01*
X200804Y845964D01*
D18*
X363220Y683260D03*
X368554Y585127D03*
X365760Y266700D03*
D19*
X368554Y269494D02*
X368554Y585127D01*
X368554Y269494D02*
X365760Y266700D01*
D18*
X121920Y670560D03*
D19*
X103886Y670560D01*
D18*
X103886Y670560D03*
X3810Y894080D03*
D19*
X3810Y128270D01*
X53340Y78740D01*
X426720Y78740D02*
X515620Y78740D01*
X541020Y104140D01*
D18*
X541020Y104140D03*
D19*
X426720Y35560D02*
X426720Y25400D01*
X426720Y35560D02*
X408940Y53340D01*
X486918Y98298D02*
X698500Y309880D01*
D18*
X698500Y309880D03*
D19*
X423418Y98298D02*
X408940Y83820D01*
X423418Y98298D02*
X486918Y98298D01*
X408940Y83820D02*
X408940Y53340D01*
D18*
X510540Y134740D03*
D19*
X447160Y134740D01*
X353060Y40640D02*
X325120Y40640D01*
X353060Y40640D02*
X447160Y134740D01*
D18*
X681990Y1055370D03*
D19*
X734060Y1003300D01*
X734060Y264160D02*
X708660Y238760D01*
D18*
X708660Y238760D03*
D19*
X734060Y264160D02*
X734060Y1003300D01*
M02*
