M48
;GenerationSoftware,Autodesk,EAGLE,9.1.0*%
;CreationDate,2019-10-14T18:09:58Z*%
FMAT,2
ICI,OFF
METRIC,TZ,000.000
T8C0.254
T7C0.900
T6C1.016
T5C1.100
T4C1.200
T3C1.800
T2C2.500
%
G90
M71
T2
X74930Y108966
X2032Y108966
X74930Y2286
X2032Y2286
T3
X50038Y17780
X27178Y43180
X27178Y7620
X50038Y43180
T4
X18542Y3213
X18542Y8613
X18542Y14313
T5
X64008Y7874
X42672Y2540
X35052Y2540
X42672Y7874
X35052Y7874
X62674Y4826
X54674Y4826
X71628Y7874
X35052Y13208
X42672Y13208
X5334Y7874
X12954Y7874
X45212Y11684
X45212Y4064
X32512Y4064
X32512Y11684
T6
X16256Y108966
X11176Y108966
X8636Y108966
X6096Y108966
T7
X58674Y4826
X56674Y4826
X60674Y4826
T8
X19572Y89241
X32766Y76200
X33782Y75184
X41620Y83022
X31750Y80543
X37592Y80518
X14986Y6350
X20080Y84596
X36322Y68326
X36855Y58513
X36576Y26670
X12192Y67056
X10389Y67056
X381Y89408
X54102Y10414
X69850Y30988
X51054Y13474
X68199Y105537
X70866Y23876
X19050Y90030
X40132Y32042
X27674Y57429
X29210Y58208
X48895Y62992
X23709Y62143
X15748Y81026
X22479Y61595
X15240Y80518
X10160Y16764
X27178Y16510
X36576Y24130
X37516Y58538
X37592Y68326
X20777Y84836
X27178Y39370
X38176Y58538
X38862Y63246
X20106Y83888
X35052Y58928
X41148Y35560
X61722Y106680
X18542Y11430
X4572Y17475
X45720Y43180
X68072Y4013
X16510Y81534
X65278Y78486
X18968Y55134
X32766Y78232
X18033Y51816
X11938Y51816
X10668Y44196
X11938Y58166
X19558Y19558
X67310Y27178
X67945Y22987
X16459Y82702
X70180Y76342
X52070Y59690
X28448Y59690
X56388Y15570
X13716Y70104
X55372Y44450
X55372Y30988
X35560Y44450
X19050Y54150
X55880Y41910
X56896Y28194
X35560Y41910
X20320Y49530
X19050Y57912
X27178Y41645
X19698Y46316
X18567Y57353
M30