G04 EAGLE Gerber X2 export*
%TF.Part,Single*%
%TF.FileFunction,Profile,NP*%
%TF.FilePolarity,Positive*%
%TF.GenerationSoftware,Autodesk,EAGLE,9.1.0*%
%TF.CreationDate,2019-10-14T18:10:00Z*%
G75*
%MOMM*%
%FSLAX34Y34*%
%LPD*%
%AMOC8*
5,1,8,0,0,1.08239X$1,22.5*%
G01*
%ADD10C,0.254000*%


D10*
X-2540Y22860D02*
X-2453Y20868D01*
X-2193Y18890D01*
X-1761Y16943D01*
X-1161Y15041D01*
X-398Y13199D01*
X523Y11430D01*
X1594Y9748D01*
X2808Y8166D01*
X4156Y6696D01*
X5626Y5348D01*
X7208Y4134D01*
X8890Y3063D01*
X10659Y2142D01*
X12501Y1379D01*
X14403Y779D01*
X16350Y347D01*
X18328Y87D01*
X20320Y0D01*
X749300Y0D01*
X751292Y87D01*
X753270Y347D01*
X755217Y779D01*
X757119Y1379D01*
X758961Y2142D01*
X760730Y3063D01*
X762412Y4134D01*
X763994Y5348D01*
X765464Y6696D01*
X766812Y8166D01*
X768026Y9748D01*
X769097Y11430D01*
X770018Y13199D01*
X770781Y15041D01*
X771381Y16943D01*
X771813Y18890D01*
X772073Y20868D01*
X772160Y22860D01*
X772160Y1089660D01*
X772073Y1091652D01*
X771813Y1093630D01*
X771381Y1095577D01*
X770781Y1097479D01*
X770018Y1099321D01*
X769097Y1101090D01*
X768026Y1102772D01*
X766812Y1104354D01*
X765464Y1105824D01*
X763994Y1107172D01*
X762412Y1108386D01*
X760730Y1109457D01*
X758961Y1110378D01*
X757119Y1111141D01*
X755217Y1111741D01*
X753270Y1112173D01*
X751292Y1112433D01*
X749300Y1112520D01*
X20320Y1112520D01*
X18328Y1112433D01*
X16350Y1112173D01*
X14403Y1111741D01*
X12501Y1111141D01*
X10659Y1110378D01*
X8890Y1109457D01*
X7208Y1108386D01*
X5626Y1107172D01*
X4156Y1105824D01*
X2808Y1104354D01*
X1594Y1102772D01*
X523Y1101090D01*
X-398Y1099321D01*
X-1161Y1097479D01*
X-1761Y1095577D01*
X-2193Y1093630D01*
X-2453Y1091652D01*
X-2540Y1089660D01*
X-2540Y22860D01*
X40000Y766800D02*
X110000Y766800D01*
X110000Y916800D01*
X40000Y916800D01*
X40000Y766800D01*
X40000Y766800D02*
X110000Y766800D01*
X110000Y916800D01*
X40000Y916800D01*
X40000Y766800D01*
X499987Y186800D02*
X499204Y186732D01*
X498430Y186595D01*
X497671Y186392D01*
X496933Y186123D01*
X496220Y185791D01*
X495540Y185398D01*
X494896Y184947D01*
X494294Y184442D01*
X493738Y183886D01*
X493233Y183284D01*
X492782Y182640D01*
X492389Y181960D01*
X492057Y181247D01*
X491788Y180509D01*
X491585Y179750D01*
X491449Y178976D01*
X491380Y178193D01*
X491380Y177407D01*
X491449Y176624D01*
X491585Y175850D01*
X491788Y175091D01*
X492057Y174353D01*
X492389Y173640D01*
X492782Y172960D01*
X493233Y172316D01*
X493738Y171714D01*
X494294Y171158D01*
X494896Y170653D01*
X495540Y170202D01*
X496220Y169809D01*
X496933Y169477D01*
X497671Y169208D01*
X498430Y169005D01*
X499204Y168869D01*
X499987Y168800D01*
X500773Y168800D01*
X501556Y168869D01*
X502330Y169005D01*
X503089Y169208D01*
X503827Y169477D01*
X504540Y169809D01*
X505220Y170202D01*
X505864Y170653D01*
X506466Y171158D01*
X507022Y171714D01*
X507527Y172316D01*
X507978Y172960D01*
X508371Y173640D01*
X508703Y174353D01*
X508972Y175091D01*
X509175Y175850D01*
X509312Y176624D01*
X509380Y177407D01*
X509380Y178193D01*
X509312Y178976D01*
X509175Y179750D01*
X508972Y180509D01*
X508703Y181247D01*
X508371Y181960D01*
X507978Y182640D01*
X507527Y183284D01*
X507022Y183886D01*
X506466Y184442D01*
X505864Y184947D01*
X505220Y185398D01*
X504540Y185791D01*
X503827Y186123D01*
X503089Y186392D01*
X502330Y186595D01*
X501556Y186732D01*
X500773Y186800D01*
X499987Y186800D01*
X499987Y440800D02*
X499204Y440732D01*
X498430Y440595D01*
X497671Y440392D01*
X496933Y440123D01*
X496220Y439791D01*
X495540Y439398D01*
X494896Y438947D01*
X494294Y438442D01*
X493738Y437886D01*
X493233Y437284D01*
X492782Y436640D01*
X492389Y435960D01*
X492057Y435247D01*
X491788Y434509D01*
X491585Y433750D01*
X491449Y432976D01*
X491380Y432193D01*
X491380Y431407D01*
X491449Y430624D01*
X491585Y429850D01*
X491788Y429091D01*
X492057Y428353D01*
X492389Y427640D01*
X492782Y426960D01*
X493233Y426316D01*
X493738Y425714D01*
X494294Y425158D01*
X494896Y424653D01*
X495540Y424202D01*
X496220Y423809D01*
X496933Y423477D01*
X497671Y423208D01*
X498430Y423005D01*
X499204Y422869D01*
X499987Y422800D01*
X500773Y422800D01*
X501556Y422869D01*
X502330Y423005D01*
X503089Y423208D01*
X503827Y423477D01*
X504540Y423809D01*
X505220Y424202D01*
X505864Y424653D01*
X506466Y425158D01*
X507022Y425714D01*
X507527Y426316D01*
X507978Y426960D01*
X508371Y427640D01*
X508703Y428353D01*
X508972Y429091D01*
X509175Y429850D01*
X509312Y430624D01*
X509380Y431407D01*
X509380Y432193D01*
X509312Y432976D01*
X509175Y433750D01*
X508972Y434509D01*
X508703Y435247D01*
X508371Y435960D01*
X507978Y436640D01*
X507527Y437284D01*
X507022Y437886D01*
X506466Y438442D01*
X505864Y438947D01*
X505220Y439398D01*
X504540Y439791D01*
X503827Y440123D01*
X503089Y440392D01*
X502330Y440595D01*
X501556Y440732D01*
X500773Y440800D01*
X499987Y440800D01*
X271387Y85200D02*
X270604Y85132D01*
X269830Y84995D01*
X269071Y84792D01*
X268333Y84523D01*
X267620Y84191D01*
X266940Y83798D01*
X266296Y83347D01*
X265694Y82842D01*
X265138Y82286D01*
X264633Y81684D01*
X264182Y81040D01*
X263789Y80360D01*
X263457Y79647D01*
X263188Y78909D01*
X262985Y78150D01*
X262849Y77376D01*
X262780Y76593D01*
X262780Y75807D01*
X262849Y75024D01*
X262985Y74250D01*
X263188Y73491D01*
X263457Y72753D01*
X263789Y72040D01*
X264182Y71360D01*
X264633Y70716D01*
X265138Y70114D01*
X265694Y69558D01*
X266296Y69053D01*
X266940Y68602D01*
X267620Y68209D01*
X268333Y67877D01*
X269071Y67608D01*
X269830Y67405D01*
X270604Y67269D01*
X271387Y67200D01*
X272173Y67200D01*
X272956Y67269D01*
X273730Y67405D01*
X274489Y67608D01*
X275227Y67877D01*
X275940Y68209D01*
X276620Y68602D01*
X277264Y69053D01*
X277866Y69558D01*
X278422Y70114D01*
X278927Y70716D01*
X279378Y71360D01*
X279771Y72040D01*
X280103Y72753D01*
X280372Y73491D01*
X280575Y74250D01*
X280712Y75024D01*
X280780Y75807D01*
X280780Y76593D01*
X280712Y77376D01*
X280575Y78150D01*
X280372Y78909D01*
X280103Y79647D01*
X279771Y80360D01*
X279378Y81040D01*
X278927Y81684D01*
X278422Y82286D01*
X277866Y82842D01*
X277264Y83347D01*
X276620Y83798D01*
X275940Y84191D01*
X275227Y84523D01*
X274489Y84792D01*
X273730Y84995D01*
X272956Y85132D01*
X272173Y85200D01*
X271387Y85200D01*
X271387Y440800D02*
X270604Y440732D01*
X269830Y440595D01*
X269071Y440392D01*
X268333Y440123D01*
X267620Y439791D01*
X266940Y439398D01*
X266296Y438947D01*
X265694Y438442D01*
X265138Y437886D01*
X264633Y437284D01*
X264182Y436640D01*
X263789Y435960D01*
X263457Y435247D01*
X263188Y434509D01*
X262985Y433750D01*
X262849Y432976D01*
X262780Y432193D01*
X262780Y431407D01*
X262849Y430624D01*
X262985Y429850D01*
X263188Y429091D01*
X263457Y428353D01*
X263789Y427640D01*
X264182Y426960D01*
X264633Y426316D01*
X265138Y425714D01*
X265694Y425158D01*
X266296Y424653D01*
X266940Y424202D01*
X267620Y423809D01*
X268333Y423477D01*
X269071Y423208D01*
X269830Y423005D01*
X270604Y422869D01*
X271387Y422800D01*
X272173Y422800D01*
X272956Y422869D01*
X273730Y423005D01*
X274489Y423208D01*
X275227Y423477D01*
X275940Y423809D01*
X276620Y424202D01*
X277264Y424653D01*
X277866Y425158D01*
X278422Y425714D01*
X278927Y426316D01*
X279378Y426960D01*
X279771Y427640D01*
X280103Y428353D01*
X280372Y429091D01*
X280575Y429850D01*
X280712Y430624D01*
X280780Y431407D01*
X280780Y432193D01*
X280712Y432976D01*
X280575Y433750D01*
X280372Y434509D01*
X280103Y435247D01*
X279771Y435960D01*
X279378Y436640D01*
X278927Y437284D01*
X278422Y437886D01*
X277866Y438442D01*
X277264Y438947D01*
X276620Y439398D01*
X275940Y439791D01*
X275227Y440123D01*
X274489Y440392D01*
X273730Y440595D01*
X272956Y440732D01*
X272173Y440800D01*
X271387Y440800D01*
M02*
