G04 EAGLE Gerber RS-274X export*
G75*
%MOMM*%
%FSLAX34Y34*%
%LPD*%
%INSolderpaste Bottom*%
%IPPOS*%
%AMOC8*
5,1,8,0,0,1.08239X$1,22.5*%
G01*
%ADD10R,1.250000X0.275000*%
%ADD11R,3.000000X2.000000*%
%ADD12R,2.540000X1.524000*%
%ADD13R,3.048000X1.524000*%
%ADD14R,1.900000X1.400000*%
%ADD15R,1.400000X1.800000*%
%ADD16R,1.500000X0.700000*%
%ADD17R,1.240000X1.500000*%
%ADD18R,4.600000X1.000000*%
%ADD19R,3.400000X1.700000*%
%ADD20R,1.500000X1.240000*%
%ADD21R,3.400000X1.600000*%
%ADD22R,1.300000X1.200000*%
%ADD23R,1.400000X1.400000*%
%ADD24R,2.700000X1.600000*%
%ADD25R,1.200000X1.300000*%
%ADD26R,1.200000X1.500000*%
%ADD27R,0.900000X0.800000*%
%ADD28R,1.778000X0.900000*%
%ADD29R,0.800000X1.450000*%
%ADD30R,1.500000X1.300000*%
%ADD31R,2.200000X0.600000*%
%ADD32R,0.600000X2.200000*%
%ADD33R,2.800000X2.000000*%
%ADD34R,2.600000X2.800000*%
%ADD35R,2.800000X2.200000*%
%ADD36R,1.700000X3.700000*%
%ADD37R,3.700000X2.000000*%


D10*
X176532Y899634D03*
X176532Y894634D03*
X176532Y889634D03*
X176532Y884634D03*
X176532Y879634D03*
X176532Y874634D03*
X176532Y869634D03*
X176532Y864634D03*
X176532Y859634D03*
X176532Y854634D03*
X176532Y849634D03*
X176532Y844634D03*
X176532Y839634D03*
X176532Y834634D03*
X176532Y829634D03*
X176532Y824634D03*
X176532Y819634D03*
X176532Y814634D03*
X176532Y809634D03*
X176532Y804634D03*
X176532Y799634D03*
X176532Y794634D03*
X176532Y789634D03*
X176532Y784634D03*
D11*
X151932Y918134D03*
X151932Y767034D03*
D12*
X295910Y63500D03*
X247650Y63500D03*
X295910Y88900D03*
X247650Y88900D03*
D13*
X293370Y114300D03*
X250190Y114300D03*
X293370Y139700D03*
X250190Y139700D03*
X293370Y165100D03*
X250190Y165100D03*
X293370Y190500D03*
X250190Y190500D03*
X293370Y215900D03*
X250190Y215900D03*
X293370Y241300D03*
X250190Y241300D03*
X293370Y266700D03*
X250190Y266700D03*
X293370Y292100D03*
X250190Y292100D03*
X293370Y317500D03*
X250190Y317500D03*
X293370Y342900D03*
X250190Y342900D03*
X293370Y368300D03*
X250190Y368300D03*
X293370Y393700D03*
X250190Y393700D03*
D12*
X295910Y419100D03*
X247650Y419100D03*
X295910Y444500D03*
X247650Y444500D03*
X476250Y444500D03*
X524510Y444500D03*
X476250Y419100D03*
X524510Y419100D03*
D13*
X478790Y393700D03*
X521970Y393700D03*
X478790Y368300D03*
X521970Y368300D03*
X478790Y342900D03*
X521970Y342900D03*
X478790Y317500D03*
X521970Y317500D03*
X478790Y292100D03*
X521970Y292100D03*
X478790Y266700D03*
X521970Y266700D03*
X478790Y241300D03*
X521970Y241300D03*
X478790Y215900D03*
X521970Y215900D03*
D12*
X476250Y190500D03*
X524510Y190500D03*
X476250Y165100D03*
X524510Y165100D03*
D14*
X746270Y816420D03*
X755270Y684420D03*
D15*
X615270Y800420D03*
X615270Y740420D03*
D16*
X717270Y807420D03*
X717270Y796420D03*
X721270Y785420D03*
X717270Y774420D03*
X721270Y763420D03*
X717270Y752420D03*
X713270Y741420D03*
X717270Y730420D03*
D17*
X273660Y782320D03*
X254660Y782320D03*
X273660Y812800D03*
X254660Y812800D03*
X273660Y751840D03*
X254660Y751840D03*
X273660Y843280D03*
X254660Y843280D03*
X273660Y873760D03*
X254660Y873760D03*
X273660Y904240D03*
X254660Y904240D03*
X273660Y934720D03*
X254660Y934720D03*
D18*
X70020Y601500D03*
X70020Y581500D03*
D19*
X18020Y628500D03*
X18020Y514500D03*
D18*
X70020Y561500D03*
X70020Y541500D03*
D20*
X119380Y605180D03*
X119380Y624180D03*
D18*
X70180Y461960D03*
X70180Y441960D03*
D21*
X18180Y485960D03*
X18180Y397960D03*
D18*
X70180Y421960D03*
D22*
X119380Y421640D03*
X119380Y441960D03*
D23*
X119380Y503640D03*
X119380Y466640D03*
D24*
X73660Y148620D03*
X73660Y120620D03*
D22*
X40640Y124460D03*
X40640Y144780D03*
X106680Y124460D03*
X106680Y144780D03*
D25*
X121920Y193040D03*
X101600Y193040D03*
X81280Y193040D03*
X60960Y193040D03*
D17*
X393040Y820420D03*
X374040Y820420D03*
X393040Y850900D03*
X374040Y850900D03*
D23*
X518160Y790660D03*
X518160Y753660D03*
X487680Y790660D03*
X487680Y753660D03*
D20*
X457200Y762660D03*
X457200Y781660D03*
D23*
X426720Y790660D03*
X426720Y753660D03*
D26*
X394040Y723900D03*
X373040Y723900D03*
D27*
X337660Y781660D03*
X337660Y762660D03*
X316660Y772160D03*
D28*
X22956Y933400D03*
X22956Y973400D03*
D29*
X5416Y921900D03*
X5416Y984900D03*
D25*
X596900Y421640D03*
X576580Y421640D03*
X596900Y447040D03*
X576580Y447040D03*
D30*
X30480Y205080D03*
X30480Y186080D03*
X149860Y186080D03*
X149860Y205080D03*
D18*
X70180Y721040D03*
X70180Y701040D03*
D21*
X18180Y745040D03*
X18180Y657040D03*
D18*
X70180Y681040D03*
D22*
X119380Y645160D03*
X119380Y665480D03*
D23*
X119380Y727160D03*
X119380Y690160D03*
D31*
X634720Y242570D03*
X726720Y293970D03*
X634720Y229870D03*
X634720Y255270D03*
X634720Y267970D03*
X726720Y281270D03*
X726720Y306670D03*
X726720Y319370D03*
X634720Y293370D03*
X634720Y280670D03*
X634720Y306070D03*
X634720Y318770D03*
X726720Y268570D03*
X726720Y255870D03*
X726720Y242870D03*
X726720Y229870D03*
X634720Y331470D03*
X726720Y332070D03*
D32*
X270510Y560740D03*
X270510Y612740D03*
X283210Y560740D03*
X257810Y560740D03*
X245110Y560740D03*
X283210Y612740D03*
X257810Y612740D03*
X245110Y612740D03*
D26*
X274660Y647700D03*
X253660Y647700D03*
X716620Y838200D03*
X695620Y838200D03*
X691220Y195580D03*
X670220Y195580D03*
D32*
X527050Y560740D03*
X514350Y560740D03*
X501650Y560740D03*
X488950Y560740D03*
X488950Y612740D03*
X501650Y612740D03*
X514350Y612740D03*
X527050Y612740D03*
D26*
X518500Y647700D03*
X497500Y647700D03*
D28*
X746664Y889558D03*
X746664Y849558D03*
D29*
X764204Y901058D03*
X764204Y838058D03*
D33*
X135720Y21210D03*
D34*
X136720Y143210D03*
D35*
X209720Y68210D03*
X135720Y49210D03*
D36*
X298740Y27940D03*
X239740Y27940D03*
X649442Y1100582D03*
X708442Y1100582D03*
D37*
X383540Y790160D03*
X383540Y754160D03*
D25*
X568960Y563880D03*
X548640Y563880D03*
X647700Y838200D03*
X627380Y838200D03*
X309880Y599440D03*
X330200Y599440D03*
X274320Y726440D03*
X254000Y726440D03*
M02*
