G04 EAGLE Gerber RS-274X export*
G75*
%MOMM*%
%FSLAX34Y34*%
%LPD*%
%INSoldermask Top*%
%IPPOS*%
%AMOC8*
5,1,8,0,0,1.08239X$1,22.5*%
G01*
%ADD10C,1.927000*%
%ADD11C,1.651000*%
%ADD12C,3.643000*%
%ADD13C,1.127000*%
%ADD14C,0.500000*%
%ADD15P,2.226909X8X202.500000*%
%ADD16C,1.777000*%
%ADD17C,1.477000*%
%ADD18R,0.381000X0.076200*%
%ADD19R,0.457200X0.076200*%
%ADD20R,0.914400X0.076200*%
%ADD21R,1.219200X0.076200*%
%ADD22R,1.447800X0.076200*%
%ADD23R,1.524000X0.076200*%
%ADD24R,1.676400X0.076200*%
%ADD25R,1.828800X0.076200*%
%ADD26R,1.981200X0.076200*%
%ADD27R,2.133600X0.076200*%
%ADD28R,2.209800X0.076200*%
%ADD29R,2.286000X0.076200*%
%ADD30R,2.362200X0.076200*%
%ADD31R,2.438400X0.076200*%
%ADD32R,1.066800X0.076200*%
%ADD33R,0.990600X0.076200*%
%ADD34R,2.590800X0.076200*%
%ADD35R,0.838200X0.076200*%
%ADD36R,0.228600X0.076200*%
%ADD37R,0.304800X0.076200*%
%ADD38R,0.152400X0.076200*%
%ADD39R,2.057400X0.076200*%
%ADD40R,1.143000X0.076200*%
%ADD41R,1.752600X0.076200*%
%ADD42R,1.371600X0.076200*%
%ADD43R,0.762000X0.076200*%
%ADD44R,0.533400X0.076200*%
%ADD45C,1.827000*%
%ADD46C,2.667000*%


D10*
X500380Y177800D03*
X500380Y431800D03*
X271780Y76200D03*
X271780Y431800D03*
D11*
X111760Y1092200D03*
X86360Y1092200D03*
X60960Y1092200D03*
D12*
X20320Y22860D03*
X749300Y22860D03*
D13*
X754380Y182880D03*
D14*
X754380Y190380D02*
X754199Y190378D01*
X754018Y190371D01*
X753837Y190360D01*
X753656Y190345D01*
X753476Y190325D01*
X753296Y190301D01*
X753117Y190273D01*
X752939Y190240D01*
X752762Y190203D01*
X752585Y190162D01*
X752410Y190117D01*
X752235Y190067D01*
X752062Y190013D01*
X751891Y189955D01*
X751720Y189893D01*
X751552Y189826D01*
X751385Y189756D01*
X751219Y189682D01*
X751056Y189603D01*
X750895Y189521D01*
X750735Y189435D01*
X750578Y189345D01*
X750423Y189251D01*
X750270Y189154D01*
X750120Y189052D01*
X749972Y188948D01*
X749826Y188839D01*
X749684Y188728D01*
X749544Y188612D01*
X749407Y188494D01*
X749272Y188372D01*
X749141Y188247D01*
X749013Y188119D01*
X748888Y187988D01*
X748766Y187853D01*
X748648Y187716D01*
X748532Y187576D01*
X748421Y187434D01*
X748312Y187288D01*
X748208Y187140D01*
X748106Y186990D01*
X748009Y186837D01*
X747915Y186682D01*
X747825Y186525D01*
X747739Y186365D01*
X747657Y186204D01*
X747578Y186041D01*
X747504Y185875D01*
X747434Y185708D01*
X747367Y185540D01*
X747305Y185369D01*
X747247Y185198D01*
X747193Y185025D01*
X747143Y184850D01*
X747098Y184675D01*
X747057Y184498D01*
X747020Y184321D01*
X746987Y184143D01*
X746959Y183964D01*
X746935Y183784D01*
X746915Y183604D01*
X746900Y183423D01*
X746889Y183242D01*
X746882Y183061D01*
X746880Y182880D01*
X754380Y190380D02*
X754561Y190378D01*
X754742Y190371D01*
X754923Y190360D01*
X755104Y190345D01*
X755284Y190325D01*
X755464Y190301D01*
X755643Y190273D01*
X755821Y190240D01*
X755998Y190203D01*
X756175Y190162D01*
X756350Y190117D01*
X756525Y190067D01*
X756698Y190013D01*
X756869Y189955D01*
X757040Y189893D01*
X757208Y189826D01*
X757375Y189756D01*
X757541Y189682D01*
X757704Y189603D01*
X757865Y189521D01*
X758025Y189435D01*
X758182Y189345D01*
X758337Y189251D01*
X758490Y189154D01*
X758640Y189052D01*
X758788Y188948D01*
X758934Y188839D01*
X759076Y188728D01*
X759216Y188612D01*
X759353Y188494D01*
X759488Y188372D01*
X759619Y188247D01*
X759747Y188119D01*
X759872Y187988D01*
X759994Y187853D01*
X760112Y187716D01*
X760228Y187576D01*
X760339Y187434D01*
X760448Y187288D01*
X760552Y187140D01*
X760654Y186990D01*
X760751Y186837D01*
X760845Y186682D01*
X760935Y186525D01*
X761021Y186365D01*
X761103Y186204D01*
X761182Y186041D01*
X761256Y185875D01*
X761326Y185708D01*
X761393Y185540D01*
X761455Y185369D01*
X761513Y185198D01*
X761567Y185025D01*
X761617Y184850D01*
X761662Y184675D01*
X761703Y184498D01*
X761740Y184321D01*
X761773Y184143D01*
X761801Y183964D01*
X761825Y183784D01*
X761845Y183604D01*
X761860Y183423D01*
X761871Y183242D01*
X761878Y183061D01*
X761880Y182880D01*
X761878Y182699D01*
X761871Y182518D01*
X761860Y182337D01*
X761845Y182156D01*
X761825Y181976D01*
X761801Y181796D01*
X761773Y181617D01*
X761740Y181439D01*
X761703Y181262D01*
X761662Y181085D01*
X761617Y180910D01*
X761567Y180735D01*
X761513Y180562D01*
X761455Y180391D01*
X761393Y180220D01*
X761326Y180052D01*
X761256Y179885D01*
X761182Y179719D01*
X761103Y179556D01*
X761021Y179395D01*
X760935Y179235D01*
X760845Y179078D01*
X760751Y178923D01*
X760654Y178770D01*
X760552Y178620D01*
X760448Y178472D01*
X760339Y178326D01*
X760228Y178184D01*
X760112Y178044D01*
X759994Y177907D01*
X759872Y177772D01*
X759747Y177641D01*
X759619Y177513D01*
X759488Y177388D01*
X759353Y177266D01*
X759216Y177148D01*
X759076Y177032D01*
X758934Y176921D01*
X758788Y176812D01*
X758640Y176708D01*
X758490Y176606D01*
X758337Y176509D01*
X758182Y176415D01*
X758025Y176325D01*
X757865Y176239D01*
X757704Y176157D01*
X757541Y176078D01*
X757375Y176004D01*
X757208Y175934D01*
X757040Y175867D01*
X756869Y175805D01*
X756698Y175747D01*
X756525Y175693D01*
X756350Y175643D01*
X756175Y175598D01*
X755998Y175557D01*
X755821Y175520D01*
X755643Y175487D01*
X755464Y175459D01*
X755284Y175435D01*
X755104Y175415D01*
X754923Y175400D01*
X754742Y175389D01*
X754561Y175382D01*
X754380Y175380D01*
X754199Y175382D01*
X754018Y175389D01*
X753837Y175400D01*
X753656Y175415D01*
X753476Y175435D01*
X753296Y175459D01*
X753117Y175487D01*
X752939Y175520D01*
X752762Y175557D01*
X752585Y175598D01*
X752410Y175643D01*
X752235Y175693D01*
X752062Y175747D01*
X751891Y175805D01*
X751720Y175867D01*
X751552Y175934D01*
X751385Y176004D01*
X751219Y176078D01*
X751056Y176157D01*
X750895Y176239D01*
X750735Y176325D01*
X750578Y176415D01*
X750423Y176509D01*
X750270Y176606D01*
X750120Y176708D01*
X749972Y176812D01*
X749826Y176921D01*
X749684Y177032D01*
X749544Y177148D01*
X749407Y177266D01*
X749272Y177388D01*
X749141Y177513D01*
X749013Y177641D01*
X748888Y177772D01*
X748766Y177907D01*
X748648Y178044D01*
X748532Y178184D01*
X748421Y178326D01*
X748312Y178472D01*
X748208Y178620D01*
X748106Y178770D01*
X748009Y178923D01*
X747915Y179078D01*
X747825Y179235D01*
X747739Y179395D01*
X747657Y179556D01*
X747578Y179719D01*
X747504Y179885D01*
X747434Y180052D01*
X747367Y180220D01*
X747305Y180391D01*
X747247Y180562D01*
X747193Y180735D01*
X747143Y180910D01*
X747098Y181085D01*
X747057Y181262D01*
X747020Y181439D01*
X746987Y181617D01*
X746959Y181796D01*
X746935Y181976D01*
X746915Y182156D01*
X746900Y182337D01*
X746889Y182518D01*
X746882Y182699D01*
X746880Y182880D01*
D13*
X15240Y1051560D03*
D14*
X15240Y1059060D02*
X15059Y1059058D01*
X14878Y1059051D01*
X14697Y1059040D01*
X14516Y1059025D01*
X14336Y1059005D01*
X14156Y1058981D01*
X13977Y1058953D01*
X13799Y1058920D01*
X13622Y1058883D01*
X13445Y1058842D01*
X13270Y1058797D01*
X13095Y1058747D01*
X12922Y1058693D01*
X12751Y1058635D01*
X12580Y1058573D01*
X12412Y1058506D01*
X12245Y1058436D01*
X12079Y1058362D01*
X11916Y1058283D01*
X11755Y1058201D01*
X11595Y1058115D01*
X11438Y1058025D01*
X11283Y1057931D01*
X11130Y1057834D01*
X10980Y1057732D01*
X10832Y1057628D01*
X10686Y1057519D01*
X10544Y1057408D01*
X10404Y1057292D01*
X10267Y1057174D01*
X10132Y1057052D01*
X10001Y1056927D01*
X9873Y1056799D01*
X9748Y1056668D01*
X9626Y1056533D01*
X9508Y1056396D01*
X9392Y1056256D01*
X9281Y1056114D01*
X9172Y1055968D01*
X9068Y1055820D01*
X8966Y1055670D01*
X8869Y1055517D01*
X8775Y1055362D01*
X8685Y1055205D01*
X8599Y1055045D01*
X8517Y1054884D01*
X8438Y1054721D01*
X8364Y1054555D01*
X8294Y1054388D01*
X8227Y1054220D01*
X8165Y1054049D01*
X8107Y1053878D01*
X8053Y1053705D01*
X8003Y1053530D01*
X7958Y1053355D01*
X7917Y1053178D01*
X7880Y1053001D01*
X7847Y1052823D01*
X7819Y1052644D01*
X7795Y1052464D01*
X7775Y1052284D01*
X7760Y1052103D01*
X7749Y1051922D01*
X7742Y1051741D01*
X7740Y1051560D01*
X15240Y1059060D02*
X15421Y1059058D01*
X15602Y1059051D01*
X15783Y1059040D01*
X15964Y1059025D01*
X16144Y1059005D01*
X16324Y1058981D01*
X16503Y1058953D01*
X16681Y1058920D01*
X16858Y1058883D01*
X17035Y1058842D01*
X17210Y1058797D01*
X17385Y1058747D01*
X17558Y1058693D01*
X17729Y1058635D01*
X17900Y1058573D01*
X18068Y1058506D01*
X18235Y1058436D01*
X18401Y1058362D01*
X18564Y1058283D01*
X18725Y1058201D01*
X18885Y1058115D01*
X19042Y1058025D01*
X19197Y1057931D01*
X19350Y1057834D01*
X19500Y1057732D01*
X19648Y1057628D01*
X19794Y1057519D01*
X19936Y1057408D01*
X20076Y1057292D01*
X20213Y1057174D01*
X20348Y1057052D01*
X20479Y1056927D01*
X20607Y1056799D01*
X20732Y1056668D01*
X20854Y1056533D01*
X20972Y1056396D01*
X21088Y1056256D01*
X21199Y1056114D01*
X21308Y1055968D01*
X21412Y1055820D01*
X21514Y1055670D01*
X21611Y1055517D01*
X21705Y1055362D01*
X21795Y1055205D01*
X21881Y1055045D01*
X21963Y1054884D01*
X22042Y1054721D01*
X22116Y1054555D01*
X22186Y1054388D01*
X22253Y1054220D01*
X22315Y1054049D01*
X22373Y1053878D01*
X22427Y1053705D01*
X22477Y1053530D01*
X22522Y1053355D01*
X22563Y1053178D01*
X22600Y1053001D01*
X22633Y1052823D01*
X22661Y1052644D01*
X22685Y1052464D01*
X22705Y1052284D01*
X22720Y1052103D01*
X22731Y1051922D01*
X22738Y1051741D01*
X22740Y1051560D01*
X22738Y1051379D01*
X22731Y1051198D01*
X22720Y1051017D01*
X22705Y1050836D01*
X22685Y1050656D01*
X22661Y1050476D01*
X22633Y1050297D01*
X22600Y1050119D01*
X22563Y1049942D01*
X22522Y1049765D01*
X22477Y1049590D01*
X22427Y1049415D01*
X22373Y1049242D01*
X22315Y1049071D01*
X22253Y1048900D01*
X22186Y1048732D01*
X22116Y1048565D01*
X22042Y1048399D01*
X21963Y1048236D01*
X21881Y1048075D01*
X21795Y1047915D01*
X21705Y1047758D01*
X21611Y1047603D01*
X21514Y1047450D01*
X21412Y1047300D01*
X21308Y1047152D01*
X21199Y1047006D01*
X21088Y1046864D01*
X20972Y1046724D01*
X20854Y1046587D01*
X20732Y1046452D01*
X20607Y1046321D01*
X20479Y1046193D01*
X20348Y1046068D01*
X20213Y1045946D01*
X20076Y1045828D01*
X19936Y1045712D01*
X19794Y1045601D01*
X19648Y1045492D01*
X19500Y1045388D01*
X19350Y1045286D01*
X19197Y1045189D01*
X19042Y1045095D01*
X18885Y1045005D01*
X18725Y1044919D01*
X18564Y1044837D01*
X18401Y1044758D01*
X18235Y1044684D01*
X18068Y1044614D01*
X17900Y1044547D01*
X17729Y1044485D01*
X17558Y1044427D01*
X17385Y1044373D01*
X17210Y1044323D01*
X17035Y1044278D01*
X16858Y1044237D01*
X16681Y1044200D01*
X16503Y1044167D01*
X16324Y1044139D01*
X16144Y1044115D01*
X15964Y1044095D01*
X15783Y1044080D01*
X15602Y1044069D01*
X15421Y1044062D01*
X15240Y1044060D01*
X15059Y1044062D01*
X14878Y1044069D01*
X14697Y1044080D01*
X14516Y1044095D01*
X14336Y1044115D01*
X14156Y1044139D01*
X13977Y1044167D01*
X13799Y1044200D01*
X13622Y1044237D01*
X13445Y1044278D01*
X13270Y1044323D01*
X13095Y1044373D01*
X12922Y1044427D01*
X12751Y1044485D01*
X12580Y1044547D01*
X12412Y1044614D01*
X12245Y1044684D01*
X12079Y1044758D01*
X11916Y1044837D01*
X11755Y1044919D01*
X11595Y1045005D01*
X11438Y1045095D01*
X11283Y1045189D01*
X11130Y1045286D01*
X10980Y1045388D01*
X10832Y1045492D01*
X10686Y1045601D01*
X10544Y1045712D01*
X10404Y1045828D01*
X10267Y1045946D01*
X10132Y1046068D01*
X10001Y1046193D01*
X9873Y1046321D01*
X9748Y1046452D01*
X9626Y1046587D01*
X9508Y1046724D01*
X9392Y1046864D01*
X9281Y1047006D01*
X9172Y1047152D01*
X9068Y1047300D01*
X8966Y1047450D01*
X8869Y1047603D01*
X8775Y1047758D01*
X8685Y1047915D01*
X8599Y1048075D01*
X8517Y1048236D01*
X8438Y1048399D01*
X8364Y1048565D01*
X8294Y1048732D01*
X8227Y1048900D01*
X8165Y1049071D01*
X8107Y1049242D01*
X8053Y1049415D01*
X8003Y1049590D01*
X7958Y1049765D01*
X7917Y1049942D01*
X7880Y1050119D01*
X7847Y1050297D01*
X7819Y1050476D01*
X7795Y1050656D01*
X7775Y1050836D01*
X7760Y1051017D01*
X7749Y1051198D01*
X7742Y1051379D01*
X7740Y1051560D01*
D12*
X20320Y1099820D03*
X749300Y1099820D03*
D15*
X162560Y1092200D03*
D13*
X30480Y182880D03*
D14*
X30480Y190380D02*
X30299Y190378D01*
X30118Y190371D01*
X29937Y190360D01*
X29756Y190345D01*
X29576Y190325D01*
X29396Y190301D01*
X29217Y190273D01*
X29039Y190240D01*
X28862Y190203D01*
X28685Y190162D01*
X28510Y190117D01*
X28335Y190067D01*
X28162Y190013D01*
X27991Y189955D01*
X27820Y189893D01*
X27652Y189826D01*
X27485Y189756D01*
X27319Y189682D01*
X27156Y189603D01*
X26995Y189521D01*
X26835Y189435D01*
X26678Y189345D01*
X26523Y189251D01*
X26370Y189154D01*
X26220Y189052D01*
X26072Y188948D01*
X25926Y188839D01*
X25784Y188728D01*
X25644Y188612D01*
X25507Y188494D01*
X25372Y188372D01*
X25241Y188247D01*
X25113Y188119D01*
X24988Y187988D01*
X24866Y187853D01*
X24748Y187716D01*
X24632Y187576D01*
X24521Y187434D01*
X24412Y187288D01*
X24308Y187140D01*
X24206Y186990D01*
X24109Y186837D01*
X24015Y186682D01*
X23925Y186525D01*
X23839Y186365D01*
X23757Y186204D01*
X23678Y186041D01*
X23604Y185875D01*
X23534Y185708D01*
X23467Y185540D01*
X23405Y185369D01*
X23347Y185198D01*
X23293Y185025D01*
X23243Y184850D01*
X23198Y184675D01*
X23157Y184498D01*
X23120Y184321D01*
X23087Y184143D01*
X23059Y183964D01*
X23035Y183784D01*
X23015Y183604D01*
X23000Y183423D01*
X22989Y183242D01*
X22982Y183061D01*
X22980Y182880D01*
X30480Y190380D02*
X30661Y190378D01*
X30842Y190371D01*
X31023Y190360D01*
X31204Y190345D01*
X31384Y190325D01*
X31564Y190301D01*
X31743Y190273D01*
X31921Y190240D01*
X32098Y190203D01*
X32275Y190162D01*
X32450Y190117D01*
X32625Y190067D01*
X32798Y190013D01*
X32969Y189955D01*
X33140Y189893D01*
X33308Y189826D01*
X33475Y189756D01*
X33641Y189682D01*
X33804Y189603D01*
X33965Y189521D01*
X34125Y189435D01*
X34282Y189345D01*
X34437Y189251D01*
X34590Y189154D01*
X34740Y189052D01*
X34888Y188948D01*
X35034Y188839D01*
X35176Y188728D01*
X35316Y188612D01*
X35453Y188494D01*
X35588Y188372D01*
X35719Y188247D01*
X35847Y188119D01*
X35972Y187988D01*
X36094Y187853D01*
X36212Y187716D01*
X36328Y187576D01*
X36439Y187434D01*
X36548Y187288D01*
X36652Y187140D01*
X36754Y186990D01*
X36851Y186837D01*
X36945Y186682D01*
X37035Y186525D01*
X37121Y186365D01*
X37203Y186204D01*
X37282Y186041D01*
X37356Y185875D01*
X37426Y185708D01*
X37493Y185540D01*
X37555Y185369D01*
X37613Y185198D01*
X37667Y185025D01*
X37717Y184850D01*
X37762Y184675D01*
X37803Y184498D01*
X37840Y184321D01*
X37873Y184143D01*
X37901Y183964D01*
X37925Y183784D01*
X37945Y183604D01*
X37960Y183423D01*
X37971Y183242D01*
X37978Y183061D01*
X37980Y182880D01*
X37978Y182699D01*
X37971Y182518D01*
X37960Y182337D01*
X37945Y182156D01*
X37925Y181976D01*
X37901Y181796D01*
X37873Y181617D01*
X37840Y181439D01*
X37803Y181262D01*
X37762Y181085D01*
X37717Y180910D01*
X37667Y180735D01*
X37613Y180562D01*
X37555Y180391D01*
X37493Y180220D01*
X37426Y180052D01*
X37356Y179885D01*
X37282Y179719D01*
X37203Y179556D01*
X37121Y179395D01*
X37035Y179235D01*
X36945Y179078D01*
X36851Y178923D01*
X36754Y178770D01*
X36652Y178620D01*
X36548Y178472D01*
X36439Y178326D01*
X36328Y178184D01*
X36212Y178044D01*
X36094Y177907D01*
X35972Y177772D01*
X35847Y177641D01*
X35719Y177513D01*
X35588Y177388D01*
X35453Y177266D01*
X35316Y177148D01*
X35176Y177032D01*
X35034Y176921D01*
X34888Y176812D01*
X34740Y176708D01*
X34590Y176606D01*
X34437Y176509D01*
X34282Y176415D01*
X34125Y176325D01*
X33965Y176239D01*
X33804Y176157D01*
X33641Y176078D01*
X33475Y176004D01*
X33308Y175934D01*
X33140Y175867D01*
X32969Y175805D01*
X32798Y175747D01*
X32625Y175693D01*
X32450Y175643D01*
X32275Y175598D01*
X32098Y175557D01*
X31921Y175520D01*
X31743Y175487D01*
X31564Y175459D01*
X31384Y175435D01*
X31204Y175415D01*
X31023Y175400D01*
X30842Y175389D01*
X30661Y175382D01*
X30480Y175380D01*
X30299Y175382D01*
X30118Y175389D01*
X29937Y175400D01*
X29756Y175415D01*
X29576Y175435D01*
X29396Y175459D01*
X29217Y175487D01*
X29039Y175520D01*
X28862Y175557D01*
X28685Y175598D01*
X28510Y175643D01*
X28335Y175693D01*
X28162Y175747D01*
X27991Y175805D01*
X27820Y175867D01*
X27652Y175934D01*
X27485Y176004D01*
X27319Y176078D01*
X27156Y176157D01*
X26995Y176239D01*
X26835Y176325D01*
X26678Y176415D01*
X26523Y176509D01*
X26370Y176606D01*
X26220Y176708D01*
X26072Y176812D01*
X25926Y176921D01*
X25784Y177032D01*
X25644Y177148D01*
X25507Y177266D01*
X25372Y177388D01*
X25241Y177513D01*
X25113Y177641D01*
X24988Y177772D01*
X24866Y177907D01*
X24748Y178044D01*
X24632Y178184D01*
X24521Y178326D01*
X24412Y178472D01*
X24308Y178620D01*
X24206Y178770D01*
X24109Y178923D01*
X24015Y179078D01*
X23925Y179235D01*
X23839Y179395D01*
X23757Y179556D01*
X23678Y179719D01*
X23604Y179885D01*
X23534Y180052D01*
X23467Y180220D01*
X23405Y180391D01*
X23347Y180562D01*
X23293Y180735D01*
X23243Y180910D01*
X23198Y181085D01*
X23157Y181262D01*
X23120Y181439D01*
X23087Y181617D01*
X23059Y181796D01*
X23035Y181976D01*
X23015Y182156D01*
X23000Y182337D01*
X22989Y182518D01*
X22982Y182699D01*
X22980Y182880D01*
D16*
X626740Y48260D03*
X546740Y48260D03*
D17*
X606740Y48260D03*
X586740Y48260D03*
X566740Y48260D03*
D18*
G36*
X48517Y97159D02*
X45824Y94466D01*
X45285Y95005D01*
X47978Y97698D01*
X48517Y97159D01*
G37*
D19*
G36*
X68991Y117635D02*
X65759Y114403D01*
X65221Y114941D01*
X68453Y118173D01*
X68991Y117635D01*
G37*
D20*
G36*
X49594Y99315D02*
X43129Y92850D01*
X42590Y93389D01*
X49055Y99854D01*
X49594Y99315D01*
G37*
G36*
X70069Y119790D02*
X63604Y113325D01*
X63065Y113864D01*
X69530Y120329D01*
X70069Y119790D01*
G37*
D21*
G36*
X50133Y100932D02*
X41513Y92312D01*
X40975Y92850D01*
X49595Y101470D01*
X50133Y100932D01*
G37*
G36*
X70608Y121407D02*
X61988Y112787D01*
X61450Y113325D01*
X70070Y121945D01*
X70608Y121407D01*
G37*
D22*
G36*
X50672Y102548D02*
X40435Y92311D01*
X39896Y92850D01*
X50133Y103087D01*
X50672Y102548D01*
G37*
D23*
G36*
X71147Y123022D02*
X60372Y112247D01*
X59833Y112786D01*
X70608Y123561D01*
X71147Y123022D01*
G37*
D24*
G36*
X50672Y103625D02*
X38819Y91772D01*
X38280Y92311D01*
X50133Y104164D01*
X50672Y103625D01*
G37*
G36*
X71147Y124100D02*
X59294Y112247D01*
X58755Y112786D01*
X70608Y124639D01*
X71147Y124100D01*
G37*
D25*
G36*
X50672Y104703D02*
X37741Y91772D01*
X37202Y92311D01*
X50133Y105242D01*
X50672Y104703D01*
G37*
G36*
X71147Y125178D02*
X58216Y112247D01*
X57677Y112786D01*
X70608Y125717D01*
X71147Y125178D01*
G37*
D26*
G36*
X50672Y105781D02*
X36663Y91772D01*
X36124Y92311D01*
X50133Y106320D01*
X50672Y105781D01*
G37*
G36*
X71147Y126256D02*
X57138Y112247D01*
X56599Y112786D01*
X70608Y126795D01*
X71147Y126256D01*
G37*
D27*
G36*
X50672Y106859D02*
X35586Y91773D01*
X35048Y92311D01*
X50134Y107397D01*
X50672Y106859D01*
G37*
G36*
X71147Y127334D02*
X56061Y112248D01*
X55523Y112786D01*
X70609Y127872D01*
X71147Y127334D01*
G37*
D28*
G36*
X50672Y107936D02*
X35047Y92311D01*
X34508Y92850D01*
X50133Y108475D01*
X50672Y107936D01*
G37*
D27*
G36*
X70608Y127872D02*
X55522Y112786D01*
X54984Y113324D01*
X70070Y128410D01*
X70608Y127872D01*
G37*
D29*
G36*
X50133Y108474D02*
X33970Y92311D01*
X33431Y92850D01*
X49594Y109013D01*
X50133Y108474D01*
G37*
G36*
X70608Y128949D02*
X54445Y112786D01*
X53906Y113325D01*
X70069Y129488D01*
X70608Y128949D01*
G37*
D30*
G36*
X50133Y109553D02*
X33430Y92850D01*
X32891Y93389D01*
X49594Y110092D01*
X50133Y109553D01*
G37*
D29*
G36*
X70069Y129488D02*
X53906Y113325D01*
X53367Y113864D01*
X69530Y130027D01*
X70069Y129488D01*
G37*
D30*
G36*
X49595Y110091D02*
X32892Y93388D01*
X32353Y93927D01*
X49056Y110630D01*
X49595Y110091D01*
G37*
D31*
G36*
X70069Y130566D02*
X52828Y113325D01*
X52289Y113864D01*
X69530Y131105D01*
X70069Y130566D01*
G37*
D32*
G36*
X39357Y100931D02*
X31814Y93388D01*
X31275Y93927D01*
X38818Y101470D01*
X39357Y100931D01*
G37*
D33*
G36*
X49055Y110630D02*
X42052Y103627D01*
X41513Y104166D01*
X48516Y111169D01*
X49055Y110630D01*
G37*
D31*
G36*
X69530Y131105D02*
X52289Y113864D01*
X51750Y114403D01*
X68991Y131644D01*
X69530Y131105D01*
G37*
D20*
G36*
X37740Y100392D02*
X31275Y93927D01*
X30736Y94466D01*
X37201Y100931D01*
X37740Y100392D01*
G37*
D33*
G36*
X49055Y111707D02*
X42052Y104704D01*
X41513Y105243D01*
X48516Y112246D01*
X49055Y111707D01*
G37*
D31*
G36*
X68992Y131644D02*
X51751Y114403D01*
X51212Y114942D01*
X68453Y132183D01*
X68992Y131644D01*
G37*
D20*
G36*
X37202Y100931D02*
X30737Y94466D01*
X30198Y95005D01*
X36663Y101470D01*
X37202Y100931D01*
G37*
G36*
X48517Y112246D02*
X42052Y105781D01*
X41513Y106320D01*
X47978Y112785D01*
X48517Y112246D01*
G37*
D34*
G36*
X68992Y132721D02*
X50673Y114402D01*
X50134Y114941D01*
X68453Y133260D01*
X68992Y132721D01*
G37*
D35*
G36*
X36123Y100932D02*
X30197Y95006D01*
X29659Y95544D01*
X35585Y101470D01*
X36123Y100932D01*
G37*
D36*
G36*
X39895Y104703D02*
X38280Y103088D01*
X37741Y103627D01*
X39356Y105242D01*
X39895Y104703D01*
G37*
D35*
G36*
X47977Y112786D02*
X42051Y106860D01*
X41513Y107398D01*
X47439Y113324D01*
X47977Y112786D01*
G37*
D34*
G36*
X68453Y133260D02*
X50134Y114941D01*
X49595Y115480D01*
X67914Y133799D01*
X68453Y133260D01*
G37*
D35*
G36*
X35585Y101470D02*
X29659Y95544D01*
X29121Y96082D01*
X35047Y102008D01*
X35585Y101470D01*
G37*
D18*
G36*
X39896Y105780D02*
X37203Y103087D01*
X36664Y103626D01*
X39357Y106319D01*
X39896Y105780D01*
G37*
D20*
G36*
X47978Y113863D02*
X41513Y107398D01*
X40974Y107937D01*
X47439Y114402D01*
X47978Y113863D01*
G37*
D34*
G36*
X67914Y133799D02*
X49595Y115480D01*
X49056Y116019D01*
X67375Y134338D01*
X67914Y133799D01*
G37*
D35*
G36*
X35046Y102009D02*
X29120Y96083D01*
X28582Y96621D01*
X34508Y102547D01*
X35046Y102009D01*
G37*
D18*
G36*
X39357Y106319D02*
X36664Y103626D01*
X36125Y104165D01*
X38818Y106858D01*
X39357Y106319D01*
G37*
D20*
G36*
X47439Y114402D02*
X40974Y107937D01*
X40435Y108476D01*
X46900Y114941D01*
X47439Y114402D01*
G37*
D34*
G36*
X67375Y134338D02*
X49056Y116019D01*
X48517Y116558D01*
X66836Y134877D01*
X67375Y134338D01*
G37*
D35*
G36*
X34507Y102548D02*
X28581Y96622D01*
X28043Y97160D01*
X33969Y103086D01*
X34507Y102548D01*
G37*
D18*
G36*
X38818Y106858D02*
X36125Y104165D01*
X35586Y104704D01*
X38279Y107397D01*
X38818Y106858D01*
G37*
D20*
G36*
X47439Y115479D02*
X40974Y109014D01*
X40435Y109553D01*
X46900Y116018D01*
X47439Y115479D01*
G37*
D34*
G36*
X66837Y134877D02*
X48518Y116558D01*
X47979Y117097D01*
X66298Y135416D01*
X66837Y134877D01*
G37*
D35*
G36*
X33968Y103087D02*
X28042Y97161D01*
X27504Y97699D01*
X33430Y103625D01*
X33968Y103087D01*
G37*
D37*
G36*
X38280Y107397D02*
X36125Y105242D01*
X35586Y105781D01*
X37741Y107936D01*
X38280Y107397D01*
G37*
D20*
G36*
X46900Y116018D02*
X40435Y109553D01*
X39896Y110092D01*
X46361Y116557D01*
X46900Y116018D01*
G37*
D34*
G36*
X66298Y135415D02*
X47979Y117096D01*
X47440Y117635D01*
X65759Y135954D01*
X66298Y135415D01*
G37*
D20*
G36*
X33969Y104164D02*
X27504Y97699D01*
X26965Y98238D01*
X33430Y104703D01*
X33969Y104164D01*
G37*
D36*
G36*
X38279Y108474D02*
X36664Y106859D01*
X36125Y107398D01*
X37740Y109013D01*
X38279Y108474D01*
G37*
D20*
G36*
X46362Y116557D02*
X39897Y110092D01*
X39358Y110631D01*
X45823Y117096D01*
X46362Y116557D01*
G37*
D31*
G36*
X65220Y135415D02*
X47979Y118174D01*
X47440Y118713D01*
X64681Y135954D01*
X65220Y135415D01*
G37*
D20*
G36*
X33430Y104703D02*
X26965Y98238D01*
X26426Y98777D01*
X32891Y105242D01*
X33430Y104703D01*
G37*
D36*
G36*
X38279Y109552D02*
X36664Y107937D01*
X36125Y108476D01*
X37740Y110091D01*
X38279Y109552D01*
G37*
D20*
G36*
X46362Y117635D02*
X39897Y111170D01*
X39358Y111709D01*
X45823Y118174D01*
X46362Y117635D01*
G37*
D31*
G36*
X64681Y135954D02*
X47440Y118713D01*
X46901Y119252D01*
X64142Y136493D01*
X64681Y135954D01*
G37*
D32*
G36*
X33969Y106320D02*
X26426Y98777D01*
X25887Y99316D01*
X33430Y106859D01*
X33969Y106320D01*
G37*
D36*
G36*
X37740Y110091D02*
X36125Y108476D01*
X35586Y109015D01*
X37201Y110630D01*
X37740Y110091D01*
G37*
D20*
G36*
X45823Y118173D02*
X39358Y111708D01*
X38819Y112247D01*
X45284Y118712D01*
X45823Y118173D01*
G37*
D31*
G36*
X64142Y136493D02*
X46901Y119252D01*
X46362Y119791D01*
X63603Y137032D01*
X64142Y136493D01*
G37*
D21*
G36*
X35046Y108475D02*
X26426Y99855D01*
X25888Y100393D01*
X34508Y109013D01*
X35046Y108475D01*
G37*
D36*
G36*
X37740Y111168D02*
X36125Y109553D01*
X35586Y110092D01*
X37201Y111707D01*
X37740Y111168D01*
G37*
D35*
G36*
X45283Y118713D02*
X39357Y112787D01*
X38819Y113325D01*
X44745Y119251D01*
X45283Y118713D01*
G37*
D30*
G36*
X63604Y137032D02*
X46901Y120329D01*
X46362Y120868D01*
X63065Y137571D01*
X63604Y137032D01*
G37*
D21*
G36*
X34507Y109014D02*
X25887Y100394D01*
X25349Y100932D01*
X33969Y109552D01*
X34507Y109014D01*
G37*
D36*
G36*
X37740Y112246D02*
X36125Y110631D01*
X35586Y111170D01*
X37201Y112785D01*
X37740Y112246D01*
G37*
D20*
G36*
X45284Y119790D02*
X38819Y113325D01*
X38280Y113864D01*
X44745Y120329D01*
X45284Y119790D01*
G37*
D29*
G36*
X62526Y137032D02*
X46363Y120869D01*
X45824Y121408D01*
X61987Y137571D01*
X62526Y137032D01*
G37*
D21*
G36*
X34507Y110091D02*
X25887Y101471D01*
X25349Y102009D01*
X33969Y110629D01*
X34507Y110091D01*
G37*
D36*
G36*
X37201Y112785D02*
X35586Y111170D01*
X35047Y111709D01*
X36662Y113324D01*
X37201Y112785D01*
G37*
D20*
G36*
X44745Y120329D02*
X38280Y113864D01*
X37741Y114403D01*
X44206Y120868D01*
X44745Y120329D01*
G37*
D29*
G36*
X61987Y137570D02*
X45824Y121407D01*
X45285Y121946D01*
X61448Y138109D01*
X61987Y137570D01*
G37*
D21*
G36*
X33968Y110630D02*
X25348Y102010D01*
X24810Y102548D01*
X33430Y111168D01*
X33968Y110630D01*
G37*
D38*
G36*
X36663Y113324D02*
X35586Y112247D01*
X35047Y112786D01*
X36124Y113863D01*
X36663Y113324D01*
G37*
D35*
G36*
X44206Y120868D02*
X38280Y114942D01*
X37742Y115480D01*
X43668Y121406D01*
X44206Y120868D01*
G37*
D27*
G36*
X60909Y137571D02*
X45823Y122485D01*
X45285Y123023D01*
X60371Y138109D01*
X60909Y137571D01*
G37*
D21*
G36*
X33968Y111708D02*
X25348Y103088D01*
X24810Y103626D01*
X33430Y112246D01*
X33968Y111708D01*
G37*
D36*
G36*
X36663Y114401D02*
X35048Y112786D01*
X34509Y113325D01*
X36124Y114940D01*
X36663Y114401D01*
G37*
D20*
G36*
X44206Y121945D02*
X37741Y115480D01*
X37202Y116019D01*
X43667Y122484D01*
X44206Y121945D01*
G37*
D39*
G36*
X59832Y137571D02*
X45285Y123024D01*
X44746Y123563D01*
X59293Y138110D01*
X59832Y137571D01*
G37*
D40*
G36*
X33430Y112246D02*
X25349Y104165D01*
X24810Y104704D01*
X32891Y112785D01*
X33430Y112246D01*
G37*
D38*
G36*
X36124Y114941D02*
X35047Y113864D01*
X34508Y114403D01*
X35585Y115480D01*
X36124Y114941D01*
G37*
D20*
G36*
X43667Y122484D02*
X37202Y116019D01*
X36663Y116558D01*
X43128Y123023D01*
X43667Y122484D01*
G37*
D26*
G36*
X58755Y137571D02*
X44746Y123562D01*
X44207Y124101D01*
X58216Y138110D01*
X58755Y137571D01*
G37*
D32*
G36*
X32891Y112785D02*
X25348Y105242D01*
X24809Y105781D01*
X32352Y113324D01*
X32891Y112785D01*
G37*
D38*
G36*
X35585Y115479D02*
X34508Y114402D01*
X33969Y114941D01*
X35046Y116018D01*
X35585Y115479D01*
G37*
D20*
G36*
X43667Y123561D02*
X37202Y117096D01*
X36663Y117635D01*
X43128Y124100D01*
X43667Y123561D01*
G37*
D25*
G36*
X57677Y137571D02*
X44746Y124640D01*
X44207Y125179D01*
X57138Y138110D01*
X57677Y137571D01*
G37*
D32*
G36*
X32891Y113863D02*
X25348Y106320D01*
X24809Y106859D01*
X32352Y114402D01*
X32891Y113863D01*
G37*
D36*
G36*
X35585Y116557D02*
X33970Y114942D01*
X33431Y115481D01*
X35046Y117096D01*
X35585Y116557D01*
G37*
D20*
G36*
X43129Y124100D02*
X36664Y117635D01*
X36125Y118174D01*
X42590Y124639D01*
X43129Y124100D01*
G37*
D41*
G36*
X56599Y137570D02*
X44208Y125179D01*
X43669Y125718D01*
X56060Y138109D01*
X56599Y137570D01*
G37*
D20*
G36*
X32352Y114402D02*
X25887Y107937D01*
X25348Y108476D01*
X31813Y114941D01*
X32352Y114402D01*
G37*
D38*
G36*
X35046Y117096D02*
X33969Y116019D01*
X33430Y116558D01*
X34507Y117635D01*
X35046Y117096D01*
G37*
D20*
G36*
X42590Y124639D02*
X36125Y118174D01*
X35586Y118713D01*
X42051Y125178D01*
X42590Y124639D01*
G37*
D36*
G36*
X45284Y127333D02*
X43669Y125718D01*
X43130Y126257D01*
X44745Y127872D01*
X45284Y127333D01*
G37*
D42*
G36*
X55521Y137570D02*
X45824Y127873D01*
X45285Y128412D01*
X54982Y138109D01*
X55521Y137570D01*
G37*
D20*
G36*
X32352Y115479D02*
X25887Y109014D01*
X25348Y109553D01*
X31813Y116018D01*
X32352Y115479D01*
G37*
D38*
G36*
X34508Y117635D02*
X33431Y116558D01*
X32892Y117097D01*
X33969Y118174D01*
X34508Y117635D01*
G37*
D20*
G36*
X42590Y125717D02*
X36125Y119252D01*
X35586Y119791D01*
X42051Y126256D01*
X42590Y125717D01*
G37*
D38*
G36*
X44745Y127872D02*
X43668Y126795D01*
X43129Y127334D01*
X44206Y128411D01*
X44745Y127872D01*
G37*
D32*
G36*
X53905Y137032D02*
X46362Y129489D01*
X45823Y130028D01*
X53366Y137571D01*
X53905Y137032D01*
G37*
D43*
G36*
X31813Y116018D02*
X26426Y110631D01*
X25887Y111170D01*
X31274Y116557D01*
X31813Y116018D01*
G37*
D36*
G36*
X34507Y118712D02*
X32892Y117097D01*
X32353Y117636D01*
X33968Y119251D01*
X34507Y118712D01*
G37*
D20*
G36*
X42051Y126256D02*
X35586Y119791D01*
X35047Y120330D01*
X41512Y126795D01*
X42051Y126256D01*
G37*
D36*
G36*
X44745Y128949D02*
X43130Y127334D01*
X42591Y127873D01*
X44206Y129488D01*
X44745Y128949D01*
G37*
D44*
G36*
X51750Y135954D02*
X47979Y132183D01*
X47440Y132722D01*
X51211Y136493D01*
X51750Y135954D01*
G37*
D36*
G36*
X31274Y116557D02*
X29659Y114942D01*
X29120Y115481D01*
X30735Y117096D01*
X31274Y116557D01*
G37*
D38*
G36*
X33969Y119251D02*
X32892Y118174D01*
X32353Y118713D01*
X33430Y119790D01*
X33969Y119251D01*
G37*
D20*
G36*
X41512Y126794D02*
X35047Y120329D01*
X34508Y120868D01*
X40973Y127333D01*
X41512Y126794D01*
G37*
D38*
G36*
X44206Y129489D02*
X43129Y128412D01*
X42590Y128951D01*
X43667Y130028D01*
X44206Y129489D01*
G37*
G36*
X33430Y119790D02*
X32353Y118713D01*
X31814Y119252D01*
X32891Y120329D01*
X33430Y119790D01*
G37*
D20*
G36*
X41512Y127872D02*
X35047Y121407D01*
X34508Y121946D01*
X40973Y128411D01*
X41512Y127872D01*
G37*
D38*
G36*
X43668Y130027D02*
X42591Y128950D01*
X42052Y129489D01*
X43129Y130566D01*
X43668Y130027D01*
G37*
D36*
G36*
X46900Y133260D02*
X45285Y131645D01*
X44746Y132184D01*
X46361Y133799D01*
X46900Y133260D01*
G37*
D44*
G36*
X28581Y116018D02*
X24810Y112247D01*
X24271Y112786D01*
X28042Y116557D01*
X28581Y116018D01*
G37*
D36*
G36*
X33430Y120867D02*
X31815Y119252D01*
X31276Y119791D01*
X32891Y121406D01*
X33430Y120867D01*
G37*
D20*
G36*
X40973Y128411D02*
X34508Y121946D01*
X33969Y122485D01*
X40434Y128950D01*
X40973Y128411D01*
G37*
D36*
G36*
X43667Y131105D02*
X42052Y129490D01*
X41513Y130029D01*
X43128Y131644D01*
X43667Y131105D01*
G37*
D43*
G36*
X50133Y137571D02*
X44746Y132184D01*
X44207Y132723D01*
X49594Y138110D01*
X50133Y137571D01*
G37*
D32*
G36*
X30197Y118712D02*
X22654Y111169D01*
X22115Y111708D01*
X29658Y119251D01*
X30197Y118712D01*
G37*
D38*
G36*
X32891Y121406D02*
X31814Y120329D01*
X31275Y120868D01*
X32352Y121945D01*
X32891Y121406D01*
G37*
D20*
G36*
X40435Y128950D02*
X33970Y122485D01*
X33431Y123024D01*
X39896Y129489D01*
X40435Y128950D01*
G37*
D38*
G36*
X43129Y131644D02*
X42052Y130567D01*
X41513Y131106D01*
X42590Y132183D01*
X43129Y131644D01*
G37*
D20*
G36*
X50672Y139187D02*
X44207Y132722D01*
X43668Y133261D01*
X50133Y139726D01*
X50672Y139187D01*
G37*
D42*
G36*
X30735Y120328D02*
X21038Y110631D01*
X20499Y111170D01*
X30196Y120867D01*
X30735Y120328D01*
G37*
D36*
G36*
X32891Y122484D02*
X31276Y120869D01*
X30737Y121408D01*
X32352Y123023D01*
X32891Y122484D01*
G37*
D20*
G36*
X40435Y130027D02*
X33970Y123562D01*
X33431Y124101D01*
X39896Y130566D01*
X40435Y130027D01*
G37*
D38*
G36*
X42590Y132183D02*
X41513Y131106D01*
X40974Y131645D01*
X42051Y132722D01*
X42590Y132183D01*
G37*
D20*
G36*
X50672Y140265D02*
X44207Y133800D01*
X43668Y134339D01*
X50133Y140804D01*
X50672Y140265D01*
G37*
D41*
G36*
X32352Y123022D02*
X19961Y110631D01*
X19422Y111170D01*
X31813Y123561D01*
X32352Y123022D01*
G37*
D20*
G36*
X39896Y130566D02*
X33431Y124101D01*
X32892Y124640D01*
X39357Y131105D01*
X39896Y130566D01*
G37*
D36*
G36*
X42589Y133260D02*
X40974Y131645D01*
X40435Y132184D01*
X42050Y133799D01*
X42589Y133260D01*
G37*
D32*
G36*
X51211Y141881D02*
X43668Y134338D01*
X43129Y134877D01*
X50672Y142420D01*
X51211Y141881D01*
G37*
D25*
G36*
X31814Y123562D02*
X18883Y110631D01*
X18344Y111170D01*
X31275Y124101D01*
X31814Y123562D01*
G37*
D20*
G36*
X39357Y131105D02*
X32892Y124640D01*
X32353Y125179D01*
X38818Y131644D01*
X39357Y131105D01*
G37*
D38*
G36*
X42051Y133799D02*
X40974Y132722D01*
X40435Y133261D01*
X41512Y134338D01*
X42051Y133799D01*
G37*
D32*
G36*
X51211Y142959D02*
X43668Y135416D01*
X43129Y135955D01*
X50672Y143498D01*
X51211Y142959D01*
G37*
D26*
G36*
X31814Y124639D02*
X17805Y110630D01*
X17266Y111169D01*
X31275Y125178D01*
X31814Y124639D01*
G37*
D20*
G36*
X39357Y132183D02*
X32892Y125718D01*
X32353Y126257D01*
X38818Y132722D01*
X39357Y132183D01*
G37*
D38*
G36*
X41512Y134338D02*
X40435Y133261D01*
X39896Y133800D01*
X40973Y134877D01*
X41512Y134338D01*
G37*
D40*
G36*
X51211Y144036D02*
X43130Y135955D01*
X42591Y136494D01*
X50672Y144575D01*
X51211Y144036D01*
G37*
D39*
G36*
X31275Y125178D02*
X16728Y110631D01*
X16189Y111170D01*
X30736Y125717D01*
X31275Y125178D01*
G37*
D20*
G36*
X38818Y132721D02*
X32353Y126256D01*
X31814Y126795D01*
X38279Y133260D01*
X38818Y132721D01*
G37*
D36*
G36*
X41512Y135415D02*
X39897Y133800D01*
X39358Y134339D01*
X40973Y135954D01*
X41512Y135415D01*
G37*
D21*
G36*
X51210Y145114D02*
X42590Y136494D01*
X42052Y137032D01*
X50672Y145652D01*
X51210Y145114D01*
G37*
D27*
G36*
X30735Y125717D02*
X15649Y110631D01*
X15111Y111169D01*
X30197Y126255D01*
X30735Y125717D01*
G37*
D35*
G36*
X38279Y133261D02*
X32353Y127335D01*
X31815Y127873D01*
X37741Y133799D01*
X38279Y133261D01*
G37*
D38*
G36*
X40973Y135954D02*
X39896Y134877D01*
X39357Y135416D01*
X40434Y136493D01*
X40973Y135954D01*
G37*
D21*
G36*
X51210Y146192D02*
X42590Y137572D01*
X42052Y138110D01*
X50672Y146730D01*
X51210Y146192D01*
G37*
D29*
G36*
X30736Y126794D02*
X14573Y110631D01*
X14034Y111170D01*
X30197Y127333D01*
X30736Y126794D01*
G37*
D20*
G36*
X38279Y134338D02*
X31814Y127873D01*
X31275Y128412D01*
X37740Y134877D01*
X38279Y134338D01*
G37*
D36*
G36*
X40973Y137032D02*
X39358Y135417D01*
X38819Y135956D01*
X40434Y137571D01*
X40973Y137032D01*
G37*
D21*
G36*
X50671Y146731D02*
X42051Y138111D01*
X41513Y138649D01*
X50133Y147269D01*
X50671Y146731D01*
G37*
D29*
G36*
X30197Y127333D02*
X14034Y111170D01*
X13495Y111709D01*
X29658Y127872D01*
X30197Y127333D01*
G37*
D20*
G36*
X37740Y134877D02*
X31275Y128412D01*
X30736Y128951D01*
X37201Y135416D01*
X37740Y134877D01*
G37*
D36*
G36*
X40434Y137570D02*
X38819Y135955D01*
X38280Y136494D01*
X39895Y138109D01*
X40434Y137570D01*
G37*
D21*
G36*
X50671Y147809D02*
X42051Y139189D01*
X41513Y139727D01*
X50133Y148347D01*
X50671Y147809D01*
G37*
D30*
G36*
X29659Y127872D02*
X12956Y111169D01*
X12417Y111708D01*
X29120Y128411D01*
X29659Y127872D01*
G37*
D35*
G36*
X37201Y135416D02*
X31275Y129490D01*
X30737Y130028D01*
X36663Y135954D01*
X37201Y135416D01*
G37*
D36*
G36*
X40434Y138648D02*
X38819Y137033D01*
X38280Y137572D01*
X39895Y139187D01*
X40434Y138648D01*
G37*
D21*
G36*
X50133Y148347D02*
X41513Y139727D01*
X40975Y140265D01*
X49595Y148885D01*
X50133Y148347D01*
G37*
D31*
G36*
X29658Y128949D02*
X12417Y111708D01*
X11878Y112247D01*
X29119Y129488D01*
X29658Y128949D01*
G37*
D20*
G36*
X37202Y136493D02*
X30737Y130028D01*
X30198Y130567D01*
X36663Y137032D01*
X37202Y136493D01*
G37*
D36*
G36*
X40434Y139726D02*
X38819Y138111D01*
X38280Y138650D01*
X39895Y140265D01*
X40434Y139726D01*
G37*
D32*
G36*
X50133Y149425D02*
X42590Y141882D01*
X42051Y142421D01*
X49594Y149964D01*
X50133Y149425D01*
G37*
D31*
G36*
X29119Y129488D02*
X11878Y112247D01*
X11339Y112786D01*
X28580Y130027D01*
X29119Y129488D01*
G37*
D20*
G36*
X36663Y137032D02*
X30198Y130567D01*
X29659Y131106D01*
X36124Y137571D01*
X36663Y137032D01*
G37*
D36*
G36*
X39895Y140264D02*
X38280Y138649D01*
X37741Y139188D01*
X39356Y140803D01*
X39895Y140264D01*
G37*
D20*
G36*
X49594Y149963D02*
X43129Y143498D01*
X42590Y144037D01*
X49055Y150502D01*
X49594Y149963D01*
G37*
D31*
G36*
X28580Y130027D02*
X11339Y112786D01*
X10800Y113325D01*
X28041Y130566D01*
X28580Y130027D01*
G37*
D20*
G36*
X36663Y138110D02*
X30198Y131645D01*
X29659Y132184D01*
X36124Y138649D01*
X36663Y138110D01*
G37*
D36*
G36*
X39895Y141342D02*
X38280Y139727D01*
X37741Y140266D01*
X39356Y141881D01*
X39895Y141342D01*
G37*
D20*
G36*
X49056Y150502D02*
X42591Y144037D01*
X42052Y144576D01*
X48517Y151041D01*
X49056Y150502D01*
G37*
D34*
G36*
X28581Y131105D02*
X10262Y112786D01*
X9723Y113325D01*
X28042Y131644D01*
X28581Y131105D01*
G37*
D20*
G36*
X36124Y138648D02*
X29659Y132183D01*
X29120Y132722D01*
X35585Y139187D01*
X36124Y138648D01*
G37*
D37*
G36*
X40435Y142959D02*
X38280Y140804D01*
X37741Y141343D01*
X39896Y143498D01*
X40435Y142959D01*
G37*
D35*
G36*
X48516Y151041D02*
X42590Y145115D01*
X42052Y145653D01*
X47978Y151579D01*
X48516Y151041D01*
G37*
D34*
G36*
X28042Y131644D02*
X9723Y113325D01*
X9184Y113864D01*
X27503Y132183D01*
X28042Y131644D01*
G37*
D20*
G36*
X35585Y139187D02*
X29120Y132722D01*
X28581Y133261D01*
X35046Y139726D01*
X35585Y139187D01*
G37*
D18*
G36*
X40434Y144036D02*
X37741Y141343D01*
X37202Y141882D01*
X39895Y144575D01*
X40434Y144036D01*
G37*
D35*
G36*
X47977Y151580D02*
X42051Y145654D01*
X41513Y146192D01*
X47439Y152118D01*
X47977Y151580D01*
G37*
D34*
G36*
X27503Y132183D02*
X9184Y113864D01*
X8645Y114403D01*
X26964Y132722D01*
X27503Y132183D01*
G37*
D20*
G36*
X35585Y140265D02*
X29120Y133800D01*
X28581Y134339D01*
X35046Y140804D01*
X35585Y140265D01*
G37*
D18*
G36*
X39896Y144575D02*
X37203Y141882D01*
X36664Y142421D01*
X39357Y145114D01*
X39896Y144575D01*
G37*
D35*
G36*
X47439Y152119D02*
X41513Y146193D01*
X40975Y146731D01*
X46901Y152657D01*
X47439Y152119D01*
G37*
D34*
G36*
X26964Y132721D02*
X8645Y114402D01*
X8106Y114941D01*
X26425Y133260D01*
X26964Y132721D01*
G37*
D20*
G36*
X35046Y140804D02*
X28581Y134339D01*
X28042Y134878D01*
X34507Y141343D01*
X35046Y140804D01*
G37*
D18*
G36*
X39357Y145114D02*
X36664Y142421D01*
X36125Y142960D01*
X38818Y145653D01*
X39357Y145114D01*
G37*
D35*
G36*
X46900Y152658D02*
X40974Y146732D01*
X40436Y147270D01*
X46362Y153196D01*
X46900Y152658D01*
G37*
D34*
G36*
X26425Y133260D02*
X8106Y114941D01*
X7567Y115480D01*
X25886Y133799D01*
X26425Y133260D01*
G37*
D35*
G36*
X34507Y141343D02*
X28581Y135417D01*
X28043Y135955D01*
X33969Y141881D01*
X34507Y141343D01*
G37*
D36*
G36*
X38279Y145114D02*
X36664Y143499D01*
X36125Y144038D01*
X37740Y145653D01*
X38279Y145114D01*
G37*
D35*
G36*
X46361Y153197D02*
X40435Y147271D01*
X39897Y147809D01*
X45823Y153735D01*
X46361Y153197D01*
G37*
D34*
G36*
X25887Y133799D02*
X7568Y115480D01*
X7029Y116019D01*
X25348Y134338D01*
X25887Y133799D01*
G37*
D20*
G36*
X34508Y142420D02*
X28043Y135955D01*
X27504Y136494D01*
X33969Y142959D01*
X34508Y142420D01*
G37*
G36*
X45823Y153735D02*
X39358Y147270D01*
X38819Y147809D01*
X45284Y154274D01*
X45823Y153735D01*
G37*
D31*
G36*
X24809Y133799D02*
X7568Y116558D01*
X7029Y117097D01*
X24270Y134338D01*
X24809Y133799D01*
G37*
D33*
G36*
X34507Y143497D02*
X27504Y136494D01*
X26965Y137033D01*
X33968Y144036D01*
X34507Y143497D01*
G37*
D20*
G36*
X45284Y154274D02*
X38819Y147809D01*
X38280Y148348D01*
X44745Y154813D01*
X45284Y154274D01*
G37*
D31*
G36*
X24270Y134338D02*
X7029Y117097D01*
X6490Y117636D01*
X23731Y134877D01*
X24270Y134338D01*
G37*
D33*
G36*
X34507Y144575D02*
X27504Y137572D01*
X26965Y138111D01*
X33968Y145114D01*
X34507Y144575D01*
G37*
D32*
G36*
X44745Y154813D02*
X37202Y147270D01*
X36663Y147809D01*
X44206Y155352D01*
X44745Y154813D01*
G37*
D31*
G36*
X23731Y134876D02*
X6490Y117635D01*
X5951Y118174D01*
X23192Y135415D01*
X23731Y134876D01*
G37*
D30*
G36*
X43668Y154813D02*
X26965Y138110D01*
X26426Y138649D01*
X43129Y155352D01*
X43668Y154813D01*
G37*
D29*
G36*
X22653Y134876D02*
X6490Y118713D01*
X5951Y119252D01*
X22114Y135415D01*
X22653Y134876D01*
G37*
D30*
G36*
X43129Y155352D02*
X26426Y138649D01*
X25887Y139188D01*
X42590Y155891D01*
X43129Y155352D01*
G37*
D29*
G36*
X22115Y135415D02*
X5952Y119252D01*
X5413Y119791D01*
X21576Y135954D01*
X22115Y135415D01*
G37*
G36*
X42589Y155890D02*
X26426Y139727D01*
X25887Y140266D01*
X42050Y156429D01*
X42589Y155890D01*
G37*
D27*
G36*
X21037Y135416D02*
X5951Y120330D01*
X5413Y120868D01*
X20499Y135954D01*
X21037Y135416D01*
G37*
D28*
G36*
X41512Y155890D02*
X25887Y140265D01*
X25348Y140804D01*
X40973Y156429D01*
X41512Y155890D01*
G37*
D27*
G36*
X20498Y135955D02*
X5412Y120869D01*
X4874Y121407D01*
X19960Y136493D01*
X20498Y135955D01*
G37*
G36*
X40973Y156430D02*
X25887Y141344D01*
X25349Y141882D01*
X40435Y156968D01*
X40973Y156430D01*
G37*
D26*
G36*
X19421Y135955D02*
X5412Y121946D01*
X4873Y122485D01*
X18882Y136494D01*
X19421Y135955D01*
G37*
G36*
X39896Y156430D02*
X25887Y142421D01*
X25348Y142960D01*
X39357Y156969D01*
X39896Y156430D01*
G37*
D25*
G36*
X18343Y135954D02*
X5412Y123023D01*
X4873Y123562D01*
X17804Y136493D01*
X18343Y135954D01*
G37*
G36*
X38818Y156429D02*
X25887Y143498D01*
X25348Y144037D01*
X38279Y156968D01*
X38818Y156429D01*
G37*
D24*
G36*
X17265Y135954D02*
X5412Y124101D01*
X4873Y124640D01*
X16726Y136493D01*
X17265Y135954D01*
G37*
G36*
X37740Y156429D02*
X25887Y144576D01*
X25348Y145115D01*
X37201Y156968D01*
X37740Y156429D01*
G37*
D23*
G36*
X16188Y135954D02*
X5413Y125179D01*
X4874Y125718D01*
X15649Y136493D01*
X16188Y135954D01*
G37*
D22*
G36*
X36124Y155891D02*
X25887Y145654D01*
X25348Y146193D01*
X35585Y156430D01*
X36124Y155891D01*
G37*
D21*
G36*
X14571Y135416D02*
X5951Y126796D01*
X5413Y127334D01*
X14033Y135954D01*
X14571Y135416D01*
G37*
G36*
X35046Y155891D02*
X26426Y147271D01*
X25888Y147809D01*
X34508Y156429D01*
X35046Y155891D01*
G37*
D20*
G36*
X12955Y134877D02*
X6490Y128412D01*
X5951Y128951D01*
X12416Y135416D01*
X12955Y134877D01*
G37*
G36*
X33430Y155352D02*
X26965Y148887D01*
X26426Y149426D01*
X32891Y155891D01*
X33430Y155352D01*
G37*
D19*
G36*
X10799Y133799D02*
X7567Y130567D01*
X7029Y131105D01*
X10261Y134337D01*
X10799Y133799D01*
G37*
D18*
G36*
X30736Y153735D02*
X28043Y151042D01*
X27504Y151581D01*
X30197Y154274D01*
X30736Y153735D01*
G37*
D45*
X172720Y60210D03*
X172720Y130210D03*
D46*
X325120Y46240D03*
X325120Y111240D03*
X421120Y25400D03*
X356120Y25400D03*
X421120Y132080D03*
X356120Y132080D03*
X452120Y111240D03*
X452120Y46240D03*
X421120Y78740D03*
X356120Y78740D03*
X58940Y78740D03*
X123940Y78740D03*
X710680Y78740D03*
X645680Y78740D03*
M02*
