M48
;GenerationSoftware,Autodesk,EAGLE,9.6.2*%
;CreationDate,2020-09-13T16:53:32Z*%
FMAT,2
ICI,OFF
METRIC,TZ,000.000
T11C0.254
T10C0.305
T9C0.900
T8C1.000
T7C1.016
T6C1.100
T5C1.200
T4C1.300
T3C1.700
T2C1.800
T1C2.500
%
G90
M71
T1
X2032Y109982
X2032Y2286
X74930Y2286
X74930Y109982
T2
X27432Y94488
X27432Y69088
X50292Y104648
X50292Y69088
T3
X56896Y5894
X56896Y12894
T4
X35612Y2540
X42112Y2540
X32512Y11124
X32512Y4624
X42112Y13208
X64568Y7874
X35612Y13208
X45212Y11124
X45212Y4624
X42112Y7874
X35612Y7874
X5894Y7874
X12394Y7874
X71068Y7874
T5
X35560Y110807
X42164Y110807
T6
X5271Y3810
X13271Y3810
T7
X16256Y108839
X6096Y108839
X8636Y108839
X11176Y108839
T8
X8509Y33782
X4699Y33782
T9
X7271Y3810
X9271Y3810
X11271Y3810
T10
X33020Y100584
X18974Y95860
X25146Y91948
X48514Y109982
X38100Y109426
X31242Y107264
X48514Y108204
X52578Y29718
X58928Y29972
X65532Y13970
X65532Y25146
X54610Y53594
X52832Y55438
X54864Y82042
X54864Y67310
X57658Y82550
X20828Y13818
X57658Y103378
X62738Y106680
X71374Y75580
X74676Y82804
X14224Y99314
X31750Y46788
X34798Y46788
X31750Y49784
X32183Y54177
X38608Y53594
X39660Y50862
X42062Y53238
X8890Y94234
X14224Y82804
X18034Y65532
X3556Y37846
X8382Y26670
X14478Y26670
X53721Y64643
X38608Y49784
X57658Y77978
T11
X36522Y49302
X42291Y54257
X40068Y52059
X38329Y48430
X37363Y48553
X50292Y80518
X43942Y42926
X50825Y40361
X35807Y64087
X38125Y72644
X44997Y77978
X41402Y76200
X46228Y41910
X43434Y41910
X66548Y77470
X58268Y74168
X35807Y64770
X37643Y70612
X44997Y75438
X41402Y74676
X34290Y49784
X33265Y54347
X46203Y72898
X32743Y61214
X38481Y66820
X41910Y72898
X37084Y83058
X34691Y49251
X33732Y54814
X46203Y70358
X32743Y60396
X38481Y65884
X42000Y69342
X37973Y80899
X41148Y72898
X17018Y56642
X10414Y54102
X36068Y46965
X19431Y59055
X36576Y47473
X20193Y59055
X41148Y99314
X35052Y93218
X8636Y19602
X27432Y92953
X55626Y107188
X56388Y109829
X59182Y79248
X63500Y79248
X33274Y44704
X50470Y39274
X50279Y53101
X52324Y49784
X45212Y44958
X43434Y47498
X43473Y53475
X44540Y57443
X43763Y59379
X37338Y69437
X19345Y85881
X18717Y84836
X41656Y58141
X37338Y68072
X43485Y51308
X40665Y58141
X36703Y66878
X16510Y84582
X43180Y49276
X56642Y27940
X34544Y109474
X13665Y90221
X10922Y92964
X13643Y89560
X9652Y93218
X13462Y95758
X10123Y98552
X45212Y99314
X45212Y102362
X16764Y7874
X75692Y70104
X47244Y47244
X49987Y48158
X18288Y3048
X19812Y25400
X10922Y96012
X8890Y96012
X45568Y49200
X45480Y54850
X31750Y57074
X39268Y104648
X31090Y57074
X38608Y104648
X3302Y99060
X55118Y104140
X66548Y8636
X46115Y47305
X47752Y56896
X46990Y48514
X46990Y55626
X46050Y53848
X46202Y48285
X31891Y47865
X28019Y49101
X27704Y48074
X34290Y47347
X41631Y54356
X54610Y105918
X36553Y56896
X26670Y53848
X19558Y46736
X19558Y40640
X35993Y43255
X73406Y73406
X60960Y67818
X70358Y72390
X65278Y80518
X39171Y57429
X24112Y55862
X14732Y40640
X15748Y46990
X29464Y41910
X19812Y51562
X39599Y56744
X24874Y55100
X2540Y37846
X16764Y46990
X17780Y18034
X17780Y25654
X28321Y42037
X29539Y3377
X40999Y36347
X41629Y39167
X39475Y35585
X39878Y37338
X18796Y85496
X37338Y68755
X43271Y58405
X43778Y56935
X21082Y61976
X39395Y58090
X37617Y35154
X38724Y37338
X26162Y37592
X39080Y43089
X36525Y42824
X31877Y38227
X39603Y58826
X28256Y56221
X18782Y83834
X33707Y62477
X38329Y49098
X37821Y50861
X16503Y83522
X33225Y62025
X35814Y52070
X37070Y47913
X39185Y53987
X35052Y40615
X35052Y37338
X34773Y30556
X35712Y37338
X24638Y20930
X36373Y37338
X23876Y20066
X23622Y94488
X2032Y57150
X12446Y98044
X8890Y97282
X27305Y106426
X30988Y110236
X29210Y18034
X34036Y15494
X28956Y14478
X28956Y8915
X34036Y17018
X26416Y19812
X1524Y76200
X27076Y19790
X28357Y19620
X29464Y20828
X23114Y20066
X61976Y47244
X54864Y40132
X52959Y38227
X58674Y18288
X61214Y20828
X55753Y14732
X64008Y18542
X71628Y22352
X72390Y18542
X48514Y48260
X49022Y47244
X53086Y44196
X50038Y44196
X58166Y46990
X53594Y46990
X51562Y47498
X45720Y46330
X73152Y16027
X72644Y32512
X41326Y56798
X39802Y76530
X37865Y76962
X20701Y94996
X21844Y93726
X23597Y89408
X40361Y56871
X39751Y75870
X36576Y78486
X21259Y90622
X71628Y20066
X66548Y20066
X59182Y2032
X61214Y4064
X14224Y5588
X17780Y2032
X40361Y53768
X46228Y44450
X47498Y42926
X59182Y19558
X21844Y105410
X32766Y108077
X51562Y110236
X54356Y107696
X56642Y111506
X35281Y50394
X33274Y70079
X33274Y72390
X54864Y44704
X47244Y45212
X34290Y88138
X26162Y102108
X46076Y50876
X31953Y55474
X38735Y62484
X39751Y65532
X41910Y68072
X41910Y65532
X41935Y63932
X50292Y66802
X69850Y77724
X45720Y34798
X41656Y46228
X42418Y48768
X39624Y46228
X40183Y50317
X39345Y51714
X37948Y52578
X37592Y54102
X39878Y42418
X37084Y41148
X33782Y38354
X37414Y37973
X34798Y45720
X35331Y57810
X27940Y54864
X30353Y50597
X27686Y53086
X24892Y10160
M30