G04 EAGLE Gerber RS-274X export*
G75*
%MOMM*%
%FSLAX34Y34*%
%LPD*%
%INSolderpaste Bottom*%
%IPPOS*%
%AMOC8*
5,1,8,0,0,1.08239X$1,22.5*%
G01*
%ADD10R,1.250000X0.275000*%
%ADD11R,3.000000X2.000000*%
%ADD12R,1.900000X1.400000*%
%ADD13R,1.400000X1.800000*%
%ADD14R,1.500000X0.700000*%
%ADD15R,1.240000X1.500000*%
%ADD16R,4.600000X1.000000*%
%ADD17R,3.400000X1.700000*%
%ADD18R,1.500000X1.240000*%
%ADD19R,3.400000X1.600000*%
%ADD20R,1.300000X1.200000*%
%ADD21R,1.400000X1.400000*%
%ADD22R,1.200000X1.500000*%
%ADD23R,0.900000X0.800000*%
%ADD24R,1.778000X0.900000*%
%ADD25R,0.800000X1.450000*%
%ADD26R,1.500000X1.200000*%
%ADD27R,0.760000X2.600000*%
%ADD28R,1.200000X0.300000*%
%ADD29R,0.300000X1.200000*%
%ADD30R,0.400000X1.350000*%
%ADD31R,1.600000X1.400000*%
%ADD32R,1.900000X1.900000*%
%ADD33R,1.200000X0.550000*%
%ADD34R,0.635000X1.016000*%
%ADD35R,0.600000X2.200000*%
%ADD36R,1.500000X1.300000*%
%ADD37R,2.700000X1.600000*%
%ADD38R,0.660400X2.032000*%
%ADD39R,2.800000X2.000000*%
%ADD40R,2.600000X2.800000*%
%ADD41R,2.800000X2.200000*%
%ADD42R,1.300000X1.500000*%
%ADD43R,1.200000X1.200000*%
%ADD44R,2.540000X1.524000*%
%ADD45R,3.048000X1.524000*%
%ADD46R,0.838200X0.457200*%
%ADD47C,0.240000*%
%ADD48R,0.500000X1.250000*%
%ADD49R,3.700000X2.000000*%
%ADD50R,0.900000X1.778000*%
%ADD51R,1.450000X0.800000*%


D10*
X176532Y899634D03*
X176532Y894634D03*
X176532Y889634D03*
X176532Y884634D03*
X176532Y879634D03*
X176532Y874634D03*
X176532Y869634D03*
X176532Y864634D03*
X176532Y859634D03*
X176532Y854634D03*
X176532Y849634D03*
X176532Y844634D03*
X176532Y839634D03*
X176532Y834634D03*
X176532Y829634D03*
X176532Y824634D03*
X176532Y819634D03*
X176532Y814634D03*
X176532Y809634D03*
X176532Y804634D03*
X176532Y799634D03*
X176532Y794634D03*
X176532Y789634D03*
X176532Y784634D03*
D11*
X151932Y918134D03*
X151932Y767034D03*
D12*
X751350Y808800D03*
X760350Y676800D03*
D13*
X620350Y792800D03*
X620350Y732800D03*
D14*
X722350Y799800D03*
X722350Y788800D03*
X726350Y777800D03*
X722350Y766800D03*
X726350Y755800D03*
X722350Y744800D03*
X718350Y733800D03*
X722350Y722800D03*
D15*
X222860Y789940D03*
X203860Y789940D03*
X222860Y815340D03*
X203860Y815340D03*
X222860Y764540D03*
X203860Y764540D03*
X222860Y840740D03*
X203860Y840740D03*
X222860Y866140D03*
X203860Y866140D03*
X222860Y891540D03*
X203860Y891540D03*
X222860Y916940D03*
X203860Y916940D03*
D16*
X70020Y601500D03*
X70020Y581500D03*
D17*
X18020Y628500D03*
X18020Y514500D03*
D16*
X70020Y561500D03*
X70020Y541500D03*
D18*
X127000Y562000D03*
X127000Y581000D03*
D16*
X70180Y461960D03*
X70180Y441960D03*
D19*
X18180Y485960D03*
X18180Y397960D03*
D16*
X70180Y421960D03*
D20*
X124460Y482600D03*
X124460Y462280D03*
D21*
X124460Y438870D03*
X124460Y401870D03*
D15*
X142900Y944880D03*
X161900Y944880D03*
X142900Y972820D03*
X161900Y972820D03*
D21*
X134620Y1044660D03*
X134620Y1007660D03*
X101600Y1044660D03*
X101600Y1007660D03*
D18*
X68580Y1016660D03*
X68580Y1035660D03*
D21*
X35560Y1044660D03*
X35560Y1007660D03*
D22*
X74000Y991870D03*
X53000Y991870D03*
D23*
X101760Y950620D03*
X101760Y969620D03*
X122760Y960120D03*
D24*
X22956Y933400D03*
X22956Y973400D03*
D25*
X5416Y921900D03*
X5416Y984900D03*
D16*
X70180Y721040D03*
X70180Y701040D03*
D19*
X18180Y745040D03*
X18180Y657040D03*
D16*
X70180Y681040D03*
D20*
X121920Y739140D03*
X121920Y718820D03*
D21*
X121920Y695410D03*
X121920Y658410D03*
D26*
X599694Y752770D03*
X599694Y773770D03*
D22*
X233340Y134620D03*
X254340Y134620D03*
D15*
X252120Y252222D03*
X271120Y252222D03*
D24*
X746664Y889558D03*
X746664Y849558D03*
D25*
X764204Y901058D03*
X764204Y838058D03*
D27*
X40640Y316320D03*
X53340Y316320D03*
X66040Y316320D03*
X78740Y316320D03*
X91440Y316320D03*
X40640Y359320D03*
X53340Y359320D03*
X66040Y359320D03*
X78740Y359320D03*
X91440Y359320D03*
D22*
X291760Y398780D03*
X312760Y398780D03*
X371180Y624840D03*
X350180Y624840D03*
X371180Y601980D03*
X350180Y601980D03*
D28*
X445620Y537880D03*
X445620Y532880D03*
X445620Y527880D03*
X445620Y522880D03*
X445620Y517880D03*
X445620Y512880D03*
X445620Y507880D03*
X445620Y502880D03*
X445620Y497880D03*
X445620Y492880D03*
X445620Y487880D03*
X445620Y482880D03*
X445620Y477880D03*
X445620Y472880D03*
X445620Y467880D03*
X445620Y462880D03*
D29*
X426120Y443380D03*
X421120Y443380D03*
X416120Y443380D03*
X411120Y443380D03*
X406120Y443380D03*
X401120Y443380D03*
X396120Y443380D03*
X391120Y443380D03*
X386120Y443380D03*
X381120Y443380D03*
X376120Y443380D03*
X371120Y443380D03*
X366120Y443380D03*
X361120Y443380D03*
X356120Y443380D03*
X351120Y443380D03*
D28*
X331620Y462880D03*
X331620Y467880D03*
X331620Y472880D03*
X331620Y477880D03*
X331620Y482880D03*
X331620Y487880D03*
X331620Y492880D03*
X331620Y497880D03*
X331620Y502880D03*
X331620Y507880D03*
X331620Y512880D03*
X331620Y517880D03*
X331620Y522880D03*
X331620Y527880D03*
X331620Y532880D03*
X331620Y537880D03*
D29*
X351120Y557380D03*
X356120Y557380D03*
X361120Y557380D03*
X366120Y557380D03*
X371120Y557380D03*
X376120Y557380D03*
X381120Y557380D03*
X386120Y557380D03*
X391120Y557380D03*
X396120Y557380D03*
X401120Y557380D03*
X406120Y557380D03*
X411120Y557380D03*
X416120Y557380D03*
X421120Y557380D03*
X426120Y557380D03*
D30*
X375620Y1081325D03*
X382120Y1081325D03*
X388620Y1081325D03*
X395120Y1081325D03*
X401620Y1081325D03*
D31*
X356620Y1083575D03*
X420620Y1083575D03*
D32*
X400620Y1108075D03*
X376620Y1108075D03*
D18*
X581660Y1087780D03*
X581660Y1106780D03*
D15*
X575920Y1056640D03*
X556920Y1056640D03*
X595020Y1056640D03*
X614020Y1056640D03*
D33*
X601679Y1085240D03*
X601679Y1094740D03*
X601679Y1104240D03*
X627681Y1104240D03*
X627681Y1085240D03*
D16*
X301160Y1026000D03*
X301160Y1006000D03*
D19*
X249160Y1050000D03*
X249160Y982000D03*
D22*
X403520Y624840D03*
X424520Y624840D03*
X403520Y601980D03*
X424520Y601980D03*
D18*
X292100Y473100D03*
X292100Y492100D03*
D21*
X559520Y1084580D03*
X522520Y1084580D03*
D34*
X495300Y1089820D03*
X504800Y1109820D03*
X485800Y1109820D03*
D15*
X550520Y1107440D03*
X531520Y1107440D03*
D33*
X187659Y1087780D03*
X187659Y1097280D03*
X187659Y1106780D03*
X213661Y1106780D03*
X213661Y1087780D03*
D15*
X258420Y1069594D03*
X239420Y1069594D03*
D18*
X289560Y1087780D03*
X289560Y1106780D03*
X238760Y1087780D03*
X238760Y1106780D03*
X264160Y1087780D03*
X264160Y1106780D03*
D35*
X255270Y333340D03*
X255270Y281340D03*
X242570Y333340D03*
X267970Y333340D03*
X280670Y333340D03*
X242570Y281340D03*
X267970Y281340D03*
X280670Y281340D03*
D15*
X271120Y365760D03*
X252120Y365760D03*
X445160Y1087882D03*
X464160Y1087882D03*
D36*
X523240Y81940D03*
X523240Y100940D03*
D37*
X596900Y252760D03*
X596900Y224760D03*
X518160Y252760D03*
X518160Y224760D03*
D18*
X546100Y234340D03*
X546100Y253340D03*
D15*
X532740Y274320D03*
X513740Y274320D03*
X582320Y274320D03*
X601320Y274320D03*
D18*
X568960Y234340D03*
X568960Y253340D03*
D38*
X232410Y223774D03*
X232410Y162306D03*
X245110Y223774D03*
X257810Y223774D03*
X245110Y162306D03*
X257810Y162306D03*
X270510Y223774D03*
X270510Y162306D03*
X283210Y223774D03*
X283210Y162306D03*
X295910Y223774D03*
X308610Y223774D03*
X295910Y162306D03*
X308610Y162306D03*
X321310Y223774D03*
X321310Y162306D03*
D39*
X531960Y19940D03*
D40*
X532960Y141940D03*
D41*
X605960Y66940D03*
X531960Y47940D03*
D42*
X512420Y500380D03*
X493420Y500380D03*
D18*
X490220Y523900D03*
X490220Y542900D03*
X515620Y523900D03*
X515620Y542900D03*
D35*
X483870Y424780D03*
X496570Y424780D03*
X509270Y424780D03*
X521970Y424780D03*
X521970Y372780D03*
X509270Y372780D03*
X496570Y372780D03*
X483870Y372780D03*
D26*
X464820Y385740D03*
X464820Y406740D03*
D22*
X399120Y398780D03*
X378120Y398780D03*
D43*
X444160Y1112520D03*
X465160Y1112520D03*
X312420Y1112860D03*
X312420Y1091860D03*
D44*
X478790Y1059180D03*
X527050Y1059180D03*
X478790Y1033780D03*
X527050Y1033780D03*
D45*
X481330Y1008380D03*
X524510Y1008380D03*
X481330Y982980D03*
X524510Y982980D03*
X481330Y957580D03*
X524510Y957580D03*
X481330Y932180D03*
X524510Y932180D03*
X481330Y906780D03*
X524510Y906780D03*
X481330Y881380D03*
X524510Y881380D03*
X481330Y855980D03*
X524510Y855980D03*
X481330Y830580D03*
X524510Y830580D03*
X481330Y805180D03*
X524510Y805180D03*
X481330Y779780D03*
X524510Y779780D03*
X481330Y754380D03*
X524510Y754380D03*
X481330Y728980D03*
X524510Y728980D03*
D44*
X478790Y703580D03*
X527050Y703580D03*
X478790Y678180D03*
X527050Y678180D03*
X298450Y678180D03*
X250190Y678180D03*
X298450Y703580D03*
X250190Y703580D03*
D45*
X295910Y728980D03*
X252730Y728980D03*
X295910Y754380D03*
X252730Y754380D03*
X295910Y779780D03*
X252730Y779780D03*
X295910Y805180D03*
X252730Y805180D03*
X295910Y830580D03*
X252730Y830580D03*
X295910Y855980D03*
X252730Y855980D03*
X295910Y881380D03*
X252730Y881380D03*
X295910Y906780D03*
X252730Y906780D03*
D44*
X298450Y932180D03*
X250190Y932180D03*
X298450Y957580D03*
X250190Y957580D03*
D18*
X703580Y201320D03*
X703580Y220320D03*
X627380Y220320D03*
X627380Y201320D03*
X678180Y220320D03*
X678180Y201320D03*
X652780Y220320D03*
X652780Y201320D03*
X703580Y153060D03*
X703580Y172060D03*
X678180Y172060D03*
X678180Y153060D03*
X627380Y153060D03*
X627380Y172060D03*
X754380Y220320D03*
X754380Y201320D03*
X728980Y220320D03*
X728980Y201320D03*
X652780Y172060D03*
X652780Y153060D03*
D46*
X214122Y235712D03*
X214122Y227584D03*
X214122Y219456D03*
X214122Y211328D03*
X197358Y211328D03*
X197358Y219456D03*
X197358Y227584D03*
X197358Y235712D03*
X214122Y187452D03*
X214122Y179324D03*
X214122Y171196D03*
X214122Y163068D03*
X197358Y163068D03*
X197358Y171196D03*
X197358Y179324D03*
X197358Y187452D03*
D26*
X210820Y84160D03*
X210820Y63160D03*
X154940Y84160D03*
X154940Y63160D03*
X182880Y63160D03*
X182880Y84160D03*
D46*
X215392Y974852D03*
X215392Y966724D03*
X215392Y958596D03*
X215392Y950468D03*
X198628Y950468D03*
X198628Y958596D03*
X198628Y966724D03*
X198628Y974852D03*
D47*
X730730Y179960D02*
X730730Y170260D01*
X730730Y179960D02*
X733130Y179960D01*
X733130Y170260D01*
X730730Y170260D01*
X730730Y172540D02*
X733130Y172540D01*
X733130Y174820D02*
X730730Y174820D01*
X730730Y177100D02*
X733130Y177100D01*
X733130Y179380D02*
X730730Y179380D01*
X737230Y179960D02*
X737230Y170260D01*
X737230Y179960D02*
X739630Y179960D01*
X739630Y170260D01*
X737230Y170260D01*
X737230Y172540D02*
X739630Y172540D01*
X739630Y174820D02*
X737230Y174820D01*
X737230Y177100D02*
X739630Y177100D01*
X739630Y179380D02*
X737230Y179380D01*
X743730Y179960D02*
X743730Y170260D01*
X743730Y179960D02*
X746130Y179960D01*
X746130Y170260D01*
X743730Y170260D01*
X743730Y172540D02*
X746130Y172540D01*
X746130Y174820D02*
X743730Y174820D01*
X743730Y177100D02*
X746130Y177100D01*
X746130Y179380D02*
X743730Y179380D01*
X750230Y179960D02*
X750230Y170260D01*
X750230Y179960D02*
X752630Y179960D01*
X752630Y170260D01*
X750230Y170260D01*
X750230Y172540D02*
X752630Y172540D01*
X752630Y174820D02*
X750230Y174820D01*
X750230Y177100D02*
X752630Y177100D01*
X752630Y179380D02*
X750230Y179380D01*
X752630Y154860D02*
X752630Y145160D01*
X750230Y145160D01*
X750230Y154860D01*
X752630Y154860D01*
X752630Y147440D02*
X750230Y147440D01*
X750230Y149720D02*
X752630Y149720D01*
X752630Y152000D02*
X750230Y152000D01*
X750230Y154280D02*
X752630Y154280D01*
X746130Y154860D02*
X746130Y145160D01*
X743730Y145160D01*
X743730Y154860D01*
X746130Y154860D01*
X746130Y147440D02*
X743730Y147440D01*
X743730Y149720D02*
X746130Y149720D01*
X746130Y152000D02*
X743730Y152000D01*
X743730Y154280D02*
X746130Y154280D01*
X739630Y154860D02*
X739630Y145160D01*
X737230Y145160D01*
X737230Y154860D01*
X739630Y154860D01*
X739630Y147440D02*
X737230Y147440D01*
X737230Y149720D02*
X739630Y149720D01*
X739630Y152000D02*
X737230Y152000D01*
X737230Y154280D02*
X739630Y154280D01*
X733130Y154860D02*
X733130Y145160D01*
X730730Y145160D01*
X730730Y154860D01*
X733130Y154860D01*
X733130Y147440D02*
X730730Y147440D01*
X730730Y149720D02*
X733130Y149720D01*
X733130Y152000D02*
X730730Y152000D01*
X730730Y154280D02*
X733130Y154280D01*
D43*
X332740Y1112860D03*
X332740Y1091860D03*
D15*
X198780Y1069340D03*
X217780Y1069340D03*
D18*
X424180Y1063600D03*
X424180Y1044600D03*
X444500Y1063600D03*
X444500Y1044600D03*
D48*
X270210Y18676D03*
X278710Y18676D03*
X287710Y18676D03*
X296210Y18676D03*
D15*
X252070Y16510D03*
X233070Y16510D03*
D49*
X63500Y931452D03*
X63500Y967452D03*
D22*
X566080Y805180D03*
X587080Y805180D03*
X561680Y431800D03*
X540680Y431800D03*
D50*
X659080Y1097184D03*
X699080Y1097184D03*
D51*
X647580Y1114724D03*
X710580Y1114724D03*
D50*
X201980Y32100D03*
X161980Y32100D03*
D51*
X213480Y14560D03*
X150480Y14560D03*
D20*
X594360Y312420D03*
X594360Y332740D03*
X571500Y332740D03*
X571500Y312420D03*
X518160Y312420D03*
X518160Y332740D03*
X543560Y332740D03*
X543560Y312420D03*
M02*
