  0
SECTION
  2
HEADER
  9
$ACADVER
  1
AC1014
  9
$HANDSEED
  5
FFFF
  9
$MEASUREMENT
 70
     1
  0
ENDSEC
  0
SECTION
  2
TABLES
  0
TABLE
  2
VPORT
  5
8
330
0
100
AcDbSymbolTable
 70
     4
  0
VPORT
  5
2E
330
8
100
AcDbSymbolTableRecord
100
AcDbViewportTableRecord
  2
*ACTIVE
 70
     0
 10
0.0
 20
0.0
 11
1.0
 21
1.0
 12
210.0
 22
148.5
 13
0.0
 23
0.0
 14
10.0
 24
10.0
 15
10.0
 25
10.0
 16
0.0
 26
0.0
 36
1.0
 17
0.0
 27
0.0
 37
0.0
 40
341.0
 41
1.24
 42
50.0
 43
0.0
 44
0.0
 50
0.0
 51
0.0
 71
     0
 72
   100
 73
     1
 74
     3
 75
     0
 76
     0
 77
     0
 78
     0
  0
ENDTAB
  0
TABLE
  2
LTYPE
  5
5
330
0
100
AcDbSymbolTable
 70
     1
  0
LTYPE
  5
14
330
5
100
AcDbSymbolTableRecord
100
AcDbLinetypeTableRecord
  2
BYBLOCK
 70
     0
  3

 72
    65
 73
     0
 40
0.0
  0
LTYPE
  5
15
330
5
100
AcDbSymbolTableRecord
100
AcDbLinetypeTableRecord
  2
BYLAYER
 70
     0
  3

 72
    65
 73
     0
 40
0.0
  0
LTYPE
  5
16
330
5
100
AcDbSymbolTableRecord
100
AcDbLinetypeTableRecord
  2
CONTINUOUS
 70
     0
  3
Solid line
 72
    65
 73
     0
 40
0.0
  0
ENDTAB
  0
TABLE
  2
LAYER
  5
2
100
AcDbSymbolTable
 70
2
  0
LAYER
  5
50
100
AcDbSymbolTableRecord
100
AcDbLayerTableRecord
  2
0
 70
0
  6
CONTINUOUS
  0
LAYER
  5
51
100
AcDbSymbolTableRecord
100
AcDbLayerTableRecord
  2
Layer_1
 70
0
  6
CONTINUOUS
  0
ENDTAB
  0
TABLE
  2
STYLE
  5
3
330
0
100
AcDbSymbolTable
 70
     1
  0
STYLE
  5
11
330
3
100
AcDbSymbolTableRecord
100
AcDbTextStyleTableRecord
  2
STANDARD
 70
     0
 40
0.0
 41
1.0
 50
0.0
 71
     0
 42
2.5
  3
txt
  4

  0
ENDTAB
  0
TABLE
  2
VIEW
  5
6
330
0
100
AcDbSymbolTable
 70
     0
  0
ENDTAB
  0
TABLE
  2
UCS
  5
7
330
0
100
AcDbSymbolTable
 70
     0
  0
ENDTAB
  0
TABLE
  2
APPID
  5
9
330
0
100
AcDbSymbolTable
 70
     2
  0
APPID
  5
12
330
9
100
AcDbSymbolTableRecord
100
AcDbRegAppTableRecord
  2
ACAD
 70
     0
  0
ENDTAB
  0
TABLE
  2
DIMSTYLE
  5
A
330
0
100
AcDbSymbolTable
 70
     1
  0
DIMSTYLE
105
27
330
A
100
AcDbSymbolTableRecord
100
AcDbDimStyleTableRecord
  2
ISO-25
 70
     0
  3

  4

  5

  6

  7

 40
1.0
 41
2.5
 42
0.625
 43
3.75
 44
1.25
 45
0.0
 46
0.0
 47
0.0
 48
0.0
140
2.5
141
2.5
142
0.0
143
0.03937007874016
144
1.0
145
0.0
146
1.0
147
0.625
 71
     0
 72
     0
 73
     0
 74
     0
 75
     0
 76
     0
 77
     1
 78
     8
170
     0
171
     3
172
     1
173
     0
174
     0
175
     0
176
     0
177
     0
178
     0
270
     2
271
     2
272
     2
273
     2
274
     3
340
11
275
     0
280
     0
281
     0
282
     0
283
     0
284
     8
285
     0
286
     0
287
     3
288
     0
  0
ENDTAB
  0
TABLE
  2
BLOCK_RECORD
  5
1
330
0
100
AcDbSymbolTable
 70
     1
  0
BLOCK_RECORD
  5
1F
330
1
100
AcDbSymbolTableRecord
100
AcDbBlockTableRecord
  2
*MODEL_SPACE
  0
BLOCK_RECORD
  5
1B
330
1
100
AcDbSymbolTableRecord
100
AcDbBlockTableRecord
  2
*PAPER_SPACE
  0
ENDTAB
  0
ENDSEC
  0
SECTION
  2
BLOCKS
  0
BLOCK
  5
20
330
1F
100
AcDbEntity
  8
0
100
AcDbBlockBegin
  2
*MODEL_SPACE
 70
     0
 10
0.0
 20
0.0
 30
0.0
  3
*MODEL_SPACE
  1

  0
ENDBLK
  5
21
330
1F
100
AcDbEntity
  8
0
100
AcDbBlockEnd
  0
BLOCK
  5
1C
330
1B
100
AcDbEntity
 67
     1
  8
0
100
AcDbBlockBegin
  2
*PAPER_SPACE
  1

  0
ENDBLK
  5
1D
330
1B
100
AcDbEntity
 67
     1
  8
0
100
AcDbBlockEnd
  0
ENDSEC
  0
SECTION
  2
ENTITIES
  0
LWPOLYLINE
  5
100
100
AcDbEntity
  8
Layer_1
 62
7
100
AcDbPolyline
 90
4
 70
1
 10
254.176000
 20
253.784700
 30
0.0
 10
-42.863076
 20
253.784700
 30
0.0
 10
-42.863076
 20
43.529012
 30
0.0
 10
254.176000
 20
43.529012
 30
0.0
  0
LWPOLYLINE
  5
101
100
AcDbEntity
  8
Layer_1
 62
7
100
AcDbPolyline
 90
4
 70
1
 10
129.583277
 20
182.827991
 30
0.0
 10
128.334796
 20
182.827991
 30
0.0
 10
128.334796
 20
182.553883
 30
0.0
 10
129.583277
 20
182.553883
 30
0.0
  0
LWPOLYLINE
  5
102
100
AcDbEntity
  8
Layer_1
 62
7
100
AcDbPolyline
 90
4
 70
1
 10
129.583277
 20
182.330574
 30
0.0
 10
128.334796
 20
182.330574
 30
0.0
 10
128.334796
 20
182.056466
 30
0.0
 10
129.583277
 20
182.056466
 30
0.0
  0
LWPOLYLINE
  5
103
100
AcDbEntity
  8
Layer_1
 62
7
100
AcDbPolyline
 90
4
 70
1
 10
129.583277
 20
181.828924
 30
0.0
 10
128.334796
 20
181.828924
 30
0.0
 10
128.334796
 20
181.553404
 30
0.0
 10
129.583277
 20
181.553404
 30
0.0
  0
LWPOLYLINE
  5
104
100
AcDbEntity
  8
Layer_1
 62
7
100
AcDbPolyline
 90
4
 70
1
 10
129.583277
 20
181.331507
 30
0.0
 10
128.334796
 20
181.331507
 30
0.0
 10
128.334796
 20
181.055988
 30
0.0
 10
129.583277
 20
181.055988
 30
0.0
  0
LWPOLYLINE
  5
105
100
AcDbEntity
  8
Layer_1
 62
7
100
AcDbPolyline
 90
4
 70
1
 10
129.583277
 20
180.828446
 30
0.0
 10
128.334796
 20
180.828446
 30
0.0
 10
128.334796
 20
180.552926
 30
0.0
 10
129.583277
 20
180.552926
 30
0.0
  0
LWPOLYLINE
  5
106
100
AcDbEntity
  8
Layer_1
 62
7
100
AcDbPolyline
 90
4
 70
1
 10
129.583277
 20
180.331029
 30
0.0
 10
128.334796
 20
180.331029
 30
0.0
 10
128.334796
 20
180.055509
 30
0.0
 10
129.583277
 20
180.055509
 30
0.0
  0
LWPOLYLINE
  5
107
100
AcDbEntity
  8
Layer_1
 62
7
100
AcDbPolyline
 90
4
 70
1
 10
129.583277
 20
179.827967
 30
0.0
 10
128.334796
 20
179.827967
 30
0.0
 10
128.334796
 20
179.552448
 30
0.0
 10
129.583277
 20
179.552448
 30
0.0
  0
LWPOLYLINE
  5
108
100
AcDbEntity
  8
Layer_1
 62
7
100
AcDbPolyline
 90
4
 70
1
 10
129.583277
 20
179.330550
 30
0.0
 10
128.334796
 20
179.330550
 30
0.0
 10
128.334796
 20
179.056442
 30
0.0
 10
129.583277
 20
179.056442
 30
0.0
  0
LWPOLYLINE
  5
109
100
AcDbEntity
  8
Layer_1
 62
7
100
AcDbPolyline
 90
4
 70
1
 10
129.583277
 20
178.827489
 30
0.0
 10
128.334796
 20
178.827489
 30
0.0
 10
128.334796
 20
178.553380
 30
0.0
 10
129.583277
 20
178.553380
 30
0.0
  0
LWPOLYLINE
  5
10a
100
AcDbEntity
  8
Layer_1
 62
7
100
AcDbPolyline
 90
4
 70
1
 10
129.583277
 20
178.330072
 30
0.0
 10
128.334796
 20
178.330072
 30
0.0
 10
128.334796
 20
178.055963
 30
0.0
 10
129.583277
 20
178.055963
 30
0.0
  0
LWPOLYLINE
  5
10b
100
AcDbEntity
  8
Layer_1
 62
7
100
AcDbPolyline
 90
4
 70
1
 10
129.583277
 20
177.828422
 30
0.0
 10
128.334796
 20
177.828422
 30
0.0
 10
128.334796
 20
177.552902
 30
0.0
 10
129.583277
 20
177.552902
 30
0.0
  0
LWPOLYLINE
  5
10c
100
AcDbEntity
  8
Layer_1
 62
7
100
AcDbPolyline
 90
4
 70
1
 10
129.583277
 20
177.331005
 30
0.0
 10
128.334796
 20
177.331005
 30
0.0
 10
128.334796
 20
177.055485
 30
0.0
 10
129.583277
 20
177.055485
 30
0.0
  0
LWPOLYLINE
  5
10d
100
AcDbEntity
  8
Layer_1
 62
7
100
AcDbPolyline
 90
4
 70
1
 10
129.583277
 20
176.827943
 30
0.0
 10
128.334796
 20
176.827943
 30
0.0
 10
128.334796
 20
176.552424
 30
0.0
 10
129.583277
 20
176.552424
 30
0.0
  0
LWPOLYLINE
  5
10e
100
AcDbEntity
  8
Layer_1
 62
7
100
AcDbPolyline
 90
4
 70
1
 10
129.583277
 20
176.330526
 30
0.0
 10
128.334796
 20
176.330526
 30
0.0
 10
128.334796
 20
176.055007
 30
0.0
 10
129.583277
 20
176.055007
 30
0.0
  0
LWPOLYLINE
  5
10f
100
AcDbEntity
  8
Layer_1
 62
7
100
AcDbPolyline
 90
4
 70
1
 10
129.583277
 20
175.827818
 30
0.0
 10
128.334796
 20
175.827818
 30
0.0
 10
128.334796
 20
175.552298
 30
0.0
 10
129.583277
 20
175.552298
 30
0.0
  0
LWPOLYLINE
  5
110
100
AcDbEntity
  8
Layer_1
 62
7
100
AcDbPolyline
 90
4
 70
1
 10
129.583277
 20
175.330048
 30
0.0
 10
128.334796
 20
175.330048
 30
0.0
 10
128.334796
 20
175.054528
 30
0.0
 10
129.583277
 20
175.054528
 30
0.0
  0
LWPOLYLINE
  5
111
100
AcDbEntity
  8
Layer_1
 62
7
100
AcDbPolyline
 90
4
 70
1
 10
129.583277
 20
174.827339
 30
0.0
 10
128.334796
 20
174.827339
 30
0.0
 10
128.334796
 20
174.553231
 30
0.0
 10
129.583277
 20
174.553231
 30
0.0
  0
LWPOLYLINE
  5
112
100
AcDbEntity
  8
Layer_1
 62
7
100
AcDbPolyline
 90
4
 70
1
 10
129.583277
 20
174.329569
 30
0.0
 10
128.334796
 20
174.329569
 30
0.0
 10
128.334796
 20
174.055461
 30
0.0
 10
129.583277
 20
174.055461
 30
0.0
  0
LWPOLYLINE
  5
113
100
AcDbEntity
  8
Layer_1
 62
7
100
AcDbPolyline
 90
4
 70
1
 10
129.583277
 20
173.828272
 30
0.0
 10
128.334796
 20
173.828272
 30
0.0
 10
128.334796
 20
173.552752
 30
0.0
 10
129.583277
 20
173.552752
 30
0.0
  0
LWPOLYLINE
  5
114
100
AcDbEntity
  8
Layer_1
 62
7
100
AcDbPolyline
 90
4
 70
1
 10
129.583277
 20
173.330502
 30
0.0
 10
128.334796
 20
173.330502
 30
0.0
 10
128.334796
 20
173.054982
 30
0.0
 10
129.583277
 20
173.054982
 30
0.0
  0
LWPOLYLINE
  5
115
100
AcDbEntity
  8
Layer_1
 62
7
100
AcDbPolyline
 90
4
 70
1
 10
124.943541
 20
182.632552
 30
0.0
 10
123.704584
 20
182.632552
 30
0.0
 10
123.704584
 20
181.130424
 30
0.0
 10
124.943541
 20
181.130424
 30
0.0
  0
LWPOLYLINE
  5
116
100
AcDbEntity
  8
Layer_1
 62
7
100
AcDbPolyline
 90
4
 70
1
 10
126.847836
 20
182.632552
 30
0.0
 10
125.605000
 20
182.632552
 30
0.0
 10
125.605000
 20
181.130424
 30
0.0
 10
126.847836
 20
181.130424
 30
0.0
  0
LWPOLYLINE
  5
117
100
AcDbEntity
  8
Layer_1
 62
7
100
AcDbPolyline
 90
4
 70
1
 10
124.943541
 20
185.173612
 30
0.0
 10
123.704584
 20
185.173612
 30
0.0
 10
123.704584
 20
183.670073
 30
0.0
 10
124.943541
 20
183.670073
 30
0.0
  0
LWPOLYLINE
  5
118
100
AcDbEntity
  8
Layer_1
 62
7
100
AcDbPolyline
 90
4
 70
1
 10
126.847836
 20
185.173612
 30
0.0
 10
125.605000
 20
185.173612
 30
0.0
 10
125.605000
 20
183.670073
 30
0.0
 10
126.847836
 20
183.670073
 30
0.0
  0
LWPOLYLINE
  5
119
100
AcDbEntity
  8
Layer_1
 62
7
100
AcDbPolyline
 90
4
 70
1
 10
72.427949
 20
174.309108
 30
0.0
 10
70.528945
 20
174.309108
 30
0.0
 10
70.528945
 20
172.906110
 30
0.0
 10
72.427949
 20
172.906110
 30
0.0
  0
LWPOLYLINE
  5
11a
100
AcDbEntity
  8
Layer_1
 62
7
100
AcDbPolyline
 90
4
 70
1
 10
71.529424
 20
161.106039
 30
0.0
 10
69.623717
 20
161.106039
 30
0.0
 10
69.623717
 20
159.708685
 30
0.0
 10
71.529424
 20
159.708685
 30
0.0
  0
LWPOLYLINE
  5
11b
100
AcDbEntity
  8
Layer_1
 62
7
100
AcDbPolyline
 90
4
 70
1
 10
75.127407
 20
169.758625
 30
0.0
 10
73.623867
 20
169.758625
 30
0.0
 10
73.623867
 20
169.060124
 30
0.0
 10
75.127407
 20
169.060124
 30
0.0
  0
LWPOLYLINE
  5
11c
100
AcDbEntity
  8
Layer_1
 62
7
100
AcDbPolyline
 90
4
 70
1
 10
74.724887
 20
168.657605
 30
0.0
 10
73.226992
 20
168.657605
 30
0.0
 10
73.226992
 20
167.959104
 30
0.0
 10
74.724887
 20
167.959104
 30
0.0
  0
LWPOLYLINE
  5
11d
100
AcDbEntity
  8
Layer_1
 62
7
100
AcDbPolyline
 90
4
 70
1
 10
75.127407
 20
165.361600
 30
0.0
 10
73.623867
 20
165.361600
 30
0.0
 10
73.623867
 20
164.657455
 30
0.0
 10
75.127407
 20
164.657455
 30
0.0
  0
LWPOLYLINE
  5
11e
100
AcDbEntity
  8
Layer_1
 62
7
100
AcDbPolyline
 90
4
 70
1
 10
75.127407
 20
173.060627
 30
0.0
 10
73.623867
 20
173.060627
 30
0.0
 10
73.623867
 20
172.356482
 30
0.0
 10
75.127407
 20
172.356482
 30
0.0
  0
LWPOLYLINE
  5
11f
100
AcDbEntity
  8
Layer_1
 62
7
100
AcDbPolyline
 90
4
 70
1
 10
75.127407
 20
171.959607
 30
0.0
 10
73.623867
 20
171.959607
 30
0.0
 10
73.623867
 20
171.261106
 30
0.0
 10
75.127407
 20
171.261106
 30
0.0
  0
LWPOLYLINE
  5
120
100
AcDbEntity
  8
Layer_1
 62
7
100
AcDbPolyline
 90
4
 70
1
 10
74.724887
 20
170.858587
 30
0.0
 10
73.226992
 20
170.858587
 30
0.0
 10
73.226992
 20
170.160086
 30
0.0
 10
74.724887
 20
170.160086
 30
0.0
  0
LWPOLYLINE
  5
121
100
AcDbEntity
  8
Layer_1
 62
7
100
AcDbPolyline
 90
4
 70
1
 10
75.127407
 20
167.556585
 30
0.0
 10
73.623867
 20
167.556585
 30
0.0
 10
73.623867
 20
166.858084
 30
0.0
 10
75.127407
 20
166.858084
 30
0.0
  0
LWPOLYLINE
  5
122
100
AcDbEntity
  8
Layer_1
 62
7
100
AcDbPolyline
 90
4
 70
1
 10
75.524282
 20
166.455564
 30
0.0
 10
74.026387
 20
166.455564
 30
0.0
 10
74.026387
 20
165.758122
 30
0.0
 10
75.524282
 20
165.758122
 30
0.0
  0
LWPOLYLINE
  5
123
100
AcDbEntity
  8
Layer_1
 62
7
100
AcDbPolyline
 90
4
 70
1
 10
85.276477
 20
172.906110
 30
0.0
 10
83.873479
 20
172.906110
 30
0.0
 10
83.873479
 20
171.107648
 30
0.0
 10
85.276477
 20
171.107648
 30
0.0
  0
LWPOLYLINE
  5
124
100
AcDbEntity
  8
Layer_1
 62
7
100
AcDbPolyline
 90
4
 70
1
 10
85.276477
 20
166.906062
 30
0.0
 10
83.873479
 20
166.906062
 30
0.0
 10
83.873479
 20
165.106189
 30
0.0
 10
85.276477
 20
165.106189
 30
0.0
  0
LWPOLYLINE
  5
125
100
AcDbEntity
  8
Layer_1
 62
7
100
AcDbPolyline
 90
4
 70
1
 10
87.393145
 20
168.605394
 30
0.0
 10
85.889605
 20
168.605394
 30
0.0
 10
85.889605
 20
167.403832
 30
0.0
 10
87.393145
 20
167.403832
 30
0.0
  0
LWPOLYLINE
  5
126
100
AcDbEntity
  8
Layer_1
 62
7
100
AcDbPolyline
 90
4
 70
1
 10
87.393145
 20
170.705481
 30
0.0
 10
85.889605
 20
170.705481
 30
0.0
 10
85.889605
 20
169.503919
 30
0.0
 10
87.393145
 20
169.503919
 30
0.0
  0
LWPOLYLINE
  5
127
100
AcDbEntity
  8
Layer_1
 62
7
100
AcDbPolyline
 90
4
 70
1
 10
72.835761
 20
182.134783
 30
0.0
 10
71.058112
 20
182.134783
 30
0.0
 10
71.058112
 20
181.236257
 30
0.0
 10
72.835761
 20
181.236257
 30
0.0
  0
LWPOLYLINE
  5
128
100
AcDbEntity
  8
Layer_1
 62
7
100
AcDbPolyline
 90
4
 70
1
 10
72.835761
 20
178.134633
 30
0.0
 10
71.058112
 20
178.134633
 30
0.0
 10
71.058112
 20
177.236107
 30
0.0
 10
72.835761
 20
177.236107
 30
0.0
  0
LWPOLYLINE
  5
129
100
AcDbEntity
  8
Layer_1
 62
7
100
AcDbPolyline
 90
4
 70
1
 10
70.592093
 20
183.558595
 30
0.0
 10
69.792698
 20
183.558595
 30
0.0
 10
69.792698
 20
182.109030
 30
0.0
 10
70.592093
 20
182.109030
 30
0.0
  0
LWPOLYLINE
  5
12a
100
AcDbEntity
  8
Layer_1
 62
7
100
AcDbPolyline
 90
4
 70
1
 10
70.592093
 20
177.262213
 30
0.0
 10
69.792698
 20
177.262213
 30
0.0
 10
69.792698
 20
175.807004
 30
0.0
 10
70.592093
 20
175.807004
 30
0.0
  0
LWPOLYLINE
  5
12b
100
AcDbEntity
  8
Layer_1
 62
7
100
AcDbPolyline
 90
4
 70
1
 10
132.944546
 20
187.966909
 30
0.0
 10
131.700298
 20
187.966909
 30
0.0
 10
131.700298
 20
186.464780
 30
0.0
 10
132.944546
 20
186.464780
 30
0.0
  0
LWPOLYLINE
  5
12c
100
AcDbEntity
  8
Layer_1
 62
7
100
AcDbPolyline
 90
4
 70
1
 10
132.944546
 20
190.761616
 30
0.0
 10
131.700298
 20
190.761616
 30
0.0
 10
131.700298
 20
189.258076
 30
0.0
 10
132.944546
 20
189.258076
 30
0.0
  0
LWPOLYLINE
  5
12d
100
AcDbEntity
  8
Layer_1
 62
7
100
AcDbPolyline
 90
4
 70
1
 10
136.885429
 20
188.188806
 30
0.0
 10
135.986903
 20
188.188806
 30
0.0
 10
135.986903
 20
187.390822
 30
0.0
 10
136.885429
 20
187.390822
 30
0.0
  0
LWPOLYLINE
  5
12e
100
AcDbEntity
  8
Layer_1
 62
7
100
AcDbPolyline
 90
4
 70
1
 10
136.885429
 20
190.088868
 30
0.0
 10
135.986903
 20
190.088868
 30
0.0
 10
135.986903
 20
189.289473
 30
0.0
 10
136.885429
 20
189.289473
 30
0.0
  0
LWPOLYLINE
  5
12f
100
AcDbEntity
  8
Layer_1
 62
7
100
AcDbPolyline
 90
4
 70
1
 10
134.785341
 20
189.142365
 30
0.0
 10
133.885405
 20
189.142365
 30
0.0
 10
133.885405
 20
188.342970
 30
0.0
 10
134.785341
 20
188.342970
 30
0.0
  0
LWPOLYLINE
  5
130
100
AcDbEntity
  8
Layer_1
 62
7
100
AcDbPolyline
 90
4
 70
1
 10
133.848363
 20
197.894081
 30
0.0
 10
132.451009
 20
197.894081
 30
0.0
 10
132.451009
 20
196.496728
 30
0.0
 10
133.848363
 20
196.496728
 30
0.0
  0
LWPOLYLINE
  5
131
100
AcDbEntity
  8
Layer_1
 62
7
100
AcDbPolyline
 90
4
 70
1
 10
133.848363
 20
194.195557
 30
0.0
 10
132.451009
 20
194.195557
 30
0.0
 10
132.451009
 20
192.792559
 30
0.0
 10
133.848363
 20
192.792559
 30
0.0
  0
LWPOLYLINE
  5
132
100
AcDbEntity
  8
Layer_1
 62
7
100
AcDbPolyline
 90
4
 70
1
 10
137.150012
 20
197.894081
 30
0.0
 10
135.754070
 20
197.894081
 30
0.0
 10
135.754070
 20
196.496728
 30
0.0
 10
137.150012
 20
196.496728
 30
0.0
  0
LWPOLYLINE
  5
133
100
AcDbEntity
  8
Layer_1
 62
7
100
AcDbPolyline
 90
4
 70
1
 10
137.150012
 20
194.195557
 30
0.0
 10
135.754070
 20
194.195557
 30
0.0
 10
135.754070
 20
192.792559
 30
0.0
 10
137.150012
 20
192.792559
 30
0.0
  0
LWPOLYLINE
  5
134
100
AcDbEntity
  8
Layer_1
 62
7
100
AcDbPolyline
 90
4
 70
1
 10
140.505637
 20
195.015413
 30
0.0
 10
139.002097
 20
195.015413
 30
0.0
 10
139.002097
 20
193.772576
 30
0.0
 10
140.505637
 20
193.772576
 30
0.0
  0
LWPOLYLINE
  5
135
100
AcDbEntity
  8
Layer_1
 62
7
100
AcDbPolyline
 90
4
 70
1
 10
140.505637
 20
196.915828
 30
0.0
 10
139.002097
 20
196.915828
 30
0.0
 10
139.002097
 20
195.676872
 30
0.0
 10
140.505637
 20
195.676872
 30
0.0
  0
LWPOLYLINE
  5
136
100
AcDbEntity
  8
Layer_1
 62
7
100
AcDbPolyline
 90
4
 70
1
 10
143.755075
 20
197.894081
 30
0.0
 10
142.357721
 20
197.894081
 30
0.0
 10
142.357721
 20
196.496728
 30
0.0
 10
143.755075
 20
196.496728
 30
0.0
  0
LWPOLYLINE
  5
137
100
AcDbEntity
  8
Layer_1
 62
7
100
AcDbPolyline
 90
4
 70
1
 10
143.755075
 20
194.195557
 30
0.0
 10
142.357721
 20
194.195557
 30
0.0
 10
142.357721
 20
192.792559
 30
0.0
 10
143.755075
 20
192.792559
 30
0.0
  0
LWPOLYLINE
  5
138
100
AcDbEntity
  8
Layer_1
 62
7
100
AcDbPolyline
 90
4
 70
1
 10
139.812428
 20
192.665911
 30
0.0
 10
138.610866
 20
192.665911
 30
0.0
 10
138.610866
 20
191.162372
 30
0.0
 10
139.812428
 20
191.162372
 30
0.0
  0
LWPOLYLINE
  5
139
100
AcDbEntity
  8
Layer_1
 62
7
100
AcDbPolyline
 90
4
 70
1
 10
141.912515
 20
192.665911
 30
0.0
 10
140.712365
 20
192.665911
 30
0.0
 10
140.712365
 20
191.162372
 30
0.0
 10
141.912515
 20
191.162372
 30
0.0
  0
LWPOLYLINE
  5
13a
100
AcDbEntity
  8
Layer_1
 62
7
100
AcDbPolyline
 90
4
 70
1
 10
145.204640
 20
186.516991
 30
0.0
 10
143.426991
 20
186.516991
 30
0.0
 10
143.426991
 20
185.617054
 30
0.0
 10
145.204640
 20
185.617054
 30
0.0
  0
LWPOLYLINE
  5
13b
100
AcDbEntity
  8
Layer_1
 62
7
100
AcDbPolyline
 90
4
 70
1
 10
145.204640
 20
190.517493
 30
0.0
 10
143.426991
 20
190.517493
 30
0.0
 10
143.426991
 20
189.617557
 30
0.0
 10
145.204640
 20
189.617557
 30
0.0
  0
LWPOLYLINE
  5
13c
100
AcDbEntity
  8
Layer_1
 62
7
100
AcDbPolyline
 90
4
 70
1
 10
146.469702
 20
185.643513
 30
0.0
 10
145.670307
 20
185.643513
 30
0.0
 10
145.670307
 20
184.193948
 30
0.0
 10
146.469702
 20
184.193948
 30
0.0
  0
LWPOLYLINE
  5
13d
100
AcDbEntity
  8
Layer_1
 62
7
100
AcDbPolyline
 90
4
 70
1
 10
146.469702
 20
191.940953
 30
0.0
 10
145.670307
 20
191.940953
 30
0.0
 10
145.670307
 20
190.491388
 30
0.0
 10
146.469702
 20
190.491388
 30
0.0
  0
LWPOLYLINE
  5
13e
100
AcDbEntity
  8
Layer_1
 62
7
100
AcDbPolyline
 90
4
 70
1
 10
142.108307
 20
186.871180
 30
0.0
 10
138.409783
 20
186.871180
 30
0.0
 10
138.409783
 20
184.871634
 30
0.0
 10
142.108307
 20
184.871634
 30
0.0
  0
LWPOLYLINE
  5
13f
100
AcDbEntity
  8
Layer_1
 62
7
100
AcDbPolyline
 90
4
 70
1
 10
142.108307
 20
190.474807
 30
0.0
 10
138.409783
 20
190.474807
 30
0.0
 10
138.409783
 20
188.475262
 30
0.0
 10
142.108307
 20
188.475262
 30
0.0
  0
LWPOLYLINE
  5
140
100
AcDbEntity
  8
Layer_1
 62
7
100
AcDbPolyline
 90
4
 70
1
 10
128.446626
 20
201.783106
 30
0.0
 10
127.245064
 20
201.783106
 30
0.0
 10
127.245064
 20
201.233125
 30
0.0
 10
128.446626
 20
201.233125
 30
0.0
  0
LWPOLYLINE
  5
141
100
AcDbEntity
  8
Layer_1
 62
7
100
AcDbPolyline
 90
4
 70
1
 10
128.446626
 20
202.731021
 30
0.0
 10
127.245064
 20
202.731021
 30
0.0
 10
127.245064
 20
202.179981
 30
0.0
 10
128.446626
 20
202.179981
 30
0.0
  0
LWPOLYLINE
  5
142
100
AcDbEntity
  8
Layer_1
 62
7
100
AcDbPolyline
 90
4
 70
1
 10
128.446626
 20
203.683168
 30
0.0
 10
127.245064
 20
203.683168
 30
0.0
 10
127.245064
 20
203.133188
 30
0.0
 10
128.446626
 20
203.133188
 30
0.0
  0
LWPOLYLINE
  5
143
100
AcDbEntity
  8
Layer_1
 62
7
100
AcDbPolyline
 90
4
 70
1
 10
125.847358
 20
203.683168
 30
0.0
 10
124.645796
 20
203.683168
 30
0.0
 10
124.645796
 20
203.133188
 30
0.0
 10
125.847358
 20
203.133188
 30
0.0
  0
LWPOLYLINE
  5
144
100
AcDbEntity
  8
Layer_1
 62
7
100
AcDbPolyline
 90
4
 70
1
 10
125.847358
 20
201.783106
 30
0.0
 10
124.645796
 20
201.783106
 30
0.0
 10
124.645796
 20
201.233125
 30
0.0
 10
125.847358
 20
201.233125
 30
0.0
  0
LWPOLYLINE
  5
145
100
AcDbEntity
  8
Layer_1
 62
7
100
AcDbPolyline
 90
4
 70
1
 10
127.356542
 20
200.413269
 30
0.0
 10
126.112294
 20
200.413269
 30
0.0
 10
126.112294
 20
198.909729
 30
0.0
 10
127.356542
 20
198.909729
 30
0.0
  0
LWPOLYLINE
  5
146
100
AcDbEntity
  8
Layer_1
 62
7
100
AcDbPolyline
 90
4
 70
1
 10
125.450483
 20
200.413269
 30
0.0
 10
124.212938
 20
200.413269
 30
0.0
 10
124.212938
 20
198.909729
 30
0.0
 10
125.450483
 20
198.909729
 30
0.0
  0
LWPOLYLINE
  5
147
100
AcDbEntity
  8
Layer_1
 62
7
100
AcDbPolyline
 90
4
 70
1
 10
132.916676
 20
185.542971
 30
0.0
 10
129.916652
 20
185.542971
 30
0.0
 10
129.916652
 20
183.543425
 30
0.0
 10
132.916676
 20
183.543425
 30
0.0
  0
LWPOLYLINE
  5
148
100
AcDbEntity
  8
Layer_1
 62
7
100
AcDbPolyline
 90
4
 70
1
 10
131.038486
 20
187.966909
 30
0.0
 10
129.800941
 20
187.966909
 30
0.0
 10
129.800941
 20
186.464780
 30
0.0
 10
131.038486
 20
186.464780
 30
0.0
  0
LWPOLYLINE
  5
149
100
AcDbEntity
  8
Layer_1
 62
7
100
AcDbPolyline
 90
4
 70
1
 10
131.038486
 20
190.761616
 30
0.0
 10
129.800941
 20
190.761616
 30
0.0
 10
129.800941
 20
189.258076
 30
0.0
 10
131.038486
 20
189.258076
 30
0.0
  0
LWPOLYLINE
  5
14a
100
AcDbEntity
  8
Layer_1
 62
7
100
AcDbPolyline
 90
4
 70
1
 10
127.164984
 20
188.003950
 30
0.0
 10
126.329958
 20
188.003950
 30
0.0
 10
126.329958
 20
187.549219
 30
0.0
 10
127.164984
 20
187.549219
 30
0.0
  0
LWPOLYLINE
  5
14b
100
AcDbEntity
  8
Layer_1
 62
7
100
AcDbPolyline
 90
4
 70
1
 10
125.493169
 20
190.443057
 30
0.0
 10
124.651088
 20
190.443057
 30
0.0
 10
124.651088
 20
189.982682
 30
0.0
 10
125.493169
 20
189.982682
 30
0.0
  0
LWPOLYLINE
  5
14c
100
AcDbEntity
  8
Layer_1
 62
7
100
AcDbPolyline
 90
4
 70
1
 10
125.493169
 20
189.628846
 30
0.0
 10
124.651088
 20
189.628846
 30
0.0
 10
124.651088
 20
189.174115
 30
0.0
 10
125.493169
 20
189.174115
 30
0.0
  0
LWPOLYLINE
  5
14d
100
AcDbEntity
  8
Layer_1
 62
7
100
AcDbPolyline
 90
4
 70
1
 10
125.493169
 20
188.818515
 30
0.0
 10
124.651088
 20
188.818515
 30
0.0
 10
124.651088
 20
188.358139
 30
0.0
 10
125.493169
 20
188.358139
 30
0.0
  0
LWPOLYLINE
  5
14e
100
AcDbEntity
  8
Layer_1
 62
7
100
AcDbPolyline
 90
4
 70
1
 10
125.493169
 20
188.003950
 30
0.0
 10
124.651088
 20
188.003950
 30
0.0
 10
124.651088
 20
187.549219
 30
0.0
 10
125.493169
 20
187.549219
 30
0.0
  0
LWPOLYLINE
  5
14f
100
AcDbEntity
  8
Layer_1
 62
7
100
AcDbPolyline
 90
4
 70
1
 10
127.164984
 20
188.818515
 30
0.0
 10
126.329958
 20
188.818515
 30
0.0
 10
126.329958
 20
188.358139
 30
0.0
 10
127.164984
 20
188.358139
 30
0.0
  0
LWPOLYLINE
  5
150
100
AcDbEntity
  8
Layer_1
 62
7
100
AcDbPolyline
 90
4
 70
1
 10
127.164984
 20
189.628846
 30
0.0
 10
126.329958
 20
189.628846
 30
0.0
 10
126.329958
 20
189.174115
 30
0.0
 10
127.164984
 20
189.174115
 30
0.0
  0
LWPOLYLINE
  5
151
100
AcDbEntity
  8
Layer_1
 62
7
100
AcDbPolyline
 90
4
 70
1
 10
127.164984
 20
190.443057
 30
0.0
 10
126.329958
 20
190.443057
 30
0.0
 10
126.329958
 20
189.982682
 30
0.0
 10
127.164984
 20
189.982682
 30
0.0
  0
LWPOLYLINE
  5
152
100
AcDbEntity
  8
Layer_1
 62
7
100
AcDbPolyline
 90
4
 70
1
 10
124.943541
 20
172.473604
 30
0.0
 10
123.704584
 20
172.473604
 30
0.0
 10
123.704584
 20
170.970064
 30
0.0
 10
124.943541
 20
170.970064
 30
0.0
  0
LWPOLYLINE
  5
153
100
AcDbEntity
  8
Layer_1
 62
7
100
AcDbPolyline
 90
4
 70
1
 10
126.847836
 20
172.473604
 30
0.0
 10
125.605000
 20
172.473604
 30
0.0
 10
125.605000
 20
170.970064
 30
0.0
 10
126.847836
 20
170.970064
 30
0.0
  0
LWPOLYLINE
  5
154
100
AcDbEntity
  8
Layer_1
 62
7
100
AcDbPolyline
 90
4
 70
1
 10
124.943541
 20
175.013253
 30
0.0
 10
123.704584
 20
175.013253
 30
0.0
 10
123.704584
 20
173.509713
 30
0.0
 10
124.943541
 20
173.509713
 30
0.0
  0
LWPOLYLINE
  5
155
100
AcDbEntity
  8
Layer_1
 62
7
100
AcDbPolyline
 90
4
 70
1
 10
126.847836
 20
175.013253
 30
0.0
 10
125.605000
 20
175.013253
 30
0.0
 10
125.605000
 20
173.509713
 30
0.0
 10
126.847836
 20
173.509713
 30
0.0
  0
LWPOLYLINE
  5
156
100
AcDbEntity
  8
Layer_1
 62
7
100
AcDbPolyline
 90
4
 70
1
 10
126.847836
 20
169.932544
 30
0.0
 10
125.605000
 20
169.932544
 30
0.0
 10
125.605000
 20
168.430416
 30
0.0
 10
126.847836
 20
168.430416
 30
0.0
  0
LWPOLYLINE
  5
157
100
AcDbEntity
  8
Layer_1
 62
7
100
AcDbPolyline
 90
4
 70
1
 10
124.943541
 20
177.552902
 30
0.0
 10
123.704584
 20
177.552902
 30
0.0
 10
123.704584
 20
176.049362
 30
0.0
 10
124.943541
 20
176.049362
 30
0.0
  0
LWPOLYLINE
  5
158
100
AcDbEntity
  8
Layer_1
 62
7
100
AcDbPolyline
 90
4
 70
1
 10
126.847836
 20
177.552902
 30
0.0
 10
125.605000
 20
177.552902
 30
0.0
 10
125.605000
 20
176.049362
 30
0.0
 10
126.847836
 20
176.049362
 30
0.0
  0
LWPOLYLINE
  5
159
100
AcDbEntity
  8
Layer_1
 62
7
100
AcDbPolyline
 90
4
 70
1
 10
124.943541
 20
180.092551
 30
0.0
 10
123.704584
 20
180.092551
 30
0.0
 10
123.704584
 20
178.590422
 30
0.0
 10
124.943541
 20
178.590422
 30
0.0
  0
LWPOLYLINE
  5
15a
100
AcDbEntity
  8
Layer_1
 62
7
100
AcDbPolyline
 90
4
 70
1
 10
126.847836
 20
180.092551
 30
0.0
 10
125.605000
 20
180.092551
 30
0.0
 10
125.605000
 20
178.590422
 30
0.0
 10
126.847836
 20
178.590422
 30
0.0
  0
LWPOLYLINE
  5
15b
100
AcDbEntity
  8
Layer_1
 62
7
100
AcDbPolyline
 90
4
 70
1
 10
122.862503
 20
179.088192
 30
0.0
 10
119.815560
 20
179.088192
 30
0.0
 10
119.815560
 20
177.564191
 30
0.0
 10
122.862503
 20
177.564191
 30
0.0
  0
LWPOLYLINE
  5
15c
100
AcDbEntity
  8
Layer_1
 62
7
100
AcDbPolyline
 90
4
 70
1
 10
122.862503
 20
181.627841
 30
0.0
 10
119.815560
 20
181.627841
 30
0.0
 10
119.815560
 20
180.103840
 30
0.0
 10
122.862503
 20
180.103840
 30
0.0
  0
LWPOLYLINE
  5
15d
100
AcDbEntity
  8
Layer_1
 62
7
100
AcDbPolyline
 90
4
 70
1
 10
122.862503
 20
184.167489
 30
0.0
 10
119.815560
 20
184.167489
 30
0.0
 10
119.815560
 20
182.643489
 30
0.0
 10
122.862503
 20
182.643489
 30
0.0
  0
LWPOLYLINE
  5
15e
100
AcDbEntity
  8
Layer_1
 62
7
100
AcDbPolyline
 90
4
 70
1
 10
122.862503
 20
161.307122
 30
0.0
 10
120.322855
 20
161.307122
 30
0.0
 10
120.322855
 20
159.783121
 30
0.0
 10
122.862503
 20
159.783121
 30
0.0
  0
LWPOLYLINE
  5
15f
100
AcDbEntity
  8
Layer_1
 62
7
100
AcDbPolyline
 90
4
 70
1
 10
118.036853
 20
163.847124
 30
0.0
 10
115.497204
 20
163.847124
 30
0.0
 10
115.497204
 20
162.323123
 30
0.0
 10
118.036853
 20
162.323123
 30
0.0
  0
LWPOLYLINE
  5
160
100
AcDbEntity
  8
Layer_1
 62
7
100
AcDbPolyline
 90
4
 70
1
 10
122.862503
 20
163.847124
 30
0.0
 10
120.322855
 20
163.847124
 30
0.0
 10
120.322855
 20
162.323123
 30
0.0
 10
122.862503
 20
162.323123
 30
0.0
  0
LWPOLYLINE
  5
161
100
AcDbEntity
  8
Layer_1
 62
7
100
AcDbPolyline
 90
4
 70
1
 10
122.862503
 20
166.388184
 30
0.0
 10
119.815560
 20
166.388184
 30
0.0
 10
119.815560
 20
164.864183
 30
0.0
 10
122.862503
 20
164.864183
 30
0.0
  0
LWPOLYLINE
  5
162
100
AcDbEntity
  8
Layer_1
 62
7
100
AcDbPolyline
 90
4
 70
1
 10
110.093704
 20
153.676887
 30
0.0
 10
108.893553
 20
153.676887
 30
0.0
 10
108.893553
 20
152.173347
 30
0.0
 10
110.093704
 20
152.173347
 30
0.0
  0
LWPOLYLINE
  5
163
100
AcDbEntity
  8
Layer_1
 62
7
100
AcDbPolyline
 90
4
 70
1
 10
106.860846
 20
155.963241
 30
0.0
 10
105.660695
 20
155.963241
 30
0.0
 10
105.660695
 20
154.459701
 30
0.0
 10
106.860846
 20
154.459701
 30
0.0
  0
LWPOLYLINE
  5
164
100
AcDbEntity
  8
Layer_1
 62
7
100
AcDbPolyline
 90
4
 70
1
 10
104.760759
 20
155.963241
 30
0.0
 10
103.559197
 20
155.963241
 30
0.0
 10
103.559197
 20
154.459701
 30
0.0
 10
104.760759
 20
154.459701
 30
0.0
  0
LWPOLYLINE
  5
165
100
AcDbEntity
  8
Layer_1
 62
7
100
AcDbPolyline
 90
4
 70
1
 10
106.860846
 20
153.676887
 30
0.0
 10
105.660695
 20
153.676887
 30
0.0
 10
105.660695
 20
152.173347
 30
0.0
 10
106.860846
 20
152.173347
 30
0.0
  0
LWPOLYLINE
  5
166
100
AcDbEntity
  8
Layer_1
 62
7
100
AcDbPolyline
 90
4
 70
1
 10
104.760759
 20
153.676887
 30
0.0
 10
103.559197
 20
153.676887
 30
0.0
 10
103.559197
 20
152.173347
 30
0.0
 10
104.760759
 20
152.173347
 30
0.0
  0
LWPOLYLINE
  5
167
100
AcDbEntity
  8
Layer_1
 62
7
100
AcDbPolyline
 90
4
 70
1
 10
110.093704
 20
155.963241
 30
0.0
 10
108.893553
 20
155.963241
 30
0.0
 10
108.893553
 20
154.459701
 30
0.0
 10
110.093704
 20
154.459701
 30
0.0
  0
LWPOLYLINE
  5
168
100
AcDbEntity
  8
Layer_1
 62
7
100
AcDbPolyline
 90
4
 70
1
 10
112.195202
 20
155.963241
 30
0.0
 10
110.993640
 20
155.963241
 30
0.0
 10
110.993640
 20
154.459701
 30
0.0
 10
112.195202
 20
154.459701
 30
0.0
  0
LWPOLYLINE
  5
169
100
AcDbEntity
  8
Layer_1
 62
7
100
AcDbPolyline
 90
4
 70
1
 10
112.195202
 20
153.676887
 30
0.0
 10
110.993640
 20
153.676887
 30
0.0
 10
110.993640
 20
152.173347
 30
0.0
 10
112.195202
 20
152.173347
 30
0.0
  0
LWPOLYLINE
  5
16a
100
AcDbEntity
  8
Layer_1
 62
7
100
AcDbPolyline
 90
4
 70
1
 10
118.036853
 20
161.307122
 30
0.0
 10
115.497204
 20
161.307122
 30
0.0
 10
115.497204
 20
159.783121
 30
0.0
 10
118.036853
 20
159.783121
 30
0.0
  0
LWPOLYLINE
  5
16b
100
AcDbEntity
  8
Layer_1
 62
7
100
AcDbPolyline
 90
4
 70
1
 10
124.943541
 20
169.932544
 30
0.0
 10
123.704584
 20
169.932544
 30
0.0
 10
123.704584
 20
168.430416
 30
0.0
 10
124.943541
 20
168.430416
 30
0.0
  0
LWPOLYLINE
  5
16c
100
AcDbEntity
  8
Layer_1
 62
7
100
AcDbPolyline
 90
4
 70
1
 10
122.862503
 20
168.927833
 30
0.0
 10
119.815560
 20
168.927833
 30
0.0
 10
119.815560
 20
167.403832
 30
0.0
 10
122.862503
 20
167.403832
 30
0.0
  0
LWPOLYLINE
  5
16d
100
AcDbEntity
  8
Layer_1
 62
7
100
AcDbPolyline
 90
4
 70
1
 10
122.862503
 20
171.467481
 30
0.0
 10
119.815560
 20
171.467481
 30
0.0
 10
119.815560
 20
169.943481
 30
0.0
 10
122.862503
 20
169.943481
 30
0.0
  0
LWPOLYLINE
  5
16e
100
AcDbEntity
  8
Layer_1
 62
7
100
AcDbPolyline
 90
4
 70
1
 10
122.862503
 20
174.007130
 30
0.0
 10
119.815560
 20
174.007130
 30
0.0
 10
119.815560
 20
172.483129
 30
0.0
 10
122.862503
 20
172.483129
 30
0.0
  0
LWPOLYLINE
  5
16f
100
AcDbEntity
  8
Layer_1
 62
7
100
AcDbPolyline
 90
4
 70
1
 10
122.862503
 20
176.547132
 30
0.0
 10
119.815560
 20
176.547132
 30
0.0
 10
119.815560
 20
175.023131
 30
0.0
 10
122.862503
 20
175.023131
 30
0.0
  0
LWPOLYLINE
  5
170
100
AcDbEntity
  8
Layer_1
 62
7
100
AcDbPolyline
 90
4
 70
1
 10
118.545206
 20
166.388184
 30
0.0
 10
115.496852
 20
166.388184
 30
0.0
 10
115.496852
 20
164.864183
 30
0.0
 10
118.545206
 20
164.864183
 30
0.0
  0
LWPOLYLINE
  5
171
100
AcDbEntity
  8
Layer_1
 62
7
100
AcDbPolyline
 90
4
 70
1
 10
118.545206
 20
168.927833
 30
0.0
 10
115.496852
 20
168.927833
 30
0.0
 10
115.496852
 20
167.403832
 30
0.0
 10
118.545206
 20
167.403832
 30
0.0
  0
LWPOLYLINE
  5
172
100
AcDbEntity
  8
Layer_1
 62
7
100
AcDbPolyline
 90
4
 70
1
 10
118.545206
 20
171.467481
 30
0.0
 10
115.496852
 20
171.467481
 30
0.0
 10
115.496852
 20
169.943481
 30
0.0
 10
118.545206
 20
169.943481
 30
0.0
  0
LWPOLYLINE
  5
173
100
AcDbEntity
  8
Layer_1
 62
7
100
AcDbPolyline
 90
4
 70
1
 10
118.545206
 20
174.007130
 30
0.0
 10
115.496852
 20
174.007130
 30
0.0
 10
115.496852
 20
172.483129
 30
0.0
 10
118.545206
 20
172.483129
 30
0.0
  0
LWPOLYLINE
  5
174
100
AcDbEntity
  8
Layer_1
 62
7
100
AcDbPolyline
 90
4
 70
1
 10
118.545206
 20
176.547132
 30
0.0
 10
115.496852
 20
176.547132
 30
0.0
 10
115.496852
 20
175.023131
 30
0.0
 10
118.545206
 20
175.023131
 30
0.0
  0
LWPOLYLINE
  5
175
100
AcDbEntity
  8
Layer_1
 62
7
100
AcDbPolyline
 90
4
 70
1
 10
118.545206
 20
179.088192
 30
0.0
 10
115.496852
 20
179.088192
 30
0.0
 10
115.496852
 20
177.564191
 30
0.0
 10
118.545206
 20
177.564191
 30
0.0
  0
LWPOLYLINE
  5
176
100
AcDbEntity
  8
Layer_1
 62
7
100
AcDbPolyline
 90
4
 70
1
 10
118.545206
 20
181.627841
 30
0.0
 10
115.496852
 20
181.627841
 30
0.0
 10
115.496852
 20
180.103840
 30
0.0
 10
118.545206
 20
180.103840
 30
0.0
  0
LWPOLYLINE
  5
177
100
AcDbEntity
  8
Layer_1
 62
7
100
AcDbPolyline
 90
4
 70
1
 10
118.545206
 20
184.167489
 30
0.0
 10
115.496852
 20
184.167489
 30
0.0
 10
115.496852
 20
182.643489
 30
0.0
 10
118.545206
 20
182.643489
 30
0.0
  0
LWPOLYLINE
  5
178
100
AcDbEntity
  8
Layer_1
 62
7
100
AcDbPolyline
 90
4
 70
1
 10
89.636813
 20
199.142563
 30
0.0
 10
88.397857
 20
199.142563
 30
0.0
 10
88.397857
 20
197.640434
 30
0.0
 10
89.636813
 20
197.640434
 30
0.0
  0
LWPOLYLINE
  5
179
100
AcDbEntity
  8
Layer_1
 62
7
100
AcDbPolyline
 90
4
 70
1
 10
91.541109
 20
199.142563
 30
0.0
 10
90.298272
 20
199.142563
 30
0.0
 10
90.298272
 20
197.640434
 30
0.0
 10
91.541109
 20
197.640434
 30
0.0
  0
LWPOLYLINE
  5
17a
100
AcDbEntity
  8
Layer_1
 62
7
100
AcDbPolyline
 90
4
 70
1
 10
87.732165
 20
199.142563
 30
0.0
 10
86.487917
 20
199.142563
 30
0.0
 10
86.487917
 20
197.640434
 30
0.0
 10
87.732165
 20
197.640434
 30
0.0
  0
LWPOLYLINE
  5
17b
100
AcDbEntity
  8
Layer_1
 62
7
100
AcDbPolyline
 90
4
 70
1
 10
85.826458
 20
199.142563
 30
0.0
 10
84.588913
 20
199.142563
 30
0.0
 10
84.588913
 20
197.640434
 30
0.0
 10
85.826458
 20
197.640434
 30
0.0
  0
LWPOLYLINE
  5
17c
100
AcDbEntity
  8
Layer_1
 62
7
100
AcDbPolyline
 90
4
 70
1
 10
91.361897
 20
201.883648
 30
0.0
 10
89.958899
 20
201.883648
 30
0.0
 10
89.958899
 20
200.487705
 30
0.0
 10
91.361897
 20
200.487705
 30
0.0
  0
LWPOLYLINE
  5
17d
100
AcDbEntity
  8
Layer_1
 62
7
100
AcDbPolyline
 90
4
 70
1
 10
89.197252
 20
202.127417
 30
0.0
 10
87.695123
 20
202.127417
 30
0.0
 10
87.695123
 20
200.884581
 30
0.0
 10
89.197252
 20
200.884581
 30
0.0
  0
LWPOLYLINE
  5
17e
100
AcDbEntity
  8
Layer_1
 62
7
100
AcDbPolyline
 90
4
 70
1
 10
89.197252
 20
204.026421
 30
0.0
 10
87.695123
 20
204.026421
 30
0.0
 10
87.695123
 20
202.788876
 30
0.0
 10
89.197252
 20
202.788876
 30
0.0
  0
LWPOLYLINE
  5
17f
100
AcDbEntity
  8
Layer_1
 62
7
100
AcDbPolyline
 90
4
 70
1
 10
87.043189
 20
201.529459
 30
0.0
 10
85.843038
 20
201.529459
 30
0.0
 10
85.843038
 20
200.979478
 30
0.0
 10
87.043189
 20
200.979478
 30
0.0
  0
LWPOLYLINE
  5
180
100
AcDbEntity
  8
Layer_1
 62
7
100
AcDbPolyline
 90
4
 70
1
 10
87.043189
 20
202.476315
 30
0.0
 10
85.843038
 20
202.476315
 30
0.0
 10
85.843038
 20
201.926334
 30
0.0
 10
87.043189
 20
201.926334
 30
0.0
  0
LWPOLYLINE
  5
181
100
AcDbEntity
  8
Layer_1
 62
7
100
AcDbPolyline
 90
4
 70
1
 10
87.043189
 20
203.429874
 30
0.0
 10
85.843038
 20
203.429874
 30
0.0
 10
85.843038
 20
202.878835
 30
0.0
 10
87.043189
 20
202.878835
 30
0.0
  0
LWPOLYLINE
  5
182
100
AcDbEntity
  8
Layer_1
 62
7
100
AcDbPolyline
 90
4
 70
1
 10
97.399340
 20
202.217023
 30
0.0
 10
96.765398
 20
202.217023
 30
0.0
 10
96.765398
 20
201.201375
 30
0.0
 10
97.399340
 20
201.201375
 30
0.0
  0
LWPOLYLINE
  5
183
100
AcDbEntity
  8
Layer_1
 62
7
100
AcDbPolyline
 90
4
 70
1
 10
96.447192
 20
204.217980
 30
0.0
 10
95.811839
 20
204.217980
 30
0.0
 10
95.811839
 20
203.200921
 30
0.0
 10
96.447192
 20
203.200921
 30
0.0
  0
LWPOLYLINE
  5
184
100
AcDbEntity
  8
Layer_1
 62
7
100
AcDbPolyline
 90
4
 70
1
 10
98.347255
 20
204.217980
 30
0.0
 10
97.711901
 20
204.217980
 30
0.0
 10
97.711901
 20
203.200921
 30
0.0
 10
98.347255
 20
203.200921
 30
0.0
  0
LWPOLYLINE
  5
185
100
AcDbEntity
  8
Layer_1
 62
7
100
AcDbPolyline
 90
4
 70
1
 10
92.176462
 20
204.223624
 30
0.0
 10
90.938917
 20
204.223624
 30
0.0
 10
90.938917
 20
202.720084
 30
0.0
 10
92.176462
 20
202.720084
 30
0.0
  0
LWPOLYLINE
  5
186
100
AcDbEntity
  8
Layer_1
 62
7
100
AcDbPolyline
 90
4
 70
1
 10
94.082169
 20
204.223624
 30
0.0
 10
92.837921
 20
204.223624
 30
0.0
 10
92.837921
 20
202.720084
 30
0.0
 10
94.082169
 20
202.720084
 30
0.0
  0
LWPOLYLINE
  5
187
100
AcDbEntity
  8
Layer_1
 62
7
100
AcDbPolyline
 90
4
 70
1
 10
102.718527
 20
202.265354
 30
0.0
 10
101.474279
 20
202.265354
 30
0.0
 10
101.474279
 20
200.767458
 30
0.0
 10
102.718527
 20
200.767458
 30
0.0
  0
LWPOLYLINE
  5
188
100
AcDbEntity
  8
Layer_1
 62
7
100
AcDbPolyline
 90
4
 70
1
 10
100.812820
 20
202.265354
 30
0.0
 10
99.575275
 20
202.265354
 30
0.0
 10
99.575275
 20
200.767458
 30
0.0
 10
100.812820
 20
200.767458
 30
0.0
  0
LWPOLYLINE
  5
189
100
AcDbEntity
  8
Layer_1
 62
7
100
AcDbPolyline
 90
4
 70
1
 10
102.797196
 20
204.583105
 30
0.0
 10
101.595634
 20
204.583105
 30
0.0
 10
101.595634
 20
203.381543
 30
0.0
 10
102.797196
 20
203.381543
 30
0.0
  0
LWPOLYLINE
  5
18a
100
AcDbEntity
  8
Layer_1
 62
7
100
AcDbPolyline
 90
4
 70
1
 10
100.696756
 20
204.583105
 30
0.0
 10
99.495194
 20
204.583105
 30
0.0
 10
99.495194
 20
203.381543
 30
0.0
 10
100.696756
 20
203.381543
 30
0.0
  0
LWPOLYLINE
  5
18b
100
AcDbEntity
  8
Layer_1
 62
7
100
AcDbPolyline
 90
4
 70
1
 10
100.003900
 20
199.407146
 30
0.0
 10
97.462840
 20
199.407146
 30
0.0
 10
97.462840
 20
197.883145
 30
0.0
 10
100.003900
 20
197.883145
 30
0.0
  0
LWPOLYLINE
  5
18c
100
AcDbEntity
  8
Layer_1
 62
7
100
AcDbPolyline
 90
4
 70
1
 10
102.914319
 20
199.709124
 30
0.0
 10
101.410779
 20
199.709124
 30
0.0
 10
101.410779
 20
198.470168
 30
0.0
 10
102.914319
 20
198.470168
 30
0.0
  0
LWPOLYLINE
  5
18d
100
AcDbEntity
  8
Layer_1
 62
7
100
AcDbPolyline
 90
4
 70
1
 10
102.914319
 20
197.808709
 30
0.0
 10
101.410779
 20
197.808709
 30
0.0
 10
101.410779
 20
196.565872
 30
0.0
 10
102.914319
 20
196.565872
 30
0.0
  0
LWPOLYLINE
  5
18e
100
AcDbEntity
  8
Layer_1
 62
7
100
AcDbPolyline
 90
4
 70
1
 10
95.060775
 20
201.883648
 30
0.0
 10
93.657777
 20
201.883648
 30
0.0
 10
93.657777
 20
200.487705
 30
0.0
 10
95.060775
 20
200.487705
 30
0.0
  0
LWPOLYLINE
  5
18f
100
AcDbEntity
  8
Layer_1
 62
7
100
AcDbPolyline
 90
4
 70
1
 10
95.177897
 20
199.407146
 30
0.0
 10
92.636837
 20
199.407146
 30
0.0
 10
92.636837
 20
197.883145
 30
0.0
 10
95.177897
 20
197.883145
 30
0.0
  0
LWPOLYLINE
  5
190
100
AcDbEntity
  8
Layer_1
 62
7
100
AcDbPolyline
 90
4
 70
1
 10
95.177897
 20
196.867497
 30
0.0
 10
92.636837
 20
196.867497
 30
0.0
 10
92.636837
 20
195.343497
 30
0.0
 10
95.177897
 20
195.343497
 30
0.0
  0
LWPOLYLINE
  5
191
100
AcDbEntity
  8
Layer_1
 62
7
100
AcDbPolyline
 90
4
 70
1
 10
95.684839
 20
194.327849
 30
0.0
 10
92.636484
 20
194.327849
 30
0.0
 10
92.636484
 20
192.803848
 30
0.0
 10
95.684839
 20
192.803848
 30
0.0
  0
LWPOLYLINE
  5
192
100
AcDbEntity
  8
Layer_1
 62
7
100
AcDbPolyline
 90
4
 70
1
 10
95.684839
 20
191.788200
 30
0.0
 10
92.636484
 20
191.788200
 30
0.0
 10
92.636484
 20
190.264199
 30
0.0
 10
95.684839
 20
190.264199
 30
0.0
  0
LWPOLYLINE
  5
193
100
AcDbEntity
  8
Layer_1
 62
7
100
AcDbPolyline
 90
4
 70
1
 10
84.445685
 20
203.429874
 30
0.0
 10
83.244123
 20
203.429874
 30
0.0
 10
83.244123
 20
202.878835
 30
0.0
 10
84.445685
 20
202.878835
 30
0.0
  0
LWPOLYLINE
  5
194
100
AcDbEntity
  8
Layer_1
 62
7
100
AcDbPolyline
 90
4
 70
1
 10
84.445685
 20
201.529459
 30
0.0
 10
83.244123
 20
201.529459
 30
0.0
 10
83.244123
 20
200.979478
 30
0.0
 10
84.445685
 20
200.979478
 30
0.0
  0
LWPOLYLINE
  5
195
100
AcDbEntity
  8
Layer_1
 62
7
100
AcDbPolyline
 90
4
 70
1
 10
82.519164
 20
204.635669
 30
0.0
 10
80.815952
 20
204.635669
 30
0.0
 10
80.815952
 20
200.937144
 30
0.0
 10
82.519164
 20
200.937144
 30
0.0
  0
LWPOLYLINE
  5
196
100
AcDbEntity
  8
Layer_1
 62
7
100
AcDbPolyline
 90
4
 70
1
 10
76.619658
 20
204.635669
 30
0.0
 10
74.915034
 20
204.635669
 30
0.0
 10
74.915034
 20
200.937144
 30
0.0
 10
76.619658
 20
200.937144
 30
0.0
  0
LWPOLYLINE
  5
197
100
AcDbEntity
  8
Layer_1
 62
7
100
AcDbPolyline
 90
4
 70
1
 10
110.147326
 20
149.067490
 30
0.0
 10
109.850992
 20
149.067490
 30
0.0
 10
109.850992
 20
147.867339
 30
0.0
 10
110.147326
 20
147.867339
 30
0.0
  0
LWPOLYLINE
  5
198
100
AcDbEntity
  8
Layer_1
 62
7
100
AcDbPolyline
 90
4
 70
1
 10
109.649909
 20
149.067490
 30
0.0
 10
109.348284
 20
149.067490
 30
0.0
 10
109.348284
 20
147.867339
 30
0.0
 10
109.649909
 20
147.867339
 30
0.0
  0
LWPOLYLINE
  5
199
100
AcDbEntity
  8
Layer_1
 62
7
100
AcDbPolyline
 90
4
 70
1
 10
109.147200
 20
149.067490
 30
0.0
 10
108.850867
 20
149.067490
 30
0.0
 10
108.850867
 20
147.867339
 30
0.0
 10
109.147200
 20
147.867339
 30
0.0
  0
LWPOLYLINE
  5
19a
100
AcDbEntity
  8
Layer_1
 62
7
100
AcDbPolyline
 90
4
 70
1
 10
108.649431
 20
149.067490
 30
0.0
 10
108.347805
 20
149.067490
 30
0.0
 10
108.347805
 20
147.867339
 30
0.0
 10
108.649431
 20
147.867339
 30
0.0
  0
LWPOLYLINE
  5
19b
100
AcDbEntity
  8
Layer_1
 62
7
100
AcDbPolyline
 90
4
 70
1
 10
114.047287
 20
145.665299
 30
0.0
 10
112.851017
 20
145.665299
 30
0.0
 10
112.851017
 20
145.368965
 30
0.0
 10
114.047287
 20
145.368965
 30
0.0
  0
LWPOLYLINE
  5
19c
100
AcDbEntity
  8
Layer_1
 62
7
100
AcDbPolyline
 90
4
 70
1
 10
114.047287
 20
146.168007
 30
0.0
 10
112.851017
 20
146.168007
 30
0.0
 10
112.851017
 20
145.866382
 30
0.0
 10
114.047287
 20
145.866382
 30
0.0
  0
LWPOLYLINE
  5
19d
100
AcDbEntity
  8
Layer_1
 62
7
100
AcDbPolyline
 90
4
 70
1
 10
114.047287
 20
146.665424
 30
0.0
 10
112.851017
 20
146.665424
 30
0.0
 10
112.851017
 20
146.369091
 30
0.0
 10
114.047287
 20
146.369091
 30
0.0
  0
LWPOLYLINE
  5
19e
100
AcDbEntity
  8
Layer_1
 62
7
100
AcDbPolyline
 90
4
 70
1
 10
111.649455
 20
149.067490
 30
0.0
 10
111.348888
 20
149.067490
 30
0.0
 10
111.348888
 20
147.867339
 30
0.0
 10
111.649455
 20
147.867339
 30
0.0
  0
LWPOLYLINE
  5
19f
100
AcDbEntity
  8
Layer_1
 62
7
100
AcDbPolyline
 90
4
 70
1
 10
111.147804
 20
149.067490
 30
0.0
 10
110.851471
 20
149.067490
 30
0.0
 10
110.851471
 20
147.867339
 30
0.0
 10
111.147804
 20
147.867339
 30
0.0
  0
LWPOLYLINE
  5
1a0
100
AcDbEntity
  8
Layer_1
 62
7
100
AcDbPolyline
 90
4
 70
1
 10
110.650387
 20
149.067490
 30
0.0
 10
110.348762
 20
149.067490
 30
0.0
 10
110.348762
 20
147.867339
 30
0.0
 10
110.650387
 20
147.867339
 30
0.0
  0
LWPOLYLINE
  5
1a1
100
AcDbEntity
  8
Layer_1
 62
7
100
AcDbPolyline
 90
4
 70
1
 10
102.649735
 20
146.665424
 30
0.0
 10
101.448173
 20
146.665424
 30
0.0
 10
101.448173
 20
146.369091
 30
0.0
 10
102.649735
 20
146.369091
 30
0.0
  0
LWPOLYLINE
  5
1a2
100
AcDbEntity
  8
Layer_1
 62
7
100
AcDbPolyline
 90
4
 70
1
 10
105.649406
 20
149.067490
 30
0.0
 10
105.347781
 20
149.067490
 30
0.0
 10
105.347781
 20
147.867339
 30
0.0
 10
105.649406
 20
147.867339
 30
0.0
  0
LWPOLYLINE
  5
1a3
100
AcDbEntity
  8
Layer_1
 62
7
100
AcDbPolyline
 90
4
 70
1
 10
105.151989
 20
149.067490
 30
0.0
 10
104.850364
 20
149.067490
 30
0.0
 10
104.850364
 20
147.867339
 30
0.0
 10
105.151989
 20
147.867339
 30
0.0
  0
LWPOLYLINE
  5
1a4
100
AcDbEntity
  8
Layer_1
 62
7
100
AcDbPolyline
 90
4
 70
1
 10
104.649281
 20
149.067490
 30
0.0
 10
104.347656
 20
149.067490
 30
0.0
 10
104.347656
 20
147.867339
 30
0.0
 10
104.649281
 20
147.867339
 30
0.0
  0
LWPOLYLINE
  5
1a5
100
AcDbEntity
  8
Layer_1
 62
7
100
AcDbPolyline
 90
4
 70
1
 10
104.151511
 20
149.067490
 30
0.0
 10
103.849886
 20
149.067490
 30
0.0
 10
103.849886
 20
147.867339
 30
0.0
 10
104.151511
 20
147.867339
 30
0.0
  0
LWPOLYLINE
  5
1a6
100
AcDbEntity
  8
Layer_1
 62
7
100
AcDbPolyline
 90
4
 70
1
 10
108.146722
 20
149.067490
 30
0.0
 10
107.850388
 20
149.067490
 30
0.0
 10
107.850388
 20
147.867339
 30
0.0
 10
108.146722
 20
147.867339
 30
0.0
  0
LWPOLYLINE
  5
1a7
100
AcDbEntity
  8
Layer_1
 62
7
100
AcDbPolyline
 90
4
 70
1
 10
107.648952
 20
149.067490
 30
0.0
 10
107.348385
 20
149.067490
 30
0.0
 10
107.348385
 20
147.867339
 30
0.0
 10
107.648952
 20
147.867339
 30
0.0
  0
LWPOLYLINE
  5
1a8
100
AcDbEntity
  8
Layer_1
 62
7
100
AcDbPolyline
 90
4
 70
1
 10
107.147655
 20
149.067490
 30
0.0
 10
106.851321
 20
149.067490
 30
0.0
 10
106.851321
 20
147.867339
 30
0.0
 10
107.147655
 20
147.867339
 30
0.0
  0
LWPOLYLINE
  5
1a9
100
AcDbEntity
  8
Layer_1
 62
7
100
AcDbPolyline
 90
4
 70
1
 10
106.649885
 20
149.067490
 30
0.0
 10
106.348260
 20
149.067490
 30
0.0
 10
106.348260
 20
147.867339
 30
0.0
 10
106.649885
 20
147.867339
 30
0.0
  0
LWPOLYLINE
  5
1aa
100
AcDbEntity
  8
Layer_1
 62
7
100
AcDbPolyline
 90
4
 70
1
 10
106.147176
 20
149.067490
 30
0.0
 10
105.850843
 20
149.067490
 30
0.0
 10
105.850843
 20
147.867339
 30
0.0
 10
106.147176
 20
147.867339
 30
0.0
  0
LWPOLYLINE
  5
1ab
100
AcDbEntity
  8
Layer_1
 62
7
100
AcDbPolyline
 90
4
 70
1
 10
102.649735
 20
146.168007
 30
0.0
 10
101.448173
 20
146.168007
 30
0.0
 10
101.448173
 20
145.866382
 30
0.0
 10
102.649735
 20
145.866382
 30
0.0
  0
LWPOLYLINE
  5
1ac
100
AcDbEntity
  8
Layer_1
 62
7
100
AcDbPolyline
 90
4
 70
1
 10
102.649735
 20
145.665299
 30
0.0
 10
101.448173
 20
145.665299
 30
0.0
 10
101.448173
 20
145.368965
 30
0.0
 10
102.649735
 20
145.368965
 30
0.0
  0
LWPOLYLINE
  5
1ad
100
AcDbEntity
  8
Layer_1
 62
7
100
AcDbPolyline
 90
4
 70
1
 10
98.341963
 20
147.638386
 30
0.0
 10
96.838423
 20
147.638386
 30
0.0
 10
96.838423
 20
146.400841
 30
0.0
 10
98.341963
 20
146.400841
 30
0.0
  0
LWPOLYLINE
  5
1ae
100
AcDbEntity
  8
Layer_1
 62
7
100
AcDbPolyline
 90
4
 70
1
 10
95.801961
 20
147.638386
 30
0.0
 10
94.298422
 20
147.638386
 30
0.0
 10
94.298422
 20
146.400841
 30
0.0
 10
95.801961
 20
146.400841
 30
0.0
  0
LWPOLYLINE
  5
1af
100
AcDbEntity
  8
Layer_1
 62
7
100
AcDbPolyline
 90
4
 70
1
 10
109.247742
 20
201.535103
 30
0.0
 10
108.850867
 20
201.535103
 30
0.0
 10
108.850867
 20
200.186080
 30
0.0
 10
109.247742
 20
200.186080
 30
0.0
  0
LWPOLYLINE
  5
1b0
100
AcDbEntity
  8
Layer_1
 62
7
100
AcDbPolyline
 90
4
 70
1
 10
108.597219
 20
201.535103
 30
0.0
 10
108.200344
 20
201.535103
 30
0.0
 10
108.200344
 20
200.186080
 30
0.0
 10
108.597219
 20
200.186080
 30
0.0
  0
LWPOLYLINE
  5
1b1
100
AcDbEntity
  8
Layer_1
 62
7
100
AcDbPolyline
 90
4
 70
1
 10
111.749996
 20
201.783106
 30
0.0
 10
110.147326
 20
201.783106
 30
0.0
 10
110.147326
 20
200.387164
 30
0.0
 10
111.749996
 20
200.387164
 30
0.0
  0
LWPOLYLINE
  5
1b2
100
AcDbEntity
  8
Layer_1
 62
7
100
AcDbPolyline
 90
4
 70
1
 10
109.897912
 20
204.488208
 30
0.0
 10
107.998908
 20
204.488208
 30
0.0
 10
107.998908
 20
202.587793
 30
0.0
 10
109.897912
 20
202.587793
 30
0.0
  0
LWPOLYLINE
  5
1b3
100
AcDbEntity
  8
Layer_1
 62
7
100
AcDbPolyline
 90
4
 70
1
 10
113.935809
 20
204.614855
 30
0.0
 10
112.735658
 20
204.614855
 30
0.0
 10
112.735658
 20
203.413293
 30
0.0
 10
113.935809
 20
203.413293
 30
0.0
  0
LWPOLYLINE
  5
1b4
100
AcDbEntity
  8
Layer_1
 62
7
100
AcDbPolyline
 90
4
 70
1
 10
113.935809
 20
202.513357
 30
0.0
 10
112.735658
 20
202.513357
 30
0.0
 10
112.735658
 20
201.313206
 30
0.0
 10
113.935809
 20
201.313206
 30
0.0
  0
LWPOLYLINE
  5
1b5
100
AcDbEntity
  8
Layer_1
 62
7
100
AcDbPolyline
 90
4
 70
1
 10
107.950930
 20
201.535103
 30
0.0
 10
107.548410
 20
201.535103
 30
0.0
 10
107.548410
 20
200.186080
 30
0.0
 10
107.950930
 20
200.186080
 30
0.0
  0
LWPOLYLINE
  5
1b6
100
AcDbEntity
  8
Layer_1
 62
7
100
AcDbPolyline
 90
4
 70
1
 10
107.300407
 20
201.535103
 30
0.0
 10
106.897888
 20
201.535103
 30
0.0
 10
106.897888
 20
200.186080
 30
0.0
 10
107.300407
 20
200.186080
 30
0.0
  0
LWPOLYLINE
  5
1b7
100
AcDbEntity
  8
Layer_1
 62
7
100
AcDbPolyline
 90
4
 70
1
 10
106.649885
 20
201.535103
 30
0.0
 10
106.247365
 20
201.535103
 30
0.0
 10
106.247365
 20
200.186080
 30
0.0
 10
106.649885
 20
200.186080
 30
0.0
  0
LWPOLYLINE
  5
1b8
100
AcDbEntity
  8
Layer_1
 62
7
100
AcDbPolyline
 90
4
 70
1
 10
105.347781
 20
201.783106
 30
0.0
 10
103.749344
 20
201.783106
 30
0.0
 10
103.749344
 20
200.387164
 30
0.0
 10
105.347781
 20
200.387164
 30
0.0
  0
LWPOLYLINE
  5
1b9
100
AcDbEntity
  8
Layer_1
 62
7
100
AcDbPolyline
 90
4
 70
1
 10
107.501491
 20
204.488208
 30
0.0
 10
105.601076
 20
204.488208
 30
0.0
 10
105.601076
 20
202.587793
 30
0.0
 10
107.501491
 20
202.587793
 30
0.0
  0
LWPOLYLINE
  5
1ba
100
AcDbEntity
  8
Layer_1
 62
7
100
AcDbPolyline
 90
4
 70
1
 10
104.945262
 20
199.709124
 30
0.0
 10
103.443133
 20
199.709124
 30
0.0
 10
103.443133
 20
198.470168
 30
0.0
 10
104.945262
 20
198.470168
 30
0.0
  0
LWPOLYLINE
  5
1bb
100
AcDbEntity
  8
Layer_1
 62
7
100
AcDbPolyline
 90
4
 70
1
 10
104.945262
 20
197.808709
 30
0.0
 10
103.443133
 20
197.808709
 30
0.0
 10
103.443133
 20
196.565872
 30
0.0
 10
104.945262
 20
196.565872
 30
0.0
  0
LWPOLYLINE
  5
1bc
100
AcDbEntity
  8
Layer_1
 62
7
100
AcDbPolyline
 90
4
 70
1
 10
118.793209
 20
195.829977
 30
0.0
 10
114.194748
 20
195.829977
 30
0.0
 10
114.194748
 20
194.830910
 30
0.0
 10
118.793209
 20
194.830910
 30
0.0
  0
LWPOLYLINE
  5
1bd
100
AcDbEntity
  8
Layer_1
 62
7
100
AcDbPolyline
 90
4
 70
1
 10
118.793209
 20
193.830432
 30
0.0
 10
114.194748
 20
193.830432
 30
0.0
 10
114.194748
 20
192.829953
 30
0.0
 10
118.793209
 20
192.829953
 30
0.0
  0
LWPOLYLINE
  5
1be
100
AcDbEntity
  8
Layer_1
 62
7
100
AcDbPolyline
 90
4
 70
1
 10
123.397315
 20
198.529435
 30
0.0
 10
119.994771
 20
198.529435
 30
0.0
 10
119.994771
 20
196.930998
 30
0.0
 10
123.397315
 20
196.930998
 30
0.0
  0
LWPOLYLINE
  5
1bf
100
AcDbEntity
  8
Layer_1
 62
7
100
AcDbPolyline
 90
4
 70
1
 10
123.397315
 20
191.728933
 30
0.0
 10
119.994771
 20
191.728933
 30
0.0
 10
119.994771
 20
190.126263
 30
0.0
 10
123.397315
 20
190.126263
 30
0.0
  0
LWPOLYLINE
  5
1c0
100
AcDbEntity
  8
Layer_1
 62
7
100
AcDbPolyline
 90
4
 70
1
 10
118.036853
 20
186.707138
 30
0.0
 10
115.497204
 20
186.707138
 30
0.0
 10
115.497204
 20
185.183137
 30
0.0
 10
118.036853
 20
185.183137
 30
0.0
  0
LWPOLYLINE
  5
1c1
100
AcDbEntity
  8
Layer_1
 62
7
100
AcDbPolyline
 90
4
 70
1
 10
122.862503
 20
186.707138
 30
0.0
 10
120.322855
 20
186.707138
 30
0.0
 10
120.322855
 20
185.183137
 30
0.0
 10
122.862503
 20
185.183137
 30
0.0
  0
LWPOLYLINE
  5
1c2
100
AcDbEntity
  8
Layer_1
 62
7
100
AcDbPolyline
 90
4
 70
1
 10
118.036853
 20
189.247140
 30
0.0
 10
115.497204
 20
189.247140
 30
0.0
 10
115.497204
 20
187.723139
 30
0.0
 10
118.036853
 20
187.723139
 30
0.0
  0
LWPOLYLINE
  5
1c3
100
AcDbEntity
  8
Layer_1
 62
7
100
AcDbPolyline
 90
4
 70
1
 10
122.862503
 20
189.247140
 30
0.0
 10
120.322855
 20
189.247140
 30
0.0
 10
120.322855
 20
187.723139
 30
0.0
 10
122.862503
 20
187.723139
 30
0.0
  0
LWPOLYLINE
  5
1c4
100
AcDbEntity
  8
Layer_1
 62
7
100
AcDbPolyline
 90
4
 70
1
 10
121.386833
 20
200.439375
 30
0.0
 10
120.147877
 20
200.439375
 30
0.0
 10
120.147877
 20
198.935835
 30
0.0
 10
121.386833
 20
198.935835
 30
0.0
  0
LWPOLYLINE
  5
1c5
100
AcDbEntity
  8
Layer_1
 62
7
100
AcDbPolyline
 90
4
 70
1
 10
123.291129
 20
200.439375
 30
0.0
 10
122.048292
 20
200.439375
 30
0.0
 10
122.048292
 20
198.935835
 30
0.0
 10
123.291129
 20
198.935835
 30
0.0
  0
LWPOLYLINE
  5
1c6
100
AcDbEntity
  8
Layer_1
 62
7
100
AcDbPolyline
 90
4
 70
1
 10
123.488332
 20
202.127417
 30
0.0
 10
121.984792
 20
202.127417
 30
0.0
 10
121.984792
 20
200.884581
 30
0.0
 10
123.488332
 20
200.884581
 30
0.0
  0
LWPOLYLINE
  5
1c7
100
AcDbEntity
  8
Layer_1
 62
7
100
AcDbPolyline
 90
4
 70
1
 10
123.488332
 20
204.026421
 30
0.0
 10
121.984792
 20
204.026421
 30
0.0
 10
121.984792
 20
202.788876
 30
0.0
 10
123.488332
 20
202.788876
 30
0.0
  0
LWPOLYLINE
  5
1c8
100
AcDbEntity
  8
Layer_1
 62
7
100
AcDbPolyline
 90
4
 70
1
 10
120.947272
 20
202.127417
 30
0.0
 10
119.445143
 20
202.127417
 30
0.0
 10
119.445143
 20
200.884581
 30
0.0
 10
120.947272
 20
200.884581
 30
0.0
  0
LWPOLYLINE
  5
1c9
100
AcDbEntity
  8
Layer_1
 62
7
100
AcDbPolyline
 90
4
 70
1
 10
118.407623
 20
202.127417
 30
0.0
 10
116.905494
 20
202.127417
 30
0.0
 10
116.905494
 20
200.884581
 30
0.0
 10
118.407623
 20
200.884581
 30
0.0
  0
LWPOLYLINE
  5
1ca
100
AcDbEntity
  8
Layer_1
 62
7
100
AcDbPolyline
 90
4
 70
1
 10
118.407623
 20
204.026421
 30
0.0
 10
116.905494
 20
204.026421
 30
0.0
 10
116.905494
 20
202.788876
 30
0.0
 10
118.407623
 20
202.788876
 30
0.0
  0
LWPOLYLINE
  5
1cb
100
AcDbEntity
  8
Layer_1
 62
7
100
AcDbPolyline
 90
4
 70
1
 10
120.947272
 20
204.026421
 30
0.0
 10
119.445143
 20
204.026421
 30
0.0
 10
119.445143
 20
202.788876
 30
0.0
 10
120.947272
 20
202.788876
 30
0.0
  0
LWPOLYLINE
  5
1cc
100
AcDbEntity
  8
Layer_1
 62
7
100
AcDbPolyline
 90
4
 70
1
 10
115.968163
 20
204.614855
 30
0.0
 10
114.766601
 20
204.614855
 30
0.0
 10
114.766601
 20
203.413293
 30
0.0
 10
115.968163
 20
203.413293
 30
0.0
  0
LWPOLYLINE
  5
1cd
100
AcDbEntity
  8
Layer_1
 62
7
100
AcDbPolyline
 90
4
 70
1
 10
115.968163
 20
202.513357
 30
0.0
 10
114.766601
 20
202.513357
 30
0.0
 10
114.766601
 20
201.313206
 30
0.0
 10
115.968163
 20
201.313206
 30
0.0
  0
LWPOLYLINE
  5
1ce
100
AcDbEntity
  8
Layer_1
 62
7
100
AcDbPolyline
 90
4
 70
1
 10
100.003900
 20
196.867497
 30
0.0
 10
97.462840
 20
196.867497
 30
0.0
 10
97.462840
 20
195.343497
 30
0.0
 10
100.003900
 20
195.343497
 30
0.0
  0
LWPOLYLINE
  5
1cf
100
AcDbEntity
  8
Layer_1
 62
7
100
AcDbPolyline
 90
4
 70
1
 10
100.003900
 20
194.327849
 30
0.0
 10
96.955545
 20
194.327849
 30
0.0
 10
96.955545
 20
192.803848
 30
0.0
 10
100.003900
 20
192.803848
 30
0.0
  0
LWPOLYLINE
  5
1d0
100
AcDbEntity
  8
Layer_1
 62
7
100
AcDbPolyline
 90
4
 70
1
 10
100.003900
 20
191.788200
 30
0.0
 10
96.955545
 20
191.788200
 30
0.0
 10
96.955545
 20
190.264199
 30
0.0
 10
100.003900
 20
190.264199
 30
0.0
  0
LWPOLYLINE
  5
1d1
100
AcDbEntity
  8
Layer_1
 62
7
100
AcDbPolyline
 90
4
 70
1
 10
100.003900
 20
189.247140
 30
0.0
 10
96.955545
 20
189.247140
 30
0.0
 10
96.955545
 20
187.723139
 30
0.0
 10
100.003900
 20
187.723139
 30
0.0
  0
LWPOLYLINE
  5
1d2
100
AcDbEntity
  8
Layer_1
 62
7
100
AcDbPolyline
 90
4
 70
1
 10
95.684839
 20
189.247140
 30
0.0
 10
92.636484
 20
189.247140
 30
0.0
 10
92.636484
 20
187.723139
 30
0.0
 10
95.684839
 20
187.723139
 30
0.0
  0
LWPOLYLINE
  5
1d3
100
AcDbEntity
  8
Layer_1
 62
7
100
AcDbPolyline
 90
4
 70
1
 10
100.003900
 20
186.707138
 30
0.0
 10
96.955545
 20
186.707138
 30
0.0
 10
96.955545
 20
185.183137
 30
0.0
 10
100.003900
 20
185.183137
 30
0.0
  0
LWPOLYLINE
  5
1d4
100
AcDbEntity
  8
Layer_1
 62
7
100
AcDbPolyline
 90
4
 70
1
 10
95.684839
 20
186.707138
 30
0.0
 10
92.636484
 20
186.707138
 30
0.0
 10
92.636484
 20
185.183137
 30
0.0
 10
95.684839
 20
185.183137
 30
0.0
  0
LWPOLYLINE
  5
1d5
100
AcDbEntity
  8
Layer_1
 62
7
100
AcDbPolyline
 90
4
 70
1
 10
95.684839
 20
184.167489
 30
0.0
 10
92.636484
 20
184.167489
 30
0.0
 10
92.636484
 20
182.643489
 30
0.0
 10
95.684839
 20
182.643489
 30
0.0
  0
LWPOLYLINE
  5
1d6
100
AcDbEntity
  8
Layer_1
 62
7
100
AcDbPolyline
 90
4
 70
1
 10
100.003900
 20
184.167489
 30
0.0
 10
96.955545
 20
184.167489
 30
0.0
 10
96.955545
 20
182.643489
 30
0.0
 10
100.003900
 20
182.643489
 30
0.0
  0
LWPOLYLINE
  5
1d7
100
AcDbEntity
  8
Layer_1
 62
7
100
AcDbPolyline
 90
4
 70
1
 10
100.003900
 20
181.627841
 30
0.0
 10
96.955545
 20
181.627841
 30
0.0
 10
96.955545
 20
180.103840
 30
0.0
 10
100.003900
 20
180.103840
 30
0.0
  0
LWPOLYLINE
  5
1d8
100
AcDbEntity
  8
Layer_1
 62
7
100
AcDbPolyline
 90
4
 70
1
 10
95.684839
 20
181.627841
 30
0.0
 10
92.636484
 20
181.627841
 30
0.0
 10
92.636484
 20
180.103840
 30
0.0
 10
95.684839
 20
180.103840
 30
0.0
  0
LWPOLYLINE
  5
1d9
100
AcDbEntity
  8
Layer_1
 62
7
100
AcDbPolyline
 90
4
 70
1
 10
100.003900
 20
179.088192
 30
0.0
 10
96.955545
 20
179.088192
 30
0.0
 10
96.955545
 20
177.564191
 30
0.0
 10
100.003900
 20
177.564191
 30
0.0
  0
LWPOLYLINE
  5
1da
100
AcDbEntity
  8
Layer_1
 62
7
100
AcDbPolyline
 90
4
 70
1
 10
95.684839
 20
179.088192
 30
0.0
 10
92.636484
 20
179.088192
 30
0.0
 10
92.636484
 20
177.564191
 30
0.0
 10
95.684839
 20
177.564191
 30
0.0
  0
LWPOLYLINE
  5
1db
100
AcDbEntity
  8
Layer_1
 62
7
100
AcDbPolyline
 90
4
 70
1
 10
100.003900
 20
176.547132
 30
0.0
 10
96.955545
 20
176.547132
 30
0.0
 10
96.955545
 20
175.023131
 30
0.0
 10
100.003900
 20
175.023131
 30
0.0
  0
LWPOLYLINE
  5
1dc
100
AcDbEntity
  8
Layer_1
 62
7
100
AcDbPolyline
 90
4
 70
1
 10
95.684839
 20
176.547132
 30
0.0
 10
92.636484
 20
176.547132
 30
0.0
 10
92.636484
 20
175.023131
 30
0.0
 10
95.684839
 20
175.023131
 30
0.0
  0
LWPOLYLINE
  5
1dd
100
AcDbEntity
  8
Layer_1
 62
7
100
AcDbPolyline
 90
4
 70
1
 10
95.684839
 20
174.007130
 30
0.0
 10
92.636484
 20
174.007130
 30
0.0
 10
92.636484
 20
172.483129
 30
0.0
 10
95.684839
 20
172.483129
 30
0.0
  0
LWPOLYLINE
  5
1de
100
AcDbEntity
  8
Layer_1
 62
7
100
AcDbPolyline
 90
4
 70
1
 10
100.003900
 20
174.007130
 30
0.0
 10
96.955545
 20
174.007130
 30
0.0
 10
96.955545
 20
172.483129
 30
0.0
 10
100.003900
 20
172.483129
 30
0.0
  0
LWPOLYLINE
  5
1df
100
AcDbEntity
  8
Layer_1
 62
7
100
AcDbPolyline
 90
4
 70
1
 10
100.003900
 20
171.467481
 30
0.0
 10
96.955545
 20
171.467481
 30
0.0
 10
96.955545
 20
169.943481
 30
0.0
 10
100.003900
 20
169.943481
 30
0.0
  0
LWPOLYLINE
  5
1e0
100
AcDbEntity
  8
Layer_1
 62
7
100
AcDbPolyline
 90
4
 70
1
 10
95.684839
 20
171.467481
 30
0.0
 10
92.636484
 20
171.467481
 30
0.0
 10
92.636484
 20
169.943481
 30
0.0
 10
95.684839
 20
169.943481
 30
0.0
  0
LWPOLYLINE
  5
1e1
100
AcDbEntity
  8
Layer_1
 62
7
100
AcDbPolyline
 90
4
 70
1
 10
100.003900
 20
168.927833
 30
0.0
 10
96.955545
 20
168.927833
 30
0.0
 10
96.955545
 20
167.403832
 30
0.0
 10
100.003900
 20
167.403832
 30
0.0
  0
LWPOLYLINE
  5
1e2
100
AcDbEntity
  8
Layer_1
 62
7
100
AcDbPolyline
 90
4
 70
1
 10
95.684839
 20
168.927833
 30
0.0
 10
92.636484
 20
168.927833
 30
0.0
 10
92.636484
 20
167.403832
 30
0.0
 10
95.684839
 20
167.403832
 30
0.0
  0
LWPOLYLINE
  5
1e3
100
AcDbEntity
  8
Layer_1
 62
7
100
AcDbPolyline
 90
4
 70
1
 10
100.003900
 20
166.388184
 30
0.0
 10
96.955545
 20
166.388184
 30
0.0
 10
96.955545
 20
164.864183
 30
0.0
 10
100.003900
 20
164.864183
 30
0.0
  0
LWPOLYLINE
  5
1e4
100
AcDbEntity
  8
Layer_1
 62
7
100
AcDbPolyline
 90
4
 70
1
 10
95.684839
 20
166.388184
 30
0.0
 10
92.636484
 20
166.388184
 30
0.0
 10
92.636484
 20
164.864183
 30
0.0
 10
95.684839
 20
164.864183
 30
0.0
  0
LWPOLYLINE
  5
1e5
100
AcDbEntity
  8
Layer_1
 62
7
100
AcDbPolyline
 90
4
 70
1
 10
100.003900
 20
163.847124
 30
0.0
 10
97.462840
 20
163.847124
 30
0.0
 10
97.462840
 20
162.323123
 30
0.0
 10
100.003900
 20
162.323123
 30
0.0
  0
LWPOLYLINE
  5
1e6
100
AcDbEntity
  8
Layer_1
 62
7
100
AcDbPolyline
 90
4
 70
1
 10
95.177897
 20
163.847124
 30
0.0
 10
92.636837
 20
163.847124
 30
0.0
 10
92.636837
 20
162.323123
 30
0.0
 10
95.177897
 20
162.323123
 30
0.0
  0
LWPOLYLINE
  5
1e7
100
AcDbEntity
  8
Layer_1
 62
7
100
AcDbPolyline
 90
4
 70
1
 10
100.003900
 20
161.307122
 30
0.0
 10
97.462840
 20
161.307122
 30
0.0
 10
97.462840
 20
159.783121
 30
0.0
 10
100.003900
 20
159.783121
 30
0.0
  0
LWPOLYLINE
  5
1e8
100
AcDbEntity
  8
Layer_1
 62
7
100
AcDbPolyline
 90
4
 70
1
 10
95.177897
 20
161.307122
 30
0.0
 10
92.636837
 20
161.307122
 30
0.0
 10
92.636837
 20
159.783121
 30
0.0
 10
95.177897
 20
159.783121
 30
0.0
  0
LWPOLYLINE
  5
1e9
100
AcDbEntity
  8
Layer_1
 62
7
100
AcDbPolyline
 90
4
 70
1
 10
129.583277
 20
172.827793
 30
0.0
 10
128.334796
 20
172.827793
 30
0.0
 10
128.334796
 20
172.552274
 30
0.0
 10
129.583277
 20
172.552274
 30
0.0
  0
LWPOLYLINE
  5
1ea
100
AcDbEntity
  8
Layer_1
 62
7
100
AcDbPolyline
 90
4
 70
1
 10
129.583277
 20
172.330024
 30
0.0
 10
128.334796
 20
172.330024
 30
0.0
 10
128.334796
 20
172.054504
 30
0.0
 10
129.583277
 20
172.054504
 30
0.0
  0
LWPOLYLINE
  5
1eb
100
AcDbEntity
  8
Layer_1
 62
7
100
AcDbPolyline
 90
4
 70
1
 10
129.583277
 20
171.827315
 30
0.0
 10
128.334796
 20
171.827315
 30
0.0
 10
128.334796
 20
171.551795
 30
0.0
 10
129.583277
 20
171.551795
 30
0.0
  0
LWPOLYLINE
  5
1ec
100
AcDbEntity
  8
Layer_1
 62
7
100
AcDbPolyline
 90
4
 70
1
 10
129.583277
 20
171.329898
 30
0.0
 10
128.334796
 20
171.329898
 30
0.0
 10
128.334796
 20
171.054378
 30
0.0
 10
129.583277
 20
171.054378
 30
0.0
  0
LWPOLYLINE
  5
1ed
100
AcDbEntity
  8
Layer_1
 62
7
100
AcDbPolyline
 90
4
 70
1
 10
132.916676
 20
170.429961
 30
0.0
 10
129.916652
 20
170.429961
 30
0.0
 10
129.916652
 20
168.430416
 30
0.0
 10
132.916676
 20
168.430416
 30
0.0
  0
LWPOLYLINE
  5
1ee
100
AcDbEntity
  8
Layer_1
 62
7
100
AcDbPolyline
 90
4
 70
1
 10
135.070739
 20
167.245082
 30
0.0
 10
133.769694
 20
167.245082
 30
0.0
 10
133.769694
 20
166.043520
 30
0.0
 10
135.070739
 20
166.043520
 30
0.0
  0
LWPOLYLINE
  5
1ef
100
AcDbEntity
  8
Layer_1
 62
7
100
AcDbPolyline
 90
4
 70
1
 10
135.070739
 20
165.212728
 30
0.0
 10
133.769694
 20
165.212728
 30
0.0
 10
133.769694
 20
164.011166
 30
0.0
 10
135.070739
 20
164.011166
 30
0.0
  0
LWPOLYLINE
  5
1f0
100
AcDbEntity
  8
Layer_1
 62
7
100
AcDbPolyline
 90
4
 70
1
 10
135.119069
 20
162.969059
 30
0.0
 10
133.721716
 20
162.969059
 30
0.0
 10
133.721716
 20
161.571706
 30
0.0
 10
135.119069
 20
161.571706
 30
0.0
  0
LWPOLYLINE
  5
1f1
100
AcDbEntity
  8
Layer_1
 62
7
100
AcDbPolyline
 90
4
 70
1
 10
141.908635
 20
153.380906
 30
0.0
 10
137.310174
 20
153.380906
 30
0.0
 10
137.310174
 20
152.380428
 30
0.0
 10
141.908635
 20
152.380428
 30
0.0
  0
LWPOLYLINE
  5
1f2
100
AcDbEntity
  8
Layer_1
 62
7
100
AcDbPolyline
 90
4
 70
1
 10
141.908635
 20
151.379949
 30
0.0
 10
137.310174
 20
151.379949
 30
0.0
 10
137.310174
 20
150.380882
 30
0.0
 10
141.908635
 20
150.380882
 30
0.0
  0
LWPOLYLINE
  5
1f3
100
AcDbEntity
  8
Layer_1
 62
7
100
AcDbPolyline
 90
4
 70
1
 10
146.511329
 20
156.428908
 30
0.0
 10
143.108786
 20
156.428908
 30
0.0
 10
143.108786
 20
154.729929
 30
0.0
 10
146.511329
 20
154.729929
 30
0.0
  0
LWPOLYLINE
  5
1f4
100
AcDbEntity
  8
Layer_1
 62
7
100
AcDbPolyline
 90
4
 70
1
 10
134.664339
 20
149.549737
 30
0.0
 10
133.160799
 20
149.549737
 30
0.0
 10
133.160799
 20
148.305489
 30
0.0
 10
134.664339
 20
148.305489
 30
0.0
  0
LWPOLYLINE
  5
1f5
100
AcDbEntity
  8
Layer_1
 62
7
100
AcDbPolyline
 90
4
 70
1
 10
134.664339
 20
151.448741
 30
0.0
 10
133.160799
 20
151.448741
 30
0.0
 10
133.160799
 20
150.211196
 30
0.0
 10
134.664339
 20
150.211196
 30
0.0
  0
LWPOLYLINE
  5
1f6
100
AcDbEntity
  8
Layer_1
 62
7
100
AcDbPolyline
 90
4
 70
1
 10
146.496160
 20
159.233140
 30
0.0
 10
143.093616
 20
159.233140
 30
0.0
 10
143.093616
 20
157.634703
 30
0.0
 10
146.496160
 20
157.634703
 30
0.0
  0
LWPOLYLINE
  5
1f7
100
AcDbEntity
  8
Layer_1
 62
7
100
AcDbPolyline
 90
4
 70
1
 10
135.119069
 20
159.270535
 30
0.0
 10
133.721716
 20
159.270535
 30
0.0
 10
133.721716
 20
157.867537
 30
0.0
 10
135.119069
 20
157.867537
 30
0.0
  0
LWPOLYLINE
  5
1f8
100
AcDbEntity
  8
Layer_1
 62
7
100
AcDbPolyline
 90
4
 70
1
 10
146.511329
 20
145.029945
 30
0.0
 10
143.108786
 20
145.029945
 30
0.0
 10
143.108786
 20
143.326733
 30
0.0
 10
146.511329
 20
143.326733
 30
0.0
  0
LWPOLYLINE
  5
1f9
100
AcDbEntity
  8
Layer_1
 62
7
100
AcDbPolyline
 90
4
 70
1
 10
141.908635
 20
149.380404
 30
0.0
 10
137.310174
 20
149.380404
 30
0.0
 10
137.310174
 20
148.379925
 30
0.0
 10
141.908635
 20
148.379925
 30
0.0
  0
LWPOLYLINE
  5
1fa
100
AcDbEntity
  8
Layer_1
 62
7
100
AcDbPolyline
 90
4
 70
1
 10
141.908635
 20
147.379447
 30
0.0
 10
137.310174
 20
147.379447
 30
0.0
 10
137.310174
 20
146.380380
 30
0.0
 10
141.908635
 20
146.380380
 30
0.0
  0
LWPOLYLINE
  5
1fb
100
AcDbEntity
  8
Layer_1
 62
7
100
AcDbPolyline
 90
4
 70
1
 10
134.817091
 20
141.590360
 30
0.0
 10
133.514988
 20
141.590360
 30
0.0
 10
133.514988
 20
140.390209
 30
0.0
 10
134.817091
 20
140.390209
 30
0.0
  0
LWPOLYLINE
  5
1fc
100
AcDbEntity
  8
Layer_1
 62
7
100
AcDbPolyline
 90
4
 70
1
 10
134.817091
 20
139.559064
 30
0.0
 10
133.514988
 20
139.559064
 30
0.0
 10
133.514988
 20
138.357502
 30
0.0
 10
134.817091
 20
138.357502
 30
0.0
  0
LWPOLYLINE
  5
1fd
100
AcDbEntity
  8
Layer_1
 62
7
100
AcDbPolyline
 90
4
 70
1
 10
134.865422
 20
137.315749
 30
0.0
 10
133.468068
 20
137.315749
 30
0.0
 10
133.468068
 20
135.918395
 30
0.0
 10
134.865422
 20
135.918395
 30
0.0
  0
LWPOLYLINE
  5
1fe
100
AcDbEntity
  8
Layer_1
 62
7
100
AcDbPolyline
 90
4
 70
1
 10
141.892054
 20
139.426772
 30
0.0
 10
137.293593
 20
139.426772
 30
0.0
 10
137.293593
 20
138.426294
 30
0.0
 10
141.892054
 20
138.426294
 30
0.0
  0
LWPOLYLINE
  5
1ff
100
AcDbEntity
  8
Layer_1
 62
7
100
AcDbPolyline
 90
4
 70
1
 10
141.892054
 20
137.425816
 30
0.0
 10
137.293593
 20
137.425816
 30
0.0
 10
137.293593
 20
136.425337
 30
0.0
 10
141.892054
 20
136.425337
 30
0.0
  0
LWPOLYLINE
  5
200
100
AcDbEntity
  8
Layer_1
 62
7
100
AcDbPolyline
 90
4
 70
1
 10
146.496160
 20
142.124819
 30
0.0
 10
143.093616
 20
142.124819
 30
0.0
 10
143.093616
 20
140.526381
 30
0.0
 10
146.496160
 20
140.526381
 30
0.0
  0
LWPOLYLINE
  5
201
100
AcDbEntity
  8
Layer_1
 62
7
100
AcDbPolyline
 90
4
 70
1
 10
146.496160
 20
133.324771
 30
0.0
 10
143.093616
 20
133.324771
 30
0.0
 10
143.093616
 20
131.727745
 30
0.0
 10
146.496160
 20
131.727745
 30
0.0
  0
LWPOLYLINE
  5
202
100
AcDbEntity
  8
Layer_1
 62
7
100
AcDbPolyline
 90
4
 70
1
 10
141.892054
 20
135.426270
 30
0.0
 10
137.293593
 20
135.426270
 30
0.0
 10
137.293593
 20
134.425791
 30
0.0
 10
141.892054
 20
134.425791
 30
0.0
  0
LWPOLYLINE
  5
203
100
AcDbEntity
  8
Layer_1
 62
7
100
AcDbPolyline
 90
4
 70
1
 10
141.892054
 20
165.333730
 30
0.0
 10
137.293593
 20
165.333730
 30
0.0
 10
137.293593
 20
164.334663
 30
0.0
 10
141.892054
 20
164.334663
 30
0.0
  0
LWPOLYLINE
  5
204
100
AcDbEntity
  8
Layer_1
 62
7
100
AcDbPolyline
 90
4
 70
1
 10
141.892054
 20
163.334185
 30
0.0
 10
137.293593
 20
163.334185
 30
0.0
 10
137.293593
 20
162.333706
 30
0.0
 10
141.892054
 20
162.333706
 30
0.0
  0
LWPOLYLINE
  5
205
100
AcDbEntity
  8
Layer_1
 62
7
100
AcDbPolyline
 90
4
 70
1
 10
146.496160
 20
168.033540
 30
0.0
 10
143.093616
 20
168.033540
 30
0.0
 10
143.093616
 20
166.435103
 30
0.0
 10
146.496160
 20
166.435103
 30
0.0
  0
LWPOLYLINE
  5
206
100
AcDbEntity
  8
Layer_1
 62
7
100
AcDbPolyline
 90
4
 70
1
 10
141.892054
 20
161.333581
 30
0.0
 10
137.293593
 20
161.333581
 30
0.0
 10
137.293593
 20
160.334513
 30
0.0
 10
141.892054
 20
160.334513
 30
0.0
  0
LWPOLYLINE
  5
207
100
AcDbEntity
  8
Layer_1
 62
7
100
AcDbPolyline
 90
4
 70
1
 10
104.649281
 20
137.664294
 30
0.0
 10
104.347656
 20
137.664294
 30
0.0
 10
104.347656
 20
136.468023
 30
0.0
 10
104.649281
 20
136.468023
 30
0.0
  0
LWPOLYLINE
  5
208
100
AcDbEntity
  8
Layer_1
 62
7
100
AcDbPolyline
 90
4
 70
1
 10
105.151989
 20
137.664294
 30
0.0
 10
104.850364
 20
137.664294
 30
0.0
 10
104.850364
 20
136.468023
 30
0.0
 10
105.151989
 20
136.468023
 30
0.0
  0
LWPOLYLINE
  5
209
100
AcDbEntity
  8
Layer_1
 62
7
100
AcDbPolyline
 90
4
 70
1
 10
105.649406
 20
137.664294
 30
0.0
 10
105.347781
 20
137.664294
 30
0.0
 10
105.347781
 20
136.468023
 30
0.0
 10
105.649406
 20
136.468023
 30
0.0
  0
LWPOLYLINE
  5
20a
100
AcDbEntity
  8
Layer_1
 62
7
100
AcDbPolyline
 90
4
 70
1
 10
106.147176
 20
137.664294
 30
0.0
 10
105.850843
 20
137.664294
 30
0.0
 10
105.850843
 20
136.468023
 30
0.0
 10
106.147176
 20
136.468023
 30
0.0
  0
LWPOLYLINE
  5
20b
100
AcDbEntity
  8
Layer_1
 62
7
100
AcDbPolyline
 90
4
 70
1
 10
106.649885
 20
137.664294
 30
0.0
 10
106.348260
 20
137.664294
 30
0.0
 10
106.348260
 20
136.468023
 30
0.0
 10
106.649885
 20
136.468023
 30
0.0
  0
LWPOLYLINE
  5
20c
100
AcDbEntity
  8
Layer_1
 62
7
100
AcDbPolyline
 90
4
 70
1
 10
107.147655
 20
137.664294
 30
0.0
 10
106.851321
 20
137.664294
 30
0.0
 10
106.851321
 20
136.468023
 30
0.0
 10
107.147655
 20
136.468023
 30
0.0
  0
LWPOLYLINE
  5
20d
100
AcDbEntity
  8
Layer_1
 62
7
100
AcDbPolyline
 90
4
 70
1
 10
107.648952
 20
137.664294
 30
0.0
 10
107.348385
 20
137.664294
 30
0.0
 10
107.348385
 20
136.468023
 30
0.0
 10
107.648952
 20
136.468023
 30
0.0
  0
LWPOLYLINE
  5
20e
100
AcDbEntity
  8
Layer_1
 62
7
100
AcDbPolyline
 90
4
 70
1
 10
108.146722
 20
137.664294
 30
0.0
 10
107.850388
 20
137.664294
 30
0.0
 10
107.850388
 20
136.468023
 30
0.0
 10
108.146722
 20
136.468023
 30
0.0
  0
LWPOLYLINE
  5
20f
100
AcDbEntity
  8
Layer_1
 62
7
100
AcDbPolyline
 90
4
 70
1
 10
108.649431
 20
137.664294
 30
0.0
 10
108.347805
 20
137.664294
 30
0.0
 10
108.347805
 20
136.468023
 30
0.0
 10
108.649431
 20
136.468023
 30
0.0
  0
LWPOLYLINE
  5
210
100
AcDbEntity
  8
Layer_1
 62
7
100
AcDbPolyline
 90
4
 70
1
 10
109.147200
 20
137.664294
 30
0.0
 10
108.850867
 20
137.664294
 30
0.0
 10
108.850867
 20
136.468023
 30
0.0
 10
109.147200
 20
136.468023
 30
0.0
  0
LWPOLYLINE
  5
211
100
AcDbEntity
  8
Layer_1
 62
7
100
AcDbPolyline
 90
4
 70
1
 10
109.649909
 20
137.664294
 30
0.0
 10
109.348284
 20
137.664294
 30
0.0
 10
109.348284
 20
136.468023
 30
0.0
 10
109.649909
 20
136.468023
 30
0.0
  0
LWPOLYLINE
  5
212
100
AcDbEntity
  8
Layer_1
 62
7
100
AcDbPolyline
 90
4
 70
1
 10
110.147326
 20
137.664294
 30
0.0
 10
109.850992
 20
137.664294
 30
0.0
 10
109.850992
 20
136.468023
 30
0.0
 10
110.147326
 20
136.468023
 30
0.0
  0
LWPOLYLINE
  5
213
100
AcDbEntity
  8
Layer_1
 62
7
100
AcDbPolyline
 90
4
 70
1
 10
110.650387
 20
137.664294
 30
0.0
 10
110.348762
 20
137.664294
 30
0.0
 10
110.348762
 20
136.468023
 30
0.0
 10
110.650387
 20
136.468023
 30
0.0
  0
LWPOLYLINE
  5
214
100
AcDbEntity
  8
Layer_1
 62
7
100
AcDbPolyline
 90
4
 70
1
 10
111.147804
 20
137.664294
 30
0.0
 10
110.851471
 20
137.664294
 30
0.0
 10
110.851471
 20
136.468023
 30
0.0
 10
111.147804
 20
136.468023
 30
0.0
  0
LWPOLYLINE
  5
215
100
AcDbEntity
  8
Layer_1
 62
7
100
AcDbPolyline
 90
4
 70
1
 10
111.649455
 20
137.664294
 30
0.0
 10
111.348888
 20
137.664294
 30
0.0
 10
111.348888
 20
136.468023
 30
0.0
 10
111.649455
 20
136.468023
 30
0.0
  0
LWPOLYLINE
  5
216
100
AcDbEntity
  8
Layer_1
 62
7
100
AcDbPolyline
 90
4
 70
1
 10
114.047287
 20
139.167833
 30
0.0
 10
112.851017
 20
139.167833
 30
0.0
 10
112.851017
 20
138.866208
 30
0.0
 10
114.047287
 20
138.866208
 30
0.0
  0
LWPOLYLINE
  5
217
100
AcDbEntity
  8
Layer_1
 62
7
100
AcDbPolyline
 90
4
 70
1
 10
114.047287
 20
139.665250
 30
0.0
 10
112.851017
 20
139.665250
 30
0.0
 10
112.851017
 20
139.368917
 30
0.0
 10
114.047287
 20
139.368917
 30
0.0
  0
LWPOLYLINE
  5
218
100
AcDbEntity
  8
Layer_1
 62
7
100
AcDbPolyline
 90
4
 70
1
 10
114.047287
 20
140.166901
 30
0.0
 10
112.851017
 20
140.166901
 30
0.0
 10
112.851017
 20
139.865275
 30
0.0
 10
114.047287
 20
139.865275
 30
0.0
  0
LWPOLYLINE
  5
219
100
AcDbEntity
  8
Layer_1
 62
7
100
AcDbPolyline
 90
4
 70
1
 10
114.047287
 20
140.664318
 30
0.0
 10
112.851017
 20
140.664318
 30
0.0
 10
112.851017
 20
140.367984
 30
0.0
 10
114.047287
 20
140.367984
 30
0.0
  0
LWPOLYLINE
  5
21a
100
AcDbEntity
  8
Layer_1
 62
7
100
AcDbPolyline
 90
4
 70
1
 10
114.047287
 20
141.167379
 30
0.0
 10
112.851017
 20
141.167379
 30
0.0
 10
112.851017
 20
140.865754
 30
0.0
 10
114.047287
 20
140.865754
 30
0.0
  0
LWPOLYLINE
  5
21b
100
AcDbEntity
  8
Layer_1
 62
7
100
AcDbPolyline
 90
4
 70
1
 10
114.047287
 20
141.664796
 30
0.0
 10
112.851017
 20
141.664796
 30
0.0
 10
112.851017
 20
141.368463
 30
0.0
 10
114.047287
 20
141.368463
 30
0.0
  0
LWPOLYLINE
  5
21c
100
AcDbEntity
  8
Layer_1
 62
7
100
AcDbPolyline
 90
4
 70
1
 10
114.047287
 20
142.167505
 30
0.0
 10
112.851017
 20
142.167505
 30
0.0
 10
112.851017
 20
141.865880
 30
0.0
 10
114.047287
 20
141.865880
 30
0.0
  0
LWPOLYLINE
  5
21d
100
AcDbEntity
  8
Layer_1
 62
7
100
AcDbPolyline
 90
4
 70
1
 10
114.047287
 20
142.665274
 30
0.0
 10
112.851017
 20
142.665274
 30
0.0
 10
112.851017
 20
142.368941
 30
0.0
 10
114.047287
 20
142.368941
 30
0.0
  0
LWPOLYLINE
  5
21e
100
AcDbEntity
  8
Layer_1
 62
7
100
AcDbPolyline
 90
4
 70
1
 10
114.047287
 20
143.167983
 30
0.0
 10
112.851017
 20
143.167983
 30
0.0
 10
112.851017
 20
142.866358
 30
0.0
 10
114.047287
 20
142.866358
 30
0.0
  0
LWPOLYLINE
  5
21f
100
AcDbEntity
  8
Layer_1
 62
7
100
AcDbPolyline
 90
4
 70
1
 10
114.047287
 20
143.665753
 30
0.0
 10
112.851017
 20
143.665753
 30
0.0
 10
112.851017
 20
143.369419
 30
0.0
 10
114.047287
 20
143.369419
 30
0.0
  0
LWPOLYLINE
  5
220
100
AcDbEntity
  8
Layer_1
 62
7
100
AcDbPolyline
 90
4
 70
1
 10
114.047287
 20
144.167050
 30
0.0
 10
112.851017
 20
144.167050
 30
0.0
 10
112.851017
 20
143.866484
 30
0.0
 10
114.047287
 20
143.866484
 30
0.0
  0
LWPOLYLINE
  5
221
100
AcDbEntity
  8
Layer_1
 62
7
100
AcDbPolyline
 90
4
 70
1
 10
114.047287
 20
144.664820
 30
0.0
 10
112.851017
 20
144.664820
 30
0.0
 10
112.851017
 20
144.368487
 30
0.0
 10
114.047287
 20
144.368487
 30
0.0
  0
LWPOLYLINE
  5
222
100
AcDbEntity
  8
Layer_1
 62
7
100
AcDbPolyline
 90
4
 70
1
 10
114.047287
 20
145.167529
 30
0.0
 10
112.851017
 20
145.167529
 30
0.0
 10
112.851017
 20
144.865904
 30
0.0
 10
114.047287
 20
144.865904
 30
0.0
  0
LWPOLYLINE
  5
223
100
AcDbEntity
  8
Layer_1
 62
7
100
AcDbPolyline
 90
4
 70
1
 10
142.929574
 20
125.662786
 30
0.0
 10
142.167574
 20
125.662786
 30
0.0
 10
142.167574
 20
123.059637
 30
0.0
 10
142.929574
 20
123.059637
 30
0.0
  0
LWPOLYLINE
  5
224
100
AcDbEntity
  8
Layer_1
 62
7
100
AcDbPolyline
 90
4
 70
1
 10
141.659221
 20
125.662786
 30
0.0
 10
140.897220
 20
125.662786
 30
0.0
 10
140.897220
 20
123.059637
 30
0.0
 10
141.659221
 20
123.059637
 30
0.0
  0
LWPOLYLINE
  5
225
100
AcDbEntity
  8
Layer_1
 62
7
100
AcDbPolyline
 90
4
 70
1
 10
140.388514
 20
125.662786
 30
0.0
 10
139.627925
 20
125.662786
 30
0.0
 10
139.627925
 20
123.059637
 30
0.0
 10
140.388514
 20
123.059637
 30
0.0
  0
LWPOLYLINE
  5
226
100
AcDbEntity
  8
Layer_1
 62
7
100
AcDbPolyline
 90
4
 70
1
 10
139.119219
 20
125.662786
 30
0.0
 10
138.357219
 20
125.662786
 30
0.0
 10
138.357219
 20
123.059637
 30
0.0
 10
139.119219
 20
123.059637
 30
0.0
  0
LWPOLYLINE
  5
227
100
AcDbEntity
  8
Layer_1
 62
7
100
AcDbPolyline
 90
4
 70
1
 10
137.848866
 20
125.662786
 30
0.0
 10
137.086865
 20
125.662786
 30
0.0
 10
137.086865
 20
123.059637
 30
0.0
 10
137.848866
 20
123.059637
 30
0.0
  0
LWPOLYLINE
  5
228
100
AcDbEntity
  8
Layer_1
 62
7
100
AcDbPolyline
 90
4
 70
1
 10
142.929574
 20
129.959622
 30
0.0
 10
142.167574
 20
129.959622
 30
0.0
 10
142.167574
 20
127.362118
 30
0.0
 10
142.929574
 20
127.362118
 30
0.0
  0
LWPOLYLINE
  5
229
100
AcDbEntity
  8
Layer_1
 62
7
100
AcDbPolyline
 90
4
 70
1
 10
141.659221
 20
129.959622
 30
0.0
 10
140.897220
 20
129.959622
 30
0.0
 10
140.897220
 20
127.362118
 30
0.0
 10
141.659221
 20
127.362118
 30
0.0
  0
LWPOLYLINE
  5
22a
100
AcDbEntity
  8
Layer_1
 62
7
100
AcDbPolyline
 90
4
 70
1
 10
140.388514
 20
129.959622
 30
0.0
 10
139.627925
 20
129.959622
 30
0.0
 10
139.627925
 20
127.362118
 30
0.0
 10
140.388514
 20
127.362118
 30
0.0
  0
LWPOLYLINE
  5
22b
100
AcDbEntity
  8
Layer_1
 62
7
100
AcDbPolyline
 90
4
 70
1
 10
139.119219
 20
129.959622
 30
0.0
 10
138.357219
 20
129.959622
 30
0.0
 10
138.357219
 20
127.362118
 30
0.0
 10
139.119219
 20
127.362118
 30
0.0
  0
LWPOLYLINE
  5
22c
100
AcDbEntity
  8
Layer_1
 62
7
100
AcDbPolyline
 90
4
 70
1
 10
137.848866
 20
129.959622
 30
0.0
 10
137.086865
 20
129.959622
 30
0.0
 10
137.086865
 20
127.362118
 30
0.0
 10
137.848866
 20
127.362118
 30
0.0
  0
LWPOLYLINE
  5
22d
100
AcDbEntity
  8
Layer_1
 62
7
100
AcDbPolyline
 90
4
 70
1
 10
134.865422
 20
133.615460
 30
0.0
 10
133.468068
 20
133.615460
 30
0.0
 10
133.468068
 20
132.213873
 30
0.0
 10
134.865422
 20
132.213873
 30
0.0
  0
LWPOLYLINE
  5
22e
100
AcDbEntity
  8
Layer_1
 62
7
100
AcDbPolyline
 90
4
 70
1
 10
121.386833
 20
127.160681
 30
0.0
 10
120.783230
 20
127.160681
 30
0.0
 10
120.783230
 20
124.963933
 30
0.0
 10
121.386833
 20
124.963933
 30
0.0
  0
LWPOLYLINE
  5
22f
100
AcDbEntity
  8
Layer_1
 62
7
100
AcDbPolyline
 90
4
 70
1
 10
122.657187
 20
127.160681
 30
0.0
 10
122.053583
 20
127.160681
 30
0.0
 10
122.053583
 20
124.963933
 30
0.0
 10
122.657187
 20
124.963933
 30
0.0
  0
LWPOLYLINE
  5
230
100
AcDbEntity
  8
Layer_1
 62
7
100
AcDbPolyline
 90
4
 70
1
 10
120.116127
 20
127.160681
 30
0.0
 10
119.513935
 20
127.160681
 30
0.0
 10
119.513935
 20
124.963933
 30
0.0
 10
120.116127
 20
124.963933
 30
0.0
  0
LWPOLYLINE
  5
231
100
AcDbEntity
  8
Layer_1
 62
7
100
AcDbPolyline
 90
4
 70
1
 10
122.022186
 20
130.054872
 30
0.0
 10
120.777938
 20
130.054872
 30
0.0
 10
120.777938
 20
128.552743
 30
0.0
 10
122.022186
 20
128.552743
 30
0.0
  0
LWPOLYLINE
  5
232
100
AcDbEntity
  8
Layer_1
 62
7
100
AcDbPolyline
 90
4
 70
1
 10
118.036853
 20
133.356521
 30
0.0
 10
116.836702
 20
133.356521
 30
0.0
 10
116.836702
 20
131.854393
 30
0.0
 10
118.036853
 20
131.854393
 30
0.0
  0
LWPOLYLINE
  5
233
100
AcDbEntity
  8
Layer_1
 62
7
100
AcDbPolyline
 90
4
 70
1
 10
115.936766
 20
133.356521
 30
0.0
 10
114.735204
 20
133.356521
 30
0.0
 10
114.735204
 20
131.854393
 30
0.0
 10
115.936766
 20
131.854393
 30
0.0
  0
LWPOLYLINE
  5
234
100
AcDbEntity
  8
Layer_1
 62
7
100
AcDbPolyline
 90
4
 70
1
 10
118.153975
 20
140.658673
 30
0.0
 10
116.650436
 20
140.658673
 30
0.0
 10
116.650436
 20
139.415836
 30
0.0
 10
118.153975
 20
139.415836
 30
0.0
  0
LWPOLYLINE
  5
235
100
AcDbEntity
  8
Layer_1
 62
7
100
AcDbPolyline
 90
4
 70
1
 10
118.153975
 20
142.559088
 30
0.0
 10
116.650436
 20
142.559088
 30
0.0
 10
116.650436
 20
141.320132
 30
0.0
 10
118.153975
 20
141.320132
 30
0.0
  0
LWPOLYLINE
  5
236
100
AcDbEntity
  8
Layer_1
 62
7
100
AcDbPolyline
 90
4
 70
1
 10
118.847184
 20
127.160681
 30
0.0
 10
118.243581
 20
127.160681
 30
0.0
 10
118.243581
 20
124.963933
 30
0.0
 10
118.847184
 20
124.963933
 30
0.0
  0
LWPOLYLINE
  5
237
100
AcDbEntity
  8
Layer_1
 62
7
100
AcDbPolyline
 90
4
 70
1
 10
120.116127
 20
130.054872
 30
0.0
 10
118.878581
 20
130.054872
 30
0.0
 10
118.878581
 20
128.552743
 30
0.0
 10
120.116127
 20
128.552743
 30
0.0
  0
LWPOLYLINE
  5
238
100
AcDbEntity
  8
Layer_1
 62
7
100
AcDbPolyline
 90
4
 70
1
 10
102.649735
 20
145.167529
 30
0.0
 10
101.448173
 20
145.167529
 30
0.0
 10
101.448173
 20
144.865904
 30
0.0
 10
102.649735
 20
144.865904
 30
0.0
  0
LWPOLYLINE
  5
239
100
AcDbEntity
  8
Layer_1
 62
7
100
AcDbPolyline
 90
4
 70
1
 10
102.649735
 20
144.664820
 30
0.0
 10
101.448173
 20
144.664820
 30
0.0
 10
101.448173
 20
144.368487
 30
0.0
 10
102.649735
 20
144.368487
 30
0.0
  0
LWPOLYLINE
  5
23a
100
AcDbEntity
  8
Layer_1
 62
7
100
AcDbPolyline
 90
4
 70
1
 10
102.649735
 20
144.167050
 30
0.0
 10
101.448173
 20
144.167050
 30
0.0
 10
101.448173
 20
143.866484
 30
0.0
 10
102.649735
 20
143.866484
 30
0.0
  0
LWPOLYLINE
  5
23b
100
AcDbEntity
  8
Layer_1
 62
7
100
AcDbPolyline
 90
4
 70
1
 10
102.649735
 20
143.665753
 30
0.0
 10
101.448173
 20
143.665753
 30
0.0
 10
101.448173
 20
143.369419
 30
0.0
 10
102.649735
 20
143.369419
 30
0.0
  0
LWPOLYLINE
  5
23c
100
AcDbEntity
  8
Layer_1
 62
7
100
AcDbPolyline
 90
4
 70
1
 10
102.649735
 20
143.167983
 30
0.0
 10
101.448173
 20
143.167983
 30
0.0
 10
101.448173
 20
142.866358
 30
0.0
 10
102.649735
 20
142.866358
 30
0.0
  0
LWPOLYLINE
  5
23d
100
AcDbEntity
  8
Layer_1
 62
7
100
AcDbPolyline
 90
4
 70
1
 10
102.649735
 20
142.665274
 30
0.0
 10
101.448173
 20
142.665274
 30
0.0
 10
101.448173
 20
142.368941
 30
0.0
 10
102.649735
 20
142.368941
 30
0.0
  0
LWPOLYLINE
  5
23e
100
AcDbEntity
  8
Layer_1
 62
7
100
AcDbPolyline
 90
4
 70
1
 10
102.649735
 20
142.167505
 30
0.0
 10
101.448173
 20
142.167505
 30
0.0
 10
101.448173
 20
141.865880
 30
0.0
 10
102.649735
 20
141.865880
 30
0.0
  0
LWPOLYLINE
  5
23f
100
AcDbEntity
  8
Layer_1
 62
7
100
AcDbPolyline
 90
4
 70
1
 10
102.649735
 20
141.664796
 30
0.0
 10
101.448173
 20
141.664796
 30
0.0
 10
101.448173
 20
141.368463
 30
0.0
 10
102.649735
 20
141.368463
 30
0.0
  0
LWPOLYLINE
  5
240
100
AcDbEntity
  8
Layer_1
 62
7
100
AcDbPolyline
 90
4
 70
1
 10
102.649735
 20
141.167379
 30
0.0
 10
101.448173
 20
141.167379
 30
0.0
 10
101.448173
 20
140.865754
 30
0.0
 10
102.649735
 20
140.865754
 30
0.0
  0
LWPOLYLINE
  5
241
100
AcDbEntity
  8
Layer_1
 62
7
100
AcDbPolyline
 90
4
 70
1
 10
102.649735
 20
140.664318
 30
0.0
 10
101.448173
 20
140.664318
 30
0.0
 10
101.448173
 20
140.367984
 30
0.0
 10
102.649735
 20
140.367984
 30
0.0
  0
LWPOLYLINE
  5
242
100
AcDbEntity
  8
Layer_1
 62
7
100
AcDbPolyline
 90
4
 70
1
 10
102.649735
 20
140.166901
 30
0.0
 10
101.448173
 20
140.166901
 30
0.0
 10
101.448173
 20
139.865275
 30
0.0
 10
102.649735
 20
139.865275
 30
0.0
  0
LWPOLYLINE
  5
243
100
AcDbEntity
  8
Layer_1
 62
7
100
AcDbPolyline
 90
4
 70
1
 10
102.649735
 20
139.665250
 30
0.0
 10
101.448173
 20
139.665250
 30
0.0
 10
101.448173
 20
139.368917
 30
0.0
 10
102.649735
 20
139.368917
 30
0.0
  0
LWPOLYLINE
  5
244
100
AcDbEntity
  8
Layer_1
 62
7
100
AcDbPolyline
 90
4
 70
1
 10
102.649735
 20
139.167833
 30
0.0
 10
101.448173
 20
139.167833
 30
0.0
 10
101.448173
 20
138.866208
 30
0.0
 10
102.649735
 20
138.866208
 30
0.0
  0
LWPOLYLINE
  5
245
100
AcDbEntity
  8
Layer_1
 62
7
100
AcDbPolyline
 90
4
 70
1
 10
104.151511
 20
137.664294
 30
0.0
 10
103.849886
 20
137.664294
 30
0.0
 10
103.849886
 20
136.468023
 30
0.0
 10
104.151511
 20
136.468023
 30
0.0
  0
LWPOLYLINE
  5
246
100
AcDbEntity
  8
Layer_1
 62
7
100
AcDbPolyline
 90
4
 70
1
 10
107.300407
 20
133.356521
 30
0.0
 10
106.098846
 20
133.356521
 30
0.0
 10
106.098846
 20
131.854393
 30
0.0
 10
107.300407
 20
131.854393
 30
0.0
  0
LWPOLYLINE
  5
247
100
AcDbEntity
  8
Layer_1
 62
7
100
AcDbPolyline
 90
4
 70
1
 10
109.400495
 20
133.356521
 30
0.0
 10
108.200344
 20
133.356521
 30
0.0
 10
108.200344
 20
131.854393
 30
0.0
 10
109.400495
 20
131.854393
 30
0.0
  0
LWPOLYLINE
  5
248
100
AcDbEntity
  8
Layer_1
 62
7
100
AcDbPolyline
 90
4
 70
1
 10
96.018567
 20
143.516881
 30
0.0
 10
94.716463
 20
143.516881
 30
0.0
 10
94.716463
 20
142.014752
 30
0.0
 10
96.018567
 20
142.014752
 30
0.0
  0
LWPOLYLINE
  5
249
100
AcDbEntity
  8
Layer_1
 62
7
100
AcDbPolyline
 90
4
 70
1
 10
97.918629
 20
143.516881
 30
0.0
 10
96.621817
 20
143.516881
 30
0.0
 10
96.621817
 20
142.014752
 30
0.0
 10
97.918629
 20
142.014752
 30
0.0
  0
LWPOLYLINE
  5
24a
100
AcDbEntity
  8
Layer_1
 62
7
100
AcDbPolyline
 90
4
 70
1
 10
98.341963
 20
145.739382
 30
0.0
 10
96.838423
 20
145.739382
 30
0.0
 10
96.838423
 20
144.495134
 30
0.0
 10
98.341963
 20
144.495134
 30
0.0
  0
LWPOLYLINE
  5
24b
100
AcDbEntity
  8
Layer_1
 62
7
100
AcDbPolyline
 90
4
 70
1
 10
95.801961
 20
145.739382
 30
0.0
 10
94.298422
 20
145.739382
 30
0.0
 10
94.298422
 20
144.495134
 30
0.0
 10
95.801961
 20
144.495134
 30
0.0
  0
LWPOLYLINE
  5
24c
100
AcDbEntity
  8
Layer_1
 62
7
100
AcDbPolyline
 90
4
 70
1
 10
98.526466
 20
136.303982
 30
0.0
 10
97.922863
 20
136.303982
 30
0.0
 10
97.922863
 20
134.108644
 30
0.0
 10
98.526466
 20
134.108644
 30
0.0
  0
LWPOLYLINE
  5
24d
100
AcDbEntity
  8
Layer_1
 62
7
100
AcDbPolyline
 90
4
 70
1
 10
97.257171
 20
136.303982
 30
0.0
 10
96.653567
 20
136.303982
 30
0.0
 10
96.653567
 20
134.108644
 30
0.0
 10
97.257171
 20
134.108644
 30
0.0
  0
LWPOLYLINE
  5
24e
100
AcDbEntity
  8
Layer_1
 62
7
100
AcDbPolyline
 90
4
 70
1
 10
95.986817
 20
136.303982
 30
0.0
 10
95.383214
 20
136.303982
 30
0.0
 10
95.383214
 20
134.108644
 30
0.0
 10
95.986817
 20
134.108644
 30
0.0
  0
LWPOLYLINE
  5
24f
100
AcDbEntity
  8
Layer_1
 62
7
100
AcDbPolyline
 90
4
 70
1
 10
94.716111
 20
136.303982
 30
0.0
 10
94.113919
 20
136.303982
 30
0.0
 10
94.113919
 20
134.108644
 30
0.0
 10
94.716111
 20
134.108644
 30
0.0
  0
LWPOLYLINE
  5
250
100
AcDbEntity
  8
Layer_1
 62
7
100
AcDbPolyline
 90
4
 70
1
 10
94.716111
 20
131.107562
 30
0.0
 10
94.113919
 20
131.107562
 30
0.0
 10
94.113919
 20
128.906932
 30
0.0
 10
94.716111
 20
128.906932
 30
0.0
  0
LWPOLYLINE
  5
251
100
AcDbEntity
  8
Layer_1
 62
7
100
AcDbPolyline
 90
4
 70
1
 10
95.986817
 20
131.107562
 30
0.0
 10
95.383214
 20
131.107562
 30
0.0
 10
95.383214
 20
128.906932
 30
0.0
 10
95.986817
 20
128.906932
 30
0.0
  0
LWPOLYLINE
  5
252
100
AcDbEntity
  8
Layer_1
 62
7
100
AcDbPolyline
 90
4
 70
1
 10
97.257171
 20
131.107562
 30
0.0
 10
96.653567
 20
131.107562
 30
0.0
 10
96.653567
 20
128.906932
 30
0.0
 10
97.257171
 20
128.906932
 30
0.0
  0
LWPOLYLINE
  5
253
100
AcDbEntity
  8
Layer_1
 62
7
100
AcDbPolyline
 90
4
 70
1
 10
98.526466
 20
131.107562
 30
0.0
 10
97.922863
 20
131.107562
 30
0.0
 10
97.922863
 20
128.906932
 30
0.0
 10
98.526466
 20
128.906932
 30
0.0
  0
LWPOLYLINE
  5
254
100
AcDbEntity
  8
Layer_1
 62
7
100
AcDbPolyline
 90
4
 70
1
 10
100.881612
 20
131.901312
 30
0.0
 10
99.378072
 20
131.901312
 30
0.0
 10
99.378072
 20
130.701161
 30
0.0
 10
100.881612
 20
130.701161
 30
0.0
  0
LWPOLYLINE
  5
255
100
AcDbEntity
  8
Layer_1
 62
7
100
AcDbPolyline
 90
4
 70
1
 10
100.881612
 20
134.002811
 30
0.0
 10
99.378072
 20
134.002811
 30
0.0
 10
99.378072
 20
132.801249
 30
0.0
 10
100.881612
 20
132.801249
 30
0.0
  0
LWPOLYLINE
  5
256
100
AcDbEntity
  8
Layer_1
 62
7
100
AcDbPolyline
 90
4
 70
1
 10
123.879562
 20
106.940857
 30
0.0
 10
122.678000
 20
106.940857
 30
0.0
 10
122.678000
 20
105.437318
 30
0.0
 10
123.879562
 20
105.437318
 30
0.0
  0
LWPOLYLINE
  5
257
100
AcDbEntity
  8
Layer_1
 62
7
100
AcDbPolyline
 90
4
 70
1
 10
121.778064
 20
106.940857
 30
0.0
 10
120.577913
 20
106.940857
 30
0.0
 10
120.577913
 20
105.437318
 30
0.0
 10
121.778064
 20
105.437318
 30
0.0
  0
LWPOLYLINE
  5
258
100
AcDbEntity
  8
Layer_1
 62
7
100
AcDbPolyline
 90
4
 70
1
 10
122.429998
 20
109.972632
 30
0.0
 10
121.768539
 20
109.972632
 30
0.0
 10
121.768539
 20
107.941336
 30
0.0
 10
122.429998
 20
107.941336
 30
0.0
  0
LWPOLYLINE
  5
259
100
AcDbEntity
  8
Layer_1
 62
7
100
AcDbPolyline
 90
4
 70
1
 10
118.619642
 20
109.972632
 30
0.0
 10
117.958184
 20
109.972632
 30
0.0
 10
117.958184
 20
107.941336
 30
0.0
 10
118.619642
 20
107.941336
 30
0.0
  0
LWPOLYLINE
  5
25a
100
AcDbEntity
  8
Layer_1
 62
7
100
AcDbPolyline
 90
4
 70
1
 10
117.349289
 20
109.972632
 30
0.0
 10
116.687830
 20
109.972632
 30
0.0
 10
116.687830
 20
107.941336
 30
0.0
 10
117.349289
 20
107.941336
 30
0.0
  0
LWPOLYLINE
  5
25b
100
AcDbEntity
  8
Layer_1
 62
7
100
AcDbPolyline
 90
4
 70
1
 10
120.116127
 20
118.698243
 30
0.0
 10
118.878581
 20
118.698243
 30
0.0
 10
118.878581
 20
117.201758
 30
0.0
 10
120.116127
 20
117.201758
 30
0.0
  0
LWPOLYLINE
  5
25c
100
AcDbEntity
  8
Layer_1
 62
7
100
AcDbPolyline
 90
4
 70
1
 10
122.429998
 20
116.121199
 30
0.0
 10
121.768539
 20
116.121199
 30
0.0
 10
121.768539
 20
114.089904
 30
0.0
 10
122.429998
 20
114.089904
 30
0.0
  0
LWPOLYLINE
  5
25d
100
AcDbEntity
  8
Layer_1
 62
7
100
AcDbPolyline
 90
4
 70
1
 10
121.159291
 20
116.121199
 30
0.0
 10
120.497832
 20
116.121199
 30
0.0
 10
120.497832
 20
114.089904
 30
0.0
 10
121.159291
 20
114.089904
 30
0.0
  0
LWPOLYLINE
  5
25e
100
AcDbEntity
  8
Layer_1
 62
7
100
AcDbPolyline
 90
4
 70
1
 10
119.888938
 20
116.121199
 30
0.0
 10
119.227479
 20
116.121199
 30
0.0
 10
119.227479
 20
114.089904
 30
0.0
 10
119.888938
 20
114.089904
 30
0.0
  0
LWPOLYLINE
  5
25f
100
AcDbEntity
  8
Layer_1
 62
7
100
AcDbPolyline
 90
4
 70
1
 10
118.619642
 20
116.121199
 30
0.0
 10
117.958184
 20
116.121199
 30
0.0
 10
117.958184
 20
114.089904
 30
0.0
 10
118.619642
 20
114.089904
 30
0.0
  0
LWPOLYLINE
  5
260
100
AcDbEntity
  8
Layer_1
 62
7
100
AcDbPolyline
 90
4
 70
1
 10
117.349289
 20
116.121199
 30
0.0
 10
116.687830
 20
116.121199
 30
0.0
 10
116.687830
 20
114.089904
 30
0.0
 10
117.349289
 20
114.089904
 30
0.0
  0
LWPOLYLINE
  5
261
100
AcDbEntity
  8
Layer_1
 62
7
100
AcDbPolyline
 90
4
 70
1
 10
116.079994
 20
116.121199
 30
0.0
 10
115.418535
 20
116.121199
 30
0.0
 10
115.418535
 20
114.089904
 30
0.0
 10
116.079994
 20
114.089904
 30
0.0
  0
LWPOLYLINE
  5
262
100
AcDbEntity
  8
Layer_1
 62
7
100
AcDbPolyline
 90
4
 70
1
 10
114.809287
 20
116.121199
 30
0.0
 10
114.147828
 20
116.121199
 30
0.0
 10
114.147828
 20
114.089904
 30
0.0
 10
114.809287
 20
114.089904
 30
0.0
  0
LWPOLYLINE
  5
263
100
AcDbEntity
  8
Layer_1
 62
7
100
AcDbPolyline
 90
4
 70
1
 10
95.039961
 20
101.569107
 30
0.0
 10
93.536421
 20
101.569107
 30
0.0
 10
93.536421
 20
100.273706
 30
0.0
 10
95.039961
 20
100.273706
 30
0.0
  0
LWPOLYLINE
  5
264
100
AcDbEntity
  8
Layer_1
 62
7
100
AcDbPolyline
 90
4
 70
1
 10
116.079994
 20
109.972632
 30
0.0
 10
115.418535
 20
109.972632
 30
0.0
 10
115.418535
 20
107.941336
 30
0.0
 10
116.079994
 20
107.941336
 30
0.0
  0
LWPOLYLINE
  5
265
100
AcDbEntity
  8
Layer_1
 62
7
100
AcDbPolyline
 90
4
 70
1
 10
114.809287
 20
109.972632
 30
0.0
 10
114.147828
 20
109.972632
 30
0.0
 10
114.147828
 20
107.941336
 30
0.0
 10
114.809287
 20
107.941336
 30
0.0
  0
LWPOLYLINE
  5
266
100
AcDbEntity
  8
Layer_1
 62
7
100
AcDbPolyline
 90
4
 70
1
 10
94.816652
 20
95.722164
 30
0.0
 10
92.012420
 20
95.722164
 30
0.0
 10
92.012420
 20
93.722619
 30
0.0
 10
94.816652
 20
93.722619
 30
0.0
  0
LWPOLYLINE
  5
267
100
AcDbEntity
  8
Layer_1
 62
7
100
AcDbPolyline
 90
4
 70
1
 10
94.816652
 20
98.623058
 30
0.0
 10
92.012420
 20
98.623058
 30
0.0
 10
92.012420
 20
96.421018
 30
0.0
 10
94.816652
 20
96.421018
 30
0.0
  0
LWPOLYLINE
  5
268
100
AcDbEntity
  8
Layer_1
 62
7
100
AcDbPolyline
 90
4
 70
1
 10
125.620169
 20
109.264253
 30
0.0
 10
124.778088
 20
109.264253
 30
0.0
 10
124.778088
 20
108.809523
 30
0.0
 10
125.620169
 20
108.809523
 30
0.0
  0
LWPOLYLINE
  5
269
100
AcDbEntity
  8
Layer_1
 62
7
100
AcDbPolyline
 90
4
 70
1
 10
126.281628
 20
101.744438
 30
0.0
 10
124.778088
 20
101.744438
 30
0.0
 10
124.778088
 20
100.542876
 30
0.0
 10
126.281628
 20
100.542876
 30
0.0
  0
LWPOLYLINE
  5
26a
100
AcDbEntity
  8
Layer_1
 62
7
100
AcDbPolyline
 90
4
 70
1
 10
131.869631
 20
101.744438
 30
0.0
 10
130.367503
 20
101.744438
 30
0.0
 10
130.367503
 20
100.542876
 30
0.0
 10
131.869631
 20
100.542876
 30
0.0
  0
LWPOLYLINE
  5
26b
100
AcDbEntity
  8
Layer_1
 62
7
100
AcDbPolyline
 90
4
 70
1
 10
129.076335
 20
101.744438
 30
0.0
 10
127.572795
 20
101.744438
 30
0.0
 10
127.572795
 20
100.542876
 30
0.0
 10
129.076335
 20
100.542876
 30
0.0
  0
LWPOLYLINE
  5
26c
100
AcDbEntity
  8
Layer_1
 62
7
100
AcDbPolyline
 90
4
 70
1
 10
126.281628
 20
99.643997
 30
0.0
 10
124.778088
 20
99.643997
 30
0.0
 10
124.778088
 20
98.442435
 30
0.0
 10
126.281628
 20
98.442435
 30
0.0
  0
LWPOLYLINE
  5
26d
100
AcDbEntity
  8
Layer_1
 62
7
100
AcDbPolyline
 90
4
 70
1
 10
131.869631
 20
99.643997
 30
0.0
 10
130.367503
 20
99.643997
 30
0.0
 10
130.367503
 20
98.442435
 30
0.0
 10
131.869631
 20
98.442435
 30
0.0
  0
LWPOLYLINE
  5
26e
100
AcDbEntity
  8
Layer_1
 62
7
100
AcDbPolyline
 90
4
 70
1
 10
129.076335
 20
99.643997
 30
0.0
 10
127.572795
 20
99.643997
 30
0.0
 10
127.572795
 20
98.442435
 30
0.0
 10
129.076335
 20
98.442435
 30
0.0
  0
LWPOLYLINE
  5
26f
100
AcDbEntity
  8
Layer_1
 62
7
100
AcDbPolyline
 90
4
 70
1
 10
126.223772
 20
97.272624
 30
0.0
 10
124.524793
 20
97.272624
 30
0.0
 10
124.524793
 20
93.568455
 30
0.0
 10
126.223772
 20
93.568455
 30
0.0
  0
LWPOLYLINE
  5
270
100
AcDbEntity
  8
Layer_1
 62
7
100
AcDbPolyline
 90
4
 70
1
 10
132.122926
 20
97.272624
 30
0.0
 10
130.425358
 20
97.272624
 30
0.0
 10
130.425358
 20
93.568455
 30
0.0
 10
132.122926
 20
93.568455
 30
0.0
  0
LWPOLYLINE
  5
271
100
AcDbEntity
  8
Layer_1
 62
7
100
AcDbPolyline
 90
4
 70
1
 10
119.842018
 20
95.219103
 30
0.0
 10
119.338957
 20
95.219103
 30
0.0
 10
119.338957
 20
93.970622
 30
0.0
 10
119.842018
 20
93.970622
 30
0.0
  0
LWPOLYLINE
  5
272
100
AcDbEntity
  8
Layer_1
 62
7
100
AcDbPolyline
 90
4
 70
1
 10
118.990412
 20
95.219103
 30
0.0
 10
118.492995
 20
95.219103
 30
0.0
 10
118.492995
 20
93.970622
 30
0.0
 10
118.990412
 20
93.970622
 30
0.0
  0
LWPOLYLINE
  5
273
100
AcDbEntity
  8
Layer_1
 62
7
100
AcDbPolyline
 90
4
 70
1
 10
118.090475
 20
95.219103
 30
0.0
 10
117.593058
 20
95.219103
 30
0.0
 10
117.593058
 20
93.970622
 30
0.0
 10
118.090475
 20
93.970622
 30
0.0
  0
LWPOLYLINE
  5
274
100
AcDbEntity
  8
Layer_1
 62
7
100
AcDbPolyline
 90
4
 70
1
 10
117.237458
 20
95.219103
 30
0.0
 10
116.741452
 20
95.219103
 30
0.0
 10
116.741452
 20
93.970622
 30
0.0
 10
117.237458
 20
93.970622
 30
0.0
  0
LWPOLYLINE
  5
275
100
AcDbEntity
  8
Layer_1
 62
7
100
AcDbPolyline
 90
4
 70
1
 10
122.022186
 20
95.129850
 30
0.0
 10
120.783230
 20
95.129850
 30
0.0
 10
120.783230
 20
93.627721
 30
0.0
 10
122.022186
 20
93.627721
 30
0.0
  0
LWPOLYLINE
  5
276
100
AcDbEntity
  8
Layer_1
 62
7
100
AcDbPolyline
 90
4
 70
1
 10
123.926482
 20
95.129850
 30
0.0
 10
122.683645
 20
95.129850
 30
0.0
 10
122.683645
 20
93.627721
 30
0.0
 10
123.926482
 20
93.627721
 30
0.0
  0
LWPOLYLINE
  5
277
100
AcDbEntity
  8
Layer_1
 62
7
100
AcDbPolyline
 90
4
 70
1
 10
95.039961
 20
103.475166
 30
0.0
 10
93.536421
 20
103.475166
 30
0.0
 10
93.536421
 20
102.173063
 30
0.0
 10
95.039961
 20
102.173063
 30
0.0
  0
LWPOLYLINE
  5
278
100
AcDbEntity
  8
Layer_1
 62
7
100
AcDbPolyline
 90
4
 70
1
 10
96.145214
 20
116.005488
 30
0.0
 10
93.447168
 20
116.005488
 30
0.0
 10
93.447168
 20
114.401407
 30
0.0
 10
96.145214
 20
114.401407
 30
0.0
  0
LWPOLYLINE
  5
279
100
AcDbEntity
  8
Layer_1
 62
7
100
AcDbPolyline
 90
4
 70
1
 10
92.753959
 20
116.782658
 30
0.0
 10
91.250420
 20
116.782658
 30
0.0
 10
91.250420
 20
115.539821
 30
0.0
 10
92.753959
 20
115.539821
 30
0.0
  0
LWPOLYLINE
  5
27a
100
AcDbEntity
  8
Layer_1
 62
7
100
AcDbPolyline
 90
4
 70
1
 10
90.467605
 20
116.782658
 30
0.0
 10
88.964065
 20
116.782658
 30
0.0
 10
88.964065
 20
115.539821
 30
0.0
 10
90.467605
 20
115.539821
 30
0.0
  0
LWPOLYLINE
  5
27b
100
AcDbEntity
  8
Layer_1
 62
7
100
AcDbPolyline
 90
4
 70
1
 10
94.615569
 20
108.321631
 30
0.0
 10
92.012420
 20
108.321631
 30
0.0
 10
92.012420
 20
105.522690
 30
0.0
 10
94.615569
 20
105.522690
 30
0.0
  0
LWPOLYLINE
  5
27c
100
AcDbEntity
  8
Layer_1
 62
7
100
AcDbPolyline
 90
4
 70
1
 10
88.271209
 20
118.804429
 30
0.0
 10
85.573163
 20
118.804429
 30
0.0
 10
85.573163
 20
117.207403
 30
0.0
 10
88.271209
 20
117.207403
 30
0.0
  0
LWPOLYLINE
  5
27d
100
AcDbEntity
  8
Layer_1
 62
7
100
AcDbPolyline
 90
4
 70
1
 10
96.145214
 20
118.804429
 30
0.0
 10
93.447168
 20
118.804429
 30
0.0
 10
93.447168
 20
117.207403
 30
0.0
 10
96.145214
 20
117.207403
 30
0.0
  0
LWPOLYLINE
  5
27e
100
AcDbEntity
  8
Layer_1
 62
7
100
AcDbPolyline
 90
4
 70
1
 10
92.753959
 20
118.683073
 30
0.0
 10
91.250420
 20
118.683073
 30
0.0
 10
91.250420
 20
117.444117
 30
0.0
 10
92.753959
 20
117.444117
 30
0.0
  0
LWPOLYLINE
  5
27f
100
AcDbEntity
  8
Layer_1
 62
7
100
AcDbPolyline
 90
4
 70
1
 10
93.954110
 20
120.911572
 30
0.0
 10
92.716565
 20
120.911572
 30
0.0
 10
92.716565
 20
119.408032
 30
0.0
 10
93.954110
 20
119.408032
 30
0.0
  0
LWPOLYLINE
  5
280
100
AcDbEntity
  8
Layer_1
 62
7
100
AcDbPolyline
 90
4
 70
1
 10
95.859817
 20
120.911572
 30
0.0
 10
94.615569
 20
120.911572
 30
0.0
 10
94.615569
 20
119.408032
 30
0.0
 10
95.859817
 20
119.408032
 30
0.0
  0
LWPOLYLINE
  5
281
100
AcDbEntity
  8
Layer_1
 62
7
100
AcDbPolyline
 90
4
 70
1
 10
89.001460
 20
120.911572
 30
0.0
 10
87.758623
 20
120.911572
 30
0.0
 10
87.758623
 20
119.408032
 30
0.0
 10
89.001460
 20
119.408032
 30
0.0
  0
LWPOLYLINE
  5
282
100
AcDbEntity
  8
Layer_1
 62
7
100
AcDbPolyline
 90
4
 70
1
 10
87.097164
 20
120.911572
 30
0.0
 10
85.858208
 20
120.911572
 30
0.0
 10
85.858208
 20
119.408032
 30
0.0
 10
87.097164
 20
119.408032
 30
0.0
  0
LWPOLYLINE
  5
283
100
AcDbEntity
  8
Layer_1
 62
7
100
AcDbPolyline
 90
4
 70
1
 10
90.467605
 20
118.683073
 30
0.0
 10
88.964065
 20
118.683073
 30
0.0
 10
88.964065
 20
117.444117
 30
0.0
 10
90.467605
 20
117.444117
 30
0.0
  0
LWPOLYLINE
  5
284
100
AcDbEntity
  8
Layer_1
 62
7
100
AcDbPolyline
 90
4
 70
1
 10
88.271209
 20
116.005488
 30
0.0
 10
85.573163
 20
116.005488
 30
0.0
 10
85.573163
 20
114.401407
 30
0.0
 10
88.271209
 20
114.401407
 30
0.0
  0
LWPOLYLINE
  5
285
100
AcDbEntity
  8
Layer_1
 62
7
100
AcDbPolyline
 90
4
 70
1
 10
87.413959
 20
100.522062
 30
0.0
 10
84.615018
 20
100.522062
 30
0.0
 10
84.615018
 20
98.321433
 30
0.0
 10
87.413959
 20
98.321433
 30
0.0
  0
LWPOLYLINE
  5
286
100
AcDbEntity
  8
Layer_1
 62
7
100
AcDbPolyline
 90
4
 70
1
 10
84.626307
 20
115.381424
 30
0.0
 10
83.122767
 20
115.381424
 30
0.0
 10
83.122767
 20
114.142468
 30
0.0
 10
84.626307
 20
114.142468
 30
0.0
  0
LWPOLYLINE
  5
287
100
AcDbEntity
  8
Layer_1
 62
7
100
AcDbPolyline
 90
4
 70
1
 10
84.626307
 20
113.481009
 30
0.0
 10
83.122767
 20
113.481009
 30
0.0
 10
83.122767
 20
112.238172
 30
0.0
 10
84.626307
 20
112.238172
 30
0.0
  0
LWPOLYLINE
  5
288
100
AcDbEntity
  8
Layer_1
 62
7
100
AcDbPolyline
 90
4
 70
1
 10
84.626307
 20
108.655006
 30
0.0
 10
83.122767
 20
108.655006
 30
0.0
 10
83.122767
 20
107.412169
 30
0.0
 10
84.626307
 20
107.412169
 30
0.0
  0
LWPOLYLINE
  5
289
100
AcDbEntity
  8
Layer_1
 62
7
100
AcDbPolyline
 90
4
 70
1
 10
84.626307
 20
110.555421
 30
0.0
 10
83.122767
 20
110.555421
 30
0.0
 10
83.122767
 20
109.316465
 30
0.0
 10
84.626307
 20
109.316465
 30
0.0
  0
LWPOLYLINE
  5
28a
100
AcDbEntity
  8
Layer_1
 62
7
100
AcDbPolyline
 90
4
 70
1
 10
77.005597
 20
115.381424
 30
0.0
 10
75.502057
 20
115.381424
 30
0.0
 10
75.502057
 20
114.142468
 30
0.0
 10
77.005597
 20
114.142468
 30
0.0
  0
LWPOLYLINE
  5
28b
100
AcDbEntity
  8
Layer_1
 62
7
100
AcDbPolyline
 90
4
 70
1
 10
79.545246
 20
115.381424
 30
0.0
 10
78.043117
 20
115.381424
 30
0.0
 10
78.043117
 20
114.142468
 30
0.0
 10
79.545246
 20
114.142468
 30
0.0
  0
LWPOLYLINE
  5
28c
100
AcDbEntity
  8
Layer_1
 62
7
100
AcDbPolyline
 90
4
 70
1
 10
79.545246
 20
113.481009
 30
0.0
 10
78.043117
 20
113.481009
 30
0.0
 10
78.043117
 20
112.238172
 30
0.0
 10
79.545246
 20
112.238172
 30
0.0
  0
LWPOLYLINE
  5
28d
100
AcDbEntity
  8
Layer_1
 62
7
100
AcDbPolyline
 90
4
 70
1
 10
82.085247
 20
115.381424
 30
0.0
 10
80.583118
 20
115.381424
 30
0.0
 10
80.583118
 20
114.142468
 30
0.0
 10
82.085247
 20
114.142468
 30
0.0
  0
LWPOLYLINE
  5
28e
100
AcDbEntity
  8
Layer_1
 62
7
100
AcDbPolyline
 90
4
 70
1
 10
82.085247
 20
113.481009
 30
0.0
 10
80.583118
 20
113.481009
 30
0.0
 10
80.583118
 20
112.238172
 30
0.0
 10
82.085247
 20
112.238172
 30
0.0
  0
LWPOLYLINE
  5
28f
100
AcDbEntity
  8
Layer_1
 62
7
100
AcDbPolyline
 90
4
 70
1
 10
82.085247
 20
110.555421
 30
0.0
 10
80.583118
 20
110.555421
 30
0.0
 10
80.583118
 20
109.316465
 30
0.0
 10
82.085247
 20
109.316465
 30
0.0
  0
LWPOLYLINE
  5
290
100
AcDbEntity
  8
Layer_1
 62
7
100
AcDbPolyline
 90
4
 70
1
 10
82.085247
 20
108.655006
 30
0.0
 10
80.583118
 20
108.655006
 30
0.0
 10
80.583118
 20
107.412169
 30
0.0
 10
82.085247
 20
107.412169
 30
0.0
  0
LWPOLYLINE
  5
291
100
AcDbEntity
  8
Layer_1
 62
7
100
AcDbPolyline
 90
4
 70
1
 10
122.022186
 20
118.698243
 30
0.0
 10
120.777938
 20
118.698243
 30
0.0
 10
120.777938
 20
117.201758
 30
0.0
 10
122.022186
 20
117.201758
 30
0.0
  0
LWPOLYLINE
  5
292
100
AcDbEntity
  8
Layer_1
 62
7
100
AcDbPolyline
 90
4
 70
1
 10
121.386833
 20
121.964261
 30
0.0
 10
120.783230
 20
121.964261
 30
0.0
 10
120.783230
 20
119.762221
 30
0.0
 10
121.386833
 20
119.762221
 30
0.0
  0
LWPOLYLINE
  5
293
100
AcDbEntity
  8
Layer_1
 62
7
100
AcDbPolyline
 90
4
 70
1
 10
122.657187
 20
121.964261
 30
0.0
 10
122.053583
 20
121.964261
 30
0.0
 10
122.053583
 20
119.762221
 30
0.0
 10
122.657187
 20
119.762221
 30
0.0
  0
LWPOLYLINE
  5
294
100
AcDbEntity
  8
Layer_1
 62
7
100
AcDbPolyline
 90
4
 70
1
 10
120.116127
 20
121.964261
 30
0.0
 10
119.513935
 20
121.964261
 30
0.0
 10
119.513935
 20
119.762221
 30
0.0
 10
120.116127
 20
119.762221
 30
0.0
  0
LWPOLYLINE
  5
295
100
AcDbEntity
  8
Layer_1
 62
7
100
AcDbPolyline
 90
4
 70
1
 10
118.847184
 20
121.964261
 30
0.0
 10
118.243581
 20
121.964261
 30
0.0
 10
118.243581
 20
119.762221
 30
0.0
 10
118.847184
 20
119.762221
 30
0.0
  0
LWPOLYLINE
  5
296
100
AcDbEntity
  8
Layer_1
 62
7
100
AcDbPolyline
 90
4
 70
1
 10
123.699293
 20
116.121199
 30
0.0
 10
123.037834
 20
116.121199
 30
0.0
 10
123.037834
 20
114.089904
 30
0.0
 10
123.699293
 20
114.089904
 30
0.0
  0
LWPOLYLINE
  5
297
100
AcDbEntity
  8
Layer_1
 62
7
100
AcDbPolyline
 90
4
 70
1
 10
123.699293
 20
109.972632
 30
0.0
 10
123.037834
 20
109.972632
 30
0.0
 10
123.037834
 20
107.941336
 30
0.0
 10
123.699293
 20
107.941336
 30
0.0
  0
LWPOLYLINE
  5
298
100
AcDbEntity
  8
Layer_1
 62
7
100
AcDbPolyline
 90
4
 70
1
 10
121.159291
 20
109.972632
 30
0.0
 10
120.497832
 20
109.972632
 30
0.0
 10
120.497832
 20
107.941336
 30
0.0
 10
121.159291
 20
107.941336
 30
0.0
  0
LWPOLYLINE
  5
299
100
AcDbEntity
  8
Layer_1
 62
7
100
AcDbPolyline
 90
4
 70
1
 10
119.888938
 20
109.972632
 30
0.0
 10
119.227479
 20
109.972632
 30
0.0
 10
119.227479
 20
107.941336
 30
0.0
 10
119.888938
 20
107.941336
 30
0.0
  0
LWPOLYLINE
  5
29a
100
AcDbEntity
  8
Layer_1
 62
7
100
AcDbPolyline
 90
4
 70
1
 10
125.620169
 20
116.529364
 30
0.0
 10
124.778088
 20
116.529364
 30
0.0
 10
124.778088
 20
116.068988
 30
0.0
 10
125.620169
 20
116.068988
 30
0.0
  0
LWPOLYLINE
  5
29b
100
AcDbEntity
  8
Layer_1
 62
7
100
AcDbPolyline
 90
4
 70
1
 10
125.620169
 20
115.714799
 30
0.0
 10
124.778088
 20
115.714799
 30
0.0
 10
124.778088
 20
115.258657
 30
0.0
 10
125.620169
 20
115.258657
 30
0.0
  0
LWPOLYLINE
  5
29c
100
AcDbEntity
  8
Layer_1
 62
7
100
AcDbPolyline
 90
4
 70
1
 10
127.291631
 20
114.904468
 30
0.0
 10
126.456606
 20
114.904468
 30
0.0
 10
126.456606
 20
114.444093
 30
0.0
 10
127.291631
 20
114.444093
 30
0.0
  0
LWPOLYLINE
  5
29d
100
AcDbEntity
  8
Layer_1
 62
7
100
AcDbPolyline
 90
4
 70
1
 10
127.291631
 20
115.714799
 30
0.0
 10
126.456606
 20
115.714799
 30
0.0
 10
126.456606
 20
115.258657
 30
0.0
 10
127.291631
 20
115.258657
 30
0.0
  0
LWPOLYLINE
  5
29e
100
AcDbEntity
  8
Layer_1
 62
7
100
AcDbPolyline
 90
4
 70
1
 10
127.291631
 20
116.529364
 30
0.0
 10
126.456606
 20
116.529364
 30
0.0
 10
126.456606
 20
116.068988
 30
0.0
 10
127.291631
 20
116.068988
 30
0.0
  0
LWPOLYLINE
  5
29f
100
AcDbEntity
  8
Layer_1
 62
7
100
AcDbPolyline
 90
4
 70
1
 10
125.620169
 20
114.904468
 30
0.0
 10
124.778088
 20
114.904468
 30
0.0
 10
124.778088
 20
114.444093
 30
0.0
 10
125.620169
 20
114.444093
 30
0.0
  0
LWPOLYLINE
  5
2a0
100
AcDbEntity
  8
Layer_1
 62
7
100
AcDbPolyline
 90
4
 70
1
 10
125.620169
 20
114.090256
 30
0.0
 10
124.778088
 20
114.090256
 30
0.0
 10
124.778088
 20
113.635526
 30
0.0
 10
125.620169
 20
113.635526
 30
0.0
  0
LWPOLYLINE
  5
2a1
100
AcDbEntity
  8
Layer_1
 62
7
100
AcDbPolyline
 90
4
 70
1
 10
127.291631
 20
114.090256
 30
0.0
 10
126.456606
 20
114.090256
 30
0.0
 10
126.456606
 20
113.635526
 30
0.0
 10
127.291631
 20
113.635526
 30
0.0
  0
LWPOLYLINE
  5
2a2
100
AcDbEntity
  8
Layer_1
 62
7
100
AcDbPolyline
 90
4
 70
1
 10
125.620169
 20
111.703361
 30
0.0
 10
124.778088
 20
111.703361
 30
0.0
 10
124.778088
 20
111.242985
 30
0.0
 10
125.620169
 20
111.242985
 30
0.0
  0
LWPOLYLINE
  5
2a3
100
AcDbEntity
  8
Layer_1
 62
7
100
AcDbPolyline
 90
4
 70
1
 10
127.291631
 20
111.703361
 30
0.0
 10
126.456606
 20
111.703361
 30
0.0
 10
126.456606
 20
111.242985
 30
0.0
 10
127.291631
 20
111.242985
 30
0.0
  0
LWPOLYLINE
  5
2a4
100
AcDbEntity
  8
Layer_1
 62
7
100
AcDbPolyline
 90
4
 70
1
 10
125.620169
 20
110.888796
 30
0.0
 10
124.778088
 20
110.888796
 30
0.0
 10
124.778088
 20
110.432654
 30
0.0
 10
125.620169
 20
110.432654
 30
0.0
  0
LWPOLYLINE
  5
2a5
100
AcDbEntity
  8
Layer_1
 62
7
100
AcDbPolyline
 90
4
 70
1
 10
125.620169
 20
110.078818
 30
0.0
 10
124.778088
 20
110.078818
 30
0.0
 10
124.778088
 20
109.618443
 30
0.0
 10
125.620169
 20
109.618443
 30
0.0
  0
LWPOLYLINE
  5
2a6
100
AcDbEntity
  8
Layer_1
 62
7
100
AcDbPolyline
 90
4
 70
1
 10
127.291631
 20
109.264253
 30
0.0
 10
126.456606
 20
109.264253
 30
0.0
 10
126.456606
 20
108.809523
 30
0.0
 10
127.291631
 20
108.809523
 30
0.0
  0
LWPOLYLINE
  5
2a7
100
AcDbEntity
  8
Layer_1
 62
7
100
AcDbPolyline
 90
4
 70
1
 10
127.291631
 20
110.078818
 30
0.0
 10
126.456606
 20
110.078818
 30
0.0
 10
126.456606
 20
109.618443
 30
0.0
 10
127.291631
 20
109.618443
 30
0.0
  0
LWPOLYLINE
  5
2a8
100
AcDbEntity
  8
Layer_1
 62
7
100
AcDbPolyline
 90
4
 70
1
 10
127.291631
 20
110.888796
 30
0.0
 10
126.456606
 20
110.888796
 30
0.0
 10
126.456606
 20
110.432654
 30
0.0
 10
127.291631
 20
110.432654
 30
0.0
  0
LWPOLYLINE
  5
2a9
100
AcDbEntity
  8
Layer_1
 62
7
100
AcDbPolyline
 90
4
 70
1
 10
77.005597
 20
108.655006
 30
0.0
 10
75.502057
 20
108.655006
 30
0.0
 10
75.502057
 20
107.412169
 30
0.0
 10
77.005597
 20
107.412169
 30
0.0
  0
LWPOLYLINE
  5
2aa
100
AcDbEntity
  8
Layer_1
 62
7
100
AcDbPolyline
 90
4
 70
1
 10
77.005597
 20
110.555421
 30
0.0
 10
75.502057
 20
110.555421
 30
0.0
 10
75.502057
 20
109.316465
 30
0.0
 10
77.005597
 20
109.316465
 30
0.0
  0
LWPOLYLINE
  5
2ab
100
AcDbEntity
  8
Layer_1
 62
7
100
AcDbPolyline
 90
4
 70
1
 10
79.545246
 20
110.555421
 30
0.0
 10
78.043117
 20
110.555421
 30
0.0
 10
78.043117
 20
109.316465
 30
0.0
 10
79.545246
 20
109.316465
 30
0.0
  0
LWPOLYLINE
  5
2ac
100
AcDbEntity
  8
Layer_1
 62
7
100
AcDbPolyline
 90
4
 70
1
 10
79.545246
 20
108.655006
 30
0.0
 10
78.043117
 20
108.655006
 30
0.0
 10
78.043117
 20
107.412169
 30
0.0
 10
79.545246
 20
107.412169
 30
0.0
  0
LWPOLYLINE
  5
2ad
100
AcDbEntity
  8
Layer_1
 62
7
100
AcDbPolyline
 90
4
 70
1
 10
77.005597
 20
113.481009
 30
0.0
 10
75.502057
 20
113.481009
 30
0.0
 10
75.502057
 20
112.238172
 30
0.0
 10
77.005597
 20
112.238172
 30
0.0
  0
LWPOLYLINE
  5
2ae
100
AcDbEntity
  8
Layer_1
 62
7
100
AcDbPolyline
 90
2
 70
0
 10
73.539906
 20
110.725107
 30
0.0
 10
73.296136
 20
110.725107
 30
0.0
  0
LWPOLYLINE
  5
2af
100
AcDbEntity
  8
Layer_1
 62
7
100
AcDbPolyline
 90
2
 70
0
 10
73.539906
 20
110.438299
 30
0.0
 10
73.296136
 20
110.438299
 30
0.0
  0
LWPOLYLINE
  5
2b0
100
AcDbEntity
  8
Layer_1
 62
7
100
AcDbPolyline
 90
2
 70
0
 10
73.296136
 20
110.665840
 30
0.0
 10
73.539906
 20
110.665840
 30
0.0
  0
LWPOLYLINE
  5
2b1
100
AcDbEntity
  8
Layer_1
 62
7
100
AcDbPolyline
 90
2
 70
0
 10
73.539906
 20
110.725107
 30
0.0
 10
73.539906
 20
109.756026
 30
0.0
  0
LWPOLYLINE
  5
2b2
100
AcDbEntity
  8
Layer_1
 62
7
100
AcDbPolyline
 90
3
 70
0
 10
73.296136
 20
110.725107
 30
0.0
 10
73.296136
 20
109.756026
 30
0.0
 10
73.539906
 20
109.756026
 30
0.0
  0
LWPOLYLINE
  5
2b3
100
AcDbEntity
  8
Layer_1
 62
7
100
AcDbPolyline
 90
2
 70
0
 10
73.539906
 20
109.983568
 30
0.0
 10
73.296136
 20
109.983568
 30
0.0
  0
LWPOLYLINE
  5
2b4
100
AcDbEntity
  8
Layer_1
 62
7
100
AcDbPolyline
 90
2
 70
0
 10
73.296136
 20
110.211110
 30
0.0
 10
73.539906
 20
110.211110
 30
0.0
  0
LWPOLYLINE
  5
2b5
100
AcDbEntity
  8
Layer_1
 62
7
100
AcDbPolyline
 90
2
 70
0
 10
72.887972
 20
110.725107
 30
0.0
 10
72.887972
 20
109.756026
 30
0.0
  0
LWPOLYLINE
  5
2b6
100
AcDbEntity
  8
Layer_1
 62
7
100
AcDbPolyline
 90
3
 70
0
 10
72.887972
 20
110.725107
 30
0.0
 10
72.650905
 20
110.725107
 30
0.0
 10
72.650905
 20
109.756026
 30
0.0
  0
LWPOLYLINE
  5
2b7
100
AcDbEntity
  8
Layer_1
 62
7
100
AcDbPolyline
 90
2
 70
0
 10
72.887972
 20
110.438299
 30
0.0
 10
72.650905
 20
110.438299
 30
0.0
  0
LWPOLYLINE
  5
2b8
100
AcDbEntity
  8
Layer_1
 62
7
100
AcDbPolyline
 90
2
 70
0
 10
72.650905
 20
110.665840
 30
0.0
 10
72.887972
 20
110.665840
 30
0.0
  0
LWPOLYLINE
  5
2b9
100
AcDbEntity
  8
Layer_1
 62
7
100
AcDbPolyline
 90
4
 70
1
 10
71.926299
 20
115.381424
 30
0.0
 10
70.422759
 20
115.381424
 30
0.0
 10
70.422759
 20
114.142468
 30
0.0
 10
71.926299
 20
114.142468
 30
0.0
  0
LWPOLYLINE
  5
2ba
100
AcDbEntity
  8
Layer_1
 62
7
100
AcDbPolyline
 90
4
 70
1
 10
71.926299
 20
113.481009
 30
0.0
 10
70.422759
 20
113.481009
 30
0.0
 10
70.422759
 20
112.238172
 30
0.0
 10
71.926299
 20
112.238172
 30
0.0
  0
LWPOLYLINE
  5
2bb
100
AcDbEntity
  8
Layer_1
 62
7
100
AcDbPolyline
 90
4
 70
1
 10
74.465948
 20
115.381424
 30
0.0
 10
72.962408
 20
115.381424
 30
0.0
 10
72.962408
 20
114.142468
 30
0.0
 10
74.465948
 20
114.142468
 30
0.0
  0
LWPOLYLINE
  5
2bc
100
AcDbEntity
  8
Layer_1
 62
7
100
AcDbPolyline
 90
4
 70
1
 10
74.465948
 20
113.481009
 30
0.0
 10
72.962408
 20
113.481009
 30
0.0
 10
72.962408
 20
112.238172
 30
0.0
 10
74.465948
 20
112.238172
 30
0.0
  0
LWPOLYLINE
  5
2bd
100
AcDbEntity
  8
Layer_1
 62
7
100
AcDbPolyline
 90
2
 70
0
 10
72.650905
 20
109.756026
 30
0.0
 10
72.887972
 20
109.756026
 30
0.0
  0
LWPOLYLINE
  5
2be
100
AcDbEntity
  8
Layer_1
 62
7
100
AcDbPolyline
 90
2
 70
0
 10
72.887972
 20
109.983568
 30
0.0
 10
72.650905
 20
109.983568
 30
0.0
  0
LWPOLYLINE
  5
2bf
100
AcDbEntity
  8
Layer_1
 62
7
100
AcDbPolyline
 90
2
 70
0
 10
72.650905
 20
110.211110
 30
0.0
 10
72.887972
 20
110.211110
 30
0.0
  0
LWPOLYLINE
  5
2c0
100
AcDbEntity
  8
Layer_1
 62
7
100
AcDbPolyline
 90
2
 70
0
 10
71.999324
 20
110.211110
 30
0.0
 10
72.237802
 20
110.211110
 30
0.0
  0
LWPOLYLINE
  5
2c1
100
AcDbEntity
  8
Layer_1
 62
7
100
AcDbPolyline
 90
2
 70
0
 10
72.237802
 20
110.725107
 30
0.0
 10
72.237802
 20
109.756026
 30
0.0
  0
LWPOLYLINE
  5
2c2
100
AcDbEntity
  8
Layer_1
 62
7
100
AcDbPolyline
 90
3
 70
0
 10
71.999324
 20
110.725107
 30
0.0
 10
71.999324
 20
109.756026
 30
0.0
 10
72.237802
 20
109.756026
 30
0.0
  0
LWPOLYLINE
  5
2c3
100
AcDbEntity
  8
Layer_1
 62
7
100
AcDbPolyline
 90
2
 70
0
 10
72.237802
 20
109.983568
 30
0.0
 10
71.999324
 20
109.983568
 30
0.0
  0
LWPOLYLINE
  5
2c4
100
AcDbEntity
  8
Layer_1
 62
7
100
AcDbPolyline
 90
2
 70
0
 10
72.237802
 20
110.438299
 30
0.0
 10
71.999324
 20
110.438299
 30
0.0
  0
LWPOLYLINE
  5
2c5
100
AcDbEntity
  8
Layer_1
 62
7
100
AcDbPolyline
 90
2
 70
0
 10
72.237802
 20
110.725107
 30
0.0
 10
71.999324
 20
110.725107
 30
0.0
  0
LWPOLYLINE
  5
2c6
100
AcDbEntity
  8
Layer_1
 62
7
100
AcDbPolyline
 90
2
 70
0
 10
71.999324
 20
110.665840
 30
0.0
 10
72.237802
 20
110.665840
 30
0.0
  0
LWPOLYLINE
  5
2c7
100
AcDbEntity
  8
Layer_1
 62
7
100
AcDbPolyline
 90
2
 70
0
 10
71.587279
 20
110.725107
 30
0.0
 10
71.348802
 20
110.725107
 30
0.0
  0
LWPOLYLINE
  5
2c8
100
AcDbEntity
  8
Layer_1
 62
7
100
AcDbPolyline
 90
2
 70
0
 10
71.587279
 20
110.438299
 30
0.0
 10
71.348802
 20
110.438299
 30
0.0
  0
LWPOLYLINE
  5
2c9
100
AcDbEntity
  8
Layer_1
 62
7
100
AcDbPolyline
 90
2
 70
0
 10
71.348802
 20
110.665840
 30
0.0
 10
71.587279
 20
110.665840
 30
0.0
  0
LWPOLYLINE
  5
2ca
100
AcDbEntity
  8
Layer_1
 62
7
100
AcDbPolyline
 90
2
 70
0
 10
71.587279
 20
110.725107
 30
0.0
 10
71.587279
 20
109.756026
 30
0.0
  0
LWPOLYLINE
  5
2cb
100
AcDbEntity
  8
Layer_1
 62
7
100
AcDbPolyline
 90
3
 70
0
 10
71.348802
 20
110.725107
 30
0.0
 10
71.348802
 20
109.756026
 30
0.0
 10
71.587279
 20
109.756026
 30
0.0
  0
LWPOLYLINE
  5
2cc
100
AcDbEntity
  8
Layer_1
 62
7
100
AcDbPolyline
 90
2
 70
0
 10
71.587279
 20
109.983568
 30
0.0
 10
71.348802
 20
109.983568
 30
0.0
  0
LWPOLYLINE
  5
2cd
100
AcDbEntity
  8
Layer_1
 62
7
100
AcDbPolyline
 90
2
 70
0
 10
71.348802
 20
110.211110
 30
0.0
 10
71.587279
 20
110.211110
 30
0.0
  0
LWPOLYLINE
  5
2ce
100
AcDbEntity
  8
Layer_1
 62
7
100
AcDbPolyline
 90
2
 70
0
 10
71.348802
 20
107.242483
 30
0.0
 10
71.587279
 20
107.242483
 30
0.0
  0
LWPOLYLINE
  5
2cf
100
AcDbEntity
  8
Layer_1
 62
7
100
AcDbPolyline
 90
2
 70
0
 10
71.348802
 20
107.470024
 30
0.0
 10
71.587279
 20
107.470024
 30
0.0
  0
LWPOLYLINE
  5
2d0
100
AcDbEntity
  8
Layer_1
 62
7
100
AcDbPolyline
 90
2
 70
0
 10
71.587279
 20
107.702858
 30
0.0
 10
71.348802
 20
107.702858
 30
0.0
  0
LWPOLYLINE
  5
2d1
100
AcDbEntity
  8
Layer_1
 62
7
100
AcDbPolyline
 90
2
 70
0
 10
72.237802
 20
107.702858
 30
0.0
 10
71.999324
 20
107.702858
 30
0.0
  0
LWPOLYLINE
  5
2d2
100
AcDbEntity
  8
Layer_1
 62
7
100
AcDbPolyline
 90
2
 70
0
 10
71.348802
 20
108.215444
 30
0.0
 10
71.348802
 20
107.242483
 30
0.0
  0
LWPOLYLINE
  5
2d3
100
AcDbEntity
  8
Layer_1
 62
7
100
AcDbPolyline
 90
3
 70
0
 10
71.587279
 20
107.242483
 30
0.0
 10
71.587279
 20
108.215444
 30
0.0
 10
71.348802
 20
108.215444
 30
0.0
  0
LWPOLYLINE
  5
2d4
100
AcDbEntity
  8
Layer_1
 62
7
100
AcDbPolyline
 90
2
 70
0
 10
71.348802
 20
107.930400
 30
0.0
 10
71.587279
 20
107.930400
 30
0.0
  0
LWPOLYLINE
  5
2d5
100
AcDbEntity
  8
Layer_1
 62
7
100
AcDbPolyline
 90
2
 70
0
 10
71.587279
 20
108.157589
 30
0.0
 10
71.348802
 20
108.157589
 30
0.0
  0
LWPOLYLINE
  5
2d6
100
AcDbEntity
  8
Layer_1
 62
7
100
AcDbPolyline
 90
2
 70
0
 10
71.999324
 20
108.215444
 30
0.0
 10
71.999324
 20
107.242483
 30
0.0
  0
LWPOLYLINE
  5
2d7
100
AcDbEntity
  8
Layer_1
 62
7
100
AcDbPolyline
 90
3
 70
0
 10
72.237802
 20
107.242483
 30
0.0
 10
72.237802
 20
108.215444
 30
0.0
 10
71.999324
 20
108.215444
 30
0.0
  0
LWPOLYLINE
  5
2d8
100
AcDbEntity
  8
Layer_1
 62
7
100
AcDbPolyline
 90
2
 70
0
 10
71.999324
 20
107.930400
 30
0.0
 10
72.237802
 20
107.930400
 30
0.0
  0
LWPOLYLINE
  5
2d9
100
AcDbEntity
  8
Layer_1
 62
7
100
AcDbPolyline
 90
2
 70
0
 10
72.237802
 20
108.157589
 30
0.0
 10
71.999324
 20
108.157589
 30
0.0
  0
LWPOLYLINE
  5
2da
100
AcDbEntity
  8
Layer_1
 62
7
100
AcDbPolyline
 90
2
 70
0
 10
71.999324
 20
107.242483
 30
0.0
 10
72.237802
 20
107.242483
 30
0.0
  0
LWPOLYLINE
  5
2db
100
AcDbEntity
  8
Layer_1
 62
7
100
AcDbPolyline
 90
2
 70
0
 10
71.999324
 20
107.470024
 30
0.0
 10
72.237802
 20
107.470024
 30
0.0
  0
LWPOLYLINE
  5
2dc
100
AcDbEntity
  8
Layer_1
 62
7
100
AcDbPolyline
 90
2
 70
0
 10
72.650905
 20
107.242483
 30
0.0
 10
72.887972
 20
107.242483
 30
0.0
  0
LWPOLYLINE
  5
2dd
100
AcDbEntity
  8
Layer_1
 62
7
100
AcDbPolyline
 90
2
 70
0
 10
72.650905
 20
107.470024
 30
0.0
 10
72.887972
 20
107.470024
 30
0.0
  0
LWPOLYLINE
  5
2de
100
AcDbEntity
  8
Layer_1
 62
7
100
AcDbPolyline
 90
2
 70
0
 10
72.650905
 20
108.215444
 30
0.0
 10
72.650905
 20
107.242483
 30
0.0
  0
LWPOLYLINE
  5
2df
100
AcDbEntity
  8
Layer_1
 62
7
100
AcDbPolyline
 90
3
 70
0
 10
72.887972
 20
107.242483
 30
0.0
 10
72.887972
 20
108.215444
 30
0.0
 10
72.650905
 20
108.215444
 30
0.0
  0
LWPOLYLINE
  5
2e0
100
AcDbEntity
  8
Layer_1
 62
7
100
AcDbPolyline
 90
2
 70
0
 10
72.650905
 20
107.930400
 30
0.0
 10
72.887972
 20
107.930400
 30
0.0
  0
LWPOLYLINE
  5
2e1
100
AcDbEntity
  8
Layer_1
 62
7
100
AcDbPolyline
 90
2
 70
0
 10
72.887972
 20
108.157589
 30
0.0
 10
72.650905
 20
108.157589
 30
0.0
  0
LWPOLYLINE
  5
2e2
100
AcDbEntity
  8
Layer_1
 62
7
100
AcDbPolyline
 90
2
 70
0
 10
72.887972
 20
107.702858
 30
0.0
 10
72.650905
 20
107.702858
 30
0.0
  0
LWPOLYLINE
  5
2e3
100
AcDbEntity
  8
Layer_1
 62
7
100
AcDbPolyline
 90
2
 70
0
 10
73.296136
 20
107.470024
 30
0.0
 10
73.539906
 20
107.470024
 30
0.0
  0
LWPOLYLINE
  5
2e4
100
AcDbEntity
  8
Layer_1
 62
7
100
AcDbPolyline
 90
2
 70
0
 10
73.539906
 20
107.702858
 30
0.0
 10
73.296136
 20
107.702858
 30
0.0
  0
LWPOLYLINE
  5
2e5
100
AcDbEntity
  8
Layer_1
 62
7
100
AcDbPolyline
 90
2
 70
0
 10
73.296136
 20
107.930400
 30
0.0
 10
73.539906
 20
107.930400
 30
0.0
  0
LWPOLYLINE
  5
2e6
100
AcDbEntity
  8
Layer_1
 62
7
100
AcDbPolyline
 90
4
 70
1
 10
73.296136
 20
108.215444
 30
0.0
 10
73.296136
 20
107.242483
 30
0.0
 10
73.539906
 20
107.242483
 30
0.0
 10
73.539906
 20
108.215444
 30
0.0
  0
LWPOLYLINE
  5
2e7
100
AcDbEntity
  8
Layer_1
 62
7
100
AcDbPolyline
 90
2
 70
0
 10
73.539906
 20
108.157589
 30
0.0
 10
73.296136
 20
108.157589
 30
0.0
  0
ENDSEC
  0
SECTION
  2
OBJECTS
  0
DICTIONARY
  5
C
330
0
100
AcDbDictionary
  3
ACAD_GROUP
350
D
  3
ACAD_MLINESTYLE
350
17
  0
DICTIONARY
  5
D
330
C
100
AcDbDictionary
  0
DICTIONARY
  5
1A
330
C
100
AcDbDictionary
  0
DICTIONARY
  5
17
330
C
100
AcDbDictionary
  3
STANDARD
350
18
  0
DICTIONARY
  5
19
330
C
100
AcDbDictionary
  0
ENDSEC
  0
EOF
