G04 EAGLE Gerber RS-274X export*
G75*
%MOMM*%
%FSLAX34Y34*%
%LPD*%
%INTop Copper*%
%IPPOS*%
%AMOC8*
5,1,8,0,0,1.08239X$1,22.5*%
G01*
%ADD10C,1.524000*%
%ADD11C,3.516000*%
%ADD12C,1.000000*%
%ADD13P,2.089446X8X202.500000*%
%ADD14C,1.650000*%
%ADD15C,1.350000*%
%ADD16C,2.540000*%
%ADD17C,0.508000*%
%ADD18C,0.152400*%
%ADD19C,0.604000*%
%ADD20C,0.304800*%
%ADD21C,0.609600*%
%ADD22C,0.254000*%

G36*
X739129Y3813D02*
X739129Y3813D01*
X739148Y3811D01*
X739269Y3833D01*
X739391Y3851D01*
X739409Y3859D01*
X739428Y3862D01*
X739538Y3917D01*
X739650Y3967D01*
X739665Y3979D01*
X739683Y3988D01*
X739774Y4071D01*
X739867Y4150D01*
X739878Y4167D01*
X739893Y4180D01*
X739957Y4285D01*
X740025Y4387D01*
X740031Y4406D01*
X740041Y4422D01*
X740074Y4541D01*
X740111Y4658D01*
X740111Y4678D01*
X740116Y4697D01*
X740115Y4819D01*
X740118Y4942D01*
X740113Y4961D01*
X740113Y4981D01*
X740077Y5099D01*
X740046Y5217D01*
X740036Y5234D01*
X740031Y5253D01*
X739964Y5356D01*
X739901Y5462D01*
X739887Y5475D01*
X739876Y5492D01*
X739819Y5538D01*
X739694Y5656D01*
X739648Y5680D01*
X739617Y5705D01*
X735825Y7895D01*
X730903Y14669D01*
X729162Y22860D01*
X730903Y31051D01*
X735825Y37826D01*
X743077Y42012D01*
X751405Y42888D01*
X759369Y40300D01*
X765592Y34697D01*
X766407Y32867D01*
X766445Y32806D01*
X766475Y32739D01*
X766520Y32686D01*
X766557Y32626D01*
X766612Y32578D01*
X766659Y32522D01*
X766717Y32484D01*
X766769Y32437D01*
X766835Y32405D01*
X766895Y32365D01*
X766962Y32344D01*
X767025Y32313D01*
X767097Y32301D01*
X767166Y32279D01*
X767236Y32277D01*
X767305Y32265D01*
X767378Y32274D01*
X767450Y32272D01*
X767518Y32289D01*
X767588Y32297D01*
X767655Y32325D01*
X767725Y32344D01*
X767786Y32379D01*
X767851Y32406D01*
X767907Y32452D01*
X767970Y32489D01*
X768018Y32540D01*
X768073Y32584D01*
X768115Y32643D01*
X768164Y32696D01*
X768196Y32759D01*
X768237Y32816D01*
X768261Y32884D01*
X768294Y32949D01*
X768304Y33008D01*
X768330Y33084D01*
X768337Y33205D01*
X768349Y33280D01*
X768349Y1089400D01*
X768339Y1089472D01*
X768339Y1089544D01*
X768319Y1089612D01*
X768309Y1089681D01*
X768280Y1089747D01*
X768259Y1089817D01*
X768222Y1089877D01*
X768193Y1089941D01*
X768146Y1089996D01*
X768107Y1090058D01*
X768055Y1090104D01*
X768010Y1090158D01*
X767949Y1090198D01*
X767895Y1090246D01*
X767831Y1090276D01*
X767773Y1090315D01*
X767703Y1090337D01*
X767638Y1090368D01*
X767569Y1090380D01*
X767502Y1090401D01*
X767429Y1090403D01*
X767357Y1090415D01*
X767288Y1090406D01*
X767218Y1090408D01*
X767147Y1090390D01*
X767075Y1090381D01*
X767010Y1090354D01*
X766943Y1090336D01*
X766880Y1090299D01*
X766813Y1090271D01*
X766758Y1090227D01*
X766698Y1090191D01*
X766648Y1090138D01*
X766592Y1090092D01*
X766559Y1090043D01*
X766504Y1089984D01*
X766449Y1089876D01*
X766407Y1089813D01*
X765592Y1087983D01*
X759369Y1082380D01*
X751405Y1079792D01*
X743077Y1080668D01*
X735825Y1084854D01*
X730903Y1091629D01*
X729162Y1099820D01*
X730903Y1108011D01*
X735825Y1114785D01*
X739617Y1116975D01*
X739632Y1116987D01*
X739650Y1116995D01*
X739744Y1117074D01*
X739841Y1117150D01*
X739852Y1117166D01*
X739867Y1117179D01*
X739936Y1117281D01*
X740007Y1117380D01*
X740014Y1117399D01*
X740025Y1117415D01*
X740062Y1117533D01*
X740104Y1117648D01*
X740105Y1117668D01*
X740111Y1117686D01*
X740114Y1117809D01*
X740122Y1117932D01*
X740117Y1117951D01*
X740118Y1117970D01*
X740087Y1118089D01*
X740060Y1118209D01*
X740051Y1118227D01*
X740046Y1118245D01*
X739984Y1118351D01*
X739925Y1118459D01*
X739911Y1118473D01*
X739901Y1118490D01*
X739811Y1118574D01*
X739725Y1118661D01*
X739708Y1118671D01*
X739694Y1118684D01*
X739584Y1118740D01*
X739477Y1118800D01*
X739458Y1118805D01*
X739440Y1118814D01*
X739368Y1118826D01*
X739200Y1118865D01*
X739149Y1118863D01*
X739109Y1118869D01*
X31247Y1118869D01*
X31191Y1118861D01*
X31135Y1118863D01*
X31051Y1118842D01*
X30965Y1118829D01*
X30914Y1118807D01*
X30860Y1118793D01*
X30785Y1118749D01*
X30706Y1118713D01*
X30663Y1118677D01*
X30615Y1118649D01*
X30555Y1118586D01*
X30489Y1118530D01*
X30458Y1118483D01*
X30419Y1118442D01*
X30379Y1118365D01*
X30331Y1118293D01*
X30314Y1118240D01*
X30289Y1118190D01*
X30272Y1118105D01*
X30245Y1118022D01*
X30244Y1117966D01*
X30233Y1117911D01*
X30240Y1117824D01*
X30238Y1117738D01*
X30252Y1117684D01*
X30257Y1117628D01*
X30288Y1117547D01*
X30310Y1117463D01*
X30338Y1117415D01*
X30358Y1117362D01*
X30402Y1117307D01*
X30455Y1117218D01*
X30525Y1117152D01*
X30567Y1117100D01*
X36612Y1111657D01*
X40018Y1104007D01*
X40018Y1095633D01*
X36612Y1087983D01*
X30389Y1082380D01*
X22425Y1079792D01*
X14097Y1080668D01*
X6845Y1084854D01*
X3107Y1089999D01*
X3032Y1090077D01*
X2961Y1090160D01*
X2933Y1090179D01*
X2910Y1090203D01*
X2815Y1090257D01*
X2725Y1090318D01*
X2693Y1090328D01*
X2663Y1090345D01*
X2558Y1090371D01*
X2454Y1090404D01*
X2420Y1090404D01*
X2387Y1090412D01*
X2278Y1090408D01*
X2170Y1090411D01*
X2137Y1090402D01*
X2103Y1090401D01*
X2000Y1090366D01*
X1895Y1090339D01*
X1866Y1090322D01*
X1833Y1090311D01*
X1743Y1090249D01*
X1650Y1090194D01*
X1627Y1090169D01*
X1599Y1090150D01*
X1530Y1090066D01*
X1456Y1089986D01*
X1440Y1089956D01*
X1419Y1089930D01*
X1376Y1089830D01*
X1326Y1089733D01*
X1321Y1089703D01*
X1306Y1089669D01*
X1279Y1089452D01*
X1271Y1089402D01*
X1271Y899160D01*
X1279Y899102D01*
X1277Y899044D01*
X1299Y898962D01*
X1311Y898878D01*
X1334Y898825D01*
X1349Y898769D01*
X1392Y898696D01*
X1427Y898619D01*
X1465Y898574D01*
X1494Y898524D01*
X1556Y898466D01*
X1610Y898402D01*
X1659Y898370D01*
X1702Y898330D01*
X1777Y898291D01*
X1847Y898244D01*
X1903Y898227D01*
X1955Y898200D01*
X2023Y898189D01*
X2118Y898159D01*
X2218Y898156D01*
X2286Y898145D01*
X5494Y898145D01*
X7875Y895764D01*
X7875Y892396D01*
X6394Y890916D01*
X6342Y890846D01*
X6282Y890782D01*
X6256Y890733D01*
X6223Y890688D01*
X6192Y890607D01*
X6152Y890529D01*
X6144Y890481D01*
X6122Y890423D01*
X6111Y890293D01*
X6111Y890292D01*
X6111Y890285D01*
X6110Y890275D01*
X6097Y890198D01*
X6097Y111858D01*
X6109Y111771D01*
X6112Y111684D01*
X6129Y111631D01*
X6137Y111576D01*
X6172Y111496D01*
X6199Y111413D01*
X6227Y111374D01*
X6253Y111317D01*
X6349Y111204D01*
X6394Y111140D01*
X36210Y81324D01*
X36280Y81272D01*
X36344Y81212D01*
X36393Y81186D01*
X36437Y81153D01*
X36519Y81122D01*
X36597Y81082D01*
X36644Y81074D01*
X36703Y81052D01*
X36850Y81040D01*
X36928Y81027D01*
X43812Y81027D01*
X43814Y81027D01*
X43815Y81027D01*
X43955Y81047D01*
X44094Y81067D01*
X44095Y81067D01*
X44097Y81067D01*
X44223Y81124D01*
X44353Y81183D01*
X44354Y81184D01*
X44356Y81185D01*
X44463Y81276D01*
X44570Y81366D01*
X44571Y81368D01*
X44572Y81369D01*
X44580Y81382D01*
X44728Y81603D01*
X44737Y81632D01*
X44750Y81653D01*
X46881Y86798D01*
X50882Y90799D01*
X56111Y92965D01*
X61769Y92965D01*
X66998Y90799D01*
X70999Y86798D01*
X73165Y81569D01*
X73165Y75911D01*
X70999Y70682D01*
X66998Y66681D01*
X61769Y64515D01*
X56111Y64515D01*
X50882Y66681D01*
X46881Y70682D01*
X44750Y75827D01*
X44749Y75828D01*
X44749Y75829D01*
X44679Y75948D01*
X44606Y76071D01*
X44604Y76072D01*
X44604Y76074D01*
X44500Y76171D01*
X44399Y76267D01*
X44397Y76267D01*
X44396Y76268D01*
X44271Y76332D01*
X44146Y76397D01*
X44145Y76397D01*
X44143Y76398D01*
X44128Y76400D01*
X43867Y76452D01*
X43837Y76449D01*
X43812Y76453D01*
X34613Y76453D01*
X32976Y78090D01*
X3004Y108062D01*
X2980Y108080D01*
X2961Y108102D01*
X2867Y108165D01*
X2777Y108233D01*
X2749Y108244D01*
X2725Y108260D01*
X2617Y108294D01*
X2511Y108334D01*
X2482Y108337D01*
X2454Y108346D01*
X2340Y108349D01*
X2228Y108358D01*
X2199Y108352D01*
X2170Y108353D01*
X2060Y108324D01*
X1949Y108302D01*
X1923Y108288D01*
X1895Y108281D01*
X1797Y108223D01*
X1697Y108171D01*
X1675Y108151D01*
X1650Y108136D01*
X1573Y108053D01*
X1491Y107975D01*
X1476Y107950D01*
X1456Y107929D01*
X1404Y107828D01*
X1347Y107730D01*
X1340Y107702D01*
X1326Y107675D01*
X1313Y107598D01*
X1277Y107454D01*
X1279Y107392D01*
X1271Y107344D01*
X1271Y33278D01*
X1286Y33170D01*
X1294Y33062D01*
X1306Y33030D01*
X1311Y32996D01*
X1355Y32897D01*
X1393Y32795D01*
X1413Y32768D01*
X1427Y32737D01*
X1497Y32654D01*
X1562Y32566D01*
X1589Y32546D01*
X1610Y32520D01*
X1701Y32460D01*
X1787Y32393D01*
X1819Y32381D01*
X1847Y32362D01*
X1951Y32329D01*
X2052Y32290D01*
X2086Y32287D01*
X2118Y32276D01*
X2227Y32274D01*
X2335Y32264D01*
X2368Y32270D01*
X2402Y32269D01*
X2507Y32297D01*
X2614Y32317D01*
X2645Y32332D01*
X2677Y32341D01*
X2771Y32396D01*
X2868Y32446D01*
X2889Y32467D01*
X2922Y32486D01*
X3072Y32646D01*
X3107Y32681D01*
X6845Y37826D01*
X14097Y42012D01*
X22425Y42888D01*
X30389Y40300D01*
X36612Y34697D01*
X40018Y27047D01*
X40018Y18673D01*
X36612Y11023D01*
X30567Y5580D01*
X30531Y5538D01*
X30489Y5501D01*
X30441Y5429D01*
X30385Y5363D01*
X30362Y5311D01*
X30331Y5265D01*
X30305Y5182D01*
X30270Y5103D01*
X30262Y5047D01*
X30245Y4994D01*
X30243Y4907D01*
X30231Y4821D01*
X30240Y4765D01*
X30238Y4710D01*
X30260Y4626D01*
X30273Y4540D01*
X30296Y4489D01*
X30310Y4435D01*
X30354Y4360D01*
X30390Y4281D01*
X30427Y4238D01*
X30455Y4190D01*
X30519Y4131D01*
X30575Y4065D01*
X30622Y4034D01*
X30662Y3996D01*
X30740Y3956D01*
X30812Y3908D01*
X30866Y3892D01*
X30916Y3866D01*
X30985Y3855D01*
X31084Y3824D01*
X31180Y3822D01*
X31247Y3811D01*
X739109Y3811D01*
X739129Y3813D01*
G37*
%LPC*%
G36*
X196226Y198627D02*
X196226Y198627D01*
X178639Y216214D01*
X178636Y216217D01*
X177038Y217815D01*
X175664Y219190D01*
X175664Y221057D01*
X175664Y221058D01*
X175664Y223394D01*
X175665Y223398D01*
X175752Y515849D01*
X175751Y515861D01*
X175753Y518159D01*
X175753Y518160D01*
X175754Y520467D01*
X175755Y520477D01*
X175767Y532110D01*
X175767Y532115D01*
X175767Y532119D01*
X175593Y553742D01*
X175581Y553824D01*
X175578Y553908D01*
X175574Y553919D01*
X175574Y556047D01*
X175574Y556051D01*
X175574Y556055D01*
X175559Y557946D01*
X176900Y559287D01*
X176903Y559290D01*
X176906Y559292D01*
X178422Y560834D01*
X178468Y560873D01*
X178532Y560918D01*
X185347Y567734D01*
X185365Y567758D01*
X185387Y567777D01*
X185450Y567871D01*
X185518Y567961D01*
X185529Y567989D01*
X185545Y568013D01*
X185579Y568121D01*
X185619Y568227D01*
X185622Y568256D01*
X185631Y568284D01*
X185634Y568398D01*
X185643Y568510D01*
X185637Y568539D01*
X185638Y568568D01*
X185609Y568678D01*
X185587Y568789D01*
X185574Y568815D01*
X185566Y568843D01*
X185508Y568941D01*
X185456Y569041D01*
X185436Y569063D01*
X185421Y569088D01*
X185338Y569165D01*
X185260Y569247D01*
X185235Y569262D01*
X185214Y569282D01*
X185113Y569334D01*
X185015Y569391D01*
X184987Y569398D01*
X184960Y569412D01*
X184883Y569425D01*
X184740Y569461D01*
X184677Y569459D01*
X184629Y569467D01*
X183990Y569467D01*
X181609Y571848D01*
X181609Y575216D01*
X183090Y576696D01*
X183142Y576766D01*
X183202Y576830D01*
X183228Y576879D01*
X183261Y576924D01*
X183283Y576981D01*
X183288Y576988D01*
X183295Y577010D01*
X183332Y577083D01*
X183340Y577131D01*
X183362Y577189D01*
X183366Y577236D01*
X183373Y577259D01*
X183375Y577344D01*
X183387Y577414D01*
X183387Y613058D01*
X183375Y613145D01*
X183372Y613232D01*
X183355Y613285D01*
X183347Y613340D01*
X183312Y613420D01*
X183285Y613503D01*
X183257Y613542D01*
X183231Y613599D01*
X183135Y613712D01*
X183090Y613776D01*
X112920Y683946D01*
X112920Y761339D01*
X112912Y761397D01*
X112914Y761455D01*
X112892Y761537D01*
X112880Y761621D01*
X112857Y761674D01*
X112842Y761730D01*
X112799Y761803D01*
X112764Y761880D01*
X112726Y761925D01*
X112697Y761975D01*
X112635Y762033D01*
X112581Y762097D01*
X112532Y762129D01*
X112489Y762169D01*
X112414Y762208D01*
X112344Y762255D01*
X112288Y762272D01*
X112236Y762299D01*
X112168Y762310D01*
X112073Y762340D01*
X111973Y762343D01*
X111905Y762354D01*
X38158Y762354D01*
X35554Y764958D01*
X35554Y918642D01*
X38158Y921246D01*
X107233Y921246D01*
X107262Y921250D01*
X107291Y921247D01*
X107402Y921270D01*
X107515Y921286D01*
X107541Y921298D01*
X107570Y921303D01*
X107671Y921355D01*
X107774Y921402D01*
X107796Y921421D01*
X107822Y921434D01*
X107905Y921512D01*
X107991Y921585D01*
X108007Y921610D01*
X108029Y921630D01*
X108086Y921728D01*
X108149Y921822D01*
X108158Y921850D01*
X108172Y921875D01*
X108200Y921985D01*
X108234Y922093D01*
X108235Y922123D01*
X108242Y922151D01*
X108239Y922264D01*
X108242Y922377D01*
X108234Y922406D01*
X108233Y922435D01*
X108198Y922543D01*
X108170Y922652D01*
X108155Y922678D01*
X108146Y922706D01*
X108100Y922769D01*
X108025Y922897D01*
X107979Y922940D01*
X107951Y922979D01*
X58673Y972257D01*
X58673Y1082571D01*
X58673Y1082572D01*
X58673Y1082574D01*
X58653Y1082714D01*
X58633Y1082852D01*
X58633Y1082854D01*
X58633Y1082855D01*
X58577Y1082978D01*
X58517Y1083112D01*
X58516Y1083113D01*
X58515Y1083114D01*
X58424Y1083221D01*
X58334Y1083329D01*
X58332Y1083329D01*
X58331Y1083331D01*
X58318Y1083339D01*
X58097Y1083486D01*
X58068Y1083495D01*
X58047Y1083509D01*
X55780Y1084447D01*
X53207Y1087020D01*
X51815Y1090381D01*
X51815Y1094019D01*
X53207Y1097380D01*
X55780Y1099953D01*
X59141Y1101345D01*
X62779Y1101345D01*
X66140Y1099953D01*
X68713Y1097380D01*
X70105Y1094019D01*
X70105Y1090381D01*
X68713Y1087020D01*
X66140Y1084447D01*
X63873Y1083509D01*
X63872Y1083508D01*
X63871Y1083507D01*
X63750Y1083436D01*
X63629Y1083364D01*
X63628Y1083363D01*
X63626Y1083362D01*
X63529Y1083258D01*
X63433Y1083157D01*
X63433Y1083156D01*
X63432Y1083155D01*
X63367Y1083029D01*
X63303Y1082905D01*
X63303Y1082903D01*
X63302Y1082902D01*
X63300Y1082887D01*
X63248Y1082626D01*
X63251Y1082595D01*
X63247Y1082571D01*
X63247Y974572D01*
X63259Y974485D01*
X63262Y974398D01*
X63279Y974345D01*
X63287Y974290D01*
X63322Y974210D01*
X63349Y974127D01*
X63377Y974088D01*
X63403Y974031D01*
X63499Y973917D01*
X63544Y973854D01*
X114235Y923163D01*
X114259Y923145D01*
X114278Y923123D01*
X114372Y923060D01*
X114462Y922992D01*
X114490Y922981D01*
X114514Y922965D01*
X114622Y922931D01*
X114728Y922890D01*
X114757Y922888D01*
X114785Y922879D01*
X114899Y922876D01*
X115011Y922867D01*
X115040Y922873D01*
X115069Y922872D01*
X115179Y922901D01*
X115290Y922923D01*
X115316Y922936D01*
X115344Y922944D01*
X115442Y923002D01*
X115542Y923054D01*
X115564Y923074D01*
X115589Y923089D01*
X115666Y923172D01*
X115748Y923250D01*
X115763Y923275D01*
X115783Y923296D01*
X115835Y923397D01*
X115892Y923495D01*
X115899Y923523D01*
X115913Y923549D01*
X115926Y923627D01*
X115962Y923770D01*
X115960Y923833D01*
X115968Y923880D01*
X115968Y1082526D01*
X115952Y1082639D01*
X115942Y1082754D01*
X115932Y1082780D01*
X115928Y1082807D01*
X115881Y1082912D01*
X115840Y1083019D01*
X115824Y1083041D01*
X115812Y1083066D01*
X115738Y1083154D01*
X115669Y1083246D01*
X115646Y1083262D01*
X115629Y1083283D01*
X115533Y1083347D01*
X115441Y1083416D01*
X115415Y1083426D01*
X115392Y1083441D01*
X115282Y1083476D01*
X115175Y1083516D01*
X115147Y1083518D01*
X115121Y1083527D01*
X115006Y1083530D01*
X114892Y1083539D01*
X114867Y1083533D01*
X114837Y1083534D01*
X114580Y1083467D01*
X114564Y1083463D01*
X113579Y1083055D01*
X109941Y1083055D01*
X106580Y1084447D01*
X104007Y1087020D01*
X102615Y1090381D01*
X102615Y1094019D01*
X104007Y1097380D01*
X106580Y1099953D01*
X109941Y1101345D01*
X113579Y1101345D01*
X116940Y1099953D01*
X119513Y1097380D01*
X120905Y1094019D01*
X120905Y1090381D01*
X119966Y1088114D01*
X119965Y1088113D01*
X119965Y1088111D01*
X119930Y1087974D01*
X119895Y1087839D01*
X119895Y1087837D01*
X119895Y1087836D01*
X119899Y1087695D01*
X119903Y1087555D01*
X119904Y1087553D01*
X119904Y1087552D01*
X119947Y1087416D01*
X119990Y1087284D01*
X119991Y1087283D01*
X119991Y1087281D01*
X120000Y1087269D01*
X120148Y1087048D01*
X120171Y1087028D01*
X120186Y1087008D01*
X120542Y1086652D01*
X120542Y688293D01*
X120554Y688206D01*
X120557Y688119D01*
X120574Y688066D01*
X120582Y688011D01*
X120617Y687931D01*
X120644Y687848D01*
X120672Y687809D01*
X120698Y687752D01*
X120794Y687639D01*
X120839Y687575D01*
X189677Y618737D01*
X191314Y617100D01*
X191314Y589280D01*
X191322Y589222D01*
X191320Y589164D01*
X191342Y589082D01*
X191354Y588998D01*
X191378Y588945D01*
X191392Y588889D01*
X191435Y588816D01*
X191470Y588739D01*
X191508Y588694D01*
X191538Y588644D01*
X191599Y588586D01*
X191654Y588522D01*
X191702Y588490D01*
X191745Y588450D01*
X191820Y588411D01*
X191890Y588364D01*
X191946Y588347D01*
X191998Y588320D01*
X192066Y588309D01*
X192161Y588279D01*
X192170Y588278D01*
X194565Y585884D01*
X194565Y582516D01*
X192184Y580135D01*
X188976Y580135D01*
X188918Y580127D01*
X188860Y580129D01*
X188778Y580107D01*
X188694Y580095D01*
X188641Y580072D01*
X188585Y580057D01*
X188512Y580014D01*
X188435Y579979D01*
X188390Y579941D01*
X188340Y579912D01*
X188282Y579850D01*
X188218Y579796D01*
X188186Y579747D01*
X188146Y579704D01*
X188107Y579629D01*
X188060Y579559D01*
X188043Y579503D01*
X188016Y579451D01*
X188005Y579383D01*
X187975Y579288D01*
X187972Y579188D01*
X187961Y579120D01*
X187961Y577414D01*
X187969Y577358D01*
X187967Y577311D01*
X187974Y577284D01*
X187976Y577240D01*
X187993Y577188D01*
X188001Y577133D01*
X188032Y577062D01*
X188039Y577036D01*
X188045Y577026D01*
X188063Y576970D01*
X188091Y576930D01*
X188117Y576873D01*
X188180Y576799D01*
X188184Y576791D01*
X188194Y576783D01*
X188213Y576760D01*
X188258Y576696D01*
X189739Y575216D01*
X189739Y574577D01*
X189743Y574547D01*
X189740Y574518D01*
X189763Y574407D01*
X189779Y574295D01*
X189791Y574268D01*
X189796Y574240D01*
X189848Y574139D01*
X189895Y574036D01*
X189914Y574013D01*
X189927Y573987D01*
X190005Y573905D01*
X190078Y573819D01*
X190103Y573802D01*
X190123Y573781D01*
X190221Y573724D01*
X190315Y573661D01*
X190343Y573652D01*
X190368Y573637D01*
X190478Y573610D01*
X190586Y573575D01*
X190616Y573575D01*
X190644Y573567D01*
X190757Y573571D01*
X190870Y573568D01*
X190899Y573575D01*
X190928Y573576D01*
X191036Y573611D01*
X191145Y573640D01*
X191171Y573655D01*
X191199Y573664D01*
X191262Y573709D01*
X191390Y573785D01*
X191433Y573831D01*
X191472Y573859D01*
X214873Y597260D01*
X214908Y597306D01*
X214950Y597347D01*
X214993Y597420D01*
X215044Y597487D01*
X215065Y597542D01*
X215094Y597592D01*
X215115Y597674D01*
X215145Y597753D01*
X215150Y597811D01*
X215164Y597868D01*
X215162Y597952D01*
X215169Y598036D01*
X215157Y598093D01*
X215155Y598152D01*
X215129Y598232D01*
X215113Y598315D01*
X215086Y598367D01*
X215068Y598422D01*
X215028Y598478D01*
X214982Y598567D01*
X214913Y598639D01*
X214873Y598696D01*
X143815Y669754D01*
X143814Y669754D01*
X141731Y671837D01*
X141731Y808475D01*
X143814Y810558D01*
X143815Y810558D01*
X159563Y826306D01*
X159598Y826353D01*
X159640Y826393D01*
X159683Y826466D01*
X159733Y826533D01*
X159754Y826588D01*
X159784Y826638D01*
X159805Y826720D01*
X159835Y826799D01*
X159840Y826857D01*
X159854Y826914D01*
X159851Y826998D01*
X159858Y827082D01*
X159847Y827140D01*
X159845Y827198D01*
X159819Y827278D01*
X159802Y827361D01*
X159775Y827413D01*
X159757Y827469D01*
X159717Y827525D01*
X159671Y827613D01*
X159603Y827686D01*
X159563Y827742D01*
X159003Y828301D01*
X159003Y1080008D01*
X158996Y1080061D01*
X158997Y1080092D01*
X158996Y1080095D01*
X158997Y1080124D01*
X158975Y1080206D01*
X158963Y1080290D01*
X158940Y1080343D01*
X158925Y1080399D01*
X158882Y1080472D01*
X158847Y1080549D01*
X158809Y1080594D01*
X158780Y1080644D01*
X158718Y1080702D01*
X158664Y1080766D01*
X158615Y1080798D01*
X158572Y1080838D01*
X158497Y1080877D01*
X158427Y1080924D01*
X158371Y1080941D01*
X158319Y1080968D01*
X158251Y1080979D01*
X158156Y1081009D01*
X158056Y1081012D01*
X157988Y1081023D01*
X157930Y1081023D01*
X151383Y1087570D01*
X151383Y1096830D01*
X157930Y1103377D01*
X167190Y1103377D01*
X173737Y1096830D01*
X173737Y1087570D01*
X167190Y1081023D01*
X166116Y1081023D01*
X166058Y1081015D01*
X166000Y1081017D01*
X165918Y1080995D01*
X165834Y1080983D01*
X165781Y1080960D01*
X165725Y1080945D01*
X165652Y1080902D01*
X165575Y1080867D01*
X165530Y1080829D01*
X165480Y1080800D01*
X165422Y1080738D01*
X165358Y1080684D01*
X165326Y1080635D01*
X165286Y1080592D01*
X165247Y1080517D01*
X165200Y1080447D01*
X165183Y1080391D01*
X165156Y1080339D01*
X165145Y1080271D01*
X165115Y1080176D01*
X165112Y1080076D01*
X165101Y1080008D01*
X165101Y832104D01*
X165109Y832046D01*
X165107Y831988D01*
X165129Y831906D01*
X165141Y831822D01*
X165164Y831769D01*
X165179Y831713D01*
X165222Y831640D01*
X165257Y831563D01*
X165295Y831518D01*
X165324Y831468D01*
X165386Y831410D01*
X165440Y831346D01*
X165489Y831314D01*
X165532Y831274D01*
X165607Y831235D01*
X165677Y831188D01*
X165733Y831171D01*
X165785Y831144D01*
X165853Y831133D01*
X165948Y831103D01*
X166048Y831100D01*
X166116Y831089D01*
X166276Y831089D01*
X168657Y828708D01*
X168657Y825340D01*
X166276Y822959D01*
X165259Y822959D01*
X165173Y822947D01*
X165085Y822944D01*
X165033Y822927D01*
X164978Y822919D01*
X164898Y822884D01*
X164815Y822857D01*
X164776Y822829D01*
X164718Y822803D01*
X164605Y822707D01*
X164541Y822662D01*
X157937Y816058D01*
X157920Y816034D01*
X157897Y816015D01*
X157835Y815921D01*
X157767Y815831D01*
X157756Y815803D01*
X157740Y815779D01*
X157706Y815671D01*
X157665Y815565D01*
X157663Y815536D01*
X157654Y815508D01*
X157651Y815394D01*
X157642Y815282D01*
X157647Y815253D01*
X157647Y815224D01*
X157675Y815114D01*
X157698Y815003D01*
X157711Y814977D01*
X157719Y814949D01*
X157776Y814851D01*
X157829Y814751D01*
X157849Y814729D01*
X157864Y814704D01*
X157946Y814627D01*
X158024Y814545D01*
X158050Y814530D01*
X158071Y814510D01*
X158172Y814458D01*
X158270Y814401D01*
X158298Y814394D01*
X158324Y814380D01*
X158402Y814367D01*
X158545Y814331D01*
X158608Y814333D01*
X158655Y814325D01*
X159164Y814325D01*
X160644Y812844D01*
X160714Y812792D01*
X160778Y812732D01*
X160787Y812727D01*
X239379Y734135D01*
X239379Y625310D01*
X239391Y625223D01*
X239394Y625136D01*
X239411Y625083D01*
X239419Y625028D01*
X239455Y624948D01*
X239482Y624865D01*
X239510Y624826D01*
X239535Y624769D01*
X239631Y624656D01*
X239677Y624592D01*
X240257Y624012D01*
X240327Y623959D01*
X240391Y623899D01*
X240440Y623874D01*
X240484Y623841D01*
X240566Y623810D01*
X240644Y623770D01*
X240691Y623762D01*
X240750Y623739D01*
X240897Y623727D01*
X240975Y623714D01*
X479090Y623714D01*
X479176Y623726D01*
X479264Y623729D01*
X479316Y623746D01*
X479371Y623754D01*
X479451Y623790D01*
X479534Y623817D01*
X479574Y623845D01*
X479631Y623870D01*
X479744Y623966D01*
X479808Y624012D01*
X484588Y628792D01*
X484640Y628862D01*
X484700Y628926D01*
X484726Y628975D01*
X484759Y629019D01*
X484790Y629101D01*
X484830Y629179D01*
X484838Y629226D01*
X484860Y629285D01*
X484872Y629432D01*
X484885Y629510D01*
X484885Y631604D01*
X487266Y633985D01*
X490634Y633985D01*
X493015Y631604D01*
X493015Y628236D01*
X490634Y625855D01*
X488540Y625855D01*
X488453Y625843D01*
X488366Y625840D01*
X488313Y625823D01*
X488258Y625815D01*
X488178Y625780D01*
X488095Y625753D01*
X488056Y625725D01*
X487999Y625699D01*
X487886Y625603D01*
X487822Y625558D01*
X481405Y619141D01*
X240975Y619141D01*
X240888Y619129D01*
X240801Y619126D01*
X240748Y619109D01*
X240693Y619101D01*
X240613Y619065D01*
X240530Y619038D01*
X240491Y619010D01*
X240434Y618985D01*
X240321Y618889D01*
X240257Y618843D01*
X238776Y617363D01*
X235409Y617363D01*
X233028Y619744D01*
X233028Y623111D01*
X234508Y624592D01*
X234561Y624662D01*
X234621Y624726D01*
X234646Y624775D01*
X234679Y624819D01*
X234710Y624901D01*
X234750Y624979D01*
X234758Y625026D01*
X234781Y625085D01*
X234793Y625232D01*
X234806Y625310D01*
X234806Y731820D01*
X234794Y731906D01*
X234791Y731994D01*
X234774Y732046D01*
X234766Y732101D01*
X234730Y732181D01*
X234703Y732264D01*
X234675Y732304D01*
X234650Y732361D01*
X234554Y732474D01*
X234508Y732538D01*
X160725Y806321D01*
X160679Y806356D01*
X160638Y806399D01*
X160565Y806441D01*
X160498Y806492D01*
X160443Y806513D01*
X160393Y806542D01*
X160311Y806563D01*
X160232Y806593D01*
X160174Y806598D01*
X160117Y806612D01*
X160033Y806610D01*
X159949Y806617D01*
X159892Y806605D01*
X159833Y806603D01*
X159753Y806577D01*
X159670Y806561D01*
X159618Y806534D01*
X159563Y806516D01*
X159506Y806476D01*
X159418Y806430D01*
X159346Y806361D01*
X159289Y806321D01*
X159164Y806195D01*
X157480Y806195D01*
X157422Y806187D01*
X157364Y806189D01*
X157282Y806167D01*
X157198Y806155D01*
X157145Y806132D01*
X157089Y806117D01*
X157016Y806074D01*
X156939Y806039D01*
X156894Y806001D01*
X156844Y805972D01*
X156786Y805910D01*
X156722Y805856D01*
X156690Y805807D01*
X156650Y805764D01*
X156611Y805689D01*
X156564Y805619D01*
X156547Y805563D01*
X156520Y805511D01*
X156509Y805443D01*
X156479Y805348D01*
X156476Y805248D01*
X156465Y805180D01*
X156465Y804770D01*
X156477Y804683D01*
X156480Y804596D01*
X156497Y804543D01*
X156505Y804488D01*
X156540Y804408D01*
X156567Y804325D01*
X156595Y804286D01*
X156621Y804229D01*
X156717Y804116D01*
X156762Y804052D01*
X227077Y733737D01*
X227077Y619832D01*
X227089Y619746D01*
X227092Y619658D01*
X227109Y619606D01*
X227117Y619551D01*
X227152Y619471D01*
X227179Y619388D01*
X227207Y619348D01*
X227233Y619291D01*
X227329Y619178D01*
X227374Y619114D01*
X228855Y617634D01*
X228855Y614266D01*
X226474Y611885D01*
X223106Y611885D01*
X220725Y614266D01*
X220725Y617634D01*
X222206Y619114D01*
X222258Y619184D01*
X222318Y619248D01*
X222344Y619297D01*
X222377Y619342D01*
X222408Y619423D01*
X222448Y619501D01*
X222456Y619549D01*
X222478Y619607D01*
X222490Y619755D01*
X222503Y619832D01*
X222503Y731422D01*
X222491Y731509D01*
X222488Y731596D01*
X222471Y731649D01*
X222463Y731704D01*
X222428Y731784D01*
X222401Y731867D01*
X222373Y731906D01*
X222347Y731963D01*
X222251Y732076D01*
X222206Y732140D01*
X153528Y800818D01*
X153458Y800870D01*
X153394Y800930D01*
X153345Y800956D01*
X153301Y800989D01*
X153219Y801020D01*
X153141Y801060D01*
X153094Y801068D01*
X153035Y801090D01*
X152888Y801102D01*
X152810Y801115D01*
X150716Y801115D01*
X149562Y802270D01*
X149538Y802287D01*
X149519Y802310D01*
X149425Y802373D01*
X149335Y802441D01*
X149307Y802451D01*
X149283Y802467D01*
X149175Y802502D01*
X149069Y802542D01*
X149040Y802544D01*
X149012Y802553D01*
X148898Y802556D01*
X148786Y802565D01*
X148757Y802560D01*
X148728Y802560D01*
X148618Y802532D01*
X148507Y802510D01*
X148481Y802496D01*
X148453Y802489D01*
X148355Y802431D01*
X148255Y802379D01*
X148233Y802358D01*
X148208Y802343D01*
X148131Y802261D01*
X148049Y802183D01*
X148034Y802157D01*
X148014Y802136D01*
X147962Y802035D01*
X147905Y801937D01*
X147898Y801909D01*
X147884Y801883D01*
X147871Y801806D01*
X147835Y801662D01*
X147837Y801599D01*
X147829Y801552D01*
X147829Y674783D01*
X147841Y674697D01*
X147844Y674609D01*
X147861Y674557D01*
X147869Y674502D01*
X147904Y674422D01*
X147931Y674339D01*
X147959Y674300D01*
X147985Y674242D01*
X148081Y674129D01*
X148126Y674065D01*
X220421Y601770D01*
X220491Y601718D01*
X220555Y601658D01*
X220605Y601632D01*
X220649Y601599D01*
X220730Y601568D01*
X220808Y601528D01*
X220856Y601520D01*
X220914Y601498D01*
X221062Y601486D01*
X221139Y601473D01*
X348488Y601473D01*
X348546Y601481D01*
X348604Y601479D01*
X348686Y601501D01*
X348770Y601513D01*
X348823Y601536D01*
X348879Y601551D01*
X348952Y601594D01*
X349029Y601629D01*
X349074Y601667D01*
X349124Y601696D01*
X349182Y601758D01*
X349246Y601812D01*
X349278Y601861D01*
X349318Y601904D01*
X349357Y601979D01*
X349404Y602049D01*
X349421Y602105D01*
X349448Y602157D01*
X349459Y602225D01*
X349489Y602320D01*
X349492Y602420D01*
X349503Y602488D01*
X349503Y608258D01*
X349491Y608344D01*
X349488Y608432D01*
X349471Y608484D01*
X349463Y608539D01*
X349428Y608619D01*
X349401Y608702D01*
X349373Y608742D01*
X349347Y608799D01*
X349251Y608912D01*
X349206Y608976D01*
X347725Y610456D01*
X347725Y613824D01*
X350106Y616205D01*
X353474Y616205D01*
X355855Y613824D01*
X355855Y610456D01*
X354374Y608976D01*
X354322Y608906D01*
X354262Y608842D01*
X354236Y608793D01*
X354203Y608748D01*
X354172Y608667D01*
X354132Y608589D01*
X354124Y608541D01*
X354102Y608483D01*
X354090Y608335D01*
X354077Y608258D01*
X354077Y602488D01*
X354085Y602430D01*
X354083Y602372D01*
X354105Y602290D01*
X354117Y602206D01*
X354140Y602153D01*
X354155Y602097D01*
X354198Y602024D01*
X354233Y601947D01*
X354271Y601902D01*
X354300Y601852D01*
X354362Y601794D01*
X354416Y601730D01*
X354465Y601698D01*
X354508Y601658D01*
X354583Y601619D01*
X354653Y601572D01*
X354709Y601555D01*
X354761Y601528D01*
X354829Y601517D01*
X354924Y601487D01*
X355024Y601484D01*
X355092Y601473D01*
X518385Y601473D01*
X518472Y601485D01*
X518559Y601488D01*
X518612Y601505D01*
X518667Y601513D01*
X518747Y601548D01*
X518830Y601575D01*
X518869Y601603D01*
X518926Y601629D01*
X519040Y601725D01*
X519103Y601770D01*
X685326Y767993D01*
X703696Y767993D01*
X706375Y765314D01*
X706375Y761526D01*
X703696Y758847D01*
X689535Y758847D01*
X689448Y758835D01*
X689361Y758832D01*
X689308Y758815D01*
X689253Y758807D01*
X689173Y758772D01*
X689090Y758745D01*
X689051Y758717D01*
X688994Y758691D01*
X688880Y758595D01*
X688817Y758550D01*
X522594Y592327D01*
X388718Y592327D01*
X388689Y592323D01*
X388659Y592326D01*
X388548Y592303D01*
X388436Y592287D01*
X388409Y592275D01*
X388381Y592270D01*
X388280Y592218D01*
X388177Y592171D01*
X388154Y592152D01*
X388128Y592139D01*
X388046Y592061D01*
X387960Y591988D01*
X387943Y591963D01*
X387922Y591943D01*
X387865Y591845D01*
X387802Y591751D01*
X387793Y591723D01*
X387779Y591698D01*
X387751Y591588D01*
X387716Y591480D01*
X387716Y591450D01*
X387708Y591422D01*
X387712Y591309D01*
X387709Y591196D01*
X387717Y591167D01*
X387717Y591138D01*
X387752Y591030D01*
X387781Y590921D01*
X387796Y590895D01*
X387805Y590867D01*
X387850Y590804D01*
X387926Y590676D01*
X387972Y590633D01*
X388000Y590594D01*
X413767Y564827D01*
X413767Y359482D01*
X413779Y359396D01*
X413782Y359308D01*
X413799Y359256D01*
X413807Y359201D01*
X413842Y359121D01*
X413869Y359038D01*
X413897Y358998D01*
X413923Y358941D01*
X414019Y358828D01*
X414064Y358764D01*
X415545Y357284D01*
X415545Y353916D01*
X413164Y351535D01*
X409796Y351535D01*
X407415Y353916D01*
X407415Y357284D01*
X408896Y358764D01*
X408948Y358834D01*
X409008Y358898D01*
X409034Y358947D01*
X409067Y358992D01*
X409098Y359073D01*
X409138Y359151D01*
X409146Y359199D01*
X409168Y359257D01*
X409180Y359405D01*
X409193Y359482D01*
X409193Y562512D01*
X409181Y562599D01*
X409178Y562686D01*
X409161Y562739D01*
X409153Y562794D01*
X409118Y562874D01*
X409091Y562957D01*
X409063Y562996D01*
X409037Y563053D01*
X408941Y563166D01*
X408896Y563230D01*
X387560Y584566D01*
X387536Y584584D01*
X387517Y584606D01*
X387423Y584669D01*
X387333Y584737D01*
X387305Y584748D01*
X387281Y584764D01*
X387173Y584798D01*
X387067Y584838D01*
X387038Y584841D01*
X387010Y584850D01*
X386896Y584853D01*
X386784Y584862D01*
X386755Y584856D01*
X386726Y584857D01*
X386616Y584828D01*
X386505Y584806D01*
X386479Y584792D01*
X386451Y584785D01*
X386353Y584727D01*
X386253Y584675D01*
X386231Y584655D01*
X386206Y584640D01*
X386129Y584557D01*
X386047Y584479D01*
X386032Y584454D01*
X386012Y584433D01*
X385960Y584332D01*
X385903Y584234D01*
X385896Y584206D01*
X385882Y584179D01*
X385869Y584102D01*
X385833Y583958D01*
X385835Y583896D01*
X385827Y583848D01*
X385827Y583637D01*
X385808Y583588D01*
X385778Y583538D01*
X385758Y583456D01*
X385728Y583377D01*
X385723Y583319D01*
X385708Y583262D01*
X385711Y583178D01*
X385704Y583094D01*
X385715Y583037D01*
X385717Y582978D01*
X385743Y582898D01*
X385760Y582815D01*
X385787Y582763D01*
X385805Y582708D01*
X385845Y582651D01*
X385891Y582563D01*
X385960Y582490D01*
X386000Y582434D01*
X401970Y566464D01*
X403607Y564827D01*
X403607Y324303D01*
X403619Y324217D01*
X403622Y324129D01*
X403639Y324077D01*
X403647Y324022D01*
X403682Y323942D01*
X403709Y323859D01*
X403737Y323819D01*
X403763Y323762D01*
X403859Y323649D01*
X403904Y323585D01*
X405385Y322105D01*
X405385Y318737D01*
X403004Y316356D01*
X399636Y316356D01*
X397255Y318737D01*
X397255Y322105D01*
X398736Y323585D01*
X398788Y323655D01*
X398848Y323719D01*
X398874Y323768D01*
X398907Y323813D01*
X398938Y323894D01*
X398978Y323972D01*
X398986Y324020D01*
X399008Y324078D01*
X399020Y324226D01*
X399033Y324303D01*
X399033Y562512D01*
X399021Y562599D01*
X399018Y562686D01*
X399001Y562739D01*
X398993Y562794D01*
X398958Y562874D01*
X398931Y562957D01*
X398903Y562996D01*
X398877Y563053D01*
X398781Y563166D01*
X398736Y563230D01*
X380947Y581019D01*
X380878Y581071D01*
X380814Y581131D01*
X380764Y581156D01*
X380720Y581190D01*
X380639Y581221D01*
X380561Y581261D01*
X380513Y581268D01*
X380455Y581291D01*
X380307Y581303D01*
X380230Y581316D01*
X380078Y581316D01*
X379178Y582216D01*
X379154Y582234D01*
X379135Y582256D01*
X379111Y582273D01*
X379091Y582294D01*
X379064Y582310D01*
X379055Y582318D01*
X379017Y582338D01*
X378951Y582387D01*
X378923Y582398D01*
X378899Y582414D01*
X378871Y582423D01*
X378846Y582438D01*
X378764Y582458D01*
X378685Y582489D01*
X378656Y582491D01*
X378628Y582500D01*
X378599Y582501D01*
X378570Y582508D01*
X378486Y582505D01*
X378402Y582512D01*
X378373Y582506D01*
X378344Y582507D01*
X378315Y582500D01*
X378286Y582499D01*
X378206Y582473D01*
X378123Y582456D01*
X378097Y582443D01*
X378069Y582435D01*
X378043Y582420D01*
X378015Y582411D01*
X377959Y582371D01*
X377871Y582325D01*
X377849Y582305D01*
X377824Y582290D01*
X377781Y582244D01*
X377742Y582216D01*
X377707Y582170D01*
X377665Y582129D01*
X377650Y582104D01*
X377630Y582083D01*
X377604Y582033D01*
X377571Y581989D01*
X377551Y581937D01*
X377544Y581927D01*
X377543Y581922D01*
X377521Y581884D01*
X377514Y581856D01*
X377500Y581830D01*
X377492Y581782D01*
X377470Y581724D01*
X377466Y581680D01*
X377459Y581656D01*
X377458Y581638D01*
X377451Y581609D01*
X377453Y581546D01*
X377445Y581499D01*
X377445Y581250D01*
X377457Y581163D01*
X377460Y581076D01*
X377477Y581023D01*
X377485Y580968D01*
X377520Y580888D01*
X377547Y580805D01*
X377575Y580766D01*
X377601Y580709D01*
X377697Y580596D01*
X377742Y580532D01*
X391810Y566464D01*
X393447Y564827D01*
X393447Y265753D01*
X370122Y242428D01*
X370070Y242358D01*
X370010Y242294D01*
X369984Y242245D01*
X369951Y242201D01*
X369920Y242119D01*
X369880Y242041D01*
X369872Y241994D01*
X369850Y241935D01*
X369838Y241788D01*
X369825Y241710D01*
X369825Y239616D01*
X367444Y237235D01*
X364076Y237235D01*
X361695Y239616D01*
X361695Y242984D01*
X364076Y245365D01*
X366170Y245365D01*
X366257Y245377D01*
X366344Y245380D01*
X366397Y245397D01*
X366452Y245405D01*
X366532Y245440D01*
X366615Y245467D01*
X366654Y245495D01*
X366711Y245521D01*
X366824Y245617D01*
X366888Y245662D01*
X388576Y267350D01*
X388628Y267420D01*
X388688Y267484D01*
X388714Y267533D01*
X388747Y267577D01*
X388778Y267659D01*
X388818Y267737D01*
X388826Y267784D01*
X388848Y267843D01*
X388860Y267990D01*
X388873Y268068D01*
X388873Y562512D01*
X388861Y562599D01*
X388858Y562686D01*
X388841Y562739D01*
X388833Y562794D01*
X388798Y562874D01*
X388771Y562957D01*
X388743Y562996D01*
X388717Y563053D01*
X388621Y563166D01*
X388576Y563230D01*
X374508Y577298D01*
X372871Y578935D01*
X372871Y581245D01*
X372864Y581294D01*
X372866Y581344D01*
X372844Y581434D01*
X372831Y581526D01*
X372811Y581572D01*
X372799Y581620D01*
X372753Y581701D01*
X372715Y581786D01*
X372683Y581824D01*
X372658Y581867D01*
X372591Y581932D01*
X372532Y582003D01*
X372490Y582030D01*
X372454Y582065D01*
X372372Y582109D01*
X372295Y582160D01*
X372247Y582175D01*
X372203Y582199D01*
X372112Y582218D01*
X372024Y582246D01*
X371974Y582247D01*
X371925Y582258D01*
X371832Y582251D01*
X371740Y582253D01*
X371691Y582241D01*
X371641Y582237D01*
X371554Y582205D01*
X371465Y582181D01*
X371422Y582156D01*
X371375Y582138D01*
X371300Y582083D01*
X371220Y582036D01*
X371186Y582000D01*
X371146Y581970D01*
X371102Y581910D01*
X371026Y581829D01*
X370985Y581750D01*
X370948Y581699D01*
X370927Y581635D01*
X370896Y581576D01*
X370886Y581513D01*
X370858Y581429D01*
X370853Y581317D01*
X370841Y581245D01*
X370841Y268547D01*
X370122Y267828D01*
X370070Y267758D01*
X370010Y267694D01*
X369984Y267645D01*
X369951Y267601D01*
X369920Y267519D01*
X369880Y267441D01*
X369872Y267394D01*
X369850Y267335D01*
X369838Y267188D01*
X369825Y267110D01*
X369825Y265016D01*
X367444Y262635D01*
X364076Y262635D01*
X361695Y265016D01*
X361695Y268384D01*
X364076Y270765D01*
X365252Y270765D01*
X365310Y270773D01*
X365368Y270771D01*
X365450Y270793D01*
X365534Y270805D01*
X365587Y270828D01*
X365643Y270843D01*
X365716Y270886D01*
X365793Y270921D01*
X365838Y270959D01*
X365888Y270988D01*
X365946Y271050D01*
X366010Y271104D01*
X366042Y271153D01*
X366082Y271196D01*
X366121Y271271D01*
X366168Y271341D01*
X366185Y271397D01*
X366212Y271449D01*
X366223Y271517D01*
X366253Y271612D01*
X366256Y271712D01*
X366267Y271780D01*
X366267Y581245D01*
X366255Y581331D01*
X366252Y581419D01*
X366235Y581471D01*
X366227Y581526D01*
X366192Y581606D01*
X366165Y581689D01*
X366137Y581728D01*
X366111Y581785D01*
X366015Y581899D01*
X365970Y581962D01*
X364489Y583443D01*
X364489Y586994D01*
X364481Y587052D01*
X364483Y587110D01*
X364461Y587192D01*
X364449Y587276D01*
X364426Y587329D01*
X364411Y587385D01*
X364368Y587458D01*
X364333Y587535D01*
X364295Y587580D01*
X364266Y587630D01*
X364204Y587688D01*
X364150Y587752D01*
X364101Y587784D01*
X364058Y587824D01*
X363983Y587863D01*
X363913Y587910D01*
X363857Y587927D01*
X363805Y587954D01*
X363737Y587965D01*
X363642Y587995D01*
X363542Y587998D01*
X363474Y588009D01*
X355418Y588009D01*
X355332Y587997D01*
X355244Y587994D01*
X355192Y587977D01*
X355137Y587969D01*
X355057Y587934D01*
X354974Y587907D01*
X354934Y587879D01*
X354877Y587853D01*
X354764Y587757D01*
X354700Y587712D01*
X352204Y585215D01*
X348836Y585215D01*
X346455Y587596D01*
X346455Y591312D01*
X346447Y591370D01*
X346449Y591428D01*
X346427Y591510D01*
X346415Y591594D01*
X346392Y591647D01*
X346377Y591703D01*
X346334Y591776D01*
X346299Y591853D01*
X346261Y591898D01*
X346232Y591948D01*
X346170Y592006D01*
X346116Y592070D01*
X346067Y592102D01*
X346024Y592142D01*
X345949Y592181D01*
X345879Y592228D01*
X345823Y592245D01*
X345771Y592272D01*
X345703Y592283D01*
X345608Y592313D01*
X345508Y592316D01*
X345440Y592327D01*
X332812Y592327D01*
X332783Y592323D01*
X332754Y592326D01*
X332643Y592303D01*
X332531Y592287D01*
X332504Y592275D01*
X332475Y592270D01*
X332375Y592217D01*
X332271Y592171D01*
X332249Y592152D01*
X332223Y592139D01*
X332141Y592061D01*
X332054Y591988D01*
X332038Y591963D01*
X332017Y591943D01*
X331959Y591845D01*
X331897Y591751D01*
X331888Y591723D01*
X331873Y591698D01*
X331845Y591588D01*
X331811Y591480D01*
X331810Y591450D01*
X331803Y591422D01*
X331806Y591309D01*
X331804Y591196D01*
X331811Y591167D01*
X331812Y591138D01*
X331847Y591030D01*
X331875Y590921D01*
X331890Y590895D01*
X331899Y590867D01*
X331945Y590804D01*
X332021Y590676D01*
X332066Y590633D01*
X332094Y590594D01*
X334265Y588424D01*
X334265Y585056D01*
X331884Y582675D01*
X329790Y582675D01*
X329703Y582663D01*
X329616Y582660D01*
X329563Y582643D01*
X329508Y582635D01*
X329428Y582600D01*
X329345Y582573D01*
X329306Y582545D01*
X329249Y582519D01*
X329136Y582423D01*
X329072Y582378D01*
X307892Y561198D01*
X307840Y561128D01*
X307780Y561064D01*
X307754Y561015D01*
X307721Y560971D01*
X307690Y560889D01*
X307650Y560811D01*
X307642Y560764D01*
X307620Y560705D01*
X307608Y560558D01*
X307595Y560480D01*
X307595Y558386D01*
X305214Y556005D01*
X301846Y556005D01*
X299465Y558386D01*
X299465Y561754D01*
X301846Y564135D01*
X303940Y564135D01*
X304027Y564147D01*
X304114Y564150D01*
X304167Y564167D01*
X304222Y564175D01*
X304302Y564210D01*
X304385Y564237D01*
X304424Y564265D01*
X304481Y564291D01*
X304594Y564387D01*
X304658Y564432D01*
X325838Y585612D01*
X325890Y585682D01*
X325950Y585746D01*
X325976Y585795D01*
X326009Y585839D01*
X326040Y585921D01*
X326080Y585999D01*
X326088Y586046D01*
X326110Y586105D01*
X326122Y586252D01*
X326135Y586330D01*
X326135Y588424D01*
X328306Y590594D01*
X328323Y590618D01*
X328346Y590637D01*
X328409Y590731D01*
X328477Y590821D01*
X328487Y590849D01*
X328503Y590873D01*
X328538Y590981D01*
X328578Y591087D01*
X328580Y591116D01*
X328589Y591144D01*
X328592Y591258D01*
X328601Y591370D01*
X328596Y591399D01*
X328596Y591428D01*
X328568Y591538D01*
X328546Y591649D01*
X328532Y591675D01*
X328525Y591703D01*
X328467Y591801D01*
X328415Y591901D01*
X328394Y591923D01*
X328379Y591948D01*
X328297Y592025D01*
X328219Y592107D01*
X328193Y592122D01*
X328172Y592142D01*
X328071Y592194D01*
X327973Y592251D01*
X327945Y592258D01*
X327919Y592272D01*
X327842Y592285D01*
X327698Y592321D01*
X327635Y592319D01*
X327588Y592327D01*
X223295Y592327D01*
X223208Y592315D01*
X223121Y592312D01*
X223068Y592295D01*
X223013Y592287D01*
X222933Y592252D01*
X222850Y592225D01*
X222811Y592197D01*
X222754Y592171D01*
X222640Y592075D01*
X222577Y592030D01*
X187685Y557138D01*
X187667Y557114D01*
X187645Y557095D01*
X187582Y557001D01*
X187514Y556911D01*
X187503Y556883D01*
X187487Y556859D01*
X187453Y556751D01*
X187413Y556645D01*
X187410Y556616D01*
X187401Y556588D01*
X187398Y556474D01*
X187389Y556362D01*
X187395Y556333D01*
X187394Y556304D01*
X187423Y556194D01*
X187445Y556083D01*
X187458Y556057D01*
X187466Y556029D01*
X187524Y555931D01*
X187576Y555831D01*
X187596Y555809D01*
X187611Y555784D01*
X187694Y555707D01*
X187772Y555625D01*
X187797Y555610D01*
X187818Y555590D01*
X187919Y555538D01*
X188017Y555481D01*
X188045Y555474D01*
X188072Y555460D01*
X188149Y555447D01*
X188292Y555411D01*
X188355Y555413D01*
X188403Y555405D01*
X191361Y555405D01*
X192764Y554002D01*
X192834Y553949D01*
X192898Y553889D01*
X192947Y553864D01*
X192991Y553831D01*
X193073Y553800D01*
X193151Y553760D01*
X193198Y553752D01*
X193257Y553729D01*
X193404Y553717D01*
X193482Y553704D01*
X201370Y553704D01*
X307990Y447084D01*
X308060Y447032D01*
X308124Y446972D01*
X308173Y446946D01*
X308217Y446913D01*
X308299Y446882D01*
X308377Y446842D01*
X308424Y446834D01*
X308483Y446812D01*
X308630Y446800D01*
X308708Y446787D01*
X351718Y446787D01*
X351804Y446799D01*
X351892Y446802D01*
X351944Y446819D01*
X351999Y446827D01*
X352079Y446862D01*
X352162Y446889D01*
X352202Y446917D01*
X352259Y446943D01*
X352372Y447039D01*
X352436Y447084D01*
X353916Y448565D01*
X357284Y448565D01*
X359665Y446184D01*
X359665Y442816D01*
X357284Y440435D01*
X353916Y440435D01*
X352436Y441916D01*
X352366Y441968D01*
X352302Y442028D01*
X352253Y442054D01*
X352208Y442087D01*
X352127Y442118D01*
X352049Y442158D01*
X352001Y442166D01*
X351943Y442188D01*
X351795Y442200D01*
X351718Y442213D01*
X306393Y442213D01*
X199773Y548833D01*
X199703Y548886D01*
X199639Y548946D01*
X199590Y548971D01*
X199545Y549004D01*
X199464Y549035D01*
X199386Y549075D01*
X199338Y549083D01*
X199280Y549106D01*
X199132Y549118D01*
X199055Y549131D01*
X193637Y549131D01*
X193550Y549119D01*
X193463Y549116D01*
X193410Y549099D01*
X193355Y549091D01*
X193275Y549055D01*
X193192Y549028D01*
X193153Y549000D01*
X193096Y548975D01*
X192983Y548879D01*
X192919Y548833D01*
X191383Y547298D01*
X191366Y547274D01*
X191343Y547255D01*
X191280Y547161D01*
X191212Y547071D01*
X191202Y547043D01*
X191186Y547019D01*
X191151Y546911D01*
X191111Y546805D01*
X191109Y546776D01*
X191100Y546748D01*
X191097Y546634D01*
X191088Y546522D01*
X191093Y546493D01*
X191093Y546464D01*
X191121Y546354D01*
X191143Y546243D01*
X191157Y546217D01*
X191164Y546189D01*
X191222Y546091D01*
X191274Y545991D01*
X191295Y545969D01*
X191310Y545944D01*
X191392Y545867D01*
X191470Y545785D01*
X191496Y545770D01*
X191517Y545750D01*
X191618Y545698D01*
X191716Y545641D01*
X191744Y545634D01*
X191770Y545620D01*
X191847Y545607D01*
X191991Y545571D01*
X192054Y545573D01*
X192101Y545565D01*
X192184Y545565D01*
X193734Y544014D01*
X193804Y543962D01*
X193868Y543902D01*
X193917Y543877D01*
X193961Y543843D01*
X194043Y543812D01*
X194121Y543772D01*
X194168Y543765D01*
X194227Y543742D01*
X194375Y543730D01*
X194452Y543717D01*
X199731Y543717D01*
X201368Y542080D01*
X321764Y421684D01*
X321834Y421632D01*
X321898Y421572D01*
X321947Y421546D01*
X321992Y421513D01*
X322073Y421482D01*
X322151Y421442D01*
X322199Y421434D01*
X322257Y421412D01*
X322405Y421400D01*
X322482Y421387D01*
X351718Y421387D01*
X351804Y421399D01*
X351892Y421402D01*
X351944Y421419D01*
X351999Y421427D01*
X352079Y421462D01*
X352162Y421489D01*
X352202Y421517D01*
X352259Y421543D01*
X352372Y421639D01*
X352436Y421684D01*
X353916Y423165D01*
X357284Y423165D01*
X359665Y420784D01*
X359665Y417416D01*
X357284Y415035D01*
X353916Y415035D01*
X352436Y416516D01*
X352366Y416568D01*
X352302Y416628D01*
X352253Y416654D01*
X352208Y416687D01*
X352127Y416718D01*
X352049Y416758D01*
X352001Y416766D01*
X351943Y416788D01*
X351795Y416800D01*
X351718Y416813D01*
X320167Y416813D01*
X318530Y418450D01*
X198134Y538846D01*
X198065Y538899D01*
X198001Y538959D01*
X197951Y538984D01*
X197907Y539017D01*
X197826Y539048D01*
X197748Y539088D01*
X197700Y539096D01*
X197642Y539118D01*
X197494Y539131D01*
X197417Y539144D01*
X194312Y539144D01*
X194226Y539131D01*
X194138Y539128D01*
X194086Y539111D01*
X194031Y539104D01*
X193951Y539068D01*
X193868Y539041D01*
X193829Y539013D01*
X193772Y538987D01*
X193658Y538892D01*
X193595Y538846D01*
X192184Y537435D01*
X188816Y537435D01*
X186591Y539661D01*
X186564Y539681D01*
X186543Y539706D01*
X186451Y539766D01*
X186364Y539831D01*
X186333Y539843D01*
X186305Y539862D01*
X186200Y539894D01*
X186098Y539933D01*
X186065Y539935D01*
X186033Y539945D01*
X185924Y539947D01*
X185815Y539956D01*
X185782Y539950D01*
X185749Y539950D01*
X185643Y539922D01*
X185536Y539900D01*
X185506Y539885D01*
X185474Y539876D01*
X185381Y539820D01*
X185284Y539769D01*
X185260Y539746D01*
X185231Y539729D01*
X185157Y539649D01*
X185078Y539574D01*
X185061Y539545D01*
X185038Y539520D01*
X184989Y539423D01*
X184934Y539328D01*
X184926Y539296D01*
X184911Y539266D01*
X184898Y539188D01*
X184864Y539053D01*
X184866Y538985D01*
X184858Y538934D01*
X184894Y534452D01*
X184906Y534370D01*
X184909Y534287D01*
X184915Y534268D01*
X184913Y532149D01*
X184913Y532144D01*
X184913Y532140D01*
X184930Y530004D01*
X184923Y529918D01*
X184910Y529840D01*
X184898Y518147D01*
X184898Y518146D01*
X184810Y223397D01*
X184823Y223311D01*
X184825Y223223D01*
X184842Y223170D01*
X184850Y223116D01*
X184886Y223036D01*
X184913Y222952D01*
X184941Y222913D01*
X184966Y222856D01*
X185062Y222743D01*
X185108Y222679D01*
X202693Y205094D01*
X202693Y201306D01*
X200014Y198627D01*
X196226Y198627D01*
G37*
%LPD*%
%LPC*%
G36*
X418291Y11175D02*
X418291Y11175D01*
X413062Y13341D01*
X409061Y17342D01*
X406895Y22571D01*
X406895Y28229D01*
X409026Y33374D01*
X409026Y33375D01*
X409027Y33377D01*
X409061Y33511D01*
X409097Y33649D01*
X409097Y33651D01*
X409097Y33652D01*
X409093Y33793D01*
X409089Y33933D01*
X409088Y33935D01*
X409088Y33936D01*
X409045Y34069D01*
X409002Y34204D01*
X409001Y34205D01*
X409001Y34207D01*
X408992Y34219D01*
X408844Y34440D01*
X408820Y34460D01*
X408806Y34480D01*
X405484Y37802D01*
X403847Y39439D01*
X403847Y85742D01*
X403843Y85771D01*
X403846Y85801D01*
X403823Y85912D01*
X403807Y86024D01*
X403795Y86051D01*
X403790Y86079D01*
X403738Y86180D01*
X403691Y86283D01*
X403672Y86306D01*
X403659Y86332D01*
X403581Y86414D01*
X403508Y86500D01*
X403483Y86517D01*
X403463Y86538D01*
X403365Y86595D01*
X403271Y86658D01*
X403243Y86667D01*
X403218Y86681D01*
X403108Y86709D01*
X403000Y86744D01*
X402970Y86744D01*
X402942Y86752D01*
X402829Y86748D01*
X402716Y86751D01*
X402687Y86743D01*
X402658Y86743D01*
X402550Y86708D01*
X402441Y86679D01*
X402415Y86664D01*
X402387Y86655D01*
X402324Y86610D01*
X402196Y86534D01*
X402153Y86488D01*
X402114Y86460D01*
X361244Y45590D01*
X359607Y43953D01*
X340248Y43953D01*
X340246Y43953D01*
X340245Y43953D01*
X340105Y43933D01*
X339966Y43913D01*
X339965Y43913D01*
X339963Y43913D01*
X339837Y43856D01*
X339707Y43797D01*
X339706Y43796D01*
X339704Y43795D01*
X339597Y43704D01*
X339490Y43614D01*
X339489Y43612D01*
X339488Y43611D01*
X339480Y43598D01*
X339332Y43377D01*
X339323Y43348D01*
X339310Y43327D01*
X337179Y38182D01*
X333178Y34181D01*
X327949Y32015D01*
X322291Y32015D01*
X317062Y34181D01*
X313061Y38182D01*
X310895Y43411D01*
X310895Y49069D01*
X313061Y54298D01*
X317062Y58299D01*
X322291Y60465D01*
X327949Y60465D01*
X333178Y58299D01*
X337179Y54298D01*
X339310Y49153D01*
X339311Y49152D01*
X339311Y49151D01*
X339381Y49032D01*
X339454Y48909D01*
X339456Y48908D01*
X339456Y48906D01*
X339560Y48809D01*
X339661Y48713D01*
X339663Y48713D01*
X339664Y48712D01*
X339789Y48647D01*
X339914Y48583D01*
X339915Y48583D01*
X339917Y48582D01*
X339932Y48580D01*
X340193Y48528D01*
X340223Y48531D01*
X340248Y48527D01*
X357292Y48527D01*
X357379Y48539D01*
X357466Y48542D01*
X357519Y48559D01*
X357574Y48567D01*
X357654Y48602D01*
X357737Y48629D01*
X357776Y48657D01*
X357833Y48683D01*
X357946Y48779D01*
X358010Y48824D01*
X425619Y116433D01*
X425670Y116501D01*
X425729Y116564D01*
X425755Y116614D01*
X425789Y116660D01*
X425820Y116740D01*
X425859Y116816D01*
X425870Y116872D01*
X425891Y116925D01*
X425898Y117011D01*
X425914Y117095D01*
X425910Y117152D01*
X425914Y117209D01*
X425897Y117293D01*
X425890Y117379D01*
X425870Y117432D01*
X425858Y117487D01*
X425819Y117564D01*
X425788Y117644D01*
X425754Y117689D01*
X425727Y117740D01*
X425668Y117802D01*
X425616Y117871D01*
X425571Y117905D01*
X425532Y117946D01*
X425457Y117989D01*
X425389Y118041D01*
X425335Y118061D01*
X425286Y118090D01*
X425203Y118111D01*
X425123Y118141D01*
X425066Y118146D01*
X425011Y118160D01*
X424925Y118157D01*
X424839Y118164D01*
X424791Y118153D01*
X424727Y118151D01*
X424589Y118106D01*
X424512Y118088D01*
X423949Y117855D01*
X418291Y117855D01*
X413062Y120021D01*
X409061Y124022D01*
X406895Y129251D01*
X406895Y134909D01*
X409061Y140138D01*
X413062Y144139D01*
X418291Y146305D01*
X423949Y146305D01*
X429178Y144139D01*
X433179Y140138D01*
X435345Y134909D01*
X435345Y129251D01*
X435112Y128688D01*
X435090Y128605D01*
X435060Y128524D01*
X435055Y128468D01*
X435041Y128413D01*
X435043Y128327D01*
X435036Y128241D01*
X435047Y128185D01*
X435049Y128128D01*
X435075Y128047D01*
X435092Y127962D01*
X435118Y127912D01*
X435135Y127858D01*
X435183Y127786D01*
X435223Y127710D01*
X435262Y127669D01*
X435294Y127621D01*
X435360Y127566D01*
X435419Y127504D01*
X435468Y127475D01*
X435511Y127438D01*
X435590Y127404D01*
X435664Y127360D01*
X435719Y127346D01*
X435771Y127323D01*
X435856Y127311D01*
X435940Y127290D01*
X435996Y127292D01*
X436053Y127284D01*
X436138Y127296D01*
X436224Y127299D01*
X436278Y127317D01*
X436334Y127325D01*
X436412Y127360D01*
X436494Y127387D01*
X436534Y127415D01*
X436593Y127442D01*
X436704Y127536D01*
X436768Y127581D01*
X443673Y134487D01*
X497768Y134487D01*
X497854Y134499D01*
X497942Y134502D01*
X497994Y134519D01*
X498049Y134527D01*
X498129Y134562D01*
X498212Y134589D01*
X498252Y134617D01*
X498309Y134643D01*
X498422Y134739D01*
X498486Y134784D01*
X499966Y136265D01*
X503334Y136265D01*
X505715Y133884D01*
X505715Y130516D01*
X503334Y128135D01*
X499966Y128135D01*
X498486Y129616D01*
X498416Y129668D01*
X498352Y129728D01*
X498303Y129754D01*
X498258Y129787D01*
X498177Y129818D01*
X498099Y129858D01*
X498051Y129866D01*
X497993Y129888D01*
X497845Y129900D01*
X497768Y129913D01*
X445988Y129913D01*
X445901Y129901D01*
X445814Y129898D01*
X445761Y129881D01*
X445706Y129873D01*
X445626Y129838D01*
X445543Y129811D01*
X445504Y129783D01*
X445447Y129757D01*
X445334Y129661D01*
X445270Y129616D01*
X413400Y97746D01*
X413382Y97722D01*
X413360Y97703D01*
X413297Y97609D01*
X413229Y97519D01*
X413218Y97491D01*
X413202Y97467D01*
X413168Y97359D01*
X413128Y97253D01*
X413125Y97224D01*
X413116Y97196D01*
X413113Y97082D01*
X413104Y96970D01*
X413110Y96941D01*
X413109Y96912D01*
X413138Y96802D01*
X413160Y96691D01*
X413174Y96665D01*
X413181Y96637D01*
X413239Y96539D01*
X413291Y96439D01*
X413311Y96417D01*
X413326Y96392D01*
X413409Y96315D01*
X413487Y96233D01*
X413512Y96218D01*
X413533Y96198D01*
X413634Y96146D01*
X413732Y96089D01*
X413760Y96082D01*
X413787Y96068D01*
X413864Y96055D01*
X414008Y96019D01*
X414070Y96021D01*
X414118Y96013D01*
X446607Y96013D01*
X446692Y96025D01*
X446778Y96027D01*
X446832Y96045D01*
X446888Y96053D01*
X446967Y96088D01*
X447049Y96114D01*
X447096Y96146D01*
X447148Y96169D01*
X447213Y96224D01*
X447285Y96272D01*
X447321Y96316D01*
X447365Y96352D01*
X447412Y96424D01*
X447468Y96490D01*
X447491Y96542D01*
X447522Y96589D01*
X447548Y96671D01*
X447583Y96750D01*
X447591Y96806D01*
X447608Y96860D01*
X447610Y96946D01*
X447622Y97031D01*
X447614Y97087D01*
X447615Y97144D01*
X447594Y97227D01*
X447581Y97312D01*
X447558Y97364D01*
X447544Y97419D01*
X447500Y97493D01*
X447464Y97572D01*
X447428Y97615D01*
X447398Y97664D01*
X447336Y97723D01*
X447280Y97788D01*
X447238Y97814D01*
X447191Y97858D01*
X447062Y97924D01*
X446995Y97966D01*
X444062Y99181D01*
X440061Y103182D01*
X437895Y108411D01*
X437895Y114069D01*
X440061Y119298D01*
X444062Y123299D01*
X449291Y125465D01*
X454949Y125465D01*
X460178Y123299D01*
X464179Y119298D01*
X466345Y114069D01*
X466345Y108411D01*
X464179Y103182D01*
X460178Y99181D01*
X457245Y97966D01*
X457171Y97922D01*
X457092Y97887D01*
X457049Y97850D01*
X457000Y97821D01*
X456941Y97759D01*
X456875Y97703D01*
X456844Y97656D01*
X456805Y97615D01*
X456765Y97538D01*
X456718Y97467D01*
X456700Y97413D01*
X456674Y97362D01*
X456658Y97278D01*
X456632Y97196D01*
X456630Y97139D01*
X456619Y97083D01*
X456627Y96998D01*
X456625Y96912D01*
X456639Y96857D01*
X456644Y96800D01*
X456675Y96720D01*
X456696Y96637D01*
X456725Y96588D01*
X456746Y96535D01*
X456798Y96466D01*
X456842Y96392D01*
X456883Y96353D01*
X456917Y96308D01*
X456986Y96256D01*
X457049Y96198D01*
X457100Y96172D01*
X457145Y96138D01*
X457226Y96107D01*
X457302Y96068D01*
X457351Y96060D01*
X457411Y96037D01*
X457556Y96026D01*
X457633Y96013D01*
X480978Y96013D01*
X481065Y96025D01*
X481152Y96028D01*
X481205Y96045D01*
X481260Y96053D01*
X481340Y96088D01*
X481423Y96115D01*
X481462Y96143D01*
X481519Y96169D01*
X481632Y96265D01*
X481696Y96310D01*
X694138Y308752D01*
X694190Y308822D01*
X694250Y308886D01*
X694276Y308935D01*
X694309Y308979D01*
X694340Y309061D01*
X694380Y309139D01*
X694388Y309186D01*
X694410Y309245D01*
X694422Y309392D01*
X694435Y309470D01*
X694435Y311564D01*
X696816Y313945D01*
X700184Y313945D01*
X702565Y311564D01*
X702565Y308196D01*
X700184Y305815D01*
X698090Y305815D01*
X698003Y305803D01*
X697916Y305800D01*
X697863Y305783D01*
X697808Y305775D01*
X697728Y305740D01*
X697645Y305713D01*
X697606Y305685D01*
X697549Y305659D01*
X697436Y305563D01*
X697372Y305518D01*
X483293Y91439D01*
X430989Y91439D01*
X430959Y91435D01*
X430930Y91438D01*
X430819Y91415D01*
X430707Y91399D01*
X430680Y91387D01*
X430652Y91382D01*
X430551Y91329D01*
X430448Y91283D01*
X430425Y91264D01*
X430399Y91251D01*
X430317Y91173D01*
X430231Y91100D01*
X430214Y91075D01*
X430193Y91055D01*
X430136Y90957D01*
X430073Y90863D01*
X430064Y90835D01*
X430049Y90810D01*
X430022Y90700D01*
X429987Y90592D01*
X429987Y90562D01*
X429979Y90534D01*
X429983Y90421D01*
X429980Y90308D01*
X429987Y90279D01*
X429988Y90250D01*
X430023Y90142D01*
X430052Y90033D01*
X430067Y90007D01*
X430076Y89979D01*
X430121Y89916D01*
X430197Y89788D01*
X430243Y89745D01*
X430271Y89706D01*
X433179Y86798D01*
X435310Y81653D01*
X435311Y81652D01*
X435311Y81651D01*
X435381Y81532D01*
X435454Y81409D01*
X435456Y81408D01*
X435456Y81406D01*
X435560Y81309D01*
X435661Y81213D01*
X435663Y81213D01*
X435664Y81212D01*
X435790Y81147D01*
X435914Y81083D01*
X435915Y81083D01*
X435917Y81082D01*
X435932Y81080D01*
X436193Y81028D01*
X436223Y81031D01*
X436248Y81027D01*
X514252Y81027D01*
X514339Y81039D01*
X514426Y81042D01*
X514479Y81059D01*
X514534Y81067D01*
X514614Y81102D01*
X514697Y81129D01*
X514736Y81157D01*
X514793Y81183D01*
X514906Y81279D01*
X514970Y81324D01*
X536658Y103012D01*
X536710Y103082D01*
X536770Y103146D01*
X536796Y103195D01*
X536829Y103239D01*
X536860Y103321D01*
X536900Y103399D01*
X536908Y103446D01*
X536930Y103505D01*
X536942Y103652D01*
X536955Y103730D01*
X536955Y105824D01*
X539336Y108205D01*
X542704Y108205D01*
X545085Y105824D01*
X545085Y102456D01*
X542704Y100075D01*
X540610Y100075D01*
X540523Y100063D01*
X540436Y100060D01*
X540383Y100043D01*
X540328Y100035D01*
X540248Y100000D01*
X540165Y99973D01*
X540126Y99945D01*
X540069Y99919D01*
X539956Y99823D01*
X539892Y99778D01*
X516567Y76453D01*
X436248Y76453D01*
X436246Y76453D01*
X436245Y76453D01*
X436105Y76433D01*
X435966Y76413D01*
X435965Y76413D01*
X435963Y76413D01*
X435838Y76356D01*
X435707Y76297D01*
X435706Y76296D01*
X435704Y76295D01*
X435597Y76204D01*
X435490Y76114D01*
X435489Y76112D01*
X435488Y76111D01*
X435480Y76098D01*
X435332Y75877D01*
X435323Y75848D01*
X435310Y75827D01*
X433179Y70682D01*
X429178Y66681D01*
X423949Y64515D01*
X418291Y64515D01*
X413062Y66681D01*
X410154Y69589D01*
X410130Y69607D01*
X410111Y69629D01*
X410017Y69692D01*
X409927Y69760D01*
X409899Y69771D01*
X409875Y69787D01*
X409767Y69821D01*
X409661Y69861D01*
X409632Y69864D01*
X409604Y69873D01*
X409490Y69876D01*
X409378Y69885D01*
X409349Y69879D01*
X409320Y69880D01*
X409210Y69851D01*
X409099Y69829D01*
X409073Y69816D01*
X409045Y69808D01*
X408947Y69750D01*
X408847Y69698D01*
X408825Y69678D01*
X408800Y69663D01*
X408723Y69580D01*
X408641Y69502D01*
X408626Y69477D01*
X408606Y69456D01*
X408554Y69355D01*
X408497Y69257D01*
X408490Y69229D01*
X408476Y69203D01*
X408463Y69125D01*
X408427Y68982D01*
X408429Y68919D01*
X408421Y68871D01*
X408421Y41754D01*
X408433Y41667D01*
X408436Y41580D01*
X408453Y41527D01*
X408461Y41472D01*
X408496Y41392D01*
X408523Y41309D01*
X408551Y41270D01*
X408577Y41213D01*
X408673Y41100D01*
X408718Y41036D01*
X412040Y37714D01*
X412041Y37713D01*
X412042Y37712D01*
X412157Y37626D01*
X412267Y37543D01*
X412269Y37543D01*
X412270Y37542D01*
X412403Y37491D01*
X412533Y37442D01*
X412534Y37442D01*
X412536Y37441D01*
X412680Y37430D01*
X412816Y37418D01*
X412818Y37419D01*
X412819Y37418D01*
X412835Y37422D01*
X413095Y37474D01*
X413122Y37488D01*
X413146Y37494D01*
X418291Y39625D01*
X423949Y39625D01*
X429178Y37459D01*
X433179Y33458D01*
X435345Y28229D01*
X435345Y22571D01*
X433179Y17342D01*
X429178Y13341D01*
X423949Y11175D01*
X418291Y11175D01*
G37*
%LPD*%
%LPC*%
G36*
X706976Y234695D02*
X706976Y234695D01*
X704595Y237076D01*
X704595Y240444D01*
X706976Y242825D01*
X709070Y242825D01*
X709157Y242837D01*
X709244Y242840D01*
X709297Y242857D01*
X709352Y242865D01*
X709432Y242900D01*
X709515Y242927D01*
X709554Y242955D01*
X709611Y242981D01*
X709724Y243077D01*
X709788Y243122D01*
X731476Y264810D01*
X731528Y264880D01*
X731588Y264944D01*
X731614Y264993D01*
X731647Y265037D01*
X731678Y265119D01*
X731718Y265197D01*
X731726Y265244D01*
X731748Y265303D01*
X731760Y265450D01*
X731773Y265528D01*
X731773Y1001932D01*
X731761Y1002019D01*
X731758Y1002106D01*
X731741Y1002159D01*
X731733Y1002214D01*
X731698Y1002294D01*
X731671Y1002377D01*
X731643Y1002416D01*
X731617Y1002473D01*
X731521Y1002586D01*
X731476Y1002650D01*
X683118Y1051008D01*
X683048Y1051060D01*
X682984Y1051120D01*
X682935Y1051146D01*
X682891Y1051179D01*
X682809Y1051210D01*
X682731Y1051250D01*
X682684Y1051258D01*
X682625Y1051280D01*
X682478Y1051292D01*
X682400Y1051305D01*
X680306Y1051305D01*
X677925Y1053686D01*
X677925Y1057054D01*
X680306Y1059435D01*
X683674Y1059435D01*
X686055Y1057054D01*
X686055Y1054960D01*
X686067Y1054873D01*
X686070Y1054786D01*
X686087Y1054733D01*
X686095Y1054678D01*
X686130Y1054598D01*
X686157Y1054515D01*
X686185Y1054476D01*
X686211Y1054419D01*
X686307Y1054306D01*
X686352Y1054242D01*
X736347Y1004247D01*
X736347Y263213D01*
X713022Y239888D01*
X712970Y239818D01*
X712910Y239754D01*
X712884Y239705D01*
X712851Y239661D01*
X712820Y239579D01*
X712780Y239501D01*
X712772Y239454D01*
X712750Y239395D01*
X712738Y239248D01*
X712725Y239170D01*
X712725Y237076D01*
X710344Y234695D01*
X706976Y234695D01*
G37*
%LPD*%
%LPC*%
G36*
X386936Y628395D02*
X386936Y628395D01*
X384555Y630776D01*
X384555Y634144D01*
X386036Y635624D01*
X386044Y635635D01*
X386045Y635636D01*
X386049Y635642D01*
X386088Y635694D01*
X386148Y635758D01*
X386174Y635807D01*
X386207Y635852D01*
X386238Y635933D01*
X386278Y636011D01*
X386286Y636059D01*
X386308Y636117D01*
X386320Y636265D01*
X386333Y636342D01*
X386333Y644112D01*
X386321Y644199D01*
X386318Y644286D01*
X386301Y644339D01*
X386293Y644394D01*
X386258Y644474D01*
X386231Y644557D01*
X386203Y644596D01*
X386177Y644653D01*
X386081Y644766D01*
X386036Y644830D01*
X198773Y832093D01*
X198773Y835000D01*
X198761Y835087D01*
X198758Y835174D01*
X198741Y835227D01*
X198733Y835282D01*
X198697Y835361D01*
X198670Y835445D01*
X198642Y835484D01*
X198617Y835541D01*
X198521Y835654D01*
X198476Y835718D01*
X196995Y837199D01*
X196995Y840566D01*
X198006Y841577D01*
X198041Y841624D01*
X198083Y841664D01*
X198126Y841737D01*
X198177Y841804D01*
X198198Y841859D01*
X198227Y841909D01*
X198248Y841991D01*
X198278Y842070D01*
X198283Y842128D01*
X198297Y842185D01*
X198295Y842269D01*
X198302Y842353D01*
X198290Y842410D01*
X198288Y842469D01*
X198262Y842549D01*
X198246Y842632D01*
X198219Y842684D01*
X198201Y842739D01*
X198161Y842796D01*
X198115Y842884D01*
X198046Y842957D01*
X198006Y843013D01*
X196739Y844280D01*
X196739Y847647D01*
X199120Y850028D01*
X202523Y850028D01*
X202531Y850024D01*
X202599Y849973D01*
X202653Y849952D01*
X202704Y849923D01*
X202786Y849902D01*
X202864Y849872D01*
X202923Y849867D01*
X202979Y849852D01*
X203064Y849855D01*
X203148Y849848D01*
X203205Y849860D01*
X203264Y849861D01*
X203344Y849887D01*
X203426Y849904D01*
X203478Y849931D01*
X203534Y849949D01*
X203590Y849989D01*
X203679Y850035D01*
X203751Y850104D01*
X203807Y850144D01*
X206088Y852425D01*
X209456Y852425D01*
X210936Y850944D01*
X211006Y850892D01*
X211070Y850832D01*
X211119Y850806D01*
X211164Y850773D01*
X211245Y850742D01*
X211323Y850702D01*
X211371Y850694D01*
X211429Y850672D01*
X211577Y850660D01*
X211654Y850647D01*
X211767Y850647D01*
X374792Y687622D01*
X374862Y687570D01*
X374926Y687510D01*
X374975Y687484D01*
X375019Y687451D01*
X375101Y687420D01*
X375179Y687380D01*
X375226Y687372D01*
X375285Y687350D01*
X375432Y687338D01*
X375510Y687325D01*
X377604Y687325D01*
X379985Y684944D01*
X379985Y681576D01*
X377604Y679195D01*
X374236Y679195D01*
X371855Y681576D01*
X371855Y683670D01*
X371843Y683757D01*
X371840Y683844D01*
X371823Y683897D01*
X371815Y683952D01*
X371780Y684032D01*
X371753Y684115D01*
X371725Y684154D01*
X371699Y684211D01*
X371603Y684324D01*
X371558Y684388D01*
X211271Y844675D01*
X211224Y844710D01*
X211184Y844753D01*
X211111Y844795D01*
X211044Y844846D01*
X210989Y844867D01*
X210939Y844896D01*
X210857Y844917D01*
X210778Y844947D01*
X210720Y844952D01*
X210663Y844966D01*
X210579Y844964D01*
X210495Y844971D01*
X210438Y844959D01*
X210379Y844957D01*
X210299Y844931D01*
X210216Y844915D01*
X210164Y844888D01*
X210109Y844870D01*
X210052Y844830D01*
X209964Y844784D01*
X209892Y844715D01*
X209835Y844675D01*
X209456Y844295D01*
X208157Y844295D01*
X208128Y844291D01*
X208098Y844294D01*
X207987Y844271D01*
X207875Y844255D01*
X207848Y844243D01*
X207820Y844238D01*
X207719Y844186D01*
X207616Y844139D01*
X207593Y844120D01*
X207567Y844107D01*
X207485Y844029D01*
X207399Y843956D01*
X207383Y843931D01*
X207361Y843911D01*
X207304Y843813D01*
X207241Y843719D01*
X207232Y843691D01*
X207218Y843666D01*
X207190Y843556D01*
X207155Y843448D01*
X207155Y843418D01*
X207147Y843390D01*
X207151Y843277D01*
X207148Y843164D01*
X207156Y843135D01*
X207156Y843106D01*
X207191Y842998D01*
X207220Y842889D01*
X207235Y842863D01*
X207244Y842835D01*
X207289Y842772D01*
X207365Y842644D01*
X207411Y842601D01*
X207439Y842562D01*
X362379Y687622D01*
X362449Y687570D01*
X362513Y687510D01*
X362562Y687484D01*
X362606Y687451D01*
X362688Y687420D01*
X362766Y687380D01*
X362813Y687372D01*
X362872Y687350D01*
X363019Y687338D01*
X363097Y687325D01*
X364904Y687325D01*
X367285Y684944D01*
X367285Y681576D01*
X364904Y679195D01*
X361536Y679195D01*
X359155Y681576D01*
X359155Y683957D01*
X359143Y684044D01*
X359140Y684131D01*
X359123Y684184D01*
X359115Y684239D01*
X359080Y684319D01*
X359053Y684402D01*
X359025Y684441D01*
X358999Y684498D01*
X358903Y684611D01*
X358858Y684675D01*
X206447Y837086D01*
X206401Y837121D01*
X206360Y837163D01*
X206287Y837206D01*
X206220Y837257D01*
X206165Y837278D01*
X206115Y837307D01*
X206033Y837328D01*
X205954Y837358D01*
X205896Y837363D01*
X205839Y837377D01*
X205755Y837374D01*
X205671Y837381D01*
X205614Y837370D01*
X205555Y837368D01*
X205475Y837342D01*
X205392Y837326D01*
X205341Y837299D01*
X205285Y837281D01*
X205229Y837241D01*
X205140Y837195D01*
X205068Y837126D01*
X205011Y837086D01*
X203644Y835718D01*
X203591Y835648D01*
X203531Y835584D01*
X203506Y835535D01*
X203473Y835491D01*
X203442Y835409D01*
X203402Y835331D01*
X203394Y835284D01*
X203372Y835225D01*
X203359Y835077D01*
X203346Y835000D01*
X203346Y834408D01*
X203359Y834321D01*
X203361Y834234D01*
X203378Y834181D01*
X203386Y834127D01*
X203422Y834047D01*
X203449Y833964D01*
X203477Y833924D01*
X203502Y833867D01*
X203598Y833754D01*
X203644Y833690D01*
X390907Y646427D01*
X390907Y636342D01*
X390919Y636256D01*
X390922Y636168D01*
X390939Y636116D01*
X390947Y636061D01*
X390982Y635981D01*
X391009Y635898D01*
X391037Y635858D01*
X391063Y635801D01*
X391143Y635707D01*
X391161Y635676D01*
X391180Y635658D01*
X391204Y635624D01*
X392685Y634144D01*
X392685Y630776D01*
X390304Y628395D01*
X386936Y628395D01*
G37*
%LPD*%
%LPC*%
G36*
X325976Y757935D02*
X325976Y757935D01*
X323581Y760331D01*
X323580Y760342D01*
X323563Y760395D01*
X323555Y760449D01*
X323524Y760519D01*
X323513Y760563D01*
X323504Y760578D01*
X323493Y760612D01*
X323465Y760652D01*
X323439Y760709D01*
X323396Y760760D01*
X323367Y760808D01*
X323325Y760847D01*
X323298Y760886D01*
X196133Y888050D01*
X196063Y888103D01*
X196000Y888163D01*
X195950Y888188D01*
X195906Y888221D01*
X195824Y888252D01*
X195746Y888292D01*
X195699Y888300D01*
X195640Y888323D01*
X195493Y888335D01*
X195415Y888348D01*
X194040Y888348D01*
X191659Y890729D01*
X191659Y894096D01*
X192067Y894504D01*
X192077Y894518D01*
X192085Y894525D01*
X192090Y894532D01*
X192107Y894547D01*
X192170Y894641D01*
X192238Y894731D01*
X192248Y894759D01*
X192264Y894783D01*
X192299Y894891D01*
X192339Y894997D01*
X192341Y895026D01*
X192350Y895054D01*
X192353Y895168D01*
X192362Y895280D01*
X192357Y895309D01*
X192357Y895338D01*
X192329Y895448D01*
X192307Y895559D01*
X192293Y895585D01*
X192286Y895613D01*
X192228Y895711D01*
X192176Y895811D01*
X192155Y895833D01*
X192140Y895858D01*
X192058Y895935D01*
X191980Y896017D01*
X191954Y896032D01*
X191933Y896052D01*
X191832Y896104D01*
X191734Y896161D01*
X191706Y896168D01*
X191680Y896182D01*
X191603Y896195D01*
X191459Y896231D01*
X191396Y896229D01*
X191349Y896237D01*
X188816Y896237D01*
X186435Y898618D01*
X186435Y901986D01*
X188816Y904367D01*
X192184Y904367D01*
X192918Y903633D01*
X192988Y903580D01*
X193052Y903520D01*
X193101Y903495D01*
X193145Y903462D01*
X193227Y903431D01*
X193305Y903391D01*
X193352Y903383D01*
X193411Y903360D01*
X193558Y903348D01*
X193636Y903335D01*
X210597Y903335D01*
X327250Y786682D01*
X327320Y786630D01*
X327384Y786570D01*
X327433Y786544D01*
X327477Y786511D01*
X327559Y786480D01*
X327637Y786440D01*
X327685Y786432D01*
X327743Y786410D01*
X327891Y786398D01*
X327968Y786385D01*
X329344Y786385D01*
X331725Y784004D01*
X331725Y780636D01*
X329344Y778255D01*
X325976Y778255D01*
X323595Y780636D01*
X323595Y782012D01*
X323583Y782098D01*
X323580Y782186D01*
X323563Y782239D01*
X323555Y782293D01*
X323520Y782373D01*
X323493Y782456D01*
X323465Y782496D01*
X323439Y782553D01*
X323343Y782666D01*
X323298Y782730D01*
X208579Y897448D01*
X208509Y897501D01*
X208446Y897561D01*
X208396Y897586D01*
X208352Y897619D01*
X208270Y897650D01*
X208192Y897690D01*
X208145Y897698D01*
X208086Y897721D01*
X207939Y897733D01*
X207861Y897746D01*
X198590Y897746D01*
X198561Y897742D01*
X198531Y897744D01*
X198420Y897722D01*
X198308Y897706D01*
X198281Y897694D01*
X198253Y897688D01*
X198152Y897636D01*
X198049Y897590D01*
X198026Y897571D01*
X198000Y897557D01*
X197918Y897479D01*
X197832Y897406D01*
X197815Y897382D01*
X197794Y897361D01*
X197737Y897264D01*
X197674Y897169D01*
X197665Y897141D01*
X197650Y897116D01*
X197623Y897007D01*
X197588Y896898D01*
X197588Y896869D01*
X197580Y896841D01*
X197584Y896728D01*
X197581Y896614D01*
X197588Y896586D01*
X197589Y896556D01*
X197624Y896449D01*
X197653Y896339D01*
X197668Y896314D01*
X197677Y896286D01*
X197722Y896222D01*
X197798Y896095D01*
X197844Y896052D01*
X197872Y896013D01*
X199788Y894096D01*
X199788Y892721D01*
X199800Y892634D01*
X199803Y892547D01*
X199820Y892494D01*
X199828Y892439D01*
X199864Y892359D01*
X199891Y892276D01*
X199919Y892237D01*
X199944Y892180D01*
X200040Y892066D01*
X200086Y892003D01*
X325726Y766362D01*
X325796Y766310D01*
X325860Y766250D01*
X325909Y766224D01*
X325953Y766191D01*
X326035Y766160D01*
X326113Y766120D01*
X326161Y766112D01*
X326219Y766090D01*
X326367Y766078D01*
X326444Y766065D01*
X329344Y766065D01*
X331725Y763684D01*
X331725Y760316D01*
X329344Y757935D01*
X325976Y757935D01*
G37*
%LPD*%
%LPC*%
G36*
X102246Y437387D02*
X102246Y437387D01*
X99567Y440066D01*
X99567Y443854D01*
X114510Y458797D01*
X114562Y458867D01*
X114622Y458930D01*
X114648Y458980D01*
X114681Y459024D01*
X114712Y459106D01*
X114752Y459184D01*
X114760Y459231D01*
X114782Y459290D01*
X114794Y459437D01*
X114807Y459515D01*
X114807Y583554D01*
X117486Y586233D01*
X121274Y586233D01*
X123953Y583554D01*
X123953Y455306D01*
X106034Y437387D01*
X102246Y437387D01*
G37*
%LPD*%
%LPC*%
G36*
X270096Y161035D02*
X270096Y161035D01*
X267715Y163416D01*
X267715Y164433D01*
X267703Y164519D01*
X267700Y164607D01*
X267683Y164659D01*
X267675Y164714D01*
X267640Y164794D01*
X267613Y164877D01*
X267585Y164916D01*
X267559Y164974D01*
X267463Y165087D01*
X267418Y165151D01*
X260655Y171914D01*
X260585Y171966D01*
X260521Y172026D01*
X260471Y172052D01*
X260427Y172085D01*
X260346Y172116D01*
X260268Y172156D01*
X260220Y172164D01*
X260162Y172186D01*
X260014Y172198D01*
X259937Y172211D01*
X105399Y172211D01*
X105312Y172199D01*
X105225Y172196D01*
X105172Y172179D01*
X105118Y172171D01*
X105038Y172136D01*
X104954Y172109D01*
X104915Y172081D01*
X104858Y172055D01*
X104745Y171959D01*
X104681Y171914D01*
X103483Y170715D01*
X99717Y170715D01*
X97055Y173377D01*
X97055Y177143D01*
X99717Y179805D01*
X103483Y179805D01*
X104681Y178606D01*
X104751Y178554D01*
X104815Y178494D01*
X104864Y178468D01*
X104908Y178435D01*
X104990Y178404D01*
X105068Y178364D01*
X105116Y178356D01*
X105174Y178334D01*
X105322Y178322D01*
X105399Y178309D01*
X262883Y178309D01*
X271729Y169462D01*
X271799Y169410D01*
X271863Y169350D01*
X271913Y169324D01*
X271957Y169291D01*
X272038Y169260D01*
X272116Y169220D01*
X272164Y169212D01*
X272222Y169190D01*
X272370Y169178D01*
X272447Y169165D01*
X273464Y169165D01*
X275845Y166784D01*
X275845Y163416D01*
X273464Y161035D01*
X270096Y161035D01*
G37*
%LPD*%
%LPC*%
G36*
X270096Y412385D02*
X270096Y412385D01*
X268616Y413866D01*
X268546Y413918D01*
X268482Y413978D01*
X268433Y414004D01*
X268388Y414037D01*
X268307Y414068D01*
X268229Y414108D01*
X268181Y414116D01*
X268123Y414138D01*
X267975Y414150D01*
X267898Y414163D01*
X265863Y414163D01*
X264226Y415800D01*
X202550Y477476D01*
X200913Y479113D01*
X200913Y491418D01*
X200901Y491504D01*
X200898Y491592D01*
X200881Y491645D01*
X200873Y491699D01*
X200838Y491779D01*
X200811Y491862D01*
X200783Y491902D01*
X200757Y491959D01*
X200661Y492072D01*
X200616Y492136D01*
X199135Y493616D01*
X199135Y496984D01*
X201516Y499365D01*
X204884Y499365D01*
X207265Y496984D01*
X207265Y493616D01*
X205784Y492136D01*
X205732Y492066D01*
X205672Y492002D01*
X205646Y491953D01*
X205613Y491909D01*
X205582Y491827D01*
X205542Y491749D01*
X205534Y491701D01*
X205512Y491643D01*
X205500Y491495D01*
X205487Y491418D01*
X205487Y481428D01*
X205499Y481341D01*
X205502Y481254D01*
X205519Y481201D01*
X205527Y481146D01*
X205562Y481066D01*
X205589Y480983D01*
X205617Y480944D01*
X205643Y480887D01*
X205739Y480774D01*
X205784Y480710D01*
X257236Y429258D01*
X257260Y429240D01*
X257279Y429218D01*
X257373Y429155D01*
X257463Y429087D01*
X257491Y429076D01*
X257515Y429060D01*
X257623Y429026D01*
X257729Y428986D01*
X257758Y428983D01*
X257786Y428974D01*
X257900Y428971D01*
X258012Y428962D01*
X258041Y428968D01*
X258070Y428967D01*
X258180Y428996D01*
X258291Y429018D01*
X258317Y429032D01*
X258345Y429039D01*
X258443Y429097D01*
X258543Y429149D01*
X258565Y429169D01*
X258590Y429184D01*
X258667Y429267D01*
X258749Y429345D01*
X258764Y429370D01*
X258784Y429391D01*
X258836Y429492D01*
X258893Y429590D01*
X258900Y429618D01*
X258914Y429645D01*
X258927Y429722D01*
X258963Y429866D01*
X258961Y429928D01*
X258969Y429976D01*
X258969Y434348D01*
X260920Y439057D01*
X264523Y442660D01*
X269232Y444611D01*
X274328Y444611D01*
X279037Y442660D01*
X282640Y439057D01*
X284591Y434348D01*
X284591Y429252D01*
X282640Y424543D01*
X279037Y420940D01*
X276199Y419764D01*
X276100Y419706D01*
X275998Y419653D01*
X275978Y419634D01*
X275954Y419620D01*
X275876Y419536D01*
X275792Y419457D01*
X275778Y419433D01*
X275759Y419413D01*
X275707Y419311D01*
X275649Y419212D01*
X275642Y419185D01*
X275629Y419160D01*
X275607Y419048D01*
X275579Y418936D01*
X275579Y418909D01*
X275574Y418881D01*
X275584Y418767D01*
X275588Y418652D01*
X275596Y418626D01*
X275599Y418598D01*
X275640Y418491D01*
X275675Y418382D01*
X275690Y418361D01*
X275701Y418333D01*
X275845Y418142D01*
X275845Y414766D01*
X273464Y412385D01*
X270096Y412385D01*
G37*
%LPD*%
%LPC*%
G36*
X585094Y39985D02*
X585094Y39985D01*
X582053Y41245D01*
X579725Y43573D01*
X578465Y46614D01*
X578465Y49906D01*
X579725Y52947D01*
X582053Y55275D01*
X583827Y56010D01*
X583828Y56011D01*
X583829Y56011D01*
X583950Y56082D01*
X584071Y56154D01*
X584072Y56155D01*
X584074Y56156D01*
X584171Y56260D01*
X584267Y56361D01*
X584267Y56362D01*
X584268Y56363D01*
X584333Y56489D01*
X584397Y56614D01*
X584397Y56615D01*
X584398Y56617D01*
X584400Y56631D01*
X584452Y56893D01*
X584449Y56923D01*
X584453Y56948D01*
X584453Y149254D01*
X584441Y149341D01*
X584438Y149428D01*
X584421Y149481D01*
X584413Y149536D01*
X584378Y149616D01*
X584351Y149699D01*
X584323Y149738D01*
X584297Y149795D01*
X584201Y149908D01*
X584156Y149972D01*
X572628Y161500D01*
X572558Y161552D01*
X572494Y161612D01*
X572445Y161638D01*
X572401Y161671D01*
X572319Y161702D01*
X572241Y161742D01*
X572194Y161750D01*
X572135Y161772D01*
X571988Y161784D01*
X571910Y161797D01*
X569816Y161797D01*
X567435Y164178D01*
X567435Y167546D01*
X569816Y169927D01*
X573184Y169927D01*
X575565Y167546D01*
X575565Y165452D01*
X575577Y165365D01*
X575580Y165278D01*
X575597Y165225D01*
X575605Y165170D01*
X575640Y165090D01*
X575667Y165007D01*
X575695Y164968D01*
X575721Y164911D01*
X575817Y164798D01*
X575862Y164734D01*
X589027Y151569D01*
X589027Y56948D01*
X589027Y56946D01*
X589027Y56945D01*
X589047Y56801D01*
X589067Y56666D01*
X589067Y56665D01*
X589067Y56663D01*
X589124Y56537D01*
X589183Y56407D01*
X589184Y56406D01*
X589185Y56404D01*
X589276Y56297D01*
X589366Y56190D01*
X589368Y56189D01*
X589369Y56188D01*
X589382Y56180D01*
X589603Y56032D01*
X589632Y56023D01*
X589653Y56010D01*
X591427Y55275D01*
X593755Y52947D01*
X595015Y49906D01*
X595015Y46614D01*
X593755Y43573D01*
X591427Y41245D01*
X588386Y39985D01*
X585094Y39985D01*
G37*
%LPD*%
%LPC*%
G36*
X567276Y277875D02*
X567276Y277875D01*
X564895Y280256D01*
X564895Y282350D01*
X564883Y282437D01*
X564880Y282524D01*
X564863Y282577D01*
X564855Y282632D01*
X564820Y282712D01*
X564793Y282795D01*
X564765Y282834D01*
X564739Y282891D01*
X564643Y283004D01*
X564598Y283068D01*
X560323Y287343D01*
X560323Y416488D01*
X560311Y416574D01*
X560308Y416662D01*
X560291Y416714D01*
X560283Y416769D01*
X560248Y416849D01*
X560221Y416932D01*
X560193Y416972D01*
X560167Y417029D01*
X560071Y417142D01*
X560026Y417206D01*
X558545Y418686D01*
X558545Y422054D01*
X560926Y424435D01*
X564294Y424435D01*
X566675Y422054D01*
X566675Y418686D01*
X565194Y417206D01*
X565142Y417136D01*
X565082Y417072D01*
X565056Y417023D01*
X565023Y416978D01*
X564992Y416897D01*
X564952Y416819D01*
X564944Y416771D01*
X564922Y416713D01*
X564910Y416565D01*
X564897Y416488D01*
X564897Y289658D01*
X564909Y289571D01*
X564912Y289484D01*
X564929Y289431D01*
X564937Y289376D01*
X564972Y289296D01*
X564999Y289213D01*
X565027Y289174D01*
X565053Y289117D01*
X565149Y289004D01*
X565194Y288940D01*
X567832Y286302D01*
X567902Y286250D01*
X567966Y286190D01*
X568015Y286164D01*
X568059Y286131D01*
X568141Y286100D01*
X568219Y286060D01*
X568266Y286052D01*
X568325Y286030D01*
X568472Y286018D01*
X568550Y286005D01*
X570644Y286005D01*
X573025Y283624D01*
X573025Y280256D01*
X570644Y277875D01*
X567276Y277875D01*
G37*
%LPD*%
%LPC*%
G36*
X552036Y305815D02*
X552036Y305815D01*
X549655Y308196D01*
X549655Y311564D01*
X551136Y313044D01*
X551188Y313114D01*
X551248Y313178D01*
X551274Y313227D01*
X551307Y313272D01*
X551338Y313353D01*
X551378Y313431D01*
X551386Y313479D01*
X551408Y313537D01*
X551420Y313685D01*
X551433Y313762D01*
X551433Y443158D01*
X551421Y443244D01*
X551418Y443332D01*
X551401Y443384D01*
X551393Y443439D01*
X551358Y443519D01*
X551331Y443602D01*
X551303Y443642D01*
X551277Y443699D01*
X551181Y443812D01*
X551136Y443876D01*
X550925Y444086D01*
X550925Y447454D01*
X553306Y449835D01*
X556674Y449835D01*
X559055Y447454D01*
X559055Y444086D01*
X556547Y441579D01*
X556481Y441549D01*
X556436Y441511D01*
X556386Y441482D01*
X556328Y441420D01*
X556264Y441366D01*
X556232Y441317D01*
X556192Y441274D01*
X556153Y441199D01*
X556106Y441129D01*
X556089Y441073D01*
X556062Y441021D01*
X556051Y440953D01*
X556021Y440858D01*
X556018Y440758D01*
X556007Y440690D01*
X556007Y313762D01*
X556019Y313676D01*
X556022Y313588D01*
X556039Y313536D01*
X556047Y313481D01*
X556082Y313401D01*
X556109Y313318D01*
X556137Y313278D01*
X556163Y313221D01*
X556259Y313108D01*
X556304Y313044D01*
X557785Y311564D01*
X557785Y308196D01*
X555404Y305815D01*
X552036Y305815D01*
G37*
%LPD*%
%LPC*%
G36*
X336136Y747775D02*
X336136Y747775D01*
X333755Y750156D01*
X333755Y753524D01*
X336136Y755905D01*
X337512Y755905D01*
X337598Y755917D01*
X337686Y755920D01*
X337739Y755937D01*
X337793Y755945D01*
X337873Y755980D01*
X337956Y756007D01*
X337996Y756035D01*
X338053Y756061D01*
X338166Y756157D01*
X338230Y756202D01*
X411838Y829810D01*
X411890Y829880D01*
X411950Y829944D01*
X411976Y829993D01*
X412009Y830037D01*
X412040Y830119D01*
X412080Y830197D01*
X412088Y830245D01*
X412110Y830303D01*
X412122Y830451D01*
X412135Y830528D01*
X412135Y831904D01*
X414516Y834285D01*
X417884Y834285D01*
X420265Y831904D01*
X420265Y828536D01*
X417884Y826155D01*
X416508Y826155D01*
X416422Y826143D01*
X416334Y826140D01*
X416281Y826123D01*
X416227Y826115D01*
X416147Y826080D01*
X416064Y826053D01*
X416024Y826025D01*
X415967Y825999D01*
X415854Y825903D01*
X415790Y825858D01*
X342182Y752250D01*
X342130Y752180D01*
X342070Y752116D01*
X342044Y752067D01*
X342011Y752023D01*
X341980Y751941D01*
X341940Y751863D01*
X341932Y751815D01*
X341910Y751757D01*
X341898Y751609D01*
X341885Y751532D01*
X341885Y750156D01*
X339504Y747775D01*
X336136Y747775D01*
G37*
%LPD*%
%LPC*%
G36*
X707851Y64515D02*
X707851Y64515D01*
X702622Y66681D01*
X698621Y70682D01*
X696455Y75911D01*
X696455Y81569D01*
X698621Y86798D01*
X702622Y90799D01*
X707851Y92965D01*
X713509Y92965D01*
X718738Y90799D01*
X722739Y86798D01*
X724905Y81569D01*
X724905Y75911D01*
X722739Y70682D01*
X718738Y66681D01*
X713509Y64515D01*
X707851Y64515D01*
G37*
%LPD*%
%LPC*%
G36*
X270096Y389635D02*
X270096Y389635D01*
X268616Y391116D01*
X268546Y391168D01*
X268482Y391228D01*
X268433Y391254D01*
X268388Y391287D01*
X268307Y391318D01*
X268229Y391358D01*
X268181Y391366D01*
X268123Y391388D01*
X267975Y391400D01*
X267898Y391413D01*
X265499Y391413D01*
X198110Y458803D01*
X198040Y458855D01*
X197976Y458915D01*
X197926Y458940D01*
X197882Y458973D01*
X197801Y459005D01*
X197723Y459044D01*
X197675Y459052D01*
X197617Y459075D01*
X197469Y459087D01*
X197392Y459100D01*
X195298Y459100D01*
X192917Y461481D01*
X192917Y464848D01*
X195298Y467229D01*
X198665Y467229D01*
X201046Y464848D01*
X201046Y462754D01*
X201058Y462668D01*
X201061Y462580D01*
X201078Y462528D01*
X201086Y462473D01*
X201122Y462393D01*
X201149Y462310D01*
X201177Y462271D01*
X201202Y462213D01*
X201298Y462100D01*
X201318Y462073D01*
X201321Y462068D01*
X201322Y462066D01*
X201343Y462036D01*
X267096Y396284D01*
X267166Y396232D01*
X267230Y396172D01*
X267279Y396146D01*
X267323Y396113D01*
X267405Y396082D01*
X267483Y396042D01*
X267530Y396034D01*
X267589Y396012D01*
X267736Y396000D01*
X267814Y395987D01*
X267898Y395987D01*
X267984Y395999D01*
X268072Y396002D01*
X268124Y396019D01*
X268179Y396027D01*
X268259Y396062D01*
X268342Y396089D01*
X268382Y396117D01*
X268439Y396143D01*
X268552Y396239D01*
X268616Y396284D01*
X270096Y397765D01*
X273464Y397765D01*
X275845Y395384D01*
X275845Y392016D01*
X273464Y389635D01*
X270096Y389635D01*
G37*
%LPD*%
%LPC*%
G36*
X624796Y38485D02*
X624796Y38485D01*
X621203Y39973D01*
X618453Y42723D01*
X616952Y46348D01*
X616951Y46390D01*
X616933Y46444D01*
X616925Y46501D01*
X616890Y46579D01*
X616864Y46661D01*
X616832Y46708D01*
X616809Y46760D01*
X616754Y46826D01*
X616706Y46897D01*
X616662Y46934D01*
X616626Y46977D01*
X616554Y47025D01*
X616488Y47080D01*
X616436Y47103D01*
X616389Y47135D01*
X616307Y47161D01*
X616228Y47195D01*
X616172Y47203D01*
X616118Y47220D01*
X616032Y47223D01*
X615947Y47234D01*
X615891Y47226D01*
X615834Y47228D01*
X615751Y47206D01*
X615666Y47194D01*
X615614Y47170D01*
X615559Y47156D01*
X615485Y47112D01*
X615406Y47077D01*
X615363Y47040D01*
X615314Y47011D01*
X615255Y46948D01*
X615190Y46892D01*
X615164Y46850D01*
X615120Y46803D01*
X615054Y46674D01*
X615012Y46608D01*
X613755Y43573D01*
X611427Y41245D01*
X608386Y39985D01*
X605094Y39985D01*
X602053Y41245D01*
X599725Y43573D01*
X598465Y46614D01*
X598465Y49906D01*
X599725Y52947D01*
X602053Y55275D01*
X605094Y56535D01*
X608386Y56535D01*
X611427Y55275D01*
X613755Y52947D01*
X615012Y49912D01*
X615056Y49838D01*
X615091Y49760D01*
X615128Y49717D01*
X615157Y49668D01*
X615219Y49609D01*
X615275Y49543D01*
X615322Y49511D01*
X615363Y49472D01*
X615440Y49433D01*
X615511Y49385D01*
X615565Y49368D01*
X615616Y49342D01*
X615700Y49326D01*
X615782Y49300D01*
X615839Y49298D01*
X615895Y49287D01*
X615980Y49295D01*
X616066Y49292D01*
X616121Y49307D01*
X616178Y49312D01*
X616258Y49342D01*
X616341Y49364D01*
X616390Y49393D01*
X616443Y49414D01*
X616512Y49466D01*
X616586Y49509D01*
X616625Y49551D01*
X616670Y49585D01*
X616722Y49654D01*
X616780Y49717D01*
X616806Y49767D01*
X616840Y49813D01*
X616871Y49893D01*
X616910Y49970D01*
X616918Y50019D01*
X616941Y50079D01*
X616947Y50161D01*
X618453Y53797D01*
X621203Y56547D01*
X624796Y58035D01*
X628684Y58035D01*
X632277Y56547D01*
X635027Y53797D01*
X636515Y50204D01*
X636515Y46316D01*
X635027Y42723D01*
X632277Y39973D01*
X628684Y38485D01*
X624796Y38485D01*
G37*
%LPD*%
%LPC*%
G36*
X269232Y63389D02*
X269232Y63389D01*
X264523Y65340D01*
X260920Y68943D01*
X258969Y73652D01*
X258969Y78748D01*
X260920Y83457D01*
X264523Y87060D01*
X269232Y89011D01*
X274328Y89011D01*
X279037Y87060D01*
X282640Y83457D01*
X284591Y78748D01*
X284591Y73652D01*
X282640Y68943D01*
X279037Y65340D01*
X274328Y63389D01*
X269232Y63389D01*
G37*
%LPD*%
%LPC*%
G36*
X497832Y164989D02*
X497832Y164989D01*
X493123Y166940D01*
X489520Y170543D01*
X487569Y175252D01*
X487569Y180348D01*
X489520Y185057D01*
X493123Y188660D01*
X497832Y190611D01*
X502928Y190611D01*
X507637Y188660D01*
X511240Y185057D01*
X513191Y180348D01*
X513191Y175252D01*
X511240Y170543D01*
X507637Y166940D01*
X502928Y164989D01*
X497832Y164989D01*
G37*
%LPD*%
%LPC*%
G36*
X497832Y418989D02*
X497832Y418989D01*
X493123Y420940D01*
X489520Y424543D01*
X487569Y429252D01*
X487569Y434348D01*
X489520Y439057D01*
X493123Y442660D01*
X497832Y444611D01*
X502928Y444611D01*
X507637Y442660D01*
X511240Y439057D01*
X513191Y434348D01*
X513191Y429252D01*
X511240Y424543D01*
X507637Y420940D01*
X502928Y418989D01*
X497832Y418989D01*
G37*
%LPD*%
%LPC*%
G36*
X170271Y117899D02*
X170271Y117899D01*
X165746Y119773D01*
X162283Y123236D01*
X160409Y127761D01*
X160409Y132659D01*
X162283Y137184D01*
X165746Y140647D01*
X170271Y142521D01*
X175169Y142521D01*
X179694Y140647D01*
X183157Y137184D01*
X185031Y132659D01*
X185031Y127761D01*
X183157Y123236D01*
X179694Y119773D01*
X175169Y117899D01*
X170271Y117899D01*
G37*
%LPD*%
%LPC*%
G36*
X170271Y47899D02*
X170271Y47899D01*
X165746Y49773D01*
X162283Y53236D01*
X160409Y57761D01*
X160409Y62659D01*
X162283Y67184D01*
X165746Y70647D01*
X170271Y72521D01*
X175169Y72521D01*
X179694Y70647D01*
X183157Y67184D01*
X185031Y62659D01*
X185031Y57761D01*
X183157Y53236D01*
X179694Y49773D01*
X175169Y47899D01*
X170271Y47899D01*
G37*
%LPD*%
%LPC*%
G36*
X643476Y740155D02*
X643476Y740155D01*
X641095Y742536D01*
X641095Y744630D01*
X641083Y744717D01*
X641080Y744804D01*
X641063Y744857D01*
X641055Y744912D01*
X641020Y744992D01*
X640993Y745075D01*
X640965Y745114D01*
X640939Y745171D01*
X640843Y745284D01*
X640798Y745348D01*
X625093Y761053D01*
X625093Y820348D01*
X625081Y820434D01*
X625078Y820522D01*
X625061Y820574D01*
X625053Y820629D01*
X625018Y820709D01*
X624991Y820792D01*
X624963Y820832D01*
X624937Y820889D01*
X624841Y821002D01*
X624796Y821066D01*
X623315Y822546D01*
X623315Y825914D01*
X625696Y828295D01*
X629064Y828295D01*
X631445Y825914D01*
X631445Y822546D01*
X629964Y821066D01*
X629912Y820996D01*
X629852Y820932D01*
X629826Y820883D01*
X629793Y820838D01*
X629762Y820757D01*
X629722Y820679D01*
X629714Y820631D01*
X629692Y820573D01*
X629680Y820425D01*
X629667Y820348D01*
X629667Y763368D01*
X629679Y763281D01*
X629682Y763194D01*
X629699Y763141D01*
X629707Y763086D01*
X629742Y763006D01*
X629769Y762923D01*
X629797Y762884D01*
X629823Y762827D01*
X629919Y762714D01*
X629964Y762650D01*
X644032Y748582D01*
X644102Y748530D01*
X644166Y748470D01*
X644215Y748444D01*
X644259Y748411D01*
X644341Y748380D01*
X644419Y748340D01*
X644466Y748332D01*
X644525Y748310D01*
X644672Y748298D01*
X644750Y748285D01*
X646844Y748285D01*
X649225Y745904D01*
X649225Y742536D01*
X646844Y740155D01*
X643476Y740155D01*
G37*
%LPD*%
%LPC*%
G36*
X544796Y38485D02*
X544796Y38485D01*
X541203Y39973D01*
X538453Y42723D01*
X536965Y46316D01*
X536965Y50204D01*
X538453Y53797D01*
X541203Y56547D01*
X544796Y58035D01*
X548684Y58035D01*
X552277Y56547D01*
X555027Y53797D01*
X556064Y51293D01*
X556079Y51267D01*
X556088Y51239D01*
X556151Y51145D01*
X556208Y51048D01*
X556230Y51028D01*
X556246Y51003D01*
X556333Y50930D01*
X556415Y50853D01*
X556441Y50839D01*
X556464Y50820D01*
X556567Y50774D01*
X556668Y50722D01*
X556697Y50717D01*
X556724Y50705D01*
X556836Y50689D01*
X556947Y50667D01*
X556976Y50670D01*
X557005Y50666D01*
X557117Y50682D01*
X557230Y50692D01*
X557257Y50702D01*
X557286Y50706D01*
X557390Y50753D01*
X557495Y50794D01*
X557519Y50811D01*
X557546Y50824D01*
X557632Y50897D01*
X557722Y50965D01*
X557740Y50989D01*
X557762Y51008D01*
X557803Y51074D01*
X557892Y51193D01*
X557914Y51252D01*
X557940Y51293D01*
X558507Y52661D01*
X559523Y54183D01*
X560817Y55477D01*
X562339Y56493D01*
X564030Y57194D01*
X564709Y57329D01*
X564709Y49276D01*
X564717Y49218D01*
X564715Y49160D01*
X564737Y49078D01*
X564749Y48995D01*
X564773Y48941D01*
X564787Y48885D01*
X564830Y48812D01*
X564865Y48735D01*
X564903Y48691D01*
X564933Y48640D01*
X564994Y48583D01*
X565049Y48518D01*
X565097Y48486D01*
X565140Y48446D01*
X565215Y48407D01*
X565285Y48361D01*
X565341Y48343D01*
X565393Y48316D01*
X565461Y48305D01*
X565556Y48275D01*
X565656Y48272D01*
X565724Y48261D01*
X566741Y48261D01*
X566741Y48259D01*
X565724Y48259D01*
X565666Y48251D01*
X565608Y48252D01*
X565526Y48231D01*
X565443Y48219D01*
X565389Y48195D01*
X565333Y48181D01*
X565260Y48138D01*
X565183Y48103D01*
X565138Y48065D01*
X565088Y48035D01*
X565030Y47974D01*
X564966Y47919D01*
X564934Y47871D01*
X564894Y47828D01*
X564855Y47753D01*
X564809Y47683D01*
X564791Y47627D01*
X564764Y47575D01*
X564753Y47507D01*
X564723Y47412D01*
X564720Y47312D01*
X564709Y47244D01*
X564709Y39191D01*
X564030Y39326D01*
X562339Y40027D01*
X560817Y41043D01*
X559523Y42337D01*
X558507Y43859D01*
X557940Y45227D01*
X557925Y45253D01*
X557916Y45281D01*
X557853Y45375D01*
X557795Y45472D01*
X557774Y45492D01*
X557758Y45517D01*
X557671Y45590D01*
X557589Y45667D01*
X557563Y45681D01*
X557540Y45700D01*
X557437Y45746D01*
X557336Y45798D01*
X557307Y45803D01*
X557280Y45815D01*
X557168Y45831D01*
X557057Y45853D01*
X557028Y45850D01*
X556999Y45854D01*
X556887Y45838D01*
X556774Y45828D01*
X556746Y45818D01*
X556717Y45814D01*
X556615Y45767D01*
X556509Y45726D01*
X556485Y45708D01*
X556458Y45696D01*
X556372Y45623D01*
X556282Y45555D01*
X556264Y45531D01*
X556242Y45512D01*
X556200Y45446D01*
X556112Y45327D01*
X556090Y45268D01*
X556064Y45227D01*
X555027Y42723D01*
X552277Y39973D01*
X548684Y38485D01*
X544796Y38485D01*
G37*
%LPD*%
%LPC*%
G36*
X335264Y454803D02*
X335264Y454803D01*
X332883Y457184D01*
X332883Y460551D01*
X334363Y462032D01*
X334416Y462102D01*
X334476Y462166D01*
X334501Y462215D01*
X334534Y462259D01*
X334565Y462341D01*
X334605Y462419D01*
X334613Y462466D01*
X334636Y462525D01*
X334648Y462672D01*
X334661Y462750D01*
X334661Y500455D01*
X353778Y519572D01*
X353830Y519642D01*
X353890Y519706D01*
X353916Y519755D01*
X353949Y519799D01*
X353980Y519881D01*
X354020Y519959D01*
X354028Y520006D01*
X354050Y520065D01*
X354062Y520212D01*
X354075Y520290D01*
X354075Y522384D01*
X356456Y524765D01*
X359824Y524765D01*
X362205Y522384D01*
X362205Y519016D01*
X359824Y516635D01*
X357730Y516635D01*
X357643Y516623D01*
X357556Y516620D01*
X357503Y516603D01*
X357448Y516595D01*
X357368Y516560D01*
X357285Y516533D01*
X357246Y516505D01*
X357189Y516479D01*
X357076Y516383D01*
X357012Y516338D01*
X339532Y498858D01*
X339479Y498788D01*
X339419Y498724D01*
X339394Y498675D01*
X339361Y498630D01*
X339330Y498549D01*
X339290Y498471D01*
X339282Y498423D01*
X339259Y498365D01*
X339247Y498217D01*
X339234Y498140D01*
X339234Y462750D01*
X339246Y462663D01*
X339249Y462576D01*
X339266Y462523D01*
X339274Y462468D01*
X339310Y462388D01*
X339337Y462305D01*
X339365Y462266D01*
X339390Y462209D01*
X339486Y462096D01*
X339494Y462084D01*
X339504Y462068D01*
X339510Y462062D01*
X339532Y462032D01*
X341012Y460551D01*
X341012Y457184D01*
X338631Y454803D01*
X335264Y454803D01*
G37*
%LPD*%
%LPC*%
G36*
X374236Y801115D02*
X374236Y801115D01*
X373010Y802342D01*
X372940Y802394D01*
X372876Y802454D01*
X372827Y802480D01*
X372782Y802513D01*
X372701Y802544D01*
X372623Y802584D01*
X372575Y802592D01*
X372517Y802614D01*
X372369Y802626D01*
X372292Y802639D01*
X320874Y802639D01*
X320788Y802627D01*
X320700Y802624D01*
X320648Y802607D01*
X320593Y802599D01*
X320513Y802564D01*
X320430Y802537D01*
X320390Y802509D01*
X320333Y802483D01*
X320220Y802387D01*
X320156Y802342D01*
X319184Y801369D01*
X315816Y801369D01*
X313435Y803750D01*
X313435Y807118D01*
X315816Y809499D01*
X319184Y809499D01*
X320156Y808526D01*
X320226Y808474D01*
X320290Y808414D01*
X320339Y808388D01*
X320384Y808355D01*
X320465Y808324D01*
X320543Y808284D01*
X320591Y808276D01*
X320649Y808254D01*
X320797Y808242D01*
X320874Y808229D01*
X372800Y808229D01*
X372886Y808241D01*
X372974Y808244D01*
X373026Y808261D01*
X373081Y808269D01*
X373161Y808304D01*
X373244Y808331D01*
X373284Y808359D01*
X373341Y808385D01*
X373454Y808481D01*
X373518Y808526D01*
X374236Y809245D01*
X377604Y809245D01*
X379985Y806864D01*
X379985Y803496D01*
X377604Y801115D01*
X374236Y801115D01*
G37*
%LPD*%
%LPC*%
G36*
X751700Y172879D02*
X751700Y172879D01*
X747059Y175559D01*
X744379Y180200D01*
X744379Y185560D01*
X747059Y190201D01*
X751700Y192881D01*
X757060Y192881D01*
X761701Y190201D01*
X764381Y185560D01*
X764381Y180200D01*
X761701Y175559D01*
X757060Y172879D01*
X751700Y172879D01*
G37*
%LPD*%
%LPC*%
G36*
X12560Y1041559D02*
X12560Y1041559D01*
X7919Y1044239D01*
X5239Y1048880D01*
X5239Y1054240D01*
X7919Y1058881D01*
X12560Y1061561D01*
X17920Y1061561D01*
X22561Y1058881D01*
X25241Y1054240D01*
X25241Y1048880D01*
X22561Y1044239D01*
X17920Y1041559D01*
X12560Y1041559D01*
G37*
%LPD*%
%LPC*%
G36*
X27800Y172879D02*
X27800Y172879D01*
X23159Y175559D01*
X20479Y180200D01*
X20479Y185560D01*
X23159Y190201D01*
X27800Y192881D01*
X33160Y192881D01*
X37801Y190201D01*
X40481Y185560D01*
X40481Y180200D01*
X37801Y175559D01*
X33160Y172879D01*
X27800Y172879D01*
G37*
%LPD*%
%LPC*%
G36*
X677766Y225805D02*
X677766Y225805D01*
X675385Y228186D01*
X675385Y231554D01*
X676866Y233034D01*
X676918Y233104D01*
X676978Y233168D01*
X677004Y233217D01*
X677037Y233262D01*
X677068Y233343D01*
X677108Y233421D01*
X677116Y233469D01*
X677138Y233527D01*
X677150Y233675D01*
X677163Y233752D01*
X677163Y264062D01*
X677151Y264149D01*
X677148Y264236D01*
X677131Y264289D01*
X677123Y264344D01*
X677088Y264424D01*
X677061Y264507D01*
X677033Y264546D01*
X677007Y264603D01*
X676911Y264716D01*
X676866Y264780D01*
X674228Y267418D01*
X674158Y267470D01*
X674094Y267530D01*
X674045Y267556D01*
X674001Y267589D01*
X673919Y267620D01*
X673841Y267660D01*
X673794Y267668D01*
X673735Y267690D01*
X673588Y267702D01*
X673510Y267715D01*
X671416Y267715D01*
X669035Y270096D01*
X669035Y273464D01*
X671416Y275845D01*
X674784Y275845D01*
X677165Y273464D01*
X677165Y271370D01*
X677177Y271283D01*
X677180Y271196D01*
X677197Y271143D01*
X677205Y271088D01*
X677240Y271008D01*
X677267Y270925D01*
X677295Y270886D01*
X677321Y270829D01*
X677417Y270716D01*
X677462Y270652D01*
X681737Y266377D01*
X681737Y233752D01*
X681749Y233666D01*
X681752Y233578D01*
X681769Y233526D01*
X681777Y233471D01*
X681812Y233391D01*
X681839Y233308D01*
X681867Y233268D01*
X681893Y233211D01*
X681989Y233098D01*
X682034Y233034D01*
X683515Y231554D01*
X683515Y228186D01*
X681134Y225805D01*
X677766Y225805D01*
G37*
%LPD*%
%LPC*%
G36*
X104996Y656335D02*
X104996Y656335D01*
X103516Y657816D01*
X103446Y657868D01*
X103382Y657928D01*
X103333Y657954D01*
X103288Y657987D01*
X103207Y658018D01*
X103129Y658058D01*
X103081Y658066D01*
X103023Y658088D01*
X102875Y658100D01*
X102798Y658113D01*
X87699Y658113D01*
X82154Y663658D01*
X82084Y663710D01*
X82020Y663770D01*
X81971Y663796D01*
X81927Y663829D01*
X81845Y663860D01*
X81767Y663900D01*
X81720Y663908D01*
X81661Y663930D01*
X81514Y663942D01*
X81436Y663955D01*
X79342Y663955D01*
X76961Y666336D01*
X76961Y669704D01*
X79342Y672085D01*
X82710Y672085D01*
X85091Y669704D01*
X85091Y667610D01*
X85103Y667523D01*
X85106Y667436D01*
X85123Y667383D01*
X85131Y667328D01*
X85166Y667248D01*
X85193Y667165D01*
X85221Y667126D01*
X85247Y667069D01*
X85343Y666956D01*
X85388Y666892D01*
X89296Y662984D01*
X89366Y662932D01*
X89430Y662872D01*
X89479Y662846D01*
X89523Y662813D01*
X89605Y662782D01*
X89683Y662742D01*
X89730Y662734D01*
X89789Y662712D01*
X89936Y662700D01*
X90014Y662687D01*
X102798Y662687D01*
X102884Y662699D01*
X102972Y662702D01*
X103024Y662719D01*
X103079Y662727D01*
X103159Y662762D01*
X103242Y662789D01*
X103282Y662817D01*
X103339Y662843D01*
X103452Y662939D01*
X103516Y662984D01*
X104996Y664465D01*
X108364Y664465D01*
X110745Y662084D01*
X110745Y658716D01*
X108364Y656335D01*
X104996Y656335D01*
G37*
%LPD*%
%LPC*%
G36*
X521556Y524255D02*
X521556Y524255D01*
X519175Y526636D01*
X519175Y530004D01*
X521556Y532385D01*
X523650Y532385D01*
X523737Y532397D01*
X523824Y532400D01*
X523877Y532417D01*
X523932Y532425D01*
X524012Y532460D01*
X524095Y532487D01*
X524134Y532515D01*
X524191Y532541D01*
X524304Y532637D01*
X524368Y532682D01*
X530816Y539130D01*
X530868Y539200D01*
X530928Y539264D01*
X530954Y539313D01*
X530987Y539357D01*
X531011Y539419D01*
X531014Y539424D01*
X531019Y539440D01*
X531058Y539517D01*
X531066Y539564D01*
X531088Y539623D01*
X531092Y539672D01*
X531099Y539695D01*
X531101Y539777D01*
X531113Y539848D01*
X531113Y542218D01*
X531101Y542304D01*
X531098Y542392D01*
X531081Y542444D01*
X531073Y542499D01*
X531038Y542579D01*
X531011Y542662D01*
X530983Y542702D01*
X530957Y542759D01*
X530861Y542872D01*
X530816Y542936D01*
X529335Y544416D01*
X529335Y547784D01*
X531716Y550165D01*
X535084Y550165D01*
X537465Y547784D01*
X537465Y544416D01*
X535984Y542936D01*
X535932Y542866D01*
X535872Y542802D01*
X535846Y542753D01*
X535813Y542708D01*
X535782Y542627D01*
X535742Y542549D01*
X535734Y542501D01*
X535712Y542443D01*
X535700Y542295D01*
X535687Y542218D01*
X535687Y537533D01*
X527602Y529448D01*
X527550Y529378D01*
X527490Y529314D01*
X527464Y529265D01*
X527431Y529221D01*
X527400Y529139D01*
X527360Y529061D01*
X527352Y529014D01*
X527330Y528955D01*
X527324Y528878D01*
X527319Y528863D01*
X527317Y528805D01*
X527305Y528730D01*
X527305Y526636D01*
X524924Y524255D01*
X521556Y524255D01*
G37*
%LPD*%
%LPC*%
G36*
X275053Y570229D02*
X275053Y570229D01*
X272672Y572610D01*
X272672Y575978D01*
X275053Y578359D01*
X277147Y578359D01*
X277234Y578371D01*
X277321Y578374D01*
X277374Y578391D01*
X277429Y578399D01*
X277509Y578434D01*
X277592Y578461D01*
X277631Y578489D01*
X277688Y578515D01*
X277802Y578611D01*
X277865Y578656D01*
X283575Y584365D01*
X288218Y584365D01*
X288304Y584378D01*
X288392Y584381D01*
X288444Y584398D01*
X288499Y584405D01*
X288579Y584441D01*
X288662Y584468D01*
X288702Y584496D01*
X288759Y584522D01*
X288872Y584617D01*
X288936Y584663D01*
X290416Y586143D01*
X293784Y586143D01*
X296165Y583762D01*
X296165Y580395D01*
X293784Y578014D01*
X290416Y578014D01*
X288936Y579495D01*
X288866Y579547D01*
X288802Y579607D01*
X288753Y579632D01*
X288708Y579666D01*
X288627Y579697D01*
X288549Y579737D01*
X288501Y579744D01*
X288443Y579767D01*
X288295Y579779D01*
X288218Y579792D01*
X285890Y579792D01*
X285803Y579780D01*
X285716Y579777D01*
X285663Y579760D01*
X285608Y579752D01*
X285528Y579716D01*
X285445Y579690D01*
X285406Y579662D01*
X285349Y579636D01*
X285235Y579540D01*
X285172Y579495D01*
X281099Y575422D01*
X281047Y575352D01*
X280987Y575288D01*
X280962Y575239D01*
X280928Y575195D01*
X280897Y575113D01*
X280857Y575035D01*
X280849Y574988D01*
X280827Y574929D01*
X280815Y574782D01*
X280802Y574704D01*
X280802Y572610D01*
X278421Y570229D01*
X275053Y570229D01*
G37*
%LPD*%
%LPC*%
G36*
X358151Y134111D02*
X358151Y134111D01*
X358151Y147185D01*
X359100Y147060D01*
X361029Y146543D01*
X362875Y145778D01*
X364606Y144779D01*
X366191Y143563D01*
X367603Y142151D01*
X368819Y140566D01*
X369818Y138835D01*
X370583Y136989D01*
X371100Y135060D01*
X371225Y134111D01*
X358151Y134111D01*
G37*
%LPD*%
%LPC*%
G36*
X358151Y27431D02*
X358151Y27431D01*
X358151Y40505D01*
X359100Y40380D01*
X361029Y39863D01*
X362875Y39098D01*
X364606Y38099D01*
X366191Y36883D01*
X367603Y35471D01*
X368819Y33886D01*
X369818Y32155D01*
X370583Y30309D01*
X371100Y28380D01*
X371225Y27431D01*
X358151Y27431D01*
G37*
%LPD*%
%LPC*%
G36*
X454151Y48271D02*
X454151Y48271D01*
X454151Y61345D01*
X455100Y61220D01*
X457029Y60703D01*
X458875Y59938D01*
X460606Y58939D01*
X462191Y57723D01*
X463603Y56311D01*
X464819Y54726D01*
X465818Y52995D01*
X466583Y51149D01*
X467100Y49220D01*
X467225Y48271D01*
X454151Y48271D01*
G37*
%LPD*%
%LPC*%
G36*
X647711Y80771D02*
X647711Y80771D01*
X647711Y93845D01*
X648660Y93720D01*
X650589Y93203D01*
X652435Y92438D01*
X654166Y91439D01*
X655751Y90223D01*
X657163Y88811D01*
X658379Y87226D01*
X659378Y85495D01*
X660143Y83649D01*
X660660Y81720D01*
X660785Y80771D01*
X647711Y80771D01*
G37*
%LPD*%
%LPC*%
G36*
X358151Y80771D02*
X358151Y80771D01*
X358151Y93845D01*
X359100Y93720D01*
X361029Y93203D01*
X362875Y92438D01*
X364606Y91439D01*
X366191Y90223D01*
X367603Y88811D01*
X368819Y87226D01*
X369818Y85495D01*
X370583Y83649D01*
X371100Y81720D01*
X371225Y80771D01*
X358151Y80771D01*
G37*
%LPD*%
%LPC*%
G36*
X125971Y80771D02*
X125971Y80771D01*
X125971Y93845D01*
X126920Y93720D01*
X128849Y93203D01*
X130695Y92438D01*
X132426Y91439D01*
X134011Y90223D01*
X135423Y88811D01*
X136639Y87226D01*
X137638Y85495D01*
X138403Y83649D01*
X138920Y81720D01*
X139045Y80771D01*
X125971Y80771D01*
G37*
%LPD*%
%LPC*%
G36*
X327151Y113271D02*
X327151Y113271D01*
X327151Y126345D01*
X328100Y126220D01*
X330029Y125703D01*
X331875Y124938D01*
X333606Y123939D01*
X335191Y122723D01*
X336603Y121311D01*
X337819Y119726D01*
X338818Y117995D01*
X339583Y116149D01*
X340100Y114220D01*
X340225Y113271D01*
X327151Y113271D01*
G37*
%LPD*%
%LPC*%
G36*
X310015Y113271D02*
X310015Y113271D01*
X310140Y114220D01*
X310657Y116149D01*
X311422Y117995D01*
X312421Y119726D01*
X313637Y121311D01*
X315049Y122723D01*
X316634Y123939D01*
X318365Y124938D01*
X320211Y125703D01*
X322140Y126220D01*
X323089Y126345D01*
X323089Y113271D01*
X310015Y113271D01*
G37*
%LPD*%
%LPC*%
G36*
X327151Y109209D02*
X327151Y109209D01*
X340225Y109209D01*
X340100Y108260D01*
X339583Y106331D01*
X338818Y104485D01*
X337819Y102754D01*
X336603Y101169D01*
X335191Y99757D01*
X333606Y98541D01*
X331875Y97542D01*
X330029Y96777D01*
X328100Y96260D01*
X327151Y96135D01*
X327151Y109209D01*
G37*
%LPD*%
%LPC*%
G36*
X358151Y23369D02*
X358151Y23369D01*
X371225Y23369D01*
X371100Y22420D01*
X370583Y20491D01*
X369818Y18645D01*
X368819Y16914D01*
X367603Y15329D01*
X366191Y13917D01*
X364606Y12701D01*
X362875Y11702D01*
X361029Y10937D01*
X359100Y10420D01*
X358151Y10295D01*
X358151Y23369D01*
G37*
%LPD*%
%LPC*%
G36*
X630575Y80771D02*
X630575Y80771D01*
X630700Y81720D01*
X631217Y83649D01*
X631982Y85495D01*
X632981Y87226D01*
X634197Y88811D01*
X635609Y90223D01*
X637194Y91439D01*
X638925Y92438D01*
X640771Y93203D01*
X642700Y93720D01*
X643649Y93845D01*
X643649Y80771D01*
X630575Y80771D01*
G37*
%LPD*%
%LPC*%
G36*
X108835Y80771D02*
X108835Y80771D01*
X108960Y81720D01*
X109477Y83649D01*
X110242Y85495D01*
X111241Y87226D01*
X112457Y88811D01*
X113869Y90223D01*
X115454Y91439D01*
X117185Y92438D01*
X119031Y93203D01*
X120960Y93720D01*
X121909Y93845D01*
X121909Y80771D01*
X108835Y80771D01*
G37*
%LPD*%
%LPC*%
G36*
X341015Y27431D02*
X341015Y27431D01*
X341140Y28380D01*
X341657Y30309D01*
X342422Y32155D01*
X343421Y33886D01*
X344637Y35471D01*
X346049Y36883D01*
X347634Y38099D01*
X349365Y39098D01*
X351211Y39863D01*
X353140Y40380D01*
X354089Y40505D01*
X354089Y27431D01*
X341015Y27431D01*
G37*
%LPD*%
%LPC*%
G36*
X454151Y44209D02*
X454151Y44209D01*
X467225Y44209D01*
X467100Y43260D01*
X466583Y41331D01*
X465818Y39485D01*
X464819Y37754D01*
X463603Y36169D01*
X462191Y34757D01*
X460606Y33541D01*
X458875Y32542D01*
X457029Y31777D01*
X455100Y31260D01*
X454151Y31135D01*
X454151Y44209D01*
G37*
%LPD*%
%LPC*%
G36*
X358151Y130049D02*
X358151Y130049D01*
X371225Y130049D01*
X371100Y129100D01*
X370583Y127171D01*
X369818Y125325D01*
X368819Y123594D01*
X367603Y122009D01*
X366191Y120597D01*
X364606Y119381D01*
X362875Y118382D01*
X361029Y117617D01*
X359100Y117100D01*
X358151Y116975D01*
X358151Y130049D01*
G37*
%LPD*%
%LPC*%
G36*
X341015Y80771D02*
X341015Y80771D01*
X341140Y81720D01*
X341657Y83649D01*
X342422Y85495D01*
X343421Y87226D01*
X344637Y88811D01*
X346049Y90223D01*
X347634Y91439D01*
X349365Y92438D01*
X351211Y93203D01*
X353140Y93720D01*
X354089Y93845D01*
X354089Y80771D01*
X341015Y80771D01*
G37*
%LPD*%
%LPC*%
G36*
X437015Y48271D02*
X437015Y48271D01*
X437140Y49220D01*
X437657Y51149D01*
X438422Y52995D01*
X439421Y54726D01*
X440637Y56311D01*
X442049Y57723D01*
X443634Y58939D01*
X445365Y59938D01*
X447211Y60703D01*
X449140Y61220D01*
X450089Y61345D01*
X450089Y48271D01*
X437015Y48271D01*
G37*
%LPD*%
%LPC*%
G36*
X341015Y134111D02*
X341015Y134111D01*
X341140Y135060D01*
X341657Y136989D01*
X342422Y138835D01*
X343421Y140566D01*
X344637Y142151D01*
X346049Y143563D01*
X347634Y144779D01*
X349365Y145778D01*
X351211Y146543D01*
X353140Y147060D01*
X354089Y147185D01*
X354089Y134111D01*
X341015Y134111D01*
G37*
%LPD*%
%LPC*%
G36*
X358151Y76709D02*
X358151Y76709D01*
X371225Y76709D01*
X371100Y75760D01*
X370583Y73831D01*
X369818Y71985D01*
X368819Y70254D01*
X367603Y68669D01*
X366191Y67257D01*
X364606Y66041D01*
X362875Y65042D01*
X361029Y64277D01*
X359100Y63760D01*
X358151Y63635D01*
X358151Y76709D01*
G37*
%LPD*%
%LPC*%
G36*
X125971Y76709D02*
X125971Y76709D01*
X139045Y76709D01*
X138920Y75760D01*
X138403Y73831D01*
X137638Y71985D01*
X136639Y70254D01*
X135423Y68669D01*
X134011Y67257D01*
X132426Y66041D01*
X130695Y65042D01*
X128849Y64277D01*
X126920Y63760D01*
X125971Y63635D01*
X125971Y76709D01*
G37*
%LPD*%
%LPC*%
G36*
X647711Y76709D02*
X647711Y76709D01*
X660785Y76709D01*
X660660Y75760D01*
X660143Y73831D01*
X659378Y71985D01*
X658379Y70254D01*
X657163Y68669D01*
X655751Y67257D01*
X654166Y66041D01*
X652435Y65042D01*
X650589Y64277D01*
X648660Y63760D01*
X647711Y63635D01*
X647711Y76709D01*
G37*
%LPD*%
%LPC*%
G36*
X353140Y10420D02*
X353140Y10420D01*
X351211Y10937D01*
X349365Y11702D01*
X347634Y12701D01*
X346049Y13917D01*
X344637Y15329D01*
X343421Y16914D01*
X342422Y18645D01*
X341657Y20491D01*
X341140Y22420D01*
X341015Y23369D01*
X354089Y23369D01*
X354089Y10295D01*
X353140Y10420D01*
G37*
%LPD*%
%LPC*%
G36*
X120960Y63760D02*
X120960Y63760D01*
X119031Y64277D01*
X117185Y65042D01*
X115454Y66041D01*
X113869Y67257D01*
X112457Y68669D01*
X111241Y70254D01*
X110242Y71985D01*
X109477Y73831D01*
X108960Y75760D01*
X108835Y76709D01*
X121909Y76709D01*
X121909Y63635D01*
X120960Y63760D01*
G37*
%LPD*%
%LPC*%
G36*
X322140Y96260D02*
X322140Y96260D01*
X320211Y96777D01*
X318365Y97542D01*
X316634Y98541D01*
X315049Y99757D01*
X313637Y101169D01*
X312421Y102754D01*
X311422Y104485D01*
X310657Y106331D01*
X310140Y108260D01*
X310015Y109209D01*
X323089Y109209D01*
X323089Y96135D01*
X322140Y96260D01*
G37*
%LPD*%
%LPC*%
G36*
X642700Y63760D02*
X642700Y63760D01*
X640771Y64277D01*
X638925Y65042D01*
X637194Y66041D01*
X635609Y67257D01*
X634197Y68669D01*
X632981Y70254D01*
X631982Y71985D01*
X631217Y73831D01*
X630700Y75760D01*
X630575Y76709D01*
X643649Y76709D01*
X643649Y63635D01*
X642700Y63760D01*
G37*
%LPD*%
%LPC*%
G36*
X449140Y31260D02*
X449140Y31260D01*
X447211Y31777D01*
X445365Y32542D01*
X443634Y33541D01*
X442049Y34757D01*
X440637Y36169D01*
X439421Y37754D01*
X438422Y39485D01*
X437657Y41331D01*
X437140Y43260D01*
X437015Y44209D01*
X450089Y44209D01*
X450089Y31135D01*
X449140Y31260D01*
G37*
%LPD*%
%LPC*%
G36*
X353140Y63760D02*
X353140Y63760D01*
X351211Y64277D01*
X349365Y65042D01*
X347634Y66041D01*
X346049Y67257D01*
X344637Y68669D01*
X343421Y70254D01*
X342422Y71985D01*
X341657Y73831D01*
X341140Y75760D01*
X341015Y76709D01*
X354089Y76709D01*
X354089Y63635D01*
X353140Y63760D01*
G37*
%LPD*%
%LPC*%
G36*
X353140Y117100D02*
X353140Y117100D01*
X351211Y117617D01*
X349365Y118382D01*
X347634Y119381D01*
X346049Y120597D01*
X344637Y122009D01*
X343421Y123594D01*
X342422Y125325D01*
X341657Y127171D01*
X341140Y129100D01*
X341015Y130049D01*
X354089Y130049D01*
X354089Y116975D01*
X353140Y117100D01*
G37*
%LPD*%
%LPC*%
G36*
X88391Y1094231D02*
X88391Y1094231D01*
X88391Y1102166D01*
X88739Y1102111D01*
X90260Y1101616D01*
X91685Y1100890D01*
X92979Y1099950D01*
X94110Y1098819D01*
X95050Y1097525D01*
X95776Y1096100D01*
X96271Y1094579D01*
X96326Y1094231D01*
X88391Y1094231D01*
G37*
%LPD*%
%LPC*%
G36*
X88391Y1090169D02*
X88391Y1090169D01*
X96326Y1090169D01*
X96271Y1089821D01*
X95776Y1088300D01*
X95050Y1086875D01*
X94110Y1085581D01*
X92979Y1084450D01*
X91685Y1083510D01*
X90260Y1082784D01*
X88739Y1082289D01*
X88391Y1082234D01*
X88391Y1090169D01*
G37*
%LPD*%
%LPC*%
G36*
X76394Y1094231D02*
X76394Y1094231D01*
X76449Y1094579D01*
X76944Y1096100D01*
X77670Y1097525D01*
X78610Y1098819D01*
X79741Y1099950D01*
X81035Y1100890D01*
X82460Y1101616D01*
X83981Y1102111D01*
X84329Y1102166D01*
X84329Y1094231D01*
X76394Y1094231D01*
G37*
%LPD*%
%LPC*%
G36*
X83981Y1082289D02*
X83981Y1082289D01*
X82460Y1082784D01*
X81035Y1083510D01*
X79741Y1084450D01*
X78610Y1085581D01*
X77670Y1086875D01*
X76944Y1088300D01*
X76449Y1089821D01*
X76394Y1090169D01*
X84329Y1090169D01*
X84329Y1082234D01*
X83981Y1082289D01*
G37*
%LPD*%
%LPC*%
G36*
X568771Y50291D02*
X568771Y50291D01*
X568771Y57329D01*
X569450Y57194D01*
X571141Y56493D01*
X572663Y55477D01*
X573957Y54183D01*
X574973Y52661D01*
X575674Y50970D01*
X575809Y50291D01*
X568771Y50291D01*
G37*
%LPD*%
%LPC*%
G36*
X568771Y46229D02*
X568771Y46229D01*
X575809Y46229D01*
X575674Y45550D01*
X574973Y43859D01*
X573957Y42337D01*
X572663Y41043D01*
X571141Y40027D01*
X569450Y39326D01*
X568771Y39191D01*
X568771Y46229D01*
G37*
%LPD*%
%LPC*%
G36*
X452119Y46239D02*
X452119Y46239D01*
X452119Y46241D01*
X452121Y46241D01*
X452121Y46239D01*
X452119Y46239D01*
G37*
%LPD*%
%LPC*%
G36*
X356119Y132079D02*
X356119Y132079D01*
X356119Y132081D01*
X356121Y132081D01*
X356121Y132079D01*
X356119Y132079D01*
G37*
%LPD*%
%LPC*%
G36*
X645679Y78739D02*
X645679Y78739D01*
X645679Y78741D01*
X645681Y78741D01*
X645681Y78739D01*
X645679Y78739D01*
G37*
%LPD*%
%LPC*%
G36*
X86359Y1092199D02*
X86359Y1092199D01*
X86359Y1092201D01*
X86361Y1092201D01*
X86361Y1092199D01*
X86359Y1092199D01*
G37*
%LPD*%
%LPC*%
G36*
X325119Y111239D02*
X325119Y111239D01*
X325119Y111241D01*
X325121Y111241D01*
X325121Y111239D01*
X325119Y111239D01*
G37*
%LPD*%
%LPC*%
G36*
X356119Y25399D02*
X356119Y25399D01*
X356119Y25401D01*
X356121Y25401D01*
X356121Y25399D01*
X356119Y25399D01*
G37*
%LPD*%
%LPC*%
G36*
X356119Y78739D02*
X356119Y78739D01*
X356119Y78741D01*
X356121Y78741D01*
X356121Y78739D01*
X356119Y78739D01*
G37*
%LPD*%
%LPC*%
G36*
X123939Y78739D02*
X123939Y78739D01*
X123939Y78741D01*
X123941Y78741D01*
X123941Y78739D01*
X123939Y78739D01*
G37*
%LPD*%
D10*
X111760Y1092200D03*
X86360Y1092200D03*
X60960Y1092200D03*
D11*
X20320Y22860D03*
X749300Y22860D03*
D12*
X754380Y182880D03*
X15240Y1051560D03*
D11*
X20320Y1099820D03*
X749300Y1099820D03*
D13*
X162560Y1092200D03*
D12*
X30480Y182880D03*
D14*
X626740Y48260D03*
X546740Y48260D03*
D15*
X606740Y48260D03*
X586740Y48260D03*
X566740Y48260D03*
D16*
X325120Y46240D03*
X325120Y111240D03*
X421120Y25400D03*
X356120Y25400D03*
X421120Y132080D03*
X356120Y132080D03*
X452120Y111240D03*
X452120Y46240D03*
X421120Y78740D03*
X356120Y78740D03*
X58940Y78740D03*
X123940Y78740D03*
X710680Y78740D03*
X645680Y78740D03*
D17*
X134620Y736600D03*
X643890Y784860D03*
X165100Y815340D03*
X670560Y48260D03*
X457200Y431800D03*
X45720Y182372D03*
X185420Y114300D03*
X617220Y1066800D03*
X287020Y492760D03*
X508000Y629920D03*
X111760Y35560D03*
X645160Y744220D03*
D18*
X627380Y762000D01*
X627380Y824230D01*
D17*
X627380Y824230D03*
X303530Y560070D03*
D18*
X330200Y586740D01*
D17*
X330200Y586740D03*
X411480Y355600D03*
D18*
X411480Y563880D01*
X385064Y590296D02*
X351536Y590296D01*
X350520Y589280D01*
D17*
X350520Y589280D03*
D18*
X385064Y590296D02*
X411480Y563880D01*
D17*
X201060Y838882D03*
D18*
X201060Y833040D01*
X388620Y645480D01*
X388620Y632460D01*
D17*
X388620Y632460D03*
X381762Y585381D03*
D18*
X381762Y583438D01*
X401320Y563880D01*
X401320Y320421D01*
D17*
X401320Y320421D03*
X207772Y848360D03*
D18*
X210820Y848360D01*
X375920Y683260D01*
D17*
X375920Y683260D03*
X375158Y585381D03*
D18*
X375158Y579882D01*
X391160Y563880D01*
X391160Y266700D01*
X365760Y241300D01*
D17*
X365760Y241300D03*
X271780Y165100D03*
D19*
X101600Y175260D03*
D20*
X261620Y175260D01*
X271780Y165100D01*
D17*
X152400Y805180D03*
D18*
X224790Y732790D01*
X224790Y615950D01*
D17*
X224790Y615950D03*
X157480Y810260D03*
D18*
X160020Y810260D02*
X237093Y733188D01*
X160020Y810260D02*
X157480Y810260D01*
X237093Y733188D02*
X237093Y621428D01*
D17*
X237093Y621428D03*
D18*
X480458Y621428D01*
X488950Y629920D01*
D17*
X488950Y629920D03*
X292100Y582079D03*
D18*
X284522Y582079D01*
X276737Y574294D01*
D17*
X276737Y574294D03*
X271780Y393700D03*
D18*
X60960Y973204D02*
X60960Y1092200D01*
X60960Y973204D02*
X115207Y918957D01*
D17*
X185674Y573532D03*
D18*
X115207Y684893D02*
X115207Y918957D01*
X115207Y684893D02*
X185674Y614426D01*
X266446Y393700D02*
X271780Y393700D01*
X266446Y393700D02*
X196981Y463165D01*
D17*
X196981Y463165D03*
D18*
X185674Y573532D02*
X185674Y614426D01*
D17*
X271780Y416450D03*
X190500Y584200D03*
X203200Y495300D03*
D18*
X203200Y480060D02*
X266810Y416450D01*
X203200Y480060D02*
X203200Y495300D01*
X118255Y1085705D02*
X111760Y1092200D01*
X118255Y1085705D02*
X118255Y686925D01*
X189027Y616153D01*
X266810Y416450D02*
X271780Y416450D01*
X190500Y584200D02*
X189027Y585673D01*
X189027Y616153D01*
X198784Y541430D02*
X321115Y419100D01*
X355600Y419100D01*
D17*
X355600Y419100D03*
X568960Y281940D03*
D18*
X562610Y288290D02*
X562610Y420370D01*
X562610Y288290D02*
X568960Y281940D01*
D17*
X562610Y420370D03*
X190500Y541500D03*
D18*
X190570Y541430D01*
X198784Y541430D01*
D17*
X355600Y444500D03*
D18*
X307340Y444500D02*
X200423Y551418D01*
X307340Y444500D02*
X355600Y444500D01*
D17*
X553720Y309880D03*
D18*
X553720Y444500D02*
X554990Y445770D01*
X553720Y444500D02*
X553720Y309880D01*
D17*
X554990Y445770D03*
X189677Y551340D03*
D18*
X189755Y551418D01*
X200423Y551418D01*
D17*
X571500Y165862D03*
D18*
X586740Y150622D01*
X586740Y48260D01*
D21*
X180147Y556067D02*
X220980Y596900D01*
X284480Y596900D01*
D17*
X284480Y596900D03*
X520700Y596900D03*
D21*
X351790Y596900D01*
X284480Y596900D01*
D17*
X701802Y763420D03*
D20*
X220980Y596900D02*
X144780Y673100D01*
X144780Y807212D02*
X164592Y827024D01*
D17*
X164592Y827024D03*
D20*
X144780Y807212D02*
X144780Y673100D01*
D21*
X180147Y556067D02*
X180340Y532130D01*
X180326Y518160D01*
X180237Y221083D01*
D17*
X679450Y229870D03*
D18*
X679450Y265430D01*
X673100Y271780D01*
D17*
X673100Y271780D03*
X198120Y203200D03*
X119380Y581660D03*
D21*
X119380Y518160D01*
X119380Y457200D01*
X104140Y441960D01*
D17*
X104140Y441960D03*
X119380Y518160D03*
X180326Y518160D03*
D21*
X180237Y221083D02*
X198120Y203200D01*
D20*
X164592Y827024D02*
X162052Y829564D01*
X162052Y1090168D01*
X162560Y1090676D01*
X162560Y1092200D01*
D21*
X687220Y763420D02*
X701802Y763420D01*
X687220Y763420D02*
X520700Y596900D01*
D17*
X351790Y612140D03*
D18*
X351790Y596900D01*
D17*
X327660Y782320D03*
X190500Y900302D03*
D22*
X190739Y900541D02*
X209440Y900541D01*
X190739Y900541D02*
X190500Y900302D01*
X209440Y900541D02*
X327660Y782320D01*
D17*
X195724Y892413D03*
X327660Y762000D03*
D22*
X326136Y762000D01*
X195724Y892413D01*
D17*
X337820Y751840D03*
X416200Y830220D03*
D22*
X337820Y751840D01*
D17*
X317500Y805434D03*
D20*
X375666Y805434D02*
X375920Y805180D01*
D22*
X375666Y805434D02*
X317500Y805434D01*
D17*
X375920Y805180D03*
X200804Y845964D03*
D18*
X363220Y683260D02*
X363364Y683404D01*
X200804Y845964D01*
D17*
X363220Y683260D03*
X368554Y585127D03*
X365760Y266700D03*
D18*
X368554Y269494D02*
X368554Y585127D01*
X368554Y269494D02*
X365760Y266700D01*
D17*
X106680Y660400D03*
D18*
X88646Y660400D01*
X81026Y668020D01*
D17*
X81026Y668020D03*
X336948Y458868D03*
D18*
X336948Y499508D01*
X358140Y520700D01*
D17*
X358140Y520700D03*
X523240Y528320D03*
D18*
X533400Y538480D01*
X533400Y546100D01*
D17*
X533400Y546100D03*
X3810Y894080D03*
D18*
X3810Y110490D01*
X35560Y78740D01*
X58940Y78740D01*
X515620Y78740D02*
X541020Y104140D01*
D17*
X541020Y104140D03*
D18*
X515620Y78740D02*
X421120Y78740D01*
D17*
X698500Y309880D03*
D18*
X421120Y25400D02*
X406134Y40386D01*
X406134Y84947D02*
X414913Y93726D01*
X482346Y93726D01*
X406134Y84947D02*
X406134Y40386D01*
X482346Y93726D02*
X698500Y309880D01*
D17*
X501650Y132200D03*
D18*
X444620Y132200D01*
X358660Y46240D01*
X325120Y46240D01*
D17*
X681990Y1055370D03*
D18*
X734060Y1003300D01*
X734060Y264160D02*
X708660Y238760D01*
D17*
X708660Y238760D03*
D18*
X734060Y264160D02*
X734060Y1003300D01*
M02*
