G04 EAGLE Gerber RS-274X export*
G75*
%MOMM*%
%FSLAX34Y34*%
%LPD*%
%INSoldermask Top*%
%IPPOS*%
%AMOC8*
5,1,8,0,0,1.08239X$1,22.5*%
G01*
%ADD10C,1.927000*%
%ADD11C,1.651000*%
%ADD12C,3.643000*%
%ADD13C,1.127000*%
%ADD14C,0.500000*%
%ADD15P,2.226909X8X202.500000*%
%ADD16C,1.777000*%
%ADD17C,1.477000*%
%ADD18R,0.381000X0.076200*%
%ADD19R,0.457200X0.076200*%
%ADD20R,0.914400X0.076200*%
%ADD21R,1.219200X0.076200*%
%ADD22R,1.447800X0.076200*%
%ADD23R,1.524000X0.076200*%
%ADD24R,1.676400X0.076200*%
%ADD25R,1.828800X0.076200*%
%ADD26R,1.981200X0.076200*%
%ADD27R,2.133600X0.076200*%
%ADD28R,2.209800X0.076200*%
%ADD29R,2.286000X0.076200*%
%ADD30R,2.362200X0.076200*%
%ADD31R,2.438400X0.076200*%
%ADD32R,1.066800X0.076200*%
%ADD33R,0.990600X0.076200*%
%ADD34R,2.590800X0.076200*%
%ADD35R,0.838200X0.076200*%
%ADD36R,0.228600X0.076200*%
%ADD37R,0.304800X0.076200*%
%ADD38R,0.152400X0.076200*%
%ADD39R,2.057400X0.076200*%
%ADD40R,1.143000X0.076200*%
%ADD41R,1.752600X0.076200*%
%ADD42R,1.371600X0.076200*%
%ADD43R,0.762000X0.076200*%
%ADD44R,0.533400X0.076200*%
%ADD45C,1.827000*%
%ADD46C,2.667000*%
%ADD47C,0.731000*%


D10*
X500380Y177800D03*
X500380Y431800D03*
X271780Y76200D03*
X271780Y431800D03*
D11*
X111760Y1092200D03*
X86360Y1092200D03*
X60960Y1092200D03*
D12*
X20320Y22860D03*
X749300Y22860D03*
D13*
X754380Y182880D03*
D14*
X754380Y190380D02*
X754199Y190378D01*
X754018Y190371D01*
X753837Y190360D01*
X753656Y190345D01*
X753476Y190325D01*
X753296Y190301D01*
X753117Y190273D01*
X752939Y190240D01*
X752762Y190203D01*
X752585Y190162D01*
X752410Y190117D01*
X752235Y190067D01*
X752062Y190013D01*
X751891Y189955D01*
X751720Y189893D01*
X751552Y189826D01*
X751385Y189756D01*
X751219Y189682D01*
X751056Y189603D01*
X750895Y189521D01*
X750735Y189435D01*
X750578Y189345D01*
X750423Y189251D01*
X750270Y189154D01*
X750120Y189052D01*
X749972Y188948D01*
X749826Y188839D01*
X749684Y188728D01*
X749544Y188612D01*
X749407Y188494D01*
X749272Y188372D01*
X749141Y188247D01*
X749013Y188119D01*
X748888Y187988D01*
X748766Y187853D01*
X748648Y187716D01*
X748532Y187576D01*
X748421Y187434D01*
X748312Y187288D01*
X748208Y187140D01*
X748106Y186990D01*
X748009Y186837D01*
X747915Y186682D01*
X747825Y186525D01*
X747739Y186365D01*
X747657Y186204D01*
X747578Y186041D01*
X747504Y185875D01*
X747434Y185708D01*
X747367Y185540D01*
X747305Y185369D01*
X747247Y185198D01*
X747193Y185025D01*
X747143Y184850D01*
X747098Y184675D01*
X747057Y184498D01*
X747020Y184321D01*
X746987Y184143D01*
X746959Y183964D01*
X746935Y183784D01*
X746915Y183604D01*
X746900Y183423D01*
X746889Y183242D01*
X746882Y183061D01*
X746880Y182880D01*
X754380Y190380D02*
X754561Y190378D01*
X754742Y190371D01*
X754923Y190360D01*
X755104Y190345D01*
X755284Y190325D01*
X755464Y190301D01*
X755643Y190273D01*
X755821Y190240D01*
X755998Y190203D01*
X756175Y190162D01*
X756350Y190117D01*
X756525Y190067D01*
X756698Y190013D01*
X756869Y189955D01*
X757040Y189893D01*
X757208Y189826D01*
X757375Y189756D01*
X757541Y189682D01*
X757704Y189603D01*
X757865Y189521D01*
X758025Y189435D01*
X758182Y189345D01*
X758337Y189251D01*
X758490Y189154D01*
X758640Y189052D01*
X758788Y188948D01*
X758934Y188839D01*
X759076Y188728D01*
X759216Y188612D01*
X759353Y188494D01*
X759488Y188372D01*
X759619Y188247D01*
X759747Y188119D01*
X759872Y187988D01*
X759994Y187853D01*
X760112Y187716D01*
X760228Y187576D01*
X760339Y187434D01*
X760448Y187288D01*
X760552Y187140D01*
X760654Y186990D01*
X760751Y186837D01*
X760845Y186682D01*
X760935Y186525D01*
X761021Y186365D01*
X761103Y186204D01*
X761182Y186041D01*
X761256Y185875D01*
X761326Y185708D01*
X761393Y185540D01*
X761455Y185369D01*
X761513Y185198D01*
X761567Y185025D01*
X761617Y184850D01*
X761662Y184675D01*
X761703Y184498D01*
X761740Y184321D01*
X761773Y184143D01*
X761801Y183964D01*
X761825Y183784D01*
X761845Y183604D01*
X761860Y183423D01*
X761871Y183242D01*
X761878Y183061D01*
X761880Y182880D01*
X761878Y182699D01*
X761871Y182518D01*
X761860Y182337D01*
X761845Y182156D01*
X761825Y181976D01*
X761801Y181796D01*
X761773Y181617D01*
X761740Y181439D01*
X761703Y181262D01*
X761662Y181085D01*
X761617Y180910D01*
X761567Y180735D01*
X761513Y180562D01*
X761455Y180391D01*
X761393Y180220D01*
X761326Y180052D01*
X761256Y179885D01*
X761182Y179719D01*
X761103Y179556D01*
X761021Y179395D01*
X760935Y179235D01*
X760845Y179078D01*
X760751Y178923D01*
X760654Y178770D01*
X760552Y178620D01*
X760448Y178472D01*
X760339Y178326D01*
X760228Y178184D01*
X760112Y178044D01*
X759994Y177907D01*
X759872Y177772D01*
X759747Y177641D01*
X759619Y177513D01*
X759488Y177388D01*
X759353Y177266D01*
X759216Y177148D01*
X759076Y177032D01*
X758934Y176921D01*
X758788Y176812D01*
X758640Y176708D01*
X758490Y176606D01*
X758337Y176509D01*
X758182Y176415D01*
X758025Y176325D01*
X757865Y176239D01*
X757704Y176157D01*
X757541Y176078D01*
X757375Y176004D01*
X757208Y175934D01*
X757040Y175867D01*
X756869Y175805D01*
X756698Y175747D01*
X756525Y175693D01*
X756350Y175643D01*
X756175Y175598D01*
X755998Y175557D01*
X755821Y175520D01*
X755643Y175487D01*
X755464Y175459D01*
X755284Y175435D01*
X755104Y175415D01*
X754923Y175400D01*
X754742Y175389D01*
X754561Y175382D01*
X754380Y175380D01*
X754199Y175382D01*
X754018Y175389D01*
X753837Y175400D01*
X753656Y175415D01*
X753476Y175435D01*
X753296Y175459D01*
X753117Y175487D01*
X752939Y175520D01*
X752762Y175557D01*
X752585Y175598D01*
X752410Y175643D01*
X752235Y175693D01*
X752062Y175747D01*
X751891Y175805D01*
X751720Y175867D01*
X751552Y175934D01*
X751385Y176004D01*
X751219Y176078D01*
X751056Y176157D01*
X750895Y176239D01*
X750735Y176325D01*
X750578Y176415D01*
X750423Y176509D01*
X750270Y176606D01*
X750120Y176708D01*
X749972Y176812D01*
X749826Y176921D01*
X749684Y177032D01*
X749544Y177148D01*
X749407Y177266D01*
X749272Y177388D01*
X749141Y177513D01*
X749013Y177641D01*
X748888Y177772D01*
X748766Y177907D01*
X748648Y178044D01*
X748532Y178184D01*
X748421Y178326D01*
X748312Y178472D01*
X748208Y178620D01*
X748106Y178770D01*
X748009Y178923D01*
X747915Y179078D01*
X747825Y179235D01*
X747739Y179395D01*
X747657Y179556D01*
X747578Y179719D01*
X747504Y179885D01*
X747434Y180052D01*
X747367Y180220D01*
X747305Y180391D01*
X747247Y180562D01*
X747193Y180735D01*
X747143Y180910D01*
X747098Y181085D01*
X747057Y181262D01*
X747020Y181439D01*
X746987Y181617D01*
X746959Y181796D01*
X746935Y181976D01*
X746915Y182156D01*
X746900Y182337D01*
X746889Y182518D01*
X746882Y182699D01*
X746880Y182880D01*
D13*
X15240Y1051560D03*
D14*
X15240Y1059060D02*
X15059Y1059058D01*
X14878Y1059051D01*
X14697Y1059040D01*
X14516Y1059025D01*
X14336Y1059005D01*
X14156Y1058981D01*
X13977Y1058953D01*
X13799Y1058920D01*
X13622Y1058883D01*
X13445Y1058842D01*
X13270Y1058797D01*
X13095Y1058747D01*
X12922Y1058693D01*
X12751Y1058635D01*
X12580Y1058573D01*
X12412Y1058506D01*
X12245Y1058436D01*
X12079Y1058362D01*
X11916Y1058283D01*
X11755Y1058201D01*
X11595Y1058115D01*
X11438Y1058025D01*
X11283Y1057931D01*
X11130Y1057834D01*
X10980Y1057732D01*
X10832Y1057628D01*
X10686Y1057519D01*
X10544Y1057408D01*
X10404Y1057292D01*
X10267Y1057174D01*
X10132Y1057052D01*
X10001Y1056927D01*
X9873Y1056799D01*
X9748Y1056668D01*
X9626Y1056533D01*
X9508Y1056396D01*
X9392Y1056256D01*
X9281Y1056114D01*
X9172Y1055968D01*
X9068Y1055820D01*
X8966Y1055670D01*
X8869Y1055517D01*
X8775Y1055362D01*
X8685Y1055205D01*
X8599Y1055045D01*
X8517Y1054884D01*
X8438Y1054721D01*
X8364Y1054555D01*
X8294Y1054388D01*
X8227Y1054220D01*
X8165Y1054049D01*
X8107Y1053878D01*
X8053Y1053705D01*
X8003Y1053530D01*
X7958Y1053355D01*
X7917Y1053178D01*
X7880Y1053001D01*
X7847Y1052823D01*
X7819Y1052644D01*
X7795Y1052464D01*
X7775Y1052284D01*
X7760Y1052103D01*
X7749Y1051922D01*
X7742Y1051741D01*
X7740Y1051560D01*
X15240Y1059060D02*
X15421Y1059058D01*
X15602Y1059051D01*
X15783Y1059040D01*
X15964Y1059025D01*
X16144Y1059005D01*
X16324Y1058981D01*
X16503Y1058953D01*
X16681Y1058920D01*
X16858Y1058883D01*
X17035Y1058842D01*
X17210Y1058797D01*
X17385Y1058747D01*
X17558Y1058693D01*
X17729Y1058635D01*
X17900Y1058573D01*
X18068Y1058506D01*
X18235Y1058436D01*
X18401Y1058362D01*
X18564Y1058283D01*
X18725Y1058201D01*
X18885Y1058115D01*
X19042Y1058025D01*
X19197Y1057931D01*
X19350Y1057834D01*
X19500Y1057732D01*
X19648Y1057628D01*
X19794Y1057519D01*
X19936Y1057408D01*
X20076Y1057292D01*
X20213Y1057174D01*
X20348Y1057052D01*
X20479Y1056927D01*
X20607Y1056799D01*
X20732Y1056668D01*
X20854Y1056533D01*
X20972Y1056396D01*
X21088Y1056256D01*
X21199Y1056114D01*
X21308Y1055968D01*
X21412Y1055820D01*
X21514Y1055670D01*
X21611Y1055517D01*
X21705Y1055362D01*
X21795Y1055205D01*
X21881Y1055045D01*
X21963Y1054884D01*
X22042Y1054721D01*
X22116Y1054555D01*
X22186Y1054388D01*
X22253Y1054220D01*
X22315Y1054049D01*
X22373Y1053878D01*
X22427Y1053705D01*
X22477Y1053530D01*
X22522Y1053355D01*
X22563Y1053178D01*
X22600Y1053001D01*
X22633Y1052823D01*
X22661Y1052644D01*
X22685Y1052464D01*
X22705Y1052284D01*
X22720Y1052103D01*
X22731Y1051922D01*
X22738Y1051741D01*
X22740Y1051560D01*
X22738Y1051379D01*
X22731Y1051198D01*
X22720Y1051017D01*
X22705Y1050836D01*
X22685Y1050656D01*
X22661Y1050476D01*
X22633Y1050297D01*
X22600Y1050119D01*
X22563Y1049942D01*
X22522Y1049765D01*
X22477Y1049590D01*
X22427Y1049415D01*
X22373Y1049242D01*
X22315Y1049071D01*
X22253Y1048900D01*
X22186Y1048732D01*
X22116Y1048565D01*
X22042Y1048399D01*
X21963Y1048236D01*
X21881Y1048075D01*
X21795Y1047915D01*
X21705Y1047758D01*
X21611Y1047603D01*
X21514Y1047450D01*
X21412Y1047300D01*
X21308Y1047152D01*
X21199Y1047006D01*
X21088Y1046864D01*
X20972Y1046724D01*
X20854Y1046587D01*
X20732Y1046452D01*
X20607Y1046321D01*
X20479Y1046193D01*
X20348Y1046068D01*
X20213Y1045946D01*
X20076Y1045828D01*
X19936Y1045712D01*
X19794Y1045601D01*
X19648Y1045492D01*
X19500Y1045388D01*
X19350Y1045286D01*
X19197Y1045189D01*
X19042Y1045095D01*
X18885Y1045005D01*
X18725Y1044919D01*
X18564Y1044837D01*
X18401Y1044758D01*
X18235Y1044684D01*
X18068Y1044614D01*
X17900Y1044547D01*
X17729Y1044485D01*
X17558Y1044427D01*
X17385Y1044373D01*
X17210Y1044323D01*
X17035Y1044278D01*
X16858Y1044237D01*
X16681Y1044200D01*
X16503Y1044167D01*
X16324Y1044139D01*
X16144Y1044115D01*
X15964Y1044095D01*
X15783Y1044080D01*
X15602Y1044069D01*
X15421Y1044062D01*
X15240Y1044060D01*
X15059Y1044062D01*
X14878Y1044069D01*
X14697Y1044080D01*
X14516Y1044095D01*
X14336Y1044115D01*
X14156Y1044139D01*
X13977Y1044167D01*
X13799Y1044200D01*
X13622Y1044237D01*
X13445Y1044278D01*
X13270Y1044323D01*
X13095Y1044373D01*
X12922Y1044427D01*
X12751Y1044485D01*
X12580Y1044547D01*
X12412Y1044614D01*
X12245Y1044684D01*
X12079Y1044758D01*
X11916Y1044837D01*
X11755Y1044919D01*
X11595Y1045005D01*
X11438Y1045095D01*
X11283Y1045189D01*
X11130Y1045286D01*
X10980Y1045388D01*
X10832Y1045492D01*
X10686Y1045601D01*
X10544Y1045712D01*
X10404Y1045828D01*
X10267Y1045946D01*
X10132Y1046068D01*
X10001Y1046193D01*
X9873Y1046321D01*
X9748Y1046452D01*
X9626Y1046587D01*
X9508Y1046724D01*
X9392Y1046864D01*
X9281Y1047006D01*
X9172Y1047152D01*
X9068Y1047300D01*
X8966Y1047450D01*
X8869Y1047603D01*
X8775Y1047758D01*
X8685Y1047915D01*
X8599Y1048075D01*
X8517Y1048236D01*
X8438Y1048399D01*
X8364Y1048565D01*
X8294Y1048732D01*
X8227Y1048900D01*
X8165Y1049071D01*
X8107Y1049242D01*
X8053Y1049415D01*
X8003Y1049590D01*
X7958Y1049765D01*
X7917Y1049942D01*
X7880Y1050119D01*
X7847Y1050297D01*
X7819Y1050476D01*
X7795Y1050656D01*
X7775Y1050836D01*
X7760Y1051017D01*
X7749Y1051198D01*
X7742Y1051379D01*
X7740Y1051560D01*
D12*
X20320Y1099820D03*
X749300Y1099820D03*
D15*
X162560Y1092200D03*
D13*
X30480Y182880D03*
D14*
X30480Y190380D02*
X30299Y190378D01*
X30118Y190371D01*
X29937Y190360D01*
X29756Y190345D01*
X29576Y190325D01*
X29396Y190301D01*
X29217Y190273D01*
X29039Y190240D01*
X28862Y190203D01*
X28685Y190162D01*
X28510Y190117D01*
X28335Y190067D01*
X28162Y190013D01*
X27991Y189955D01*
X27820Y189893D01*
X27652Y189826D01*
X27485Y189756D01*
X27319Y189682D01*
X27156Y189603D01*
X26995Y189521D01*
X26835Y189435D01*
X26678Y189345D01*
X26523Y189251D01*
X26370Y189154D01*
X26220Y189052D01*
X26072Y188948D01*
X25926Y188839D01*
X25784Y188728D01*
X25644Y188612D01*
X25507Y188494D01*
X25372Y188372D01*
X25241Y188247D01*
X25113Y188119D01*
X24988Y187988D01*
X24866Y187853D01*
X24748Y187716D01*
X24632Y187576D01*
X24521Y187434D01*
X24412Y187288D01*
X24308Y187140D01*
X24206Y186990D01*
X24109Y186837D01*
X24015Y186682D01*
X23925Y186525D01*
X23839Y186365D01*
X23757Y186204D01*
X23678Y186041D01*
X23604Y185875D01*
X23534Y185708D01*
X23467Y185540D01*
X23405Y185369D01*
X23347Y185198D01*
X23293Y185025D01*
X23243Y184850D01*
X23198Y184675D01*
X23157Y184498D01*
X23120Y184321D01*
X23087Y184143D01*
X23059Y183964D01*
X23035Y183784D01*
X23015Y183604D01*
X23000Y183423D01*
X22989Y183242D01*
X22982Y183061D01*
X22980Y182880D01*
X30480Y190380D02*
X30661Y190378D01*
X30842Y190371D01*
X31023Y190360D01*
X31204Y190345D01*
X31384Y190325D01*
X31564Y190301D01*
X31743Y190273D01*
X31921Y190240D01*
X32098Y190203D01*
X32275Y190162D01*
X32450Y190117D01*
X32625Y190067D01*
X32798Y190013D01*
X32969Y189955D01*
X33140Y189893D01*
X33308Y189826D01*
X33475Y189756D01*
X33641Y189682D01*
X33804Y189603D01*
X33965Y189521D01*
X34125Y189435D01*
X34282Y189345D01*
X34437Y189251D01*
X34590Y189154D01*
X34740Y189052D01*
X34888Y188948D01*
X35034Y188839D01*
X35176Y188728D01*
X35316Y188612D01*
X35453Y188494D01*
X35588Y188372D01*
X35719Y188247D01*
X35847Y188119D01*
X35972Y187988D01*
X36094Y187853D01*
X36212Y187716D01*
X36328Y187576D01*
X36439Y187434D01*
X36548Y187288D01*
X36652Y187140D01*
X36754Y186990D01*
X36851Y186837D01*
X36945Y186682D01*
X37035Y186525D01*
X37121Y186365D01*
X37203Y186204D01*
X37282Y186041D01*
X37356Y185875D01*
X37426Y185708D01*
X37493Y185540D01*
X37555Y185369D01*
X37613Y185198D01*
X37667Y185025D01*
X37717Y184850D01*
X37762Y184675D01*
X37803Y184498D01*
X37840Y184321D01*
X37873Y184143D01*
X37901Y183964D01*
X37925Y183784D01*
X37945Y183604D01*
X37960Y183423D01*
X37971Y183242D01*
X37978Y183061D01*
X37980Y182880D01*
X37978Y182699D01*
X37971Y182518D01*
X37960Y182337D01*
X37945Y182156D01*
X37925Y181976D01*
X37901Y181796D01*
X37873Y181617D01*
X37840Y181439D01*
X37803Y181262D01*
X37762Y181085D01*
X37717Y180910D01*
X37667Y180735D01*
X37613Y180562D01*
X37555Y180391D01*
X37493Y180220D01*
X37426Y180052D01*
X37356Y179885D01*
X37282Y179719D01*
X37203Y179556D01*
X37121Y179395D01*
X37035Y179235D01*
X36945Y179078D01*
X36851Y178923D01*
X36754Y178770D01*
X36652Y178620D01*
X36548Y178472D01*
X36439Y178326D01*
X36328Y178184D01*
X36212Y178044D01*
X36094Y177907D01*
X35972Y177772D01*
X35847Y177641D01*
X35719Y177513D01*
X35588Y177388D01*
X35453Y177266D01*
X35316Y177148D01*
X35176Y177032D01*
X35034Y176921D01*
X34888Y176812D01*
X34740Y176708D01*
X34590Y176606D01*
X34437Y176509D01*
X34282Y176415D01*
X34125Y176325D01*
X33965Y176239D01*
X33804Y176157D01*
X33641Y176078D01*
X33475Y176004D01*
X33308Y175934D01*
X33140Y175867D01*
X32969Y175805D01*
X32798Y175747D01*
X32625Y175693D01*
X32450Y175643D01*
X32275Y175598D01*
X32098Y175557D01*
X31921Y175520D01*
X31743Y175487D01*
X31564Y175459D01*
X31384Y175435D01*
X31204Y175415D01*
X31023Y175400D01*
X30842Y175389D01*
X30661Y175382D01*
X30480Y175380D01*
X30299Y175382D01*
X30118Y175389D01*
X29937Y175400D01*
X29756Y175415D01*
X29576Y175435D01*
X29396Y175459D01*
X29217Y175487D01*
X29039Y175520D01*
X28862Y175557D01*
X28685Y175598D01*
X28510Y175643D01*
X28335Y175693D01*
X28162Y175747D01*
X27991Y175805D01*
X27820Y175867D01*
X27652Y175934D01*
X27485Y176004D01*
X27319Y176078D01*
X27156Y176157D01*
X26995Y176239D01*
X26835Y176325D01*
X26678Y176415D01*
X26523Y176509D01*
X26370Y176606D01*
X26220Y176708D01*
X26072Y176812D01*
X25926Y176921D01*
X25784Y177032D01*
X25644Y177148D01*
X25507Y177266D01*
X25372Y177388D01*
X25241Y177513D01*
X25113Y177641D01*
X24988Y177772D01*
X24866Y177907D01*
X24748Y178044D01*
X24632Y178184D01*
X24521Y178326D01*
X24412Y178472D01*
X24308Y178620D01*
X24206Y178770D01*
X24109Y178923D01*
X24015Y179078D01*
X23925Y179235D01*
X23839Y179395D01*
X23757Y179556D01*
X23678Y179719D01*
X23604Y179885D01*
X23534Y180052D01*
X23467Y180220D01*
X23405Y180391D01*
X23347Y180562D01*
X23293Y180735D01*
X23243Y180910D01*
X23198Y181085D01*
X23157Y181262D01*
X23120Y181439D01*
X23087Y181617D01*
X23059Y181796D01*
X23035Y181976D01*
X23015Y182156D01*
X23000Y182337D01*
X22989Y182518D01*
X22982Y182699D01*
X22980Y182880D01*
D16*
X626740Y48260D03*
X546740Y48260D03*
D17*
X606740Y48260D03*
X586740Y48260D03*
X566740Y48260D03*
D18*
X24257Y104521D03*
D19*
X52832Y104521D03*
D20*
X23876Y105283D03*
X52832Y105283D03*
D21*
X23876Y106045D03*
X52832Y106045D03*
D22*
X24257Y106807D03*
D23*
X52832Y106807D03*
D24*
X23876Y107569D03*
X52832Y107569D03*
D25*
X23876Y108331D03*
X52832Y108331D03*
D26*
X23876Y109093D03*
X52832Y109093D03*
D27*
X23876Y109855D03*
X52832Y109855D03*
D28*
X24257Y110617D03*
D27*
X52832Y110617D03*
D29*
X23876Y111379D03*
X52832Y111379D03*
D30*
X24257Y112141D03*
D29*
X52832Y112141D03*
D30*
X24257Y112903D03*
D31*
X52832Y112903D03*
D32*
X17018Y113665D03*
D33*
X31115Y113665D03*
D31*
X52832Y113665D03*
D20*
X16256Y114427D03*
D33*
X31877Y114427D03*
D31*
X52832Y114427D03*
D20*
X16256Y115189D03*
X32258Y115189D03*
D34*
X52832Y115189D03*
D35*
X15875Y115951D03*
D36*
X24257Y115951D03*
D35*
X32639Y115951D03*
D34*
X52832Y115951D03*
D35*
X15875Y116713D03*
D18*
X24257Y116713D03*
D20*
X33020Y116713D03*
D34*
X52832Y116713D03*
D35*
X15875Y117475D03*
D18*
X24257Y117475D03*
D20*
X33020Y117475D03*
D34*
X52832Y117475D03*
D35*
X15875Y118237D03*
D18*
X24257Y118237D03*
D20*
X33782Y118237D03*
D34*
X52832Y118237D03*
D35*
X15875Y118999D03*
D37*
X24638Y118999D03*
D20*
X33782Y118999D03*
D34*
X52832Y118999D03*
D20*
X16256Y119761D03*
D36*
X25781Y119761D03*
D20*
X33782Y119761D03*
D31*
X52832Y119761D03*
D20*
X16256Y120523D03*
D36*
X26543Y120523D03*
D20*
X34544Y120523D03*
D31*
X52832Y120523D03*
D32*
X17018Y121285D03*
D36*
X26543Y121285D03*
D20*
X34544Y121285D03*
D31*
X52832Y121285D03*
D21*
X18542Y122047D03*
D36*
X27305Y122047D03*
D35*
X34925Y122047D03*
D30*
X53213Y122047D03*
D21*
X18542Y122809D03*
D36*
X28067Y122809D03*
D20*
X35306Y122809D03*
D29*
X52832Y122809D03*
D21*
X19304Y123571D03*
D36*
X28067Y123571D03*
D20*
X35306Y123571D03*
D29*
X52832Y123571D03*
D21*
X19304Y124333D03*
D38*
X28448Y124333D03*
D35*
X35687Y124333D03*
D27*
X52832Y124333D03*
D21*
X20066Y125095D03*
D36*
X28829Y125095D03*
D20*
X36068Y125095D03*
D39*
X52451Y125095D03*
D40*
X20447Y125857D03*
D38*
X29210Y125857D03*
D20*
X36068Y125857D03*
D26*
X52070Y125857D03*
D32*
X20828Y126619D03*
D38*
X29210Y126619D03*
D20*
X36830Y126619D03*
D25*
X52070Y126619D03*
D32*
X21590Y127381D03*
D36*
X29591Y127381D03*
D20*
X36830Y127381D03*
D41*
X51689Y127381D03*
D20*
X22352Y128143D03*
D38*
X29972Y128143D03*
D20*
X36830Y128143D03*
D36*
X44069Y128143D03*
D42*
X52832Y128143D03*
D20*
X23114Y128905D03*
D38*
X29972Y128905D03*
D20*
X37592Y128905D03*
D38*
X44450Y128905D03*
D32*
X52832Y128905D03*
D43*
X23876Y129667D03*
D36*
X30353Y129667D03*
D20*
X37592Y129667D03*
D36*
X44831Y129667D03*
D44*
X53213Y129667D03*
D36*
X26543Y130429D03*
D38*
X30734Y130429D03*
D20*
X37592Y130429D03*
D38*
X45212Y130429D03*
X30734Y131191D03*
D20*
X38354Y131191D03*
D38*
X45212Y131191D03*
D36*
X49403Y131191D03*
D44*
X22733Y131953D03*
D36*
X31115Y131953D03*
D20*
X38354Y131953D03*
D36*
X45593Y131953D03*
D43*
X52070Y131953D03*
D32*
X23114Y132715D03*
D38*
X31496Y132715D03*
D20*
X38354Y132715D03*
D38*
X45974Y132715D03*
D20*
X52832Y132715D03*
D42*
X23114Y133477D03*
D36*
X31877Y133477D03*
D20*
X39116Y133477D03*
D38*
X45974Y133477D03*
D20*
X53594Y133477D03*
D41*
X24257Y134239D03*
D20*
X39116Y134239D03*
D36*
X46355Y134239D03*
D32*
X54356Y134239D03*
D25*
X23876Y135001D03*
D20*
X39116Y135001D03*
D38*
X46736Y135001D03*
D32*
X55118Y135001D03*
D26*
X23876Y135763D03*
D20*
X39878Y135763D03*
D38*
X46736Y135763D03*
D40*
X55499Y135763D03*
D39*
X23495Y136525D03*
D20*
X39878Y136525D03*
D36*
X47117Y136525D03*
D21*
X55880Y136525D03*
D27*
X23114Y137287D03*
D35*
X40259Y137287D03*
D38*
X47498Y137287D03*
D21*
X56642Y137287D03*
D29*
X23114Y138049D03*
D20*
X40640Y138049D03*
D36*
X47879Y138049D03*
D21*
X56642Y138049D03*
D29*
X23114Y138811D03*
D20*
X40640Y138811D03*
D36*
X47879Y138811D03*
D21*
X57404Y138811D03*
D30*
X22733Y139573D03*
D35*
X41021Y139573D03*
D36*
X48641Y139573D03*
D21*
X57404Y139573D03*
D31*
X23114Y140335D03*
D20*
X41402Y140335D03*
D36*
X49403Y140335D03*
D32*
X58928Y140335D03*
D31*
X23114Y141097D03*
D20*
X41402Y141097D03*
D36*
X49403Y141097D03*
D20*
X59690Y141097D03*
D31*
X23114Y141859D03*
D20*
X42164Y141859D03*
D36*
X50165Y141859D03*
D20*
X59690Y141859D03*
D34*
X23114Y142621D03*
D20*
X42164Y142621D03*
D37*
X51308Y142621D03*
D35*
X60071Y142621D03*
D34*
X23114Y143383D03*
D20*
X42164Y143383D03*
D18*
X51689Y143383D03*
D35*
X60071Y143383D03*
D34*
X23114Y144145D03*
D20*
X42926Y144145D03*
D18*
X51689Y144145D03*
D35*
X60071Y144145D03*
D34*
X23114Y144907D03*
D20*
X42926Y144907D03*
D18*
X51689Y144907D03*
D35*
X60071Y144907D03*
D34*
X23114Y145669D03*
D35*
X43307Y145669D03*
D36*
X51689Y145669D03*
D35*
X60071Y145669D03*
D34*
X23114Y146431D03*
D20*
X43688Y146431D03*
X59690Y146431D03*
D31*
X23114Y147193D03*
D33*
X44069Y147193D03*
D20*
X59690Y147193D03*
D31*
X23114Y147955D03*
D33*
X44831Y147955D03*
D32*
X58928Y147955D03*
D31*
X23114Y148717D03*
D30*
X51689Y148717D03*
D29*
X23114Y149479D03*
D30*
X51689Y149479D03*
D29*
X23114Y150241D03*
X52070Y150241D03*
D27*
X23114Y151003D03*
D28*
X51689Y151003D03*
D27*
X23114Y151765D03*
X52070Y151765D03*
D26*
X23114Y152527D03*
X52070Y152527D03*
D25*
X23114Y153289D03*
X52070Y153289D03*
D24*
X23114Y154051D03*
X52070Y154051D03*
D23*
X23114Y154813D03*
D22*
X51689Y154813D03*
D21*
X23114Y155575D03*
X52070Y155575D03*
D20*
X23114Y156337D03*
X52070Y156337D03*
D19*
X23114Y157099D03*
D18*
X51689Y157099D03*
D45*
X172720Y60210D03*
X172720Y130210D03*
D46*
X325120Y46240D03*
X325120Y111240D03*
X421120Y25400D03*
X356120Y25400D03*
X421120Y132080D03*
X356120Y132080D03*
X452120Y111240D03*
X452120Y46240D03*
X421120Y78740D03*
X356120Y78740D03*
X58940Y78740D03*
X123940Y78740D03*
X710680Y78740D03*
X645680Y78740D03*
D47*
X101600Y175260D03*
M02*
