M48
;GenerationSoftware,Autodesk,EAGLE,9.6.2*%
;CreationDate,2020-09-13T16:54:12Z*%
FMAT,2
ICI,OFF
METRIC,TZ,000.000
T8C0.254
T7C0.900
T6C1.016
T5C1.100
T4C1.300
T3C1.700
T2C1.800
T1C2.500
%
G90
M71
T1
X2032Y2286
X74930Y2286
X2032Y109982
X74930Y109982
T2
X50038Y17780
X50038Y43180
X27178Y7620
X27178Y43180
T3
X17272Y6021
X17272Y13021
T4
X35612Y2540
X42112Y2540
X32512Y11124
X32512Y4624
X64568Y7874
X42112Y13208
X35612Y13208
X45212Y11124
X45212Y4624
X42112Y7874
X35612Y7874
X5894Y7874
X12394Y7874
X71068Y7874
T5
X54674Y4826
X62674Y4826
T6
X16256Y109220
X6096Y109220
X8636Y109220
X11176Y109220
T7
X56674Y4826
X58674Y4826
X60674Y4826
T8
X27674Y57429
X27178Y39370
X18567Y57353
X19698Y46316
X27178Y41645
X19050Y58420
X20320Y49530
X35560Y41910
X56896Y28194
X56261Y42037
X19050Y54150
X35560Y44450
X55372Y30988
X55499Y44577
X18968Y55134
X57150Y16586
X28448Y59690
X52070Y59690
X70180Y76342
X16459Y82702
X67945Y22987
X67310Y27178
X19812Y20320
X11938Y58166
X10414Y44196
X11938Y51816
X13462Y73660
X35179Y61214
X32766Y78232
X19050Y90030
X19572Y89241
X32766Y76200
X33782Y75184
X41620Y83022
X31750Y80543
X37592Y80518
X20080Y84596
X36322Y68326
X36855Y58513
X36576Y26670
X10668Y66040
X8103Y66802
X33695Y45887
X35814Y52070
X52324Y52832
X53340Y54610
X381Y89408
X54102Y10414
X69850Y30988
X50165Y13220
X68199Y105537
X70866Y23876
X29210Y58208
X48895Y62992
X23709Y62143
X15748Y81026
X22479Y61595
X15240Y80518
X10160Y17526
X27178Y16510
X36576Y24130
X37516Y58538
X37592Y68326
X20777Y84836
X40132Y32042
X38176Y58538
X38862Y63246
X20106Y83888
X35052Y58928
X41148Y35560
X33020Y58674
X30353Y56007
X62738Y82423
X64516Y74422
X11176Y3556
X50800Y62992
X28702Y49276
X61722Y106680
X18542Y11430
X4572Y18237
X45720Y43180
X67056Y4826
X16510Y81534
X64389Y78486
X18033Y51816
M30